<svg xmlns="http://www.w3.org/2000/svg" width="101.031" height="57.324" viewBox="0 0 101.031 57.324"><defs><style>.a{fill:#f2f2f2;}.b{fill:#2f2e41;}.c,.j{fill:#6c63ff;}.d{fill:none;stroke:#3f3d56;stroke-miterlimit:10;}.e{opacity:0.1;}.f{fill:#3f3d56;}.g{fill:#fbbebe;}.h{fill:#57b894;}.i{fill:#fff;}.j{opacity:0.3;}</style></defs><g transform="translate(0.447)"><ellipse class="a" cx="49.073" cy="3.426" rx="49.073" ry="3.426" transform="translate(1.29 50.471)"/><path class="b" d="M450.316,324.894c-8.433,0-14.487,5.41-14.487,18.034,0,14.307,6.055,18.094,14.487,18.094s14.848-4.148,14.848-18.094C465.164,328.02,458.749,324.894,450.316,324.894Zm.055,31.379c-5.841,0-8.892-3.427-8.892-13.336,0-8.744,3.176-13.355,9.017-13.355s9.017,3.029,9.017,13.355c0,9.66-3.3,13.336-9.142,13.336Z" transform="translate(-401.835 -308.507)"/><path class="c" d="M144.008,364.092h-3.487V353.825a2.056,2.056,0,0,0-2.056-2.056h-.817a2.056,2.056,0,0,0-2.056,2.056v10.267h-9.834a1.174,1.174,0,0,1-1.038-1.722l10.409-19.7a2.056,2.056,0,0,0-.94-2.82l-.614-.29a2.056,2.056,0,0,0-2.691.89L118.187,364.2a2.788,2.788,0,0,0-.329,1.314h0a2.788,2.788,0,0,0,2.788,2.788h14.945v6.492a2.465,2.465,0,0,0,2.465,2.465h0a2.465,2.465,0,0,0,2.465-2.465V368.3h3.487a2.1,2.1,0,0,0,2.1-2.1h0a2.1,2.1,0,0,0-2.1-2.1Z" transform="translate(-112.48 -321.556)"/><path class="c" d="M802,364.092h-3.487V353.825a2.056,2.056,0,0,0-2.056-2.056h-.817a2.056,2.056,0,0,0-2.056,2.056v10.267h-9.835a1.174,1.174,0,0,1-1.038-1.722l10.409-19.7a2.056,2.056,0,0,0-.94-2.82l-.614-.29a2.056,2.056,0,0,0-2.691.89L776.184,364.2a2.788,2.788,0,0,0-.329,1.314h0a2.788,2.788,0,0,0,2.788,2.788h14.945v6.492a2.465,2.465,0,0,0,2.465,2.465h0a2.465,2.465,0,0,0,2.465-2.465V368.3H802a2.1,2.1,0,0,0,2.1-2.1h0a2.1,2.1,0,0,0-2.1-2.1Z" transform="translate(-711.285 -321.556)"/><path class="d" d="M153.811,351.839h-3.487V341.572a2.056,2.056,0,0,0-2.056-2.056h-.817a2.056,2.056,0,0,0-2.056,2.056v10.267H135.56a1.174,1.174,0,0,1-1.038-1.722l10.409-19.7a2.056,2.056,0,0,0-.94-2.82l-.614-.29a2.056,2.056,0,0,0-2.691.89L127.99,351.945a2.788,2.788,0,0,0-.329,1.314h0a2.788,2.788,0,0,0,2.788,2.788h14.945v6.492A2.465,2.465,0,0,0,147.859,365h0a2.465,2.465,0,0,0,2.465-2.465v-6.492h3.487a2.1,2.1,0,0,0,2.1-2.1h0a2.1,2.1,0,0,0-2.1-2.1Z" transform="translate(-121.321 -310.505)"/><path class="d" d="M820.384,351.839H816.9V341.572a2.056,2.056,0,0,0-2.056-2.056h-.817a2.056,2.056,0,0,0-2.056,2.056v10.267h-9.835a1.174,1.174,0,0,1-1.038-1.722l10.409-19.7a2.056,2.056,0,0,0-.94-2.82l-.615-.29a2.056,2.056,0,0,0-2.691.89l-12.695,23.748a2.789,2.789,0,0,0-.329,1.314h0a2.788,2.788,0,0,0,2.788,2.788h14.945v6.492A2.465,2.465,0,0,0,814.432,365h0a2.465,2.465,0,0,0,2.465-2.465v-6.492h3.487a2.1,2.1,0,0,0,2.1-2.1h0a2.1,2.1,0,0,0-2.1-2.1Z" transform="translate(-727.861 -310.505)"/><path class="d" d="M469.921,313.866c-8.433,0-14.487,5.41-14.487,18.034,0,14.307,6.055,18.094,14.487,18.094s14.848-4.148,14.848-18.094C484.77,316.992,478.354,313.866,469.921,313.866Zm.055,31.379c-5.841,0-8.892-3.427-8.892-13.336,0-8.744,3.176-13.355,9.017-13.355s9.017,3.029,9.017,13.355c0,9.66-3.3,13.336-9.142,13.336Z" transform="translate(-419.652 -298.561)"/><circle class="b" cx="1.266" cy="1.266" r="1.266" transform="translate(42.615 0.525)"/><ellipse class="b" cx="3.551" cy="4.6" rx="3.551" ry="4.6" transform="translate(43.265 0)"/><path class="e" d="M533.025,201.595c-1.779,0-3.252-1.695-3.51-3.906a5.991,5.991,0,0,0-.04.695c0,2.541,1.59,4.6,3.551,4.6s3.551-2.06,3.551-4.6a5.978,5.978,0,0,0-.04-.695C536.277,199.9,534.8,201.595,533.025,201.595Z" transform="translate(-486.21 -193.784)"/><path class="f" d="M589.912,330.338a1.318,1.318,0,0,1-.769.74,6.8,6.8,0,0,1-2.626.516,4.433,4.433,0,0,1-.7-.013,2.015,2.015,0,0,1-1.2-.553.165.165,0,0,1,0-.279,4.616,4.616,0,0,1,2.121-1.1,8.119,8.119,0,0,1,2.383-.581C589.779,329.127,590.008,329.942,589.912,330.338Z" transform="translate(-536.119 -312.265)"/><path class="e" d="M589.912,330.338a1.318,1.318,0,0,1-.769.74,6.8,6.8,0,0,1-2.626.516,4.433,4.433,0,0,1-.7-.013,2.015,2.015,0,0,1-1.2-.553.165.165,0,0,1,0-.279,4.616,4.616,0,0,1,2.121-1.1,8.119,8.119,0,0,1,2.383-.581C589.779,329.127,590.008,329.942,589.912,330.338Z" transform="translate(-536.119 -312.265)"/><path class="f" d="M538.15,271.174a1.94,1.94,0,0,0-.118,1.479,2.584,2.584,0,0,0,.866,1.226,5.628,5.628,0,0,0,3.623.892,27.923,27.923,0,0,0,3.327-.228,3.977,3.977,0,0,0,1.079-.251,1.655,1.655,0,0,0,.926-.935,1.139,1.139,0,0,0-.307-1.234,1.932,1.932,0,0,0-1.128-.308l-2.265-.136a3.842,3.842,0,0,1,.794-.519,3.582,3.582,0,0,0,.865-.916,12.659,12.659,0,0,1,1.319-1.356,1.947,1.947,0,0,0,.656,1.062c.315.292.678.527,1.005.8.793.673,1.363,1.586,2.2,2.208a4.3,4.3,0,0,0,1.575-.786l-.324-.587a.387.387,0,0,0-.122-.152c-.092-.056-.21-.027-.316-.043-.285-.043-.409-.371-.521-.637a8.241,8.241,0,0,0-1.4-1.9,9.613,9.613,0,0,1-.981-1.445,4.944,4.944,0,0,0-.551-.883,1.243,1.243,0,0,0-.9-.469,1.727,1.727,0,0,0-.855.312,22.616,22.616,0,0,0-2.319,1.58,5.364,5.364,0,0,1-1.225.8c-.191.078-.393.131-.576.225a3.849,3.849,0,0,0-.827.693A5.5,5.5,0,0,1,538.15,271.174Z" transform="translate(-494.1 -255.443)"/><path class="g" d="M561.573,216.945a2.335,2.335,0,0,1-.17.788.986.986,0,0,1-.566.547,1.214,1.214,0,0,1-.552.018,1.067,1.067,0,0,1-.45-.153.958.958,0,0,1-.357-.662c-.039-.255-.021-.515-.046-.772a4.213,4.213,0,0,0-.118-.614l-.05-.2c-.016-.067-.032-.133-.047-.2s-.026-.126-.037-.189-.017-.107-.023-.161a1.809,1.809,0,0,0-.079-.472,1.434,1.434,0,0,0-.165-.28c-.028-.04-.055-.08-.08-.122a.578.578,0,0,1-.1-.368.321.321,0,0,1,.014-.059c0-.007.005-.015.008-.022a.177.177,0,0,0,.121-.113.337.337,0,0,0-.014-.174,1.113,1.113,0,0,0-.094-.224c-.026-.047-.114-.132-.115-.185,0-.108.21-.2.3-.238a1.648,1.648,0,0,1,.844-.171.622.622,0,0,1,.492.227,1.487,1.487,0,0,1,.12.488.144.144,0,0,0,.029.065.132.132,0,0,0,.073.033.446.446,0,0,0,.139.006h0l.036-.005a.486.486,0,0,0,.2-.086q.057-.015.116-.025h0c.155.488.175,1.011.3,1.509a3.87,3.87,0,0,1,.165.746c0,.011,0,.023,0,.034,0,.082,0,.164,0,.246a.692.692,0,0,0,.012.109,1.534,1.534,0,0,0,.052.171v0c.006.018.011.036.016.054s.006.026.009.04h0A1.469,1.469,0,0,1,561.573,216.945Z" transform="translate(-512.577 -207.516)"/><circle class="g" cx="1.822" cy="1.822" r="1.822" transform="translate(45.046 2.593)"/><path class="g" d="M587.025,228.2a2.988,2.988,0,0,0-.514-1.384l.142.843a.315.315,0,0,1-.33-.1,1.015,1.015,0,0,1-.173-.321,6.619,6.619,0,0,0-.805-1.446,8.6,8.6,0,0,1-3.326-1.138c-1.02-.56-1.975-1.232-2.981-1.815a4.276,4.276,0,0,0-.544-.278c-.315-.126-.668-.192-.967-.34l-.06-.031a1.232,1.232,0,0,1-.191-.128,1,1,0,0,1-.091-.084,2,2,0,0,1-.349-.584c-.16-.354-.217-.782-.377-1.136a1.1,1.1,0,0,1,.245-.173h0l.039-.019a1.172,1.172,0,0,1,.2-.072q.057-.015.116-.025h0a1.135,1.135,0,0,1,.539.043,2.492,2.492,0,0,1,.681.419,11.2,11.2,0,0,1,1,.79c.176.169.336.354.526.507a4.136,4.136,0,0,0,.5.329l3.073,1.83c.347.207.694.413,1.033.632.515.332,1.011.692,1.508,1.052l.877.636a.954.954,0,0,1,.249.23.831.831,0,0,1,.11.337A3.079,3.079,0,0,1,587.025,228.2Z" transform="translate(-528.94 -213.857)"/><path class="c" d="M539.87,224.8c-.123.551-.68.884-.971,1.368a2.725,2.725,0,0,0-.078,1.987l-.745.642c-.137.118-.274.236-.422.34a5.631,5.631,0,0,1-.673.387l-.659.339a3.151,3.151,0,0,1-.646.274,2.488,2.488,0,0,1-1.322-.1.6.6,0,0,1-.145-.059.234.234,0,0,1-.068-.062.384.384,0,0,1-.044-.249,11.717,11.717,0,0,1,.4-2.128,6.275,6.275,0,0,1,.909-2.23,6.708,6.708,0,0,1,.778-1.13,1.814,1.814,0,0,0,.361-.465,2.492,2.492,0,0,0,.09-.809,1.684,1.684,0,0,1,.16-.589h0a1.682,1.682,0,0,1,.171-.283l.09.209.059.137.075.175.216.5a2.118,2.118,0,0,0,.327.583.638.638,0,0,0,1.091-.084,2.088,2.088,0,0,0,.223-.59,1.885,1.885,0,0,0,.025-.769,9.09,9.09,0,0,0-.435-1.45,1.466,1.466,0,0,1-.106-.478.326.326,0,0,1,.006-.055l0-.014a1.171,1.171,0,0,1,.2-.072q.057-.015.116-.025.2,1.086.4,2.171l.01.051c.019.1.039.207.06.311s.04.187.064.28v0c.008.031.016.063.025.094h0c.024.085.05.17.08.253A2.873,2.873,0,0,1,539.87,224.8Z" transform="translate(-490.367 -214.001)"/><path class="f" d="M668.312,330.892a.646.646,0,0,0,.06.308.739.739,0,0,0,.624.275,18.482,18.482,0,0,0,4.147-.126.479.479,0,0,0,.211-.065c.2-.137.075-.471-.138-.577a2.677,2.677,0,0,0-.7-.127,2.206,2.206,0,0,1-.655-.284q-.712-.409-1.4-.852a1.113,1.113,0,0,0-.907-.26A1.618,1.618,0,0,0,668.312,330.892Z" transform="translate(-612.105 -312.348)"/><path class="g" d="M511.584,226.39h0c0,.013,0,.026-.007.038s-.007.042-.011.063c-.038.2-.085.391-.139.585-.148.536-.347,1.063-.544,1.582l-1.586,4.178c-.133.351-.266.7-.418,1.045l-.155.347a4.825,4.825,0,0,0-.424,1.294,2.7,2.7,0,0,0-.019.887.91.91,0,0,0,.513.684c.135.053.329.123.292.264-.02.077-.108.115-.186.128a.718.718,0,0,1-.585-.169c-.148-.131-.262-.335-.458-.357a.775.775,0,0,0-.386.124,2.337,2.337,0,0,1-1.636-.1.574.574,0,0,1,.475-.4,3.845,3.845,0,0,1,.659-.019.344.344,0,0,0,.2-.052.363.363,0,0,0,.108-.185,7.752,7.752,0,0,0,.315-1.29c.071-.458.1-.923.2-1.375.079-.353.2-.695.3-1.041a22.051,22.051,0,0,0,.5-2.166,7.651,7.651,0,0,0,.14-.919c.018-.256.009-.514.034-.769a5.975,5.975,0,0,1,.207-.981l.283-1.049a3.527,3.527,0,0,1,.644-1.456,1.37,1.37,0,0,1,.984-.47.97.97,0,0,1,.209.023l.034.009a.847.847,0,0,1,.213.088c.109-.069.165-.045.237.062a.684.684,0,0,1,.086.372A5.145,5.145,0,0,1,511.584,226.39Z" transform="translate(-464.732 -218.247)"/><path class="c" d="M558.155,226.464l0,0-.025.025-.248.248-.122-.511-.417-1.752a.97.97,0,0,1,.209.023.322.322,0,0,1,.014-.059l.02.068.141.481.268.913.044.15h0Z" transform="translate(-511.33 -217.911)"/><path class="b" d="M545.385,176.738a1.235,1.235,0,0,1-.363.873,1.208,1.208,0,0,1-.133.115,1.229,1.229,0,0,1-.739.248h-1.481a1.235,1.235,0,0,1,0-2.471h1.481A1.239,1.239,0,0,1,545.385,176.738Z" transform="translate(-496.979 -173.774)"/><circle class="b" cx="1.266" cy="1.266" r="1.266" transform="translate(48.35 0.525)"/><path class="e" d="M595.128,163.234h-.046a1.266,1.266,0,0,1,0,2.529h.046a1.266,1.266,0,1,0,0-2.532Z" transform="translate(-545.573 -162.709)"/><path class="e" d="M522.56,163.234h.046a1.266,1.266,0,0,0,0,2.529h-.046a1.266,1.266,0,1,1,0-2.532Z" transform="translate(-478.651 -162.709)"/><path class="e" d="M549.447,198.159a1.229,1.229,0,0,1-.739.248h-1.481a1.229,1.229,0,0,1-.739-.248Z" transform="translate(-501.54 -194.207)"/><path class="g" d="M674.14,286.794s.319.92.611.675l-.233-1.2Z" transform="translate(-617.254 -273.67)"/><path class="h" d="M1057.556,541.022a2.042,2.042,0,1,0,.272-3.917l.051,1.051-.5-.9a2.035,2.035,0,0,0-1.048,1.15,2,2,0,0,0-.117.552A2.042,2.042,0,0,0,1057.556,541.022Z" transform="translate(-964.133 -499.856)"/><path class="d" d="M1091.464,537.08c-.176-.894.585-1.686,1.336-2.2s1.629-1.021,1.886-1.9c.368-1.256-.729-2.407-1.583-3.4a12.293,12.293,0,0,1-1.621-2.41,3.316,3.316,0,0,1-.388-1.1,3.782,3.782,0,0,1,.292-1.642q.9-2.654,1.926-5.264" transform="translate(-995.579 -483.723)"/><path class="d" d="M1058.406,538.264a2.042,2.042,0,1,0,.272-3.916l.051,1.051-.5-.9a2.034,2.034,0,0,0-1.048,1.15,2,2,0,0,0-.118.552A2.042,2.042,0,0,0,1058.406,538.264Z" transform="translate(-964.899 -497.368)"/><path class="h" d="M1091.323,503.109a2.04,2.04,0,0,1,1.47-1.295l.168,1,.312-1.049a2.042,2.042,0,1,1-1.95,1.345Z" transform="translate(-995.689 -468.022)"/><path class="d" d="M1092.463,499.431a2.04,2.04,0,0,1,1.47-1.295l.168,1,.312-1.049a2.042,2.042,0,1,1-1.95,1.345Z" transform="translate(-996.717 -464.705)"/><path class="h" d="M1095.666,589.071a2.042,2.042,0,0,0,1.807-3.633l-.24.807-.17-1.011-.005,0a2.042,2.042,0,0,0-1.393,3.839Z" transform="translate(-998.502 -543.19)"/><path class="d" d="M1096.666,585.346a2.042,2.042,0,0,0,1.807-3.633l-.24.806-.17-1.011-.005,0a2.042,2.042,0,0,0-1.393,3.839Z" transform="translate(-999.404 -539.83)"/><path class="h" d="M1086.092,638.042a2.041,2.041,0,1,0,.393-1.6l.91,1.369-1.243-.727A2.022,2.022,0,0,0,1086.092,638.042Z" transform="translate(-991.053 -588.77)"/><path class="d" d="M1086.942,635.285a2.041,2.041,0,1,0,.394-1.6l.91,1.369-1.243-.727A2.024,2.024,0,0,0,1086.942,635.285Z" transform="translate(-991.819 -586.283)"/><path class="h" d="M63.938,604.209a1.342,1.342,0,1,0,.179-2.573l.034.691-.327-.592a1.337,1.337,0,0,0-.689.756,1.315,1.315,0,0,0-.077.363A1.341,1.341,0,0,0,63.938,604.209Z" transform="translate(-63.054 -558.069)"/><path class="d" d="M86.214,601.62c-.115-.587.384-1.108.878-1.446s1.07-.671,1.239-1.245c.242-.825-.479-1.581-1.04-2.233a8.076,8.076,0,0,1-1.065-1.583,2.179,2.179,0,0,1-.255-.72,2.484,2.484,0,0,1,.192-1.079q.592-1.744,1.265-3.459" transform="translate(-83.714 -547.47)"/><path class="d" d="M64.5,602.4a1.342,1.342,0,1,0,.179-2.573l.034.691-.327-.592a1.337,1.337,0,0,0-.689.756,1.317,1.317,0,0,0-.077.363A1.341,1.341,0,0,0,64.5,602.4Z" transform="translate(-63.562 -556.435)"/><path class="h" d="M86.126,579.3a1.34,1.34,0,0,1,.966-.851l.11.657.2-.69a1.342,1.342,0,1,1-1.281.884Z" transform="translate(-83.789 -537.153)"/><path class="d" d="M86.877,576.884a1.34,1.34,0,0,1,.966-.851l.11.656.2-.689a1.342,1.342,0,1,1-1.281.884Z" transform="translate(-84.467 -534.975)"/><path class="h" d="M88.982,635.778a1.342,1.342,0,0,0,1.187-2.387l-.157.53-.112-.664h0a1.342,1.342,0,1,0-.915,2.522Z" transform="translate(-85.64 -586.54)"/><path class="d" d="M89.632,633.331a1.342,1.342,0,0,0,1.187-2.387l-.157.53-.112-.664h0a1.342,1.342,0,1,0-.915,2.522Z" transform="translate(-86.226 -584.333)"/><path class="h" d="M82.687,667.954a1.341,1.341,0,1,0,.259-1.051l.6.9-.817-.478A1.329,1.329,0,0,0,82.687,667.954Z" transform="translate(-80.741 -616.487)"/><path class="d" d="M83.25,666.142a1.341,1.341,0,1,0,.259-1.051l.6.9-.817-.478A1.329,1.329,0,0,0,83.25,666.142Z" transform="translate(-81.249 -614.853)"/><ellipse class="b" cx="1.668" cy="2.159" rx="1.668" ry="2.159" transform="translate(43.127 29.153)"/><ellipse class="b" cx="1.668" cy="2.159" rx="1.668" ry="2.159" transform="translate(51.725 29.202)"/><path class="b" d="M567.583,526.266c0,.975-1.362,1.766-3.042,1.766s-3.042-.791-3.042-1.766c0-.845,1.021-1.551,2.386-1.724a4.915,4.915,0,0,1,.656-.042,4.971,4.971,0,0,1,1.092.118C566.774,524.872,567.583,525.514,567.583,526.266Z" transform="translate(-515.237 -488.528)"/><ellipse class="d" cx="1.668" cy="2.159" rx="1.668" ry="2.159" transform="translate(43.499 28.662)"/><ellipse class="d" cx="1.668" cy="2.159" rx="1.668" ry="2.159" transform="translate(52.097 28.711)"/><ellipse class="d" cx="3.042" cy="1.766" rx="3.042" ry="1.766" transform="translate(46.634 35.482)"/><path class="i" d="M586.862,524.314a.485.485,0,0,1-.13.333.426.426,0,0,1-.312.138h-.981a.458.458,0,0,1-.442-.471.481.481,0,0,1,.08-.269,4.625,4.625,0,0,1,.655-.045,4.683,4.683,0,0,1,1.092.126A.5.5,0,0,1,586.862,524.314Z" transform="translate(-536.442 -488.077)"/><circle class="i" cx="0.491" cy="0.491" r="0.491" transform="translate(44.67 29.742)"/><circle class="i" cx="0.491" cy="0.491" r="0.491" transform="translate(53.326 29.742)"/><circle class="j" cx="0.491" cy="0.491" r="0.491" transform="translate(53.791 34.353)"/><circle class="j" cx="0.491" cy="0.491" r="0.491" transform="translate(42.436 34.353)"/></g></svg>