<svg xmlns="http://www.w3.org/2000/svg" width="100" height="70" viewBox="0 0 100 70"><defs><style>.a{fill:#f2f2f2;}.b{fill:#3f3d56;}.c,.d,.e{fill:#00bfa6;}.c{opacity:0.3;}.e{opacity:0.4;}.f{fill:#2f2e41;}.g{fill:#ffb8b8;}.h{fill:#d0cde1;}</style></defs><path class="a" d="M18.811,0,10.978,15.278h1.581V27.736H4.591L0,36.69,56.883,65.854l18.811-36.69Z"/><rect class="b" width="68.753" height="43.753" transform="translate(17.157 9.938)"/><rect class="c" width="64.368" height="0.148" transform="translate(19.364 18.707)"/><rect class="c" width="64.368" height="0.148" transform="translate(19.412 21.41)"/><rect class="c" width="64.368" height="0.148" transform="translate(19.412 26.817)"/><rect class="c" width="64.368" height="0.148" transform="translate(19.412 29.196)"/><rect class="c" width="64.368" height="0.148" transform="translate(19.412 24.114)"/><ellipse class="b" cx="27.586" cy="2.521" rx="27.586" ry="2.521" transform="translate(38.005 64.957)"/><path class="d" d="M209.547,183.547l-.2-.215,9.581-9.132,8.446,6.075,6.83-7.572,2.995,2.546,8.147-4.888,9.049,6.082,14.2-8.079.147.258-14.362,8.169-9.045-6.08-8.168,4.9-2.938-2.5-6.815,7.556-8.462-6.087Z" transform="translate(-187.996 -151.418)"/><path class="b" d="M596.207,692.718a8.282,8.282,0,0,0,3.085,4.173,7.131,7.131,0,0,0-2.524-9.331A8.282,8.282,0,0,0,596.207,692.718Z" transform="translate(-546.823 -630.306)"/><path class="d" d="M576.871,707.016a8.282,8.282,0,0,1,2.146,4.724A7.131,7.131,0,0,1,572.091,705,8.283,8.283,0,0,1,576.871,707.016Z" transform="translate(-526.118 -645.158)"/><circle class="e" cx="4.969" cy="4.969" r="4.969" transform="translate(90.063 2.968)"/><circle class="e" cx="3.485" cy="3.485" r="3.485" transform="translate(82.351 6.824)"/><circle class="e" cx="1.854" cy="1.854" r="1.854" transform="translate(79.681 52.011)"/><circle class="e" cx="1.409" cy="1.409" r="1.409" transform="translate(56.299 56.503)"/><circle class="e" cx="1.854" cy="1.854" r="1.854" transform="translate(51.86 45.51)"/><circle class="d" cx="1.928" cy="1.928" r="1.928" transform="translate(74.058 17.096)"/><path class="f" d="M713.133,534.543l-1.634.182a21.99,21.99,0,0,0,0,7.628c.726,4.359,1.634,8.717,1.634,8.717s.726,14.166,1.09,14.347,3.632,1.271,3.814.182.182-25.97.182-25.97l2.543,11.986s.363,15.074,1.09,15.074,3.087-.182,3.087-1.453.545-17.98.545-17.98-.182-12.35-.908-12.713S713.133,534.543,713.133,534.543Z" transform="translate(-648.876 -499.847)"/><path class="f" d="M719.844,739.5a7.225,7.225,0,0,0-2,0,1.454,1.454,0,0,0,0,2.179,10.994,10.994,0,0,0,4,1.816,3.757,3.757,0,0,0,1.453-.363l-.363-3.087Z" transform="translate(-653.287 -674.473)"/><path class="f" d="M783.149,738.571l.182,2.542s2.361.363,2.543,0,2-1.271,2.179-1.453.363-2.179-.726-2.361-1.453.363-1.453.363Z" transform="translate(-710.816 -672.638)"/><path class="g" d="M658.12,432.612s-4.359,4.177-3.814,6.356,4.9,8.536,4.9,8.536,4.177,2.179,4.722,0-2.906-1.635-2.906-1.635l-2.724-6.538,3.087-4.359Z" transform="translate(-598.403 -401.925)"/><path class="g" d="M799.227,307.781s3.971-2.553,3.879-4.307-2.486-7.285-2.486-7.285-1.872-3.893-2.617-2.3.978,3.285.978,3.285l1.112,5.426-3.022,2.883Z" transform="translate(-723.137 -276.607)"/><circle class="g" cx="3.269" cy="3.269" r="3.269" transform="translate(64.714 20.492)"/><path class="g" d="M734.169,350.1l.545,3.451,4-.726s-.182-3.451-.182-3.814S734.169,350.1,734.169,350.1Z" transform="translate(-667.862 -325.335)"/><path class="h" d="M704.787,375.361s4.54-1.09,5.085-.726a15.563,15.563,0,0,0,3.269.726l3.087,4.722-.908,5.993s-.182,9.625.182,11.26,2.361,1.816-1.816,2.179-4.9-.182-7.809.545-5.267-.363-4.54-1.09,2-12.35.545-13.439-2-6.72-2-6.72S704.787,376.269,704.787,375.361Z" transform="translate(-639.233 -351.37)"/><path class="h" d="M785.6,374.246l.545-.545,1.09-1.09s3.541,1.544,3.36,2.089-1.362,3.723-1.362,3.723l-1.634.545Z" transform="translate(-712.956 -346.685)"/><path class="h" d="M680.162,403.587l-2.179-.363s-1.634,1.816-2.179,2.543-1.634,2.543-1.634,2.543l3.814,2.724,2.906-3.087Z" transform="translate(-615.54 -374.268)"/><path class="f" d="M723,311.672l-.033-.262a2.058,2.058,0,0,0-.654.1,1.075,1.075,0,0,1,.04-.471,2.092,2.092,0,0,0-.606.263l-.132-.478-1.815.895a3.828,3.828,0,0,0-1.711,1.3,2.755,2.755,0,0,0-.059,2.348,19.072,19.072,0,0,0,1.134,2.146,5.366,5.366,0,0,0,.515.877,2.45,2.45,0,0,0,2.985.511,1.728,1.728,0,0,0,.827-.851,5.538,5.538,0,0,0,.165-.705c.12-.488.258-1.5.655-1.8.174-.136.52.315.665.147a1.547,1.547,0,0,0,.063-1.613,11.776,11.776,0,0,0-.775-1.511A7.172,7.172,0,0,0,723,311.672Z" transform="translate(-653.848 -291.591)"/><rect class="b" width="9.492" height="9.492" transform="translate(1.881 11.936)"/></svg>