<svg xmlns="http://www.w3.org/2000/svg" width="166.475" height="125.071" viewBox="0 0 166.475 125.071"><defs><style>.a{fill:#e6e6e6;}.b{fill:#3f3d56;}.c{fill:#fff;}.d{fill:#a0616a;}.e{fill:#2f2e41;}.f{fill:#00bfa6;}</style></defs><g transform="translate(0 0)"><path class="a" d="M245.165,737.918c0,1.911-17.5,2.115-39.033,3.461-21.515,1.345-39.033-1.55-39.033-3.461s17.6-5.758,39.033-3.461C227.667,736.764,245.165,736.007,245.165,737.918Z" transform="translate(-167.099 -616.653)"/><path class="b" d="M667.47,124.769H621.2a9.835,9.835,0,0,0-9.594,7.672l-23.377,103.69a7.949,7.949,0,0,0,7.363,9.687l47.561,2.343a10.5,10.5,0,0,0,10.85-8.619l13.261-73.31.986.282,2.537-13.9-1.016-.254,3.7-20.464a6.055,6.055,0,0,0-6.009-7.133Z" transform="translate(-507.1 -124.769)"/><path class="c" d="M646.955,136.395h-5.4a6.8,6.8,0,0,0-6.641,5.348L612.475,244.587a4.212,4.212,0,0,0,3.839,5.1l47.407,3.107a5.454,5.454,0,0,0,5.725-4.476l19.147-106.3a4.778,4.778,0,0,0-4.7-5.624h-5.123a2.255,2.255,0,0,0-2.177,1.668h0a1.99,1.99,0,0,1-1.922,1.473H650.348a3.4,3.4,0,0,1-3.392-3.142Z" transform="translate(-526.76 -134.159)"/><path class="d" d="M528.288,401.006l4.18,8.275,12.5,5.682c1.335,2.256,5.576,2.428,5.884.97.346-1.636-5.15-4.27-5.15-4.27l-10.454-7.071-.915-6.087Z" transform="translate(-458.839 -345.871)"/><path class="d" d="M360.515,575.559l-.771,6.167,4.471.308.462-6.475Z" transform="translate(-290.572 -464.891)"/><path class="e" d="M522.3,715.254a12.117,12.117,0,0,1-1.1-1.349c-.641-.887-1.209,3.662-1.209,3.662a8.253,8.253,0,0,0-.463,2.775c.154.925,3.7.925,4.317.771a29.169,29.169,0,0,1,3.7,0h4.625c4.008-1.85,0-3.083,0-3.083-1.233-.154-5.4-4.009-5.4-4.009l-.925-1.7c-.617-.154-1.233,2.158-1.233,2.158Z" transform="translate(-451.739 -599.343)"/><path class="d" d="M300.378,575.96l-.771,6.167,4.471.308.463-6.475Z" transform="translate(-241.999 -465.215)"/><path class="e" d="M462.161,715.655a12.122,12.122,0,0,1-1.1-1.349c-.641-.887-1.209,3.662-1.209,3.662a7.15,7.15,0,0,0-.463,2.621c.154.925,3.7.925,4.317.771a25.1,25.1,0,0,1,3.7.154h4.625c4.009-1.85,0-3.083,0-3.083-1.233-.154-5.4-4.009-5.4-4.009l-.925-1.7c-.617-.154-1.233,2.158-1.233,2.158Z" transform="translate(-403.165 -599.667)"/><path class="e" d="M471.918,492.42c-.617.771-.308,3.392-.308,3.392s-1.079,8.48-.617,9.251-.308,1.388-.771,2.467a24.631,24.631,0,0,0-.925,3.7c-2.621,2.158-2.467,12.026-2.467,12.026l-.925,8.788c.308.925,4.625,1.079,5.242.925s2.467-14.03,2.467-14.03l4.163-7.863s-.308,20.968-.308,21.893,4.163.462,5.088.462.925-15.417.925-15.417l.925-4.009,4.934-18.347V493.5l-.771-1.079S472.534,491.649,471.918,492.42Z" transform="translate(-408.451 -421.451)"/><circle class="d" cx="4.779" cy="4.779" r="4.779" transform="translate(65.471 26.412)"/><path class="d" d="M518.33,298.615c-.969,2.157-.4,5.17,1.542,8.48l-7.863-3.7,1.233-1.079-.308-3.083Z" transform="translate(-445.69 -265.188)"/><path class="f" d="M493.72,319.092a4.933,4.933,0,0,1,2,2.881,27.3,27.3,0,0,1,1.173,6.524l.373,6.629,4.625,17.576c-4.009,3.392-6.321,2.621-11.717-.154s-6.013.925-6.013.925-.463-.154,0-.617,0,0-.463-.463,0,0,.154-.463,0-.154-.154-.308.617-1.542.617-1.542l-1.233-11.563-1.542-16.342c1.85-2.313,7.092-4.317,7.092-4.317l4.779,3.392c1.542.617.308-1.85.308-1.85Z" transform="translate(-421.08 -280.732)"/><path class="d" d="M465.719,391.226l-.617,9.25,7.863,11.255c0,2.621,1.388,3.238,1.388,3.238a20.381,20.381,0,0,0,1.388-2.621,2.993,2.993,0,0,0-.463-3.083l-5.4-11.409,2.313-5.7Z" transform="translate(-407.803 -339.992)"/><path class="f" d="M468.989,339.375c-2.621.925-3.083,10.946-3.083,10.946,3.083-1.7,6.784,1.079,6.784,1.079s.771-2.621,1.7-6.013a5.892,5.892,0,0,0-1.233-5.55A4.2,4.2,0,0,0,468.989,339.375Z" transform="translate(-408.451 -297.854)"/><path class="e" d="M506.53,260.547c.608-.487,1.438.4,1.438.4l.487-4.381a17.367,17.367,0,0,0,4.989-.122c1.947-.487,2.251,1.764,2.251,1.764a15.618,15.618,0,0,0,.061-2.738c-.122-1.1-1.7-2.19-4.5-2.921S507,254.982,507,254.982C505.049,255.956,505.922,261.034,506.53,260.547Z" transform="translate(-440.674 -227.891)"/><path class="a" d="M719.436,261.659a.389.389,0,0,0,.4-.315l10.63-57.86a.385.385,0,0,0-.374-.454l-48.363-.563h0a.386.386,0,0,0-.375.3l-12.532,55.982a.384.384,0,0,0,.357.468Z" transform="translate(-572.338 -187.527)"/><path class="a" d="M710.546,529.535a.192.192,0,0,0-.187.149l-.447,1.914a.192.192,0,0,0,.174.235l25.233,1.793a.194.194,0,0,0,.2-.155l.43-2.215a.192.192,0,0,0-.177-.228l-25.216-1.493Z" transform="translate(-605.536 -451.707)"/><path class="a" d="M736.469,567.4a.193.193,0,0,0,.2-.146l.547-2.22a.192.192,0,0,0-.173-.238l-32.223-2.254a.19.19,0,0,0-.2.137l-.568,1.918a.192.192,0,0,0,.169.246Z" transform="translate(-600.803 -478.37)"/><path class="a" d="M727.469,604.4a.192.192,0,0,0,.2-.146l.547-2.219a.193.193,0,0,0-.174-.238l-32.223-2.254a.19.19,0,0,0-.2.137l-.568,1.918a.192.192,0,0,0,.169.246Z" transform="translate(-593.533 -508.256)"/><path class="f" d="M703.336,660.252a.19.19,0,0,0,.2-.145l1.156-4.625a.192.192,0,0,0-.17-.238l-19.789-1.664a.2.2,0,0,0-.2.15l-.986,4.438a.193.193,0,0,0,.17.233Z" transform="translate(-584.241 -551.9)"/></g></svg>