<svg xmlns="http://www.w3.org/2000/svg" width="101.019" height="70.994" viewBox="0 0 101.019 70.994"><defs><style>.a{fill:none;stroke:#3f3d56;stroke-miterlimit:10;}.b{fill:#00bfa6;}.c{fill:#57b894;}.d{fill:#f2f2f2;}.e{fill:#3f3d56;}.f{fill:#fbbebe;}.g,.j{opacity:0.1;}.h{fill:#55536e;}.i{fill:#4b4b5b;}</style></defs><g transform="translate(0.008)"><rect class="a" width="43.074" height="8.863" transform="translate(41.535 11.796)"/><path class="a" d="M250.224,341.714a7.341,7.341,0,0,1,6.221-3.214c3.947,0,7.147,2.837,7.147,6.337a6.2,6.2,0,0,1-3.283,5.332" transform="translate(-231.316 -314.834)"/><rect class="b" width="43.074" height="8.863" transform="translate(38.779 13.919)"/><circle class="b" cx="0.667" cy="0.667" r="0.667" transform="translate(14.954 1.548)"/><circle class="b" cx="0.667" cy="0.667" r="0.667" transform="translate(17.241 1.548)"/><circle class="b" cx="0.667" cy="0.667" r="0.667" transform="translate(19.528 1.548)"/><rect class="a" width="73.995" height="63.782" transform="translate(13.81 0.5)"/><line class="a" x2="73.995" transform="translate(13.81 3.391)"/><circle class="a" cx="0.667" cy="0.667" r="0.667" transform="translate(15.144 1.262)"/><circle class="a" cx="0.667" cy="0.667" r="0.667" transform="translate(17.431 1.262)"/><circle class="a" cx="0.667" cy="0.667" r="0.667" transform="translate(19.718 1.262)"/><path class="c" d="M47.793,310.976a2.06,2.06,0,1,0-2.539-3.04l.772.729-.991-.308a2.052,2.052,0,0,0,.041,1.57,2.02,2.02,0,0,0,.3.484A2.06,2.06,0,0,0,47.793,310.976Z" transform="translate(-44.27 -287.666)"/><path class="a" d="M77.425,287.5a2.439,2.439,0,0,1-.566-2.536,4.091,4.091,0,0,0,.048-2.7c-.61-1.172-2.212-1.242-3.527-1.367a12.4,12.4,0,0,1-2.863-.621,3.347,3.347,0,0,1-1.048-.526,3.815,3.815,0,0,1-.935-1.4q-1.2-2.561-2.277-5.177" transform="translate(-63.594 -257.122)"/><path class="a" d="M46.451,308.292a2.06,2.06,0,1,0-2.539-3.04l.772.729-.991-.308a2.053,2.053,0,0,0,.041,1.57,2.02,2.02,0,0,0,.3.484A2.06,2.06,0,0,0,46.451,308.292Z" transform="translate(-43.056 -285.293)"/><path class="c" d="M45.9,258.307a2.058,2.058,0,0,1,.165-1.969l.821.61-.506-.982a2.06,2.06,0,1,1-.479,2.341Z" transform="translate(-45.021 -242.034)"/><path class="a" d="M44.115,254.73a2.058,2.058,0,0,1,.165-1.969l.821.61-.506-.982a2.06,2.06,0,1,1-.479,2.341Z" transform="translate(-43.402 -238.872)"/><path class="c" d="M110.928,319.563a2.06,2.06,0,0,0-1.223-3.906l.389.754-.83-.617-.005,0a2.06,2.06,0,1,0,1.669,3.767Z" transform="translate(-101.389 -295.258)"/><path class="a" d="M108.99,316.06a2.06,2.06,0,0,0-1.223-3.906l.389.754-.83-.617-.005,0a2.06,2.06,0,0,0,1.669,3.767Z" transform="translate(-99.635 -292.161)"/><path class="c" d="M139.039,363.162a2.059,2.059,0,1,0-.831-1.439l1.619.361-1.413.34A2.04,2.04,0,0,0,139.039,363.162Z" transform="translate(-128.677 -333.997)"/><path class="a" d="M137.7,360.478a2.059,2.059,0,1,0-.831-1.439l1.619.361-1.413.34A2.041,2.041,0,0,0,137.7,360.478Z" transform="translate(-127.463 -331.625)"/><path class="c" d="M1074.623,566.816a1.983,1.983,0,1,0,.795-3.729l-.094,1.018-.355-.934a1.976,1.976,0,0,0-1.165.963,1.944,1.944,0,0,0-.188.515A1.983,1.983,0,0,0,1074.623,566.816Z" transform="translate(-980.969 -514.044)"/><path class="a" d="M1092.012,567.7c-.047-.884.792-1.542,1.585-1.935s1.706-.76,2.071-1.566c.525-1.158-.373-2.414-1.06-3.484a11.94,11.94,0,0,1-1.231-2.538,3.22,3.22,0,0,1-.224-1.106,3.672,3.672,0,0,1,.5-1.539q1.228-2.43,2.569-4.8" transform="translate(-997.651 -499.758)"/><path class="a" d="M1075.863,564.206a1.983,1.983,0,1,0,.795-3.729l-.094,1.018-.356-.934a1.976,1.976,0,0,0-1.165.963,1.948,1.948,0,0,0-.188.515A1.983,1.983,0,0,0,1075.863,564.206Z" transform="translate(-982.091 -511.736)"/><path class="c" d="M1113.406,534.151a1.981,1.981,0,0,1,1.59-1.045l.026.984.443-.967a1.983,1.983,0,1,1-2.058,1.028Z" transform="translate(-1016.797 -487.544)"/><path class="a" d="M1115.056,530.67a1.981,1.981,0,0,1,1.59-1.045l.026.984.443-.967a1.983,1.983,0,1,1-2.058,1.028Z" transform="translate(-1018.29 -484.467)"/><path class="c" d="M1105.636,619.733a1.983,1.983,0,0,0,2.232-3.247l-.34.743-.026-1,0,0a1.983,1.983,0,0,0-1.862,3.5Z" transform="translate(-1009.026 -560.826)"/><path class="a" d="M1107.136,616.184a1.983,1.983,0,0,0,2.232-3.247l-.34.743-.026-1,0,0a1.983,1.983,0,1,0-1.862,3.5Z" transform="translate(-1010.383 -557.688)"/><path class="c" d="M1089.318,666.927a1.982,1.982,0,1,0,.6-1.484l.689,1.441-1.1-.868A1.965,1.965,0,0,0,1089.318,666.927Z" transform="translate(-995.214 -603.027)"/><path class="a" d="M1090.558,664.316a1.982,1.982,0,1,0,.6-1.484l.688,1.441-1.1-.868A1.964,1.964,0,0,0,1090.558,664.316Z" transform="translate(-996.336 -600.664)"/><path class="c" d="M130.792,224.976a2.06,2.06,0,1,0-2.539-3.04l.772.729-.991-.308a2.052,2.052,0,0,0,.041,1.57,2.02,2.02,0,0,0,.3.484A2.06,2.06,0,0,0,130.792,224.976Z" transform="translate(-119.36 -213.226)"/><path class="a" d="M152.469,193.756a3.815,3.815,0,0,1-.935-1.4q-1.2-2.561-2.277-5.177" transform="translate(-138.685 -182.601)"/><path class="a" d="M129.451,222.292a2.06,2.06,0,1,0-2.539-3.04l.772.729-.991-.308a2.052,2.052,0,0,0,.041,1.57,2.02,2.02,0,0,0,.3.484A2.06,2.06,0,0,0,129.451,222.292Z" transform="translate(-118.147 -210.798)"/><path class="c" d="M128.9,172.307a2.058,2.058,0,0,1,.165-1.969l.821.61-.506-.982a2.06,2.06,0,1,1-.479,2.341Z" transform="translate(-120.111 -166.527)"/><path class="a" d="M127.115,168.73a2.058,2.058,0,0,1,.165-1.969l.821.61-.506-.982a2.06,2.06,0,1,1-.479,2.341Z" transform="translate(-118.493 -163.29)"/><line class="a" y2="60.965" transform="translate(36.748 3.391)"/><rect class="d" width="14.009" height="1.906" transform="translate(44.827 33.237)"/><rect class="d" width="14.009" height="1.906" transform="translate(65.393 33.237)"/><rect class="a" width="14.009" height="1.906" transform="translate(45.539 32.085)"/><rect class="d" width="14.009" height="1.906" transform="translate(44.827 51.088)"/><rect class="a" width="14.009" height="1.906" transform="translate(45.539 49.937)"/><rect class="d" width="36.022" height="1.906" transform="translate(43.89 41.932)"/><rect class="a" width="36.022" height="1.906" transform="translate(44.586 41.011)"/><rect class="a" width="14.009" height="1.906" transform="translate(66.105 32.085)"/><path class="e" d="M973.947,351.011a1.954,1.954,0,0,0,.115.3,5.048,5.048,0,0,1,.062,3.8,7.362,7.362,0,0,1,1.025.06,2.169,2.169,0,0,0,1.013-.112,1.028,1.028,0,0,0,.64-.773,1.752,1.752,0,0,0-.59-1.255,2.86,2.86,0,0,1-.7-1.257c-.1-.529.043-1.149-.291-1.561a.322.322,0,0,0-.111-.095,1.276,1.276,0,0,0-.828.022A.845.845,0,0,0,973.947,351.011Z" transform="translate(-890.822 -325.622)"/><path class="e" d="M1047.512,692.405a2.4,2.4,0,0,1-.112.468s-.346.8-1.77.582c-.93-.141-.924-.577-.77-.914a2.183,2.183,0,0,1,.254-.4,5.529,5.529,0,0,0,.173-1.552c.048-.651.343-.685.343-.685l.017.733c.554-.727.942.125.942.125s.788.016.692-.388c-.1-.431-.256-1.112-.256-1.112s.382.177.451.3a9.8,9.8,0,0,1-.076,1.954,1.137,1.137,0,0,0,.09.714A.271.271,0,0,1,1047.512,692.405Z" transform="translate(-954.923 -625.09)"/><path class="f" d="M1054.668,680.481a.776.776,0,0,1-.543.74,1.046,1.046,0,0,1-.913-.139.536.536,0,0,1-.226-.5l.022-.184.08-.671.11-.925s1.18-.6,1.1-.374a3.6,3.6,0,0,0,.129.911c.066.318.147.668.218.965A.767.767,0,0,1,1054.668,680.481Z" transform="translate(-962.343 -615.235)"/><path class="g" d="M1052.26,695.186a1.085,1.085,0,0,1,1.858.109l-.14.839h-1.718Z" transform="translate(-961.689 -629.991)"/><path class="e" d="M1052.26,696.059a1.085,1.085,0,0,1,1.858.109l-.14.839h-1.718Z" transform="translate(-961.689 -630.781)"/><circle class="d" cx="0.104" cy="0.104" r="0.104" transform="translate(91.796 65.811)"/><circle class="d" cx="0.104" cy="0.104" r="0.104" transform="translate(90.467 65.644)"/><circle class="d" cx="0.104" cy="0.104" r="0.104" transform="translate(91.437 66.515)"/><circle class="d" cx="0.104" cy="0.104" r="0.104" transform="translate(90.53 66.393)"/><circle class="d" cx="0.104" cy="0.104" r="0.104" transform="translate(91.638 66.185)"/><circle class="d" cx="0.104" cy="0.104" r="0.104" transform="translate(90.467 66.018)"/><circle class="d" cx="0.104" cy="0.104" r="0.104" transform="translate(91.333 66.901)"/><circle class="d" cx="0.104" cy="0.104" r="0.104" transform="translate(90.53 66.767)"/><path class="f" d="M961.538,711.151l-1.413.478s-.748-.748-.54-.977a2.093,2.093,0,0,0,.225-.762c.019-.107.036-.217.051-.32.049-.338.077-.622.077-.622s1.642-.79,1.372,0a1.943,1.943,0,0,0-.078.691,4.578,4.578,0,0,0,.088.692A6.584,6.584,0,0,0,961.538,711.151Z" transform="translate(-877.812 -642.578)"/><path class="g" d="M961.538,723.429l-1.413.478s-.748-.748-.54-.977a2.094,2.094,0,0,0,.225-.762,1.477,1.477,0,0,1,.165.461c1.221.67,1.242.27,1.242.27a.742.742,0,0,1,.1-.291A6.591,6.591,0,0,0,961.538,723.429Z" transform="translate(-877.812 -654.857)"/><path class="e" d="M938.355,723.781a1.86,1.86,0,0,1-.961.208,3.77,3.77,0,0,0-.559.063,6.986,6.986,0,0,1-2.293.062,4.97,4.97,0,0,1-.583-.114c-.738-.2-.177-.67-.177-.67s.035-.031.1-.077a2.014,2.014,0,0,1,.813-.386c.462-.073.888-.894.888-.894l.291-.525c.452-.389.608.525.608.525,1.221.67,1.242.27,1.242.27.068-.359.193-.359.193-.359s.3.819.414,1.024a.2.2,0,0,0,.027.042A3.169,3.169,0,0,1,938.355,723.781Z" transform="translate(-853.335 -654.117)"/><circle class="d" cx="0.104" cy="0.104" r="0.104" transform="translate(82.053 68.094)"/><circle class="d" cx="0.104" cy="0.104" r="0.104" transform="translate(81.458 68.385)"/><circle class="d" cx="0.104" cy="0.104" r="0.104" transform="translate(81.778 68.236)"/><circle class="d" cx="0.104" cy="0.104" r="0.104" transform="translate(81.123 68.557)"/><path class="g" d="M964.276,708.948a1.946,1.946,0,0,0-.078.691,4,4,0,0,0-1.371-.069c.049-.338.077-.622.077-.622S964.547,708.158,964.276,708.948Z" transform="translate(-880.779 -642.578)"/><path class="g" d="M1055.423,679.336a1.209,1.209,0,0,1-1.34.388l.11-.925s1.18-.6,1.1-.374A3.653,3.653,0,0,0,1055.423,679.336Z" transform="translate(-963.338 -615.235)"/><path class="e" d="M953.878,509.451a2.082,2.082,0,0,0-.956,1.351,8.105,8.105,0,0,1-.582,2.245c-.187.208-.769.873-.54,1.226a4.921,4.921,0,0,1,.27,1.559,3.513,3.513,0,0,0,.146,1.434,5.046,5.046,0,0,1-.083,3.263,13.287,13.287,0,0,0-.1,1.684c.062.145-.27.52-.166.831s.6,6.048.54,6.277c0,0,1.58-.229,2,.146a4.094,4.094,0,0,0,0-1.06,8.494,8.494,0,0,1,.249-2.6,7.487,7.487,0,0,0,.166-2.265,6.623,6.623,0,0,0,.208-1.767,17.365,17.365,0,0,1,.54-2.972s.333-.644.249-.727c0,0,.54-.353.478-.624s.5-.582.5-.582a11.35,11.35,0,0,0,.665,1.413c.166.187.173,1.393.377,1.642s.475,1.559.745,1.912a5.512,5.512,0,0,1,1.517,2.349,6.642,6.642,0,0,1,.935,2c-.042.478,1.1,1.351,2.2-.27a1.44,1.44,0,0,1-.582-1.185,19.986,19.986,0,0,0-.873-3.409s-.5-.727-.312-1.081a3.463,3.463,0,0,0,.021-1.393l.395-.644s.062-.623.125-1.268-.374-1.351-.166-1.663-.083-1.869-.083-1.869-.259-2.685-.644-2.849S953.878,509.451,953.878,509.451Z" transform="translate(-870.754 -462.411)"/><path class="f" d="M967.084,408.415s-.427.049-.945.1a8.435,8.435,0,0,1-1.8.069c-.19-.125,0-1.7,0-1.7s.065-1.725,0-2.931a2.618,2.618,0,0,1,.843-1.932c.057-.055.093-.084.093-.084l.208.166,1.185,2.016Z" transform="translate(-882.066 -371.294)"/><path class="f" d="M998.612,368.088l-1.164.707-1.912,1.455s-1.974-1.039-1.476-1.642a.935.935,0,0,0,.182-.408,3.982,3.982,0,0,0-.182-1.691s2.6-3.513,2.452-.79a2.222,2.222,0,0,0,.68,2.015A2.021,2.021,0,0,0,998.612,368.088Z" transform="translate(-908.962 -338.507)"/><path class="g" d="M998.612,368.088l-1.164.707-1.912,1.455s-1.974-1.039-1.476-1.642a.935.935,0,0,0,.182-.408,3.982,3.982,0,0,0-.182-1.691s2.6-3.513,2.452-.79a2.222,2.222,0,0,0,.68,2.015A2.021,2.021,0,0,0,998.612,368.088Z" transform="translate(-908.962 -338.507)"/><ellipse class="g" cx="2.407" cy="2.55" rx="2.407" ry="2.55" transform="translate(83.672 23.364)"/><ellipse class="f" cx="2.407" cy="2.55" rx="2.407" ry="2.55" transform="translate(83.672 23.263)"/><path class="g" d="M998.612,397.038l-1.164.707-1.912,1.455s-1.974-1.039-1.476-1.642a.935.935,0,0,0,.182-.408c2.178,1.862,2.84-.065,2.95-.466A2.021,2.021,0,0,0,998.612,397.038Z" transform="translate(-908.962 -367.07)"/><path class="g" d="M975.346,408.415s-.427.049-.945.1c-.02-.447-.088-.953-.076-1.262.021-.52.021-.582-.145-.873a1.413,1.413,0,0,1-.125-.894c.02-.358-.075-.431-.412-1l-.045-.078a2.929,2.929,0,0,1-.214-1.288.01.01,0,0,0,0-.005c0-.116,0-.23.006-.339,0,0,0-.009,0-.014.012-.329.039-.61.053-.743.057-.055.093-.084.093-.084l.208.166,1.185,2.016Z" transform="translate(-890.328 -371.304)"/><path class="h" d="M976.809,396.518l.249.19c-.752-.325-1.179,1.311-1.294,1.825-.021.095-.032.151-.032.151s.013.138.03.357a8.922,8.922,0,0,1-.071,2.781.619.619,0,0,0-.054.133,2.813,2.813,0,0,0-.026.964A9.671,9.671,0,0,0,975.8,404a4.379,4.379,0,0,1,.291,2.1,3.085,3.085,0,0,0-.061.943,5.575,5.575,0,0,0,.132.86c.02.083.033.13.033.13q-.47.161-.919.267a8.919,8.919,0,0,1-1.777.241,7.891,7.891,0,0,1-5.124-1.624c-.035-.029-.061-.052-.078-.068-.291-.27.27-.478.208-.665s.284-.6.284-.6-.076-.686.235-.831.54-.644.716-1.06a8.8,8.8,0,0,0-.01-2.016c.021-.52.021-.582-.145-.873a1.413,1.413,0,0,1-.125-.894c.02-.358-.075-.431-.412-1L969,398.83c-.165-.285.092-.776.091-1.264,0,0,.1,0,.1,0,0-.116-.195-.272-.191-.381,0,0-.1-.091-.1-.1a3.088,3.088,0,0,0-.046-.733c1.663-.852,2.058.036,2.058.036,2.432,2.093,2.984-.522,2.984-.522,1.324-.452,3.064.766,3.164.837Z" transform="translate(-885.647 -365.122)"/><path class="f" d="M964.508,466.085a2.208,2.208,0,0,0,.394,1.729.677.677,0,0,0,.783.135,1.06,1.06,0,0,0,.507-.431C966.357,467.149,965.838,465.347,964.508,466.085Z" transform="translate(-882.268 -428.355)"/><path class="g" d="M1046.221,432.889a.618.618,0,0,0-.054.133l.1-2.43.03-.484A8.921,8.921,0,0,1,1046.221,432.889Z" transform="translate(-956.177 -396.597)"/><path class="g" d="M1019.341,473.985a3.085,3.085,0,0,0-.061.943c-.135.244-.25.451-.325.586l-.093.165a3.926,3.926,0,0,0-.337.506.977.977,0,0,0-.141.411c0,.32-.322,2.45-1.85,1.92-.986-.342-.357-1.39.213-2.09a7.829,7.829,0,0,1,.608-.663s.176-.224.345-.459a2.787,2.787,0,0,0,.3-.476c.073-.208.552-1.122.552-1.122a3.472,3.472,0,0,0,.372-1.476,9,9,0,0,1-.059-1.428,9.646,9.646,0,0,0,.183,1.085A4.379,4.379,0,0,1,1019.341,473.985Z" transform="translate(-928.901 -431.948)"/><path class="f" d="M1019.917,405.424a2.207,2.207,0,0,1,.727,1.871c-.021,1.351-.27,3.689-.27,3.689l-.156,1.455a2.982,2.982,0,0,0-.166.769c.031.177-1.632,3.138-1.632,3.138a2.343,2.343,0,0,0-.478.917c0,.319-.322,2.45-1.85,1.92s.821-2.754.821-2.754a7.279,7.279,0,0,0,.644-.935c.073-.208.553-1.122.553-1.122a3.473,3.473,0,0,0,.372-1.476,16.061,16.061,0,0,1-.042-2.165l.1-2.656.042-.675S1018.97,405.154,1019.917,405.424Z" transform="translate(-928.5 -373.441)"/><path class="b" d="M976.173,453.457l1.134-.412a.537.537,0,0,1,.552.114l1.505,1.422s.083.228-.028.218-1.732-1.631-1.732-1.631l-1.607.54h0a.267.267,0,0,1,.176-.251Z" transform="translate(-892.693 -416.98)"/><path class="i" d="M934.721,312.958l1.559-.565-1.732-1.631-1.607.54Z" transform="translate(-849.637 -274.497)"/><circle class="d" cx="0.139" cy="0.139" r="0.139" transform="translate(82.604 43.983)"/><circle class="d" cx="0.139" cy="0.139" r="0.139" transform="translate(81.662 46.124)"/><circle class="d" cx="0.139" cy="0.139" r="0.139" transform="translate(89.188 46.903)"/><circle class="d" cx="0.139" cy="0.139" r="0.139" transform="translate(89.972 49.928)"/><circle class="d" cx="0.139" cy="0.139" r="0.139" transform="translate(89.667 49.077)"/><circle class="d" cx="0.139" cy="0.139" r="0.139" transform="translate(89.402 47.99)"/><circle class="d" cx="0.139" cy="0.139" r="0.139" transform="translate(82.102 44.997)"/><circle class="d" cx="0.139" cy="0.139" r="0.139" transform="translate(81.112 47.236)"/><path class="b" d="M982.53,396.706h0c-.752-.325-1.179,1.311-1.294,1.825l-1.182-1.691a2.585,2.585,0,0,1-2.051.894,1.8,1.8,0,0,1-1.947-1.192,10.966,10.966,0,0,0-1.541,2.364l-.045-.078a2.925,2.925,0,0,1-.214-1.288.013.013,0,0,0,0-.005c0-.113,0-.227.006-.339a.129.129,0,0,0,0-.014c.017-.461.063-.827.063-.827,1.663-.852,2.058.036,2.058.036,2.432,2.093,2.984-.523,2.984-.523C980.69,395.417,982.431,396.636,982.53,396.706Z" transform="translate(-891.118 -366.204)"/><path class="g" d="M964.293,565.065c.021.052,1.767,2.068,2.411,2.172S964.293,565.065,964.293,565.065Z" transform="translate(-882.105 -516.074)"/><path class="g" d="M972.258,532.617s.018,1.421-.419,1.742S972.258,532.617,972.258,532.617Z" transform="translate(-888.819 -487.421)"/><path class="g" d="M984.413,537.913s-.042,1.673.582,2.068C984.995,539.981,983.852,538.869,984.413,537.913Z" transform="translate(-900.167 -492.067)"/><path class="g" d="M963.342,628.095a8.581,8.581,0,0,1-1.486.925C961.534,629.082,963.342,628.095,963.342,628.095Z" transform="translate(-879.865 -572.049)"/><path class="g" d="M973.356,324.227a.583.583,0,0,0,.1.855,1.534,1.534,0,0,0,.934.245,8.524,8.524,0,0,1,1.884.135,1.527,1.527,0,0,1,.723.37,1.627,1.627,0,0,1,.376.747,4.088,4.088,0,0,1,.128,1.252,4.348,4.348,0,0,0-.019.849,2.719,2.719,0,0,0,.265.756,31.415,31.415,0,0,0,1.606,2.978.555.555,0,0,0,.209.229.566.566,0,0,0,.477-.074,3.575,3.575,0,0,1-.147-.9.4.4,0,0,0,.426-.149,1.184,1.184,0,0,0,.194-.437l.28-.964c.086-.3.215-.64.512-.728a1.857,1.857,0,0,0,.314-.073.4.4,0,0,0,.194-.4.857.857,0,0,0-.188-.423c-.421-.566-1.122-.9-1.451-1.526a2.874,2.874,0,0,1-.14-1.78,4.651,4.651,0,0,0,.079-1.8,2.388,2.388,0,0,0-.927-1.328,3.739,3.739,0,0,0-1.516-.623,1.513,1.513,0,0,0-.766.005c-.189.064-.351.19-.535.266a9.423,9.423,0,0,1-1.342.179,1.8,1.8,0,0,0-.992.717,3.805,3.805,0,0,0-.52,1.13c-.081.264.049.37-.187.514" transform="translate(-890.17 -299.802)"/><path class="e" d="M973.792,323.355a.583.583,0,0,0,.1.855,1.534,1.534,0,0,0,.934.245,8.521,8.521,0,0,1,1.884.135,1.527,1.527,0,0,1,.723.37,1.626,1.626,0,0,1,.376.747,4.089,4.089,0,0,1,.128,1.252,4.348,4.348,0,0,0-.019.849,2.717,2.717,0,0,0,.265.756,31.384,31.384,0,0,0,1.606,2.978.554.554,0,0,0,.209.229.566.566,0,0,0,.477-.074,3.575,3.575,0,0,1-.147-.9.4.4,0,0,0,.426-.149,1.183,1.183,0,0,0,.194-.437l.28-.964c.086-.3.215-.64.512-.728a1.86,1.86,0,0,0,.314-.073.4.4,0,0,0,.194-.4.857.857,0,0,0-.188-.423c-.421-.566-1.122-.9-1.451-1.526a2.874,2.874,0,0,1-.14-1.78,4.65,4.65,0,0,0,.079-1.8,2.388,2.388,0,0,0-.927-1.328,3.738,3.738,0,0,0-1.516-.623,1.513,1.513,0,0,0-.766.005c-.189.064-.351.19-.535.266a9.425,9.425,0,0,1-1.342.179,1.8,1.8,0,0,0-.992.717,3.806,3.806,0,0,0-.52,1.13c-.081.264.049.37-.187.514" transform="translate(-890.564 -299.034)"/><path class="f" d="M972.471,462.062s1.9-1.268,2.442-.488-1.673,1.735-1.673,1.735Z" transform="translate(-889.503 -424.309)"/><path class="e" d="M978.059,394.1c-.007.122-.03.272-.1.294.177,0,.352.126.528.087a.539.539,0,0,0,.334-.344.16.16,0,0,1,.045-.073c.018-.011.039,0,.057.011a5.549,5.549,0,0,1,.957.722c.1.091.206.189.312.142a2.383,2.383,0,0,0-.2-1,1.278,1.278,0,0,0-.545-.6,1.669,1.669,0,0,0-.641-.167.642.642,0,0,1-.276-.069c-.094-.056-.4-.416-.464-.154a2.886,2.886,0,0,0,.01.537C978.076,393.7,978.07,393.9,978.059,394.1Z" transform="translate(-894.47 -363.728)"/><g class="j" transform="translate(83.092 22.671)"><path d="M980.286,358.122a.554.554,0,0,1-.209-.229,31.384,31.384,0,0,1-1.606-2.978,2.717,2.717,0,0,1-.265-.756,4.348,4.348,0,0,1,.019-.849,4.092,4.092,0,0,0-.128-1.252,1.626,1.626,0,0,0-.376-.747,1.528,1.528,0,0,0-.723-.37,8.526,8.526,0,0,0-1.884-.135,1.533,1.533,0,0,1-.934-.245.646.646,0,0,1-.213-.685.416.416,0,0,1-.053.042.584.584,0,0,0,.1.85,1.534,1.534,0,0,0,.934.245,8.524,8.524,0,0,1,1.884.135,1.528,1.528,0,0,1,.723.37,1.626,1.626,0,0,1,.375.747,4.093,4.093,0,0,1,.129,1.252,4.343,4.343,0,0,0-.019.849,2.717,2.717,0,0,0,.265.756,31.38,31.38,0,0,0,1.606,2.978.554.554,0,0,0,.209.229.566.566,0,0,0,.476-.074c-.012-.042-.024-.084-.035-.126A.38.38,0,0,1,980.286,358.122Z" transform="translate(-973.77 -348.103)"/><path d="M974.989,350.3l.027-.018,0,0Z" transform="translate(-974.873 -348.463)"/><path d="M976.574,332.88l-.027.018.032-.023,0,0c.2-.135.082-.243.16-.5a3.849,3.849,0,0,1,.507-1.112,2.219,2.219,0,0,0-.154.189,3.808,3.808,0,0,0-.52,1.13,1.767,1.767,0,0,0-.041.337A.4.4,0,0,1,976.574,332.88Z" transform="translate(-976.264 -331.272)"/><path d="M1057.446,401.469a1.853,1.853,0,0,1-.314.073.606.606,0,0,0-.348.307.5.5,0,0,1,.181-.1,1.856,1.856,0,0,0,.314-.073.355.355,0,0,0,.172-.211Z" transform="translate(-1048.873 -394.777)"/><path d="M1045.61,425.5q0,.108.014.216a.468.468,0,0,0,.246-.157.691.691,0,0,0,.083-.129A.371.371,0,0,1,1045.61,425.5Z" transform="translate(-1038.764 -416.459)"/></g><path class="g" d="M967.644,464.947a2.039,2.039,0,0,1,.8-.158" transform="translate(-885.136 -427.572)"/><path class="g" d="M982.816,490.477s.255.395,1.541.561S982.816,490.477,982.816,490.477Z" transform="translate(-898.862 -450.274)"/><path class="g" d="M977.96,505.962a3.649,3.649,0,0,0,3.014.644C982.83,506.232,977.96,505.962,977.96,505.962Z" transform="translate(-894.469 -463.965)"/><line class="a" y1="2.954" x2="19.059" transform="translate(78.297 67.546)"/><path class="b" d="M224.367,359.272a6.279,6.279,0,0,0,4.008,5.662l-3.393-8.222A5.659,5.659,0,0,0,224.367,359.272Zm11.914-.317a3.05,3.05,0,0,0-.587-1.735,2.773,2.773,0,0,1-.7-1.475,1.157,1.157,0,0,1,1.194-1.117c.032,0,.061,0,.092.005a7.621,7.621,0,0,0-4.8-1.651,7.379,7.379,0,0,0-5.943,2.836c.167,0,.324.007.458.007.744,0,1.9-.08,1.9-.08a.262.262,0,1,1,.046.518s-.385.04-.814.06l2.59,6.814,1.557-4.129-1.108-2.685c-.383-.02-.746-.06-.746-.06a.261.261,0,1,1,.045-.518s1.175.08,1.873.08c.744,0,1.9-.08,1.9-.08a.262.262,0,1,1,.046.518s-.386.04-.814.06l2.57,6.763.709-2.1a6.867,6.867,0,0,0,.542-2.034Z" transform="translate(-207.745 -327.556)"/><path class="b" d="M280.052,390.894l-2.134,5.485a8,8,0,0,0,4.371-.1.516.516,0,0,1-.051-.087Zm6.116-3.569a4.286,4.286,0,0,1,.048.647,5.351,5.351,0,0,1-.541,2.253l-2.173,5.556a6.2,6.2,0,0,0,3.537-5.438A5.7,5.7,0,0,0,286.168,387.325Z" transform="translate(-256.479 -358.114)"/></g></svg>