<svg xmlns="http://www.w3.org/2000/svg" width="100" height="65.639" viewBox="0 0 100 65.639"><defs><style>.a{fill:#e6e6e6;}.b{opacity:0.1;}.c{fill:#2f2e41;}.d{fill:#9f616a;}.e{fill:#d0cde1;}.f{fill:#6c63ff;}.g{fill:#3f3d56;}.h{fill:#ff6584;}</style></defs><g transform="translate(0 0)"><path class="a" d="M157.451,535.835H156v12.271s9.368,3.035,18.473,0V535.835Z" transform="translate(-156 -495.547)"/><ellipse class="a" cx="9.104" cy="1.385" rx="9.104" ry="1.385" transform="translate(0 40.745)"/><ellipse class="b" cx="9.104" cy="1.385" rx="9.104" ry="1.385" transform="translate(0 40.745)"/><path class="c" d="M234.941,309.839a52.86,52.86,0,0,1,6.51.488c.923.336,1.335,2.736,1.335,2.736l-4.338,1.364-3.245-.184-2.442.173,1.364-3.571Z" transform="translate(-222.633 -292.482)"/><path class="d" d="M247.482,295.944a3.027,3.027,0,0,1-.448,2.425c-.816,1.005,3.507,4.588,3.507,4.588l2.281-.392s-.5-4.363.173-5.467S247.482,295.944,247.482,295.944Z" transform="translate(-234.933 -280.199)"/><path class="d" d="M176.956,462.552l-5.032,6.673,3.434,2.005,4.726-7.733Z" transform="translate(-152.812 -415.573)"/><path class="c" d="M323.893,650.527s-1.853-2.153-1.771-1.673-1.319,4.552-.015,4.946,12.482,1.439,12.636.176-3.335-2.146-3.335-2.146-2.073-1.992-2.532-1.789S323.893,650.527,323.893,650.527Z" transform="translate(-303.313 -596.762)"/><path class="d" d="M201.505,507.462l4.019,6.848,3.035-1.758-4.053-5.606Z" transform="translate(-179.063 -454.11)"/><path class="e" d="M364.011,532.272l-1.193,1.688s-5.687,7.9-5.083,8.536,3.119,3.048,4.4,2.581,5.824-8.54,5.824-8.54l-1.185-4.74Z" transform="translate(-335.352 -491.884)"/><path class="e" d="M218.4,462.732a7.225,7.225,0,0,0,4.5,3.181,53.932,53.932,0,0,1,6.72,2.429c.12-.021.46-.2.542.278s.968,1.317.968,1.317,3.566,12.117,4.927,12.13,4.16-.962,4.218-1.343-4.17-12.754-4.211-12.994l-.5-2.881s5.591.893,6.113,1.05,5.16,2.7,5.16,2.7,4.728-3.408.306-6.85-12.025-5.966-12.025-5.966l-2.727-.767-2.377-.142-.35-1.342-5.629.325-5.874,2.493Z" transform="translate(-209.967 -427.27)"/><circle class="d" cx="4.385" cy="4.385" r="4.385" transform="translate(11.48 10.886)"/><path class="f" d="M228.383,310.245l.527-.091s.952,3.667,3.9,4.273c0,0,1.454-1.742,1.392-2.036s1.151-1.862,1.8-.984-.158,16.34.385,16.618,1.7.572.769,1.6-4.653,2.406-5.477,1.93-2.506-4.513-3.234-5.871a44.7,44.7,0,0,1-1.893-5.978s-1.487-5.059-.572-6.2S228.383,310.245,228.383,310.245Z" transform="translate(-216.484 -293.926)"/><path class="c" d="M208.054,329.336a25.013,25.013,0,0,1-.5,3.2c-.215.859-.465,1.377-.751,1.355-.729-.055-1.061,1.015-1.231,2.248-.183,1.308-.183,2.8-.283,3.327-.133.7-.981,1.228-2.676,1.072a11.962,11.962,0,0,1-2.949-.723c-2.289-.832-2.221-7.581-1.838-12.589.234-3.07.586-5.487.586-5.487a27.254,27.254,0,0,1-.918-3.5,4.645,4.645,0,0,1-.066-.785c.034-1.242,2.269-2.829,3.638-4.919a5.034,5.034,0,0,1,3.274-2.325l-.651,1.965a6.7,6.7,0,0,1,1.016,3.039c.007,1.482,2.416,2.551,3.28,3.268C208.527,318.94,208.514,324.957,208.054,329.336Z" transform="translate(-191.96 -294.911)"/><path class="c" d="M290.6,315.539s.158.187.882.1c.868-.109,2.061.191,2.338,1.019.508,1.519,1.941,7.7,1.941,7.7s.6,7.065.865,8.626.135,2.943.4,3.763-2.611-1.529-3.671-1.223-1.741-3.656-1.607-5.038a12.467,12.467,0,0,0-.122-4.3c-.368-1.42.284-5.178.26-6.039S289.551,317.107,290.6,315.539Z" transform="translate(-275.36 -298.761)"/><path class="d" d="M308.535,481.965s4.643,2.533,5.087,6.138-6.21-3.491-6.21-3.491Z" transform="translate(-290.526 -446.438)"/><path class="d" d="M336.006,459.875s1.423,7.171,3.639,6.79-1.238-7.2-1.238-7.2Z" transform="translate(-315.87 -426.336)"/><path class="c" d="M380.387,692.707s-1.135,1.307-1.416,1.109-.928,2.508-.345,3.025,2.83,1.367,2.855,2.228,6.051.69,6.266-.212a4.452,4.452,0,0,0-1.439-3.337c-.683-.377-3.207-3.847-3.207-3.847A6.185,6.185,0,0,0,380.387,692.707Z" transform="translate(-353.72 -633.993)"/><path class="b" d="M212.757,386.007c-1.077-.76-4.083-.949-6.752-1.124-1.171-.075-2.277-.149-3.127-.268-.819-.113-1.555-.862-2.209-1.977a27.539,27.539,0,0,1-2.41-6.668c.234-3.07.586-5.487.586-5.487a27.254,27.254,0,0,1-.918-3.5,1.87,1.87,0,0,1,.592-.533c2.831-1.215,5.534,10.743,5.877,12.62.006.031.01.06.015.085.166.966,1.965,1.793,3.576,2.12a3.82,3.82,0,0,0,2.342-.047c1.118-.686,4.556,2.061,4.816,2.139S214.3,387.1,212.757,386.007Z" transform="translate(-192.396 -344.323)"/><path class="c" d="M193.32,360.877s-2.058.972-1.154,5.512,2.725,12.261,5.511,12.647,8.332.3,9.879,1.392,2.65-2.556,2.39-2.635-3.7-2.825-4.817-2.138-5.649-.512-5.918-2.073S196.2,359.641,193.32,360.877Z" transform="translate(-187.195 -339.307)"/><path class="c" d="M314.788,344.942l2.261,5.247s.228-.114.492.706a5.818,5.818,0,0,0,.852,2.078c.463.538,2.525,8.217,2.586,8.577s-2.847,1.6-3.5.6S314.788,344.942,314.788,344.942Z" transform="translate(-297.078 -324.838)"/><path class="c" d="M241.6,247.354c.168-.045.193-.268.2-.442a2.31,2.31,0,0,1,1.482-2.157,2.491,2.491,0,0,1,1.05-.058,3.978,3.978,0,0,1,1.422.474,2.218,2.218,0,0,0,.723.327c.174.026.927.245,1.1.276.381.068.734.408,1.1.282.349-.121.427-.574.435-.943.019-.842-1.016-1.613-1.579-2.239a2.939,2.939,0,0,0-1.7-.809,11.319,11.319,0,0,0-2.224-.135c-1.007.018-1.118-.3-2.026.135a2.859,2.859,0,0,0-1.714,2.309c-.009.21.013.42-.005.629-.043.51-.446.839-.573,1.334a2.683,2.683,0,0,0,.375,2.144c.337.5.432.864.837,1.4.244-.252.1-.231.345-.483a.6.6,0,0,0,.178-.733l-.259-1.009a.91.91,0,0,1-.022-.561C241.021,246.412,241.32,247.429,241.6,247.354Z" transform="translate(-228.23 -231.882)"/><path class="g" d="M592.6,178.713c-.911-7.034-1.937-14.121-3.064-21.166q-.76-4.737-1.578-9.44l-.017-.1-.1,0q-1.672.062-3.355.08-.913.012-1.826.012c-2.006,0-4.007-.019-5.97-.041-2.01-.023-4.046-.047-6.091-.04-1.332,0-2.669.021-4,.059-2.071.059-4.142.168-6.2.359-2.121.2-4.268.484-6.344.763-2.364.318-4.809.646-7.225.84-4.442.358-8.971.279-13.351.2-2.363-.041-4.807-.083-7.21-.057-.1,0-.249-.008-.416-.02-.612-.042-1.451-.1-1.7.3a4.289,4.289,0,0,0,.287,2.091c.067.253.124.473.141.581.263,1.627.472,3.284.623,4.927a73.017,73.017,0,0,1-1.177,21.34l-.024.119.12.014c8.513,1.012,17.412,1.612,26.451,1.783,1.35.026,2.621.04,3.829.041h.347c.952,0,1.865-.008,2.747-.022q.848-.015,1.659-.039c.983-.03,1.929-.07,2.85-.121l.221-.012q.392-.022.779-.048.625-.04,1.239-.088c2.841-.22,5.718-.576,8.522-.933l.94-.121.634-.081a125.6,125.6,0,0,1,12.863-1.18c.167,0,.334-.009.5-.011q1.3-.023,2.6.013,1.09.03,2.178.108l.136.009Zm-2.41-.209q-1.252-.033-2.5-.009c-.193,0-.386.007-.579.012a132.751,132.751,0,0,0-13.429,1.262l-.47.06-.358.047c-2.837.363-5.749.724-8.622.947-.327.026-.654.049-.985.071s-.684.044-1.032.064l-.222.013c-.926.05-1.878.09-2.867.119q-.968.03-1.987.044c-.881.013-1.8.019-2.749.016-1.2,0-2.466-.016-3.807-.041-8.989-.17-17.84-.766-26.309-1.768a73.225,73.225,0,0,0,1.156-21.286c-.151-1.648-.361-3.31-.624-4.942-.02-.119-.076-.332-.146-.6a5.623,5.623,0,0,1-.313-1.918c.179-.289.971-.233,1.5-.2.171.011.318.021.432.02,2.4-.027,4.842.016,7.2.057,4.384.076,8.919.154,13.372-.2,2.422-.194,4.87-.523,7.238-.841,2.073-.278,4.218-.566,6.335-.762.162-.016.323-.03.486-.043l.222-.019c1.779-.149,3.57-.24,5.361-.292,1.378-.04,2.755-.058,4.129-.062,2.038-.007,4.068.017,6.071.04,1.958.023,3.951.046,5.95.041.617,0,1.233,0,1.85-.013q1.637-.018,3.264-.076.788,4.533,1.522,9.108c1.135,7.074,2.169,14.192,3.084,21.257q-1.086-.077-2.173-.1Z" transform="translate(-492.617 -148.011)"/><path class="g" d="M656.248,196.774a31.665,31.665,0,0,1,.292-8.222c.177-1.442.361-2.933.431-4.4a59.094,59.094,0,0,0-.531-9.258,66.028,66.028,0,0,1-.564-8.365l.222,0a65.886,65.886,0,0,0,.563,8.337,59.264,59.264,0,0,1,.533,9.293c-.071,1.474-.255,2.969-.433,4.415a31.5,31.5,0,0,0-.293,8.164Z" transform="translate(-599.693 -164.087)"/><path class="g" d="M804.665,184.505c-.861-10.93-1.237-22.031-1.119-32.993l.222,0c-.118,10.956.258,22.05,1.118,32.974Z" transform="translate(-730.753 -151.05)"/><path class="g" d="M558.765,186.871l-.023-.221a60.7,60.7,0,0,1,8.138-.311l-.006.222a60.455,60.455,0,0,0-8.108.309Z" transform="translate(-513.969 -181.26)"/><path class="g" d="M703.446,173.406l-.006-.222a27.1,27.1,0,0,0,8.467-1.274l.058.214a27.312,27.312,0,0,1-8.519,1.281Z" transform="translate(-642.622 -168.756)"/><path class="g" d="M861.268,168.843l-.491,0-12.67-.1,0-.222,12.67.1a10.929,10.929,0,0,0,2.63-.19l.052.216a9.4,9.4,0,0,1-2.193.2Z" transform="translate(-773.955 -165.734)"/><path class="f" d="M554.742,234.547h-5c.562-2.307,1.1-4.462,0-6h5A6.729,6.729,0,0,1,554.742,234.547Z" transform="translate(-505.792 -217.92)"/><path class="f" d="M730.695,319h-5c-.313-2.781.377-4.855,0-6h5A31.3,31.3,0,0,0,730.695,319Z" transform="translate(-661.966 -295.378)"/><path class="f" d="M686.949,254.757h-5c.188-2.307.792-4.461,0-6h5A6.727,6.727,0,0,1,686.949,254.757Z" transform="translate(-623.241 -237.999)"/><path class="h" d="M753.933,216.021h5c.313-2.307-.377-4.462,0-6h-5A6.726,6.726,0,0,0,753.933,216.021Z" transform="translate(-686.572 -201.839)"/><path class="g" d="M582.149,312.018h5c.313-2.307-.377-4.462,0-6h-5A6.726,6.726,0,0,0,582.149,312.018Z" transform="translate(-533.961 -289.145)"/></g></svg>