<svg xmlns="http://www.w3.org/2000/svg" xmlns:xlink="http://www.w3.org/1999/xlink" width="100" height="59.452" viewBox="0 0 100 59.452"><defs><style>.a{fill:url(#a);}.b{fill:#fff;}.c{fill:#f5f5f5;}.d{fill:url(#b);}.e{fill:url(#c);}.f{fill:url(#d);}.g{fill:#6c63ff;}.h{fill:#e0e0e0;}</style><linearGradient id="a" x1="0.5" y1="1" x2="0.5" gradientUnits="objectBoundingBox"><stop offset="0" stop-color="gray" stop-opacity="0.251"/><stop offset="0.535" stop-color="gray" stop-opacity="0.122"/><stop offset="1" stop-color="gray" stop-opacity="0.102"/></linearGradient><linearGradient id="b" x1="0.5" y1="1" x2="0.5" gradientUnits="objectBoundingBox"><stop offset="0" stop-color="#b3b3b3" stop-opacity="0.251"/><stop offset="0.535" stop-color="#b3b3b3" stop-opacity="0.102"/><stop offset="1" stop-color="#b3b3b3" stop-opacity="0.051"/></linearGradient><linearGradient id="c" x1="0.5" y1="1" x2="0.5" gradientUnits="objectBoundingBox"><stop offset="0" stop-opacity="0.122"/><stop offset="0.551" stop-opacity="0.09"/><stop offset="1" stop-opacity="0.02"/></linearGradient><linearGradient id="d" x1="0.5" y1="1" x2="0.5" y2="0" xlink:href="#c"/></defs><rect class="a" width="100" height="16.067"/><rect class="b" width="98.858" height="14.687" transform="translate(0.507 0.526)"/><rect class="c" width="49.845" height="8.741" transform="translate(5.774 3.524)"/><path class="d" d="M844.44,179.857a4.616,4.616,0,1,0-.755,7.031l3.337,3.471a.225.225,0,0,0,.318.006l.832-.8a.225.225,0,0,0,.006-.318l-3.337-3.471A4.616,4.616,0,0,0,844.44,179.857Zm-1.039,5.579a3.3,3.3,0,1,1,.092-4.668A3.3,3.3,0,0,1,843.4,185.436Z" transform="translate(-756.373 -175.775)"/><path class="e" d="M855.765,215.554a.289.289,0,0,0,0,.577A.289.289,0,0,0,855.765,215.554Z" transform="translate(-776.117 -209.191)"/><path class="f" d="M862.341,196.994a2.773,2.773,0,0,0-2.392,1.236c-.158.247.29.465.447.219a2.287,2.287,0,0,1,1.983-1,2.527,2.527,0,0,1,2.062,1.2c.158.26.571.024.414-.235A3.065,3.065,0,0,0,862.341,196.994Z" transform="translate(-777.459 -192.479)"/><path class="g" d="M844.44,174.765a4.616,4.616,0,1,0-.755,7.031l3.337,3.471a.225.225,0,0,0,.318.006l.832-.8a.225.225,0,0,0,.006-.318l-3.337-3.471A4.616,4.616,0,0,0,844.44,174.765Zm-1.039,5.579a3.3,3.3,0,1,1,.092-4.668,3.3,3.3,0,0,1-.092,4.668Z" transform="translate(-756.373 -171.19)"/><path class="g" d="M855.765,210.462a.289.289,0,0,0,0,.577A.289.289,0,0,0,855.765,210.462Z" transform="translate(-776.117 -204.606)"/><path class="g" d="M862.341,191.9a2.773,2.773,0,0,0-2.392,1.236c-.158.247.29.465.447.219a2.287,2.287,0,0,1,1.983-1,2.527,2.527,0,0,1,2.062,1.2c.158.26.571.024.414-.235A3.064,3.064,0,0,0,862.341,191.9Z" transform="translate(-777.459 -187.895)"/><rect class="h" width="99.511" height="5.879" transform="translate(0.489 23.976)"/><rect class="h" width="99.511" height="5.879" transform="translate(0.489 33.842)"/><rect class="h" width="99.511" height="5.879" transform="translate(0.489 43.707)"/><rect class="h" width="99.511" height="5.879" transform="translate(0.489 53.573)"/></svg>