<svg xmlns="http://www.w3.org/2000/svg" xmlns:xlink="http://www.w3.org/1999/xlink" width="100" height="70" viewBox="0 0 100 70"><defs><style>.a{opacity:0.7;}.b,.g{fill:#00bfa6;}.b,.d,.p{opacity:0.1;}.c{fill:#535461;}.e{fill:#fff;}.f{opacity:0.2;}.h{fill:url(#a);}.i{fill:#4c4c78;}.j{fill:#ffb9b9;}.k{fill:#cbcdda;}.l{opacity:0.05;}.m{fill:none;stroke:blue;stroke-miterlimit:10;}.n{fill:#474463;}.o{fill:#472727;}</style><linearGradient id="a" x1="-2.392" y1="1" x2="-2.392" gradientUnits="objectBoundingBox"><stop offset="0" stop-color="gray" stop-opacity="0.251"/><stop offset="0.54" stop-color="gray" stop-opacity="0.122"/><stop offset="1" stop-color="gray" stop-opacity="0.102"/></linearGradient></defs><g class="a" transform="translate(-0.048 0.023)"><ellipse class="b" cx="40.482" cy="3.113" rx="40.482" ry="3.113" transform="translate(7.54 63.751)"/><path class="b" d="M81.245,41.029c-2.57,2.421-3.221,5.49-3.256,8.433-.025,2.075.328,4.326,2.48,5.856,2.834,2.013,8.275,2.41,9.679,4.983,1.245,2.286-1.652,4.586-4.435,6.2s-5.979,3.589-5.459,5.992c.329,1.534,2.137,2.739,3.939,3.75a38.135,38.135,0,0,0,11.621,4.432c7.878,1.486,16.387-.052,23.769-2.381,4.544-1.433,9.82-3.192,14.333-1.718a34.222,34.222,0,0,1,3.3,1.464c3.194,1.408,7.095,1.926,10.891,2.366,5.564.647,11.412,1.187,16.773.02s9.995-4.582,9.174-8.223c-.774-3.431-5.7-5.667-9.626-8.01-1.385-.827-2.795-1.923-2.45-3.125.274-.954,1.563-1.618,2.712-2.235,6.049-3.263,10.495-7.767,12.538-12.705.965-2.33,1.314-5.015-.84-6.98-1.737-1.585-4.715-2.346-7.547-2.973a96.152,96.152,0,0,0-16.168-2.41,44.359,44.359,0,0,0-16.143,1.918c-2.353.805-4.486,1.866-6.862,2.641-6.746,2.2-14.7,1.9-22.219,1.557a24.367,24.367,0,0,1-7.832-1.289,13.976,13.976,0,0,0-5.65-1.49C89.089,36.922,84.04,38.392,81.245,41.029Z" transform="translate(-77.94 -33.72)"/><path class="c" d="M210.154,303.9l-.115.237-.743,1.526-7.793,16-13.223,32.4-1.89.015,13.231-32.415,9.016-18.516.66.326.743.368Z" transform="translate(-168.935 -288.335)"/><path class="c" d="M435.68,354.081l-1.556-.015-13.225-32.4-7.588-15.581-.947-1.946-.116-.237.116-.057.947-.469.455-.225,8.881,18.516Z" transform="translate(-373.678 -288.335)"/><rect class="c" width="1.691" height="55.283" transform="translate(38.894 10.463)"/><path class="c" d="M471.932,207.69a2.154,2.154,0,0,0-2.152,2.152v.769a2.152,2.152,0,1,0,4.3,0v-.769A2.155,2.155,0,0,0,471.932,207.69Zm1.614,2.917a1.615,1.615,0,1,1-3.23,0v-.769a1.615,1.615,0,1,1,3.23,0Z" transform="translate(-432.346 -193.301)"/><path class="d" d="M334.072,284.248h-1.748l-7.588-15.581v15.581h-1.69v-16l-7.793,16H313.37l9.016-18.516.66.326V261.38h1.69v4.577l.455-.225Z" transform="translate(-283.936 -241.308)"/><path class="d" d="M474.08,229.08v.692a2.152,2.152,0,1,1-4.3,0v-.692h.538v.692a1.615,1.615,0,1,0,3.23,0v-.692Z" transform="translate(-432.342 -212.809)"/><rect class="c" width="65.027" height="29.362" transform="translate(10.509 14.502)"/><rect class="e" width="62.567" height="26.749" transform="translate(11.663 15.428)"/><g class="f" transform="translate(17.841 19.545)"><rect class="g" width="2.958" height="1.347"/></g><g class="f" transform="translate(17.841 21.64)"><rect class="g" width="2.958" height="1.347"/></g><g class="f" transform="translate(17.841 23.734)"><rect class="g" width="2.958" height="1.347"/></g><g class="f" transform="translate(17.841 25.828)"><rect class="g" width="2.958" height="1.347"/></g><g class="f" transform="translate(17.841 27.923)"><rect class="g" width="2.958" height="1.347"/></g><g class="f" transform="translate(17.841 30.017)"><rect class="g" width="2.958" height="1.347"/></g><g class="f" transform="translate(17.841 32.111)"><rect class="g" width="2.958" height="1.347"/></g><g class="f" transform="translate(17.841 34.205)"><rect class="g" width="2.958" height="1.347"/></g><g class="f" transform="translate(21.469 35.288)"><rect class="g" width="2.958" height="1.347"/></g><g class="f" transform="translate(26.247 35.288)"><rect class="g" width="2.958" height="1.347"/></g><g class="f" transform="translate(31.023 35.288)"><rect class="g" width="2.958" height="1.347"/></g><g class="f" transform="translate(35.801 35.288)"><rect class="g" width="2.958" height="1.347"/></g><g class="f" transform="translate(40.578 35.288)"><rect class="g" width="2.958" height="1.347"/></g><g class="f" transform="translate(45.356 35.288)"><rect class="g" width="2.958" height="1.347"/></g><g class="f" transform="translate(50.132 35.288)"><rect class="g" width="2.958" height="1.347"/></g><g class="f" transform="translate(54.91 35.288)"><rect class="g" width="2.958" height="1.347"/></g><g class="f" transform="translate(59.687 35.288)"><rect class="g" width="2.958" height="1.347"/></g><rect class="g" width="2.958" height="8.444" transform="translate(21.469 26.81)"/><rect class="g" width="2.958" height="12.352" transform="translate(26.247 23.399)"/><rect class="g" width="2.958" height="15.631" transform="translate(31.023 20.578)"/><rect class="g" width="2.958" height="13.931" transform="translate(35.801 22.035)"/><rect class="g" width="2.958" height="16.889" transform="translate(40.578 19.508)"/><g class="f" transform="translate(45.356 25.078)"><rect class="g" width="2.958" height="10.421"/></g><g class="f" transform="translate(50.132 25.078)"><rect class="g" width="2.958" height="10.421"/></g><g class="f" transform="translate(54.91 25.078)"><rect class="g" width="2.958" height="10.421"/></g><g class="f" transform="translate(59.687 25.078)"><rect class="g" width="2.958" height="10.421"/></g><path class="c" d="M403.28,308.39l-25.33,1.559v.494l25.87-1.026Z" transform="translate(-342.703 -282.633)"/><path class="h" d="M727.267,174.689a5.989,5.989,0,0,0,.973-4.291,58.419,58.419,0,0,0-1.626-6.862s.553-2.376-2.448-2.71a13.008,13.008,0,0,1-3.2-.909,2.814,2.814,0,0,1-1.146-.878s-.018.039-.052.111a1.219,1.219,0,0,1-.081-.111s-.007.014-.019.04l-.51-.608-.188.15a3.922,3.922,0,0,1-.521-.719,3.334,3.334,0,0,0,.372-.091.783.783,0,0,0,.3-.149.522.522,0,0,0,.138-.263,2.464,2.464,0,0,0,.069-.923,3.508,3.508,0,0,1-.07-.723c.023-.259.143-.51.159-.77a1.739,1.739,0,0,0-.635-1.257,9.048,9.048,0,0,1-.654-.649c-.165-.2-.284-.423-.462-.619a3.042,3.042,0,0,0-1.824-.818,8.438,8.438,0,0,0-2.16.054c-.625.08-1.25.2-1.875.224a2.97,2.97,0,0,0-1.491.16,1.077,1.077,0,0,0-.581.8.328.328,0,0,0,.016.16,1.075,1.075,0,0,0,.1.156c.222.335-.116.734-.072,1.108a.884.884,0,0,0,.854.645c-.02.032-.042.063-.06.1a2.643,2.643,0,0,0,.219,3.009,4.581,4.581,0,0,0,3.31,1.627l.194.114c.438.259.929.57,1.4.908l-.009.006-.077-.034a4.372,4.372,0,0,1-.454.24,5.151,5.151,0,0,1-1.942.5,3.652,3.652,0,0,0-1.916,2.488,9.5,9.5,0,0,1-4.2,1.585c-2.8.319-6.252.424-6.252.424a1.2,1.2,0,0,0-.068.109l-.319-.045a.342.342,0,0,1-.014.08l-.125-.043c-.989-.331-2.964-.814-3.214.517-.336,1.785,1.886,1.58,1.886,1.58a12.81,12.81,0,0,1,1.347-.314l.124-.018a.5.5,0,0,0,.088.131h.3a2.733,2.733,0,0,0,.378.471l7.042-.118a9.6,9.6,0,0,1,2.314-.073c-.484,2.775-1.057,5.819-1.057,5.819s-1.2,4.82-.359,5.324q.73-.187,1.486-.3a4.024,4.024,0,0,0,.123.887l.537,2.691a17.525,17.525,0,0,0,.905,4.391l.615,2.244.515,1.7.29,2.878a21.648,21.648,0,0,1,.861,3.708,24.741,24.741,0,0,0,1.945,5.47,4.6,4.6,0,0,1-2.839,1.57c-1.855.137-1.9.994-.6,1.3a16.557,16.557,0,0,0,4.024,0l3.847-.729c-.116.544-.176.973-.092,1.02.246.137,3.979.878,4.114-.308q.016-.147.028-.285a4.738,4.738,0,0,0-.391-2.244c-.03-.071-.057-.143-.081-.215a1.435,1.435,0,0,0,.152-.151s.269-3.2.47-4.351a2.681,2.681,0,0,0,.031-.33,32.9,32.9,0,0,0-.563-5,14.7,14.7,0,0,1-.779-3.438.818.818,0,0,1,.059-.265.23.23,0,0,0-.01-.057.127.127,0,0,1,.016-.046,19.6,19.6,0,0,1-.353-3.438,2.082,2.082,0,0,1,.1-.567,2.894,2.894,0,0,0,.1-.74c.052-.878-.008-2.4-.092-3.818a.659.659,0,0,0,.026-.076.583.583,0,0,0-.051-.335c-.006-.092-.011-.183-.018-.273a2.55,2.55,0,0,0,.088-.285h.054v.006s3.5-.129,4.309-.848c0,0-.814-1.938-1.265-3.513Zm-15.1-6.027-.055-.015c.089-.24.194-.518.313-.81C712.328,168.153,712.24,168.44,712.172,168.662Zm3.555-7.943.016.011-.017-.007Zm4.376,41.559a13.354,13.354,0,0,1-.914-3.492.781.781,0,0,1,.057-.248,1.453,1.453,0,0,0,.1-.541,11.214,11.214,0,0,0-.429-2.818,11.559,11.559,0,0,1-1.042-4.376c0-.049.007-.1.011-.146.019-.184.033-.382.044-.592v0c.043-.748.033-1.649.005-2.489l-.006-.031c-.039-1.112-.11-2.113-.141-2.509a44.133,44.133,0,0,0,1.059,4.719,9.585,9.585,0,0,0,.872,3.034l.784,3.614a46.231,46.231,0,0,0,.536,5.516,11.271,11.271,0,0,0,.372,1.144c-.135.485-.354,1.3-.5,1.969a10.46,10.46,0,0,0-.81-2.75Z" transform="translate(-641.321 -139.332)"/><path class="i" d="M846.1,781.271s-1.308,2.37-3.147,2.548-1.883,1.285-.6,1.684a12.6,12.6,0,0,0,3.989,0l3.855-.952s-.466-3.811-1.086-4.01S846.1,781.271,846.1,781.271Z" transform="translate(-768.862 -719.471)"/><path class="i" d="M924.388,785.851s-.975,4.387-.729,4.565,3.944,1.13,4.077-.4q.016-.193.028-.369a7.822,7.822,0,0,0-.388-2.9,2.322,2.322,0,0,1-.15-.9C927.287,785.231,924.388,785.851,924.388,785.851Z" transform="translate(-844.256 -724.007)"/><path class="j" d="M855.958,209.436s-2.991,7.348-2.459,4.988c.352-1.563-1.924-3.64-3.5-4.86-.8-.625-1.42-1.022-1.42-1.022s5.616-6.548,5.218-3.723a4.254,4.254,0,0,0,.306,2.28A5.975,5.975,0,0,0,855.958,209.436Z" transform="translate(-775.204 -190.293)"/><path class="j" d="M702.275,331.872a1.714,1.714,0,0,0-.685.043,10.288,10.288,0,0,0-1.335.405,1.626,1.626,0,0,1-1.869-2.043c.247-1.721,2.2-1.1,3.185-.669.333.147.554.27.554.27Z" transform="translate(-639.087 -304.547)"/><path class="d" d="M729.07,335.924a1.715,1.715,0,0,0-.685.043,6.414,6.414,0,0,1-.019-2.307c.333.147.554.27.554.27Z" transform="translate(-665.98 -308.628)"/><path class="k" d="M730.209,333.334l-.576-.1s-.295,1.98.091,2.5h.663Z" transform="translate(-667.123 -308.248)"/><path class="i" d="M816.238,365.5s-1.761-1.053-1.971.276-.488,3.6-.488,3.6l-.488,2.891-.631,5.793.089.986s1.876-.631,2.315-.409.8-2.437.8-2.437l.729-2.748.11-5.827Z" transform="translate(-742.491 -338.536)"/><path class="d" d="M816.238,365.5s-1.761-1.053-1.971.276-.488,3.6-.488,3.6l-.488,2.891-.631,5.793.089.986s1.876-.631,2.315-.409.8-2.437.8-2.437l.729-2.748.11-5.827Z" transform="translate(-742.491 -338.536)"/><path class="i" d="M742.525,303.4a8.449,8.449,0,0,1-4.6,2.476c-2.775.415-6.2.549-6.2.549a3,3,0,0,0,.382,3.19l6.981-.154a6.749,6.749,0,0,1,2.742,0Z" transform="translate(-669.429 -281.166)"/><path class="l" d="M742.525,303.4a8.449,8.449,0,0,1-4.6,2.476c-2.775.415-6.2.549-6.2.549a3,3,0,0,0,.382,3.19l6.981-.154a6.749,6.749,0,0,1,2.742,0Z" transform="translate(-669.429 -281.166)"/><path class="m" d="M692.29,384.58" transform="translate(-633.41 -355.102)"/><path class="d" d="M853.808,207.035a3.924,3.924,0,0,1-3.584,2.534c-.076,0-.15,0-.224-.005-.8-.625-1.42-1.022-1.42-1.022s5.616-6.548,5.218-3.723A4.168,4.168,0,0,0,853.808,207.035Z" transform="translate(-775.06 -190.037)"/><path class="j" d="M831.823,177.284a4.272,4.272,0,1,1-1.25-3.032,4.281,4.281,0,0,1,1.25,3.032Z" transform="translate(-752.373 -161.618)"/><path class="k" d="M844.942,277.092s-9.548.843-9.9-.376.974-4.52.974-4.52l-.431-4.609-.016-.176s1.2-4.986,1.152-5.384a53.912,53.912,0,0,1,2.33-5.4c.048-.1.073-.153.073-.153l.076.044.033.02.468.273,1.847-.438,2.227-1.166.208,12.755Z" transform="translate(-763.081 -238.138)"/><path class="d" d="M862.917,268.662a.761.761,0,0,0-.909.476,6.766,6.766,0,0,1-.354.82l-.254,1.517-.466,2.4-.344,10.6.155,1.883.853-1.517.155-9.91V273.7a8.924,8.924,0,0,1,.711-3.095l.119-.278.742-.953Z" transform="translate(-785.762 -250.123)"/><path class="i" d="M861.647,267.382a.76.76,0,0,0-.909.476,6.721,6.721,0,0,1-.355.82l-.254,1.518-.466,2.4-.343,10.6.155,1.884.853-1.522.155-9.9v-1.236a8.969,8.969,0,0,1,.711-3.095l.12-.278.742-.952Z" transform="translate(-784.613 -248.944)"/><path class="d" d="M882.148,241.31a17.346,17.346,0,0,1-3.058,2.681,6.955,6.955,0,0,0,.8,2.171,33.615,33.615,0,0,1,2.791-2.614l.352-.862Z" transform="translate(-802.574 -224.125)"/><path class="k" d="M882.148,240a17.346,17.346,0,0,1-3.058,2.681,6.955,6.955,0,0,0,.8,2.171,33.618,33.618,0,0,1,2.791-2.614l.352-.861Z" transform="translate(-802.574 -222.924)"/><path class="d" d="M844.3,267.37l-.023.063-.724,1.941-1.3,3.662s-.011.038-.034.1c-.215.667-1.368,4.286-1.6,5.337l-.016-.176s1.2-4.986,1.152-5.384a53.9,53.9,0,0,1,2.33-5.4c.065-.044.115-.081.149-.109Z" transform="translate(-767.751 -248.437)"/><path class="i" d="M817.315,267.36l-.748,2-1.3,3.662s-.011.038-.034.1c-.227.711-1.522,4.767-1.627,5.509-.118.815-1.746,5.219-1.746,5.219l-.93,7.626c-.834-.647.35-6.877.35-6.877s1.33-9.239,1.644-12.313,2.012-3.972,2.012-3.972a4.244,4.244,0,0,0,1.924-.651A4.064,4.064,0,0,0,817.315,267.36Z" transform="translate(-740.826 -249.548)"/><path class="d" d="M841.886,478.2c-.2,1.485-.465,5.627-.465,5.627-.93,1.4-2.991.642-2.991.642a9.328,9.328,0,0,1-.553-1.994c-.332-1.578-.531-7.134-.531-7.134l-.776-4.668a15.425,15.425,0,0,1-.864-3.922c-.313-.82-1.064-6.2-1.064-6.2a70.748,70.748,0,0,1,.112,7.378,17.875,17.875,0,0,0,1.018,5.978s.688,3.213.332,4.211.887,5.117.887,5.117c-.1,1.2-3.632.71-3.632.71a39.738,39.738,0,0,1-1.951-7.135,35.43,35.43,0,0,0-.853-4.793l-.288-3.723-.511-2.2-.609-2.9a29.183,29.183,0,0,1-.9-5.683l-.532-3.49a11.108,11.108,0,0,1,.4-4.811c.13-.46.234-.74.234-.74a20.926,20.926,0,0,0,2.958.677,5.186,5.186,0,0,0,1.511.121,33.665,33.665,0,0,0,6.751-1.238c.149-.045.228-.071.228-.071l.047.4.11.95.2,1.687s.6,9,.244,10.211.244,5.314.244,5.314c-.332.972.708,4.923.708,4.923A47.376,47.376,0,0,1,841.886,478.2Z" transform="translate(-756.711 -421.561)"/><path class="n" d="M841.886,476.993c-.2,1.485-.465,5.627-.465,5.627-.93,1.4-2.991.642-2.991.642a9.328,9.328,0,0,1-.553-1.993c-.332-1.576-.531-7.135-.531-7.135l-.776-4.674a15.706,15.706,0,0,1-.864-3.927c-.313-.82-1.064-6.2-1.064-6.2a70.748,70.748,0,0,1,.112,7.378,17.91,17.91,0,0,0,1.018,5.982s.688,3.213.332,4.211.887,5.118.887,5.118c-.1,1.2-3.632.709-3.632.709a39.628,39.628,0,0,1-1.951-7.131,35.432,35.432,0,0,0-.853-4.793l-.288-3.722-.511-2.193-.609-2.9a29.2,29.2,0,0,1-.9-5.684l-.532-3.49a11.109,11.109,0,0,1,.4-4.811c.13-.458.234-.739.234-.739a20.947,20.947,0,0,0,2.958.676,5.148,5.148,0,0,0,1.511.121,33.666,33.666,0,0,0,6.751-1.238l.228-.07.047.4.11.951.2,1.687s.6,8.994.244,10.211.244,5.314.244,5.314c-.332.971.708,4.922.708,4.922A47.278,47.278,0,0,1,841.886,476.993Z" transform="translate(-756.711 -420.486)"/><path class="d" d="M835.021,177.319a4.272,4.272,0,0,1-.567,2.134,2.24,2.24,0,0,1-1.875-.453,9.21,9.21,0,0,1-.857-1.062,6.434,6.434,0,0,0-.612-.6,1.943,1.943,0,0,0-.482-.351.655.655,0,0,0-.578-.006c-.235.131-.313.424-.449.657a.879.879,0,0,1-.491.428.521.521,0,0,1-.587-.2c-.145-.249-.039-.638-.281-.79a1.55,1.55,0,0,0-.2-.081c-.313-.142-.349-.562-.376-.905a.564.564,0,0,0-.192-.45.883.883,0,0,0-.5-.042.645.645,0,0,1-.149-.011,4.281,4.281,0,0,1,8.2,1.735Z" transform="translate(-755.579 -161.571)"/><path class="o" d="M819.326,155.218a1.43,1.43,0,0,0-.576,1.036.534.534,0,0,0,.016.2,1.38,1.38,0,0,0,.1.2c.219.434-.116.949-.073,1.434a.953.953,0,0,0,.938.834c.169,0,.354-.05.5.042a.563.563,0,0,1,.192.45c.027.344.061.764.375.905a1.758,1.758,0,0,1,.2.081c.244.152.138.542.282.79a.521.521,0,0,0,.587.2.875.875,0,0,0,.49-.427c.134-.234.215-.521.45-.657a.652.652,0,0,1,.578.005,1.945,1.945,0,0,1,.482.352,6.308,6.308,0,0,1,.612.6,9.291,9.291,0,0,0,.857,1.061,2.369,2.369,0,0,0,2.424.3.735.735,0,0,0,.3-.192.765.765,0,0,0,.137-.341,4.133,4.133,0,0,0,.069-1.193,5.922,5.922,0,0,1-.07-.938c.022-.336.142-.66.158-1a2.564,2.564,0,0,0-.625-1.628c-.217-.28-.461-.54-.648-.84-.164-.26-.282-.547-.457-.8a2.756,2.756,0,0,0-1.809-1.06,6.427,6.427,0,0,0-2.14.071,17.385,17.385,0,0,1-1.863.289C820.262,155.043,819.822,154.858,819.326,155.218Z" transform="translate(-748.36 -142.009)"/><path class="d" d="M856.868,267.36l-.748,2-1.3,3.662s-.011.038-.034.1v.005l1.63-5.466A4.063,4.063,0,0,0,856.868,267.36Z" transform="translate(-780.475 -248.073)"/><path class="j" d="M932.445,479.353s.077,2.426-.576,3.035l-1.739-3.279,1.459-.71Z" transform="translate(-850.089 -441.465)"/><path class="d" d="M892.606,273.048c-.8.93-4.272,1.1-4.272,1.1l-3.438-5.418a11.133,11.133,0,0,1-2.342-3.108,9.412,9.412,0,0,1-1.393-5.965c.085-1.463,1.042-5.667,1.042-5.667.149-.946,2.292-6.877,2.292-6.877a3.045,3.045,0,0,0,1.134,1.134,10.56,10.56,0,0,0,3.171,1.175c2.976.432,2.427,3.506,2.427,3.506s.033,11.948-.15,13.378S892.606,273.048,892.606,273.048Z" transform="translate(-806.191 -231.134)"/><path class="k" d="M855.983,446.1l-.1.887-1.208-.443-.886-1.341.665-.521Z" transform="translate(-773.583 -407.558)"/><path class="d" d="M845.151,448.6l-.631.065-6.088.609a9.861,9.861,0,0,1-2.928-.144l-2.824-.565c.13-.458.234-.739.234-.739a20.952,20.952,0,0,0,2.958.676,5.149,5.149,0,0,0,1.511.121,33.666,33.666,0,0,0,6.751-1.238l.275.328Z" transform="translate(-761.178 -412.821)"/><g class="p" transform="translate(71.631 26.263)"><path d="M834.985,451.653a.546.546,0,0,1-.058-.033.03.03,0,0,1-.006.016Z" transform="translate(-834.92 -451.111)"/><path d="M934.477,470.224s-1.042-3.951-.709-4.922c0,0-.6-4.095-.243-5.314s-.245-10.211-.245-10.211l-.2-1.687-.11-.951-.046-.4-.229.07-.142.042.018.154.11.95.2,1.687s.6,9,.245,10.211.243,5.314.243,5.314c-.332.972.708,4.922.708,4.922a47.745,47.745,0,0,1,.532,6.758c-.2,1.484-.466,5.627-.466,5.627a2.4,2.4,0,0,1-2.6.75l.011.025s2.061.754,2.991-.642c0,0,.266-4.144.466-5.627A47.317,47.317,0,0,0,934.477,470.224Z" transform="translate(-921.473 -446.74)"/><path d="M885.413,584c.354-1-.332-4.211-.332-4.211a17.99,17.99,0,0,1-1.019-5.982c.083-1.062.078-2.518.043-3.855-.282-1.724-.553-3.647-.553-3.647a70.936,70.936,0,0,1,.113,7.377,17.955,17.955,0,0,0,1.018,5.983s.688,3.212.332,4.209.885,5.113.885,5.113c-.089.959-2.365.833-3.269.75l.034.092s3.523.488,3.633-.709C886.3,589.123,885.059,585,885.413,584Z" transform="translate(-877.659 -553.851)"/></g><path class="i" d="M893.87,273.048c-.8.93-4.272,1.1-4.272,1.1l-3.438-5.418a11.143,11.143,0,0,1-2.343-3.108,9.412,9.412,0,0,1-1.393-5.965c.084-1.463,1.042-5.667,1.042-5.667.149-.946,2.292-6.877,2.292-6.877a3.031,3.031,0,0,0,1.134,1.134,10.561,10.561,0,0,0,3.171,1.175c2.975.432,2.426,3.506,2.426,3.506s.033,11.948-.15,13.378S893.87,273.048,893.87,273.048Z" transform="translate(-807.322 -231.134)"/><path class="d" d="M886.7,250.024l-.748.278.5.349-3.72,8.973c.087-1.459,1.042-5.667,1.042-5.667.149-.946,2.292-6.877,2.292-6.877a3.031,3.031,0,0,0,1.134,1.134Z" transform="translate(-805.902 -229.888)"/><path class="d" d="M851.5,386.6l3.805-.98.5,1.545-3.889.948Z" transform="translate(-771.531 -353.449)"/><path class="d" d="M931.464,279.49s-1.729,1.627-1.076,5.251,1.7,7.56,1.7,7.56L929.27,300.1s1.961,2.044,2.925,2.292L935,296.156a9.516,9.516,0,0,0,.964-5.549c-.349-3.389-1.612-8.874-1.612-8.874S934.356,278.394,931.464,279.49Z" transform="translate(-849.319 -260.44)"/><path class="i" d="M932.7,279.49s-1.73,1.627-1.079,5.251,1.694,7.56,1.694,7.56L930.5,300.1s1.961,2.044,2.925,2.292l2.813-6.232a9.516,9.516,0,0,0,.964-5.549c-.349-3.389-1.612-8.874-1.612-8.874S935.59,278.394,932.7,279.49Z" transform="translate(-850.421 -260.44)"/><path class="d" d="M927.781,480.625s2.193,3.036,2.028,3.845a.492.492,0,0,1-.809.376l-.864-1.185-.776-2.216S927.436,480.489,927.781,480.625Z" transform="translate(-847.608 -443.535)"/><path class="d" d="M925.231,480.625s2.188,3.036,2.028,3.845a.492.492,0,0,1-.809.376l-.865-1.185-.775-2.216S924.886,480.489,925.231,480.625Z" transform="translate(-845.324 -443.535)"/><path class="n" d="M926.511,480.625s2.188,3.036,2.027,3.845a.492.492,0,0,1-.809.376l-.864-1.185-.775-2.216S926.165,480.489,926.511,480.625Z" transform="translate(-846.471 -443.535)"/></g></svg>