<svg xmlns="http://www.w3.org/2000/svg" width="100" height="54.399" viewBox="0 0 100 54.399"><defs><style>.a{fill:#3f3d56;}.b{fill:#6c63ff;}.c{fill:#d0cde1;}.d{fill:#ffb8b8;}.e{fill:#2f2e41;}.f{fill:#575a89;}.g{opacity:0.1;}</style></defs><g transform="translate(0 0)"><rect class="a" width="32.527" height="0.218" transform="translate(0.003 52.656)"/><path class="a" d="M125.583,598.354l-.062-.136a8.163,8.163,0,0,1,3.172-10.6l.126-.08.062.136a8.164,8.164,0,0,1-3.172,10.6Zm-.294-5.979a9.146,9.146,0,0,0,.41,5.592,7.873,7.873,0,0,0,3.005-10.038,9.157,9.157,0,0,0-3.415,4.447Z" transform="translate(-122.051 -545.379)"/><path class="b" d="M104.305,594.112a9.331,9.331,0,0,1-.75,5.8,8.033,8.033,0,0,1-2.629-10.568A9.331,9.331,0,0,1,104.305,594.112Z" transform="translate(-99.976 -546.983)"/><path class="a" d="M476.717,266.769H412.533a.653.653,0,0,1-.653-.653v-39.49a.653.653,0,0,1,.653-.653h64.184a.653.653,0,0,1,.653.653v39.49a.653.653,0,0,1-.653.653Zm-64.184-40.578a.436.436,0,0,0-.435.435v39.49a.436.436,0,0,0,.435.435h64.184a.436.436,0,0,0,.435-.435v-39.49a.436.436,0,0,0-.435-.435Z" transform="translate(-386.752 -223.146)"/><path class="b" d="M475.256,199.974H410.429a.547.547,0,0,0-.549.544v3.7H475.8v-3.7A.547.547,0,0,0,475.256,199.974Z" transform="translate(-384.969 -199.974)"/><circle class="c" cx="0.673" cy="0.673" r="0.673" transform="translate(82.241 1.393)"/><circle class="c" cx="0.673" cy="0.673" r="0.673" transform="translate(84.396 1.393)"/><circle class="c" cx="0.673" cy="0.673" r="0.673" transform="translate(86.551 1.393)"/><path class="a" d="M481.118,316.167H450.875V293.974h30.243Zm-30.025-.218H480.9V294.192H451.093Z" transform="translate(-416.979 -283.748)"/><rect class="a" width="6.962" height="1.197" transform="translate(68.962 15.556)"/><rect class="a" width="6.962" height="1.197" transform="translate(74.23 26.87)"/><rect class="a" width="19.582" height="1.197" transform="translate(66.684 19.037)"/><rect class="a" width="19.582" height="1.197" transform="translate(66.684 20.996)"/><rect class="a" width="19.582" height="1.197" transform="translate(66.684 22.954)"/><path class="a" d="M955.556,540.175a7.874,7.874,0,0,1,2.229-1.24,7.883,7.883,0,0,1-2.229-1.24l.4,1.11h-2.083v.261h2.083Z" transform="translate(-869.785 -500.955)"/><rect class="a" width="84.256" height="0.218" transform="translate(15.745 43.406)"/><rect class="b" width="12.995" height="12.151" transform="translate(42.695 16.624)"/><rect class="a" width="2.729" height="12.865" transform="translate(47.82 16.299)"/><path class="a" d="M567.064,324.145c.871.748.6,2.488.6,2.488s-1.68.528-2.551-.22-.6-2.488-.6-2.488S566.192,323.4,567.064,324.145Z" transform="translate(-518.156 -310.279)"/><path class="a" d="M592.99,325.563c-.745.874-2.486.612-2.486.612s-.533-1.678.212-2.552,2.486-.612,2.486-.612S593.735,324.689,592.99,325.563Z" transform="translate(-541.417 -309.594)"/><path class="d" d="M95.269,457.826l.109.979L94.4,458.7v-1.2Z" transform="translate(-84.129 -407.73)"/><path class="d" d="M195.508,457.826l-.109.979.979-.109v-1.2Z" transform="translate(-175.877 -407.73)"/><path class="e" d="M188.5,466.474l-.435,11.205s-1.414,8.377-1.088,8.594,0,1.414,0,1.414l1.849.218s0-.87.435-1.2,4.46-15.665,4.46-15.665l4.134,14.8s-.109.87.218.87.435,1.2.435,1.2h1.849v-1.2s.544-.109.218-.979-1.523-19.255-1.523-19.255Z" transform="translate(-177.466 -437.483)"/><path class="e" d="M164.827,658.97s-.544-.326-.762-.109-1.958,2.393-1.958,2.393-2.393,1.523-.218,1.958,3.808-1.632,3.916-1.849-.109-1.958-.218-1.741-.435.109-.544,0A2.255,2.255,0,0,1,164.827,658.97Z" transform="translate(-154.34 -608.874)"/><path class="e" d="M294.111,658.97s.544-.326.762-.109,1.958,2.393,1.958,2.393,2.393,1.523.218,1.958-3.808-1.632-3.916-1.849.109-1.958.218-1.741.435.109.544,0A2.256,2.256,0,0,0,294.111,658.97Z" transform="translate(-273.872 -608.874)"/><circle class="d" cx="2.23" cy="2.23" r="2.23" transform="translate(15.383 8.431)"/><path class="d" d="M145.725,108.609l-.326,3.372,2.611.544.653-4.025Z" transform="translate(-129.581 -96.697)"/><path class="f" d="M211.881,332.583s-.653,1.414-3.046-.109l-4.46,14.577s5.983,3.59,9.791.87l-1.305-14.686Z" transform="translate(-193.017 -318.06)"/><path class="e" d="M200.554,315.8l-2.067-.326-.218,1.414s-2.828.326-3.155,1.414l.326,8.05s-.979,1.741-.109,2.828c0,0-1.414,2.937-.326,3.481,0,0,2.5-1.2,4.025-.87,0,0,.87-.218.87-.87S200.554,315.8,200.554,315.8Z" transform="translate(-184.301 -302.909)"/><path class="e" d="M269.816,320.474l1.2.326.109,1.523s2.937,1.849,3.046,2.937-2.176,6.31-2.176,6.31a3.98,3.98,0,0,1,.544,2.5s1.414,2.828.544,3.59c0,0-1.632.435-1.849-.218s-2.176-8.159-1.305-11.749C269.925,325.7,269.054,321.127,269.816,320.474Z" transform="translate(-252.62 -307.365)"/><path class="a" d="M253.433,338.533h-.041v-1.122a.649.649,0,0,0-.649-.649h-2.377a.649.649,0,0,0-.649.649v6.154a.649.649,0,0,0,.649.649h2.377a.649.649,0,0,0,.649-.649v-4.234h.041Z" transform="translate(-233.427 -321.882)"/><path class="d" d="M272.134,376.07s-.87-2.828-2.176-1.958.87,3.264.87,3.264Z" transform="translate(-251.094 -355.02)"/><path class="d" d="M238.375,364.545s1.523-1.849,2.285-.979-1.305,2.828-1.305,2.828Z" transform="translate(-223.319 -345.562)"/><path class="e" d="M182.768,340.445s-.544-.109-.87.87a45.611,45.611,0,0,0-1.523,5.331c0,.653.435,3.264,2.828,2.828s5.222-3.481,5.222-3.481l-1.523-2.285-3.264,1.958Z" transform="translate(-171.628 -325.16)"/><path class="g" d="M106.528,165.278l.455,2.347,3.372-1.958-3.155,1.2-.7-1.726Z" transform="translate(-94.918 -147.173)"/><path class="g" d="M194.9,178.2l.435.326.218-1.523Z" transform="translate(-175.422 -157.745)"/><path class="g" d="M201.875,403.252s3.2-.869,4.7-2.774A6.3,6.3,0,0,1,201.875,403.252Z" transform="translate(-190.789 -378.667)"/><path class="g" d="M275.875,407.974s.673,3.293,2.4,3.387C278.278,411.361,276.2,412,275.875,407.974Z" transform="translate(-256.739 -385.347)"/><path class="e" d="M279.856,360.474s.326.218.544,1.2,1.632,4.678,1.088,5.548-1.414,2.828-3.264,1.523l-1.849-3.372,1.849-1.741.762.544Z" transform="translate(-258.816 -343.014)"/><path class="e" d="M235.671,269.765s-1.87-3.031.122-3.189a5.079,5.079,0,0,0,1.91-.521c.66-.336,1.492-.591,1.934-.074a3.286,3.286,0,0,0,.669.619c.389.258.838.675.589,1.124l-.408.735-.571,1.469c.133-.634.136-1.166-.2-1.428,0,0-1.9.808-2.857-.653C235.783,267.043,235.442,269.574,235.671,269.765Z" transform="translate(-220.2 -258.539)"/><circle class="b" cx="0.544" cy="0.544" r="0.544" transform="translate(17.613 16.535)"/></g></svg>