<svg xmlns="http://www.w3.org/2000/svg" xmlns:xlink="http://www.w3.org/1999/xlink" width="100" height="64.653" viewBox="0 0 100 64.653"><defs><style>.a{fill:#85848b;}.b{fill:#504f60;}.c{opacity:0.2;}.d{fill:#6c63ff;}.e{fill:#514e7f;}.f{fill:#464353;}.g{fill:#a1616a;}.h,.s{opacity:0.1;}.i{fill:#33323d;}.j{fill:#8dd070;}.k{fill:#fbbebe;}.l,.p{opacity:0.05;}.m{fill:#3f3d56;}.n{fill:url(#a);}.o{fill:#2d293d;}.q{fill:#ffcdd3;}.r{fill:#575988;}</style><linearGradient id="a" x1="0.5" y1="1" x2="0.5" gradientUnits="objectBoundingBox"><stop offset="0" stop-color="gray" stop-opacity="0.251"/><stop offset="0.54" stop-color="gray" stop-opacity="0.122"/><stop offset="1" stop-color="gray" stop-opacity="0.102"/></linearGradient></defs><rect class="a" width="100" height="0.716" transform="translate(0 63.938)"/><path class="b" d="M781.885,649.826c0,.551-3.21,2.156-7.022,2.156s-6.783-1.605-6.783-2.156,3.09-.373,6.906-.373S781.885,649.275,781.885,649.826Z" transform="translate(-702.729 -598.772)"/><path class="c" d="M781.885,653.72c0,.551-3.21,2.156-7.022,2.156s-6.783-1.605-6.783-2.156" transform="translate(-702.729 -602.664)"/><path class="d" d="M502.026,531.247a4.262,4.262,0,0,0,1.854-.063c.093-.029.2-.093.187-.187a.226.226,0,0,0-.042-.093,5.766,5.766,0,0,1-.56-1.067.093.093,0,0,0-.034-.049.087.087,0,0,0-.06,0c-.273.072-.51.248-.781.324a1.111,1.111,0,0,1-.426.032c-.123-.014-.291-.116-.4-.1C501.823,530.45,501.978,530.831,502.026,531.247Z" transform="translate(-461.982 -490.553)"/><path class="d" d="M623.4,513.827a3.239,3.239,0,0,0,1.071-1.006.175.175,0,0,0,.029-.087.18.18,0,0,0-.035-.084,3.469,3.469,0,0,0-.871-.94,2.54,2.54,0,0,0-.485.448c-.1.108-.386.28-.389.445,0,.093.108.2.159.28.068.1.133.2.194.308A3.656,3.656,0,0,1,623.4,513.827Z" transform="translate(-571.417 -474.194)"/><path class="e" d="M469.167,538.968a.415.415,0,0,1-.075.271.367.367,0,0,1-.157.093c-.865.31-1.867-.077-2.73.229-.177.063-.345.153-.524.213a2.851,2.851,0,0,1-.653.116c-.305.029-.612.048-.918.056a2.208,2.208,0,0,1-.693-.061.832.832,0,0,1-.531-.421.4.4,0,0,1-.026-.3.322.322,0,0,1,.057-.093.817.817,0,0,1,.2-.165l.318-.205a2.137,2.137,0,0,1,.483-.256c.126-.041.259-.059.387-.093a2.629,2.629,0,0,0,1.106-.826l.433-.462a.436.436,0,0,1,.15-.12.416.416,0,0,1,.187-.018,2.5,2.5,0,0,1,1.181.4,1.53,1.53,0,0,0,.291.172,1.04,1.04,0,0,0,.814-.1c.111-.06.087-.093.133-.2s.161-.174.259-.077a.274.274,0,0,1,.062.118,3.311,3.311,0,0,1,.058.962.424.424,0,0,0,.019.149.844.844,0,0,0,.085.138.3.3,0,0,1,.018.035A.949.949,0,0,1,469.167,538.968Z" transform="translate(-426.742 -496.989)"/><path class="f" d="M469.167,554.444a.415.415,0,0,1-.075.271.367.367,0,0,1-.157.093c-.865.31-1.867-.077-2.73.229-.177.063-.345.153-.524.213a2.848,2.848,0,0,1-.653.116c-.305.029-.612.048-.918.056a2.208,2.208,0,0,1-.693-.061.832.832,0,0,1-.531-.421.4.4,0,0,1-.026-.3.324.324,0,0,1,.057-.093c.05.105.087.245.119.3a.606.606,0,0,0,.405.292,1.006,1.006,0,0,0,.373-.048,18.786,18.786,0,0,0,2.371-.491,5.48,5.48,0,0,1,.776-.3,6.105,6.105,0,0,1,.84-.068c.442-.036.871-.169,1.307-.239A.949.949,0,0,1,469.167,554.444Z" transform="translate(-426.742 -512.453)"/><path class="e" d="M603.622,519.263a1.573,1.573,0,0,1-.478.851,5.557,5.557,0,0,0-.669.732,5.894,5.894,0,0,1-.616,1.056,1.689,1.689,0,0,1-.373.266,2.6,2.6,0,0,1-.481.221,3.586,3.586,0,0,1-1.358.074,1.22,1.22,0,0,1-.431-.083,1.3,1.3,0,0,1-.179-.11.857.857,0,0,1-.28-.28.28.28,0,0,1-.027-.2.477.477,0,0,1,.13-.2,3.087,3.087,0,0,1,.329-.3,1.968,1.968,0,0,0,.427-.373,1.206,1.206,0,0,0,.165-.373,3.308,3.308,0,0,0,.12-.714,2.257,2.257,0,0,1,.049-.478c.069-.246.252-.467.231-.721a.18.18,0,0,1,.009-.109.152.152,0,0,1,.086-.053,1.523,1.523,0,0,1,.446-.1.52.52,0,0,1,.414.162c.063.077.105.187.2.216a.316.316,0,0,0,.142.006,1.189,1.189,0,0,0,.653-.2.815.815,0,0,0,.271-.595c0-.085-.038-.174.093-.187.1-.013.177.093.228.159a2.212,2.212,0,0,1,.437.8.236.236,0,0,1,.083-.016.361.361,0,0,1,.3.152A.593.593,0,0,1,603.622,519.263Z" transform="translate(-549.672 -479.639)"/><path class="f" d="M603.965,528.249a1.573,1.573,0,0,1-.478.851,5.565,5.565,0,0,0-.669.732,5.89,5.89,0,0,1-.616,1.056,1.689,1.689,0,0,1-.373.266,2.607,2.607,0,0,1-.481.221,3.585,3.585,0,0,1-1.358.074,1.22,1.22,0,0,1-.431-.083,1.3,1.3,0,0,1-.179-.11.856.856,0,0,1-.28-.28.682.682,0,0,1,.28-.067c.2.011.349.2.542.26.275.083.55-.111.829-.177.182-.043.373-.032.553-.093a1.369,1.369,0,0,0,.41-.248,2.087,2.087,0,0,0,.438-.422,2.708,2.708,0,0,0,.257-.512,7.331,7.331,0,0,1,.519-.993.7.7,0,0,1,.105-.138,1.473,1.473,0,0,1,.143-.1,1.085,1.085,0,0,0,.329-.6,1.044,1.044,0,0,1,.074-.2.361.361,0,0,1,.3.152A.592.592,0,0,1,603.965,528.249Z" transform="translate(-550.015 -488.618)"/><path class="g" d="M438,199.6a1.98,1.98,0,0,1,.56.653,13.482,13.482,0,0,1,.84,2.528c.245-.247,1.213-.287,1.462-.535.1-.1.663-.621.747-.741s.707-.373.776-.5c.255-.456-1.807-2.186-1.543-2.637a.118.118,0,0,0,.021-.071.116.116,0,0,0-.035-.055,3.092,3.092,0,0,0-.6-.408.946.946,0,0,1-.455-.541,1.959,1.959,0,0,0-.527.357q-.567.486-1.115.992c-.143.133-.419.309-.485.5S437.867,199.485,438,199.6Z" transform="translate(-403.955 -189.911)"/><path class="e" d="M452.067,214.13a6.075,6.075,0,0,0-.883.722,1.757,1.757,0,0,0-.56.9c-.026.139-.022.28-.044.421-.093.611-.622,1.059-.855,1.631a2.828,2.828,0,0,0-.148.546,6.457,6.457,0,0,0-.107,1.071c-.006.348.336.588.461.913a5.569,5.569,0,0,1,.222.992,11.759,11.759,0,0,0,.56,1.839c.46,1.271,1.951,4.785,2.412,6.057,1.41-.354,5.164-1.167,6.413-1.912.416-.248-2.889-3.049-2.443-3.242a.166.166,0,0,0,.125-.234c-.445-1.947-1.838-3.546-2.469-5.442a16.515,16.515,0,0,0-.912-1.845c-.271-.567-.415-1.193-.739-1.731a1.093,1.093,0,0,0-.236-.294,1.393,1.393,0,0,0-.26-.158C452.417,214.274,452.245,214.221,452.067,214.13Z" transform="translate(-414.611 -205.18)"/><circle class="g" cx="2.207" cy="2.207" r="2.207" transform="translate(31.875 5.049)"/><path class="f" d="M466.4,205.185a.74.74,0,0,1,.83-.119.4.4,0,0,1,.246.4l1.095.017a2.2,2.2,0,0,1,.519.048.754.754,0,0,1,.433.272c.013.018.028.039.05.042a.08.08,0,0,0,.05-.017.95.95,0,0,1,.545-.093,2.945,2.945,0,0,1,1.6.7.518.518,0,0,1,.187.232c.038.124-.008.28.093.369a13.142,13.142,0,0,0,.588,2.987,1.34,1.34,0,0,0,.331.476,1.92,1.92,0,0,1,.354.528c.2.519-.076,1.129.119,1.65a2.827,2.827,0,0,0,.373.593,1.533,1.533,0,0,1,.319.765c.008.125-.007.251,0,.373a2.259,2.259,0,0,0,.093.5q.119.452.25.9a2.048,2.048,0,0,0,.762,1.267,6.217,6.217,0,0,1-3.157-.012,1.637,1.637,0,0,1-.394-.2,2.269,2.269,0,0,1-.692-1.114,5.263,5.263,0,0,1-.385-1.438,1.65,1.65,0,0,0-.066-.467,1.329,1.329,0,0,0-.62-.584,2.975,2.975,0,0,1-.747-.581,1.16,1.16,0,0,1-.3-.872c.019-.154.079-.3.085-.457a.358.358,0,0,0-.212-.373c-.764-.231-1.129-1.137-1.3-1.917a6.152,6.152,0,0,1-.1-1.223l-.01-.8a1.051,1.051,0,0,1-.343-.755.9.9,0,0,0,0-.25.69.69,0,0,0-.175-.266,2.375,2.375,0,0,1-.419-.587Z" transform="translate(-429.936 -196.892)"/><path class="f" d="M439.717,227.757a6.117,6.117,0,0,1-.024.741c-.021.093-.059.187-.086.273a1.605,1.605,0,0,0,.1,1.039,5.786,5.786,0,0,0,.531.919,1.493,1.493,0,0,1,.17.318,1.647,1.647,0,0,1,.065.363,11.274,11.274,0,0,0,.259,1.467A36.949,36.949,0,0,0,442.3,237.2a.352.352,0,0,0,.213.145.387.387,0,0,0,.181-.037l.56-.215a.366.366,0,0,0,.13-.071.334.334,0,0,0,.08-.22,38.152,38.152,0,0,0-1.3-4.485,34.308,34.308,0,0,1-1.364-3.9,2.831,2.831,0,0,0-.4-1.246c-.113-.123-.075-.071-.21-.007a1.532,1.532,0,0,0-.2.1A.648.648,0,0,0,439.717,227.757Z" transform="translate(-405.702 -216.687)"/><path class="f" d="M556.62,320.79" transform="translate(-511.634 -301.491)"/><path class="d" d="M458.134,223.43c.15.794.305,1.587.459,2.381l2.191-.574a1.54,1.54,0,0,0-.187-.653c-.2-.5-.2-1.059-.366-1.574-.122-.392-.335-.752-.45-1.147-.066-.23-.1-.467-.165-.7a5.082,5.082,0,0,0-.258-.667,4.176,4.176,0,0,0-.478-.886,1.394,1.394,0,0,0-.738.479,1.034,1.034,0,0,0-.136.467c-.038.492.14.986.081,1.476A4.341,4.341,0,0,0,458.134,223.43Z" transform="translate(-422.391 -210.148)"/><path class="f" d="M476.381,327.716a2.617,2.617,0,0,1-.2,1.42,11,11,0,0,0-.446,2.137,1.85,1.85,0,0,1-.11.54c-.069.156-.187.287-.267.436a2.189,2.189,0,0,0-.167,1.312c.032.294.079.587.138.876a2.217,2.217,0,0,1,.057,1.069c.174-.038.291.187.28.363a.968.968,0,0,0,.017.525c.215.078.216.373.21.6a5.064,5.064,0,0,0,.149,1.176q.487,2.343,1.034,4.672a3.607,3.607,0,0,0,2.462.161.494.494,0,0,0,.312-.314.547.547,0,0,0-.03-.241l-.357-1.3a2.382,2.382,0,0,1-.128-.959c.035-.24.139-.5.021-.71-.04-.073-.1-.13-.15-.2-.187-.273-.089-.639-.074-.971a.768.768,0,0,0-.015-.222,1.106,1.106,0,0,0-.106-.244,3.726,3.726,0,0,1-.411-1.854.458.458,0,0,0-.033-.242.778.778,0,0,1-.061-.1.271.271,0,0,1,.02-.178,1.632,1.632,0,0,1-.287-.28.4.4,0,0,0,.069-.629.21.21,0,0,0,.1-.361c-.046-.032-.106-.046-.139-.093-.05-.069-.009-.165.032-.239l.217-.393c.162-.292.2-.653.373-.933a6.993,6.993,0,0,0,.575-1.312l.628-1.733.423.367a1.337,1.337,0,0,1,.347.4,1.708,1.708,0,0,1,.113.474c.155.941.747,1.756.966,2.683a1.768,1.768,0,0,0,.2.6,1.3,1.3,0,0,1,.114.172.911.911,0,0,1,.048.285,1.328,1.328,0,0,0,.56.952c.208.143.467.241.58.467a.872.872,0,0,0,.093.2c.1.121.318.135.361.287.024.085-.021.187.027.261a.247.247,0,0,0,.1.077l.608.3c.679.34,1.027,1.12,1.528,1.688a3.64,3.64,0,0,1,.457.6c.216.387.316.874.682,1.12a1.032,1.032,0,0,1,.265.2c.115.151.073.363.083.553s.156.417.337.359a1.329,1.329,0,0,0,0,.7,3.546,3.546,0,0,0,2.152-.872.849.849,0,0,0,.35-.588.211.211,0,0,0-.026-.117.333.333,0,0,0-.137-.1c-.568-.308-.739-1.022-1.027-1.6a13.877,13.877,0,0,0-.933-1.427c-.676-1.022-1.137-2.259-2.159-2.933a1.469,1.469,0,0,1-.6-.525c-.063-.137-.07-.294-.119-.436a.378.378,0,0,0-.319-.28,1.956,1.956,0,0,0,.073-.678.855.855,0,0,0-.034-.292,1.42,1.42,0,0,0-.15-.289,2.776,2.776,0,0,1-.384-1.493,2.448,2.448,0,0,0-.026-.805c-.041-.13-.113-.248-.162-.373a2.335,2.335,0,0,1-.117-.7l-.056-.9a4.416,4.416,0,0,0-.116-.887c-.187-.7-.373-3.613-1.013-3.941s-1.738,1.916-2.457,1.96a3.2,3.2,0,0,0-.933.18,4.547,4.547,0,0,0-1.271.84L477.2,327.1A4.877,4.877,0,0,1,476.381,327.716Z" transform="translate(-437.797 -303.284)"/><path class="f" d="M414.7,163.623a1.664,1.664,0,0,1,1.284-.626,2.991,2.991,0,0,1,1.42.357,1.754,1.754,0,0,0,.414.17c.233.048.493-.016.7.093a.843.843,0,0,1,.31.84,1.542,1.542,0,0,0,.084.933,2.153,2.153,0,0,1,.161.244.805.805,0,0,1-.013.519,3.362,3.362,0,0,1-.268-.343.316.316,0,0,0-.386-.1c-.12.081-.119.229-.125.361s-.04.291-.165.334a.268.268,0,0,1-.28-.109c-.214-.261-.128-.678-.34-.942-.12-.149-.321-.222-.432-.379-.088-.123-.11-.28-.187-.413s-.255-.23-.373-.138a.505.505,0,0,0-.1.133.574.574,0,0,1-.681.205,1.141,1.141,0,0,0-.295-.128.365.365,0,0,0-.337.187.729.729,0,0,0-.093.39.9.9,0,0,1-.073.535.554.554,0,0,1-.149.142.465.465,0,0,1-.517.053.388.388,0,0,1-.116-.362,2.933,2.933,0,0,1,.11-.383c.082-.289-.025-.615.064-.888A2.833,2.833,0,0,1,414.7,163.623Z" transform="translate(-382.691 -158.817)"/><path class="d" d="M432.752,201.632a.34.34,0,0,0,.021.2.322.322,0,0,0,.11.105,2.264,2.264,0,0,0,1.04.337.316.316,0,0,1,.144.037.253.253,0,0,1,.061.289.753.753,0,0,0-.066.308c.027.2.259.28.454.309a1.055,1.055,0,0,0,.79-.154,1.22,1.22,0,0,0,.326-.488c.536-1.231.723-2.592,1.266-3.819a.81.81,0,0,0,.081-.256.252.252,0,0,0-.1-.235c-.1-.063-.258-.027-.326-.125-.034-.049-.03-.117-.06-.169-.063-.111-.227-.093-.339-.158-.088-.047-.148-.143-.246-.161a.31.31,0,0,0-.255.11,3.282,3.282,0,0,0-.663,1.115,13.07,13.07,0,0,1-.948,1.758,1.025,1.025,0,0,0-.3-.581c-.167-.034-.381.259-.471.369A2.348,2.348,0,0,0,432.752,201.632Z" transform="translate(-399.531 -190.242)"/><path class="h" d="M459.041,200.32a.447.447,0,0,0-.346.174.987.987,0,0,0-.145.467,4.055,4.055,0,0,1-.55,1.476" transform="translate(-422.403 -192.659)"/><path class="h" d="M464.349,204.31a.533.533,0,0,0-.453.272,1.526,1.526,0,0,0-.114.461,2.531,2.531,0,0,1-.453.97" transform="translate(-427.225 -196.276)"/><path class="i" d="M204.673,357.3v-1.159a3.218,3.218,0,0,0-3.218-3.217H155.678a3.218,3.218,0,0,0-3.218,3.217v2.137Z" transform="translate(-146.114 -330.517)"/><path class="j" d="M323.36,268.939s-.131,8.107,1.307,10.774,2.053,14.271,2.053,14.271,15.067,1.559,25.566-1.867,32.84-4.826,32.84-4.826l-3.765-25.375s-18.6-1.193-29.18,3.854S323.36,268.939,323.36,268.939Z" transform="translate(-299.017 -247.819)"/><path class="h" d="M323.36,268.939s-.131,8.107,1.307,10.774,2.053,14.271,2.053,14.271,15.067,1.559,25.566-1.867,32.84-4.826,32.84-4.826l-3.765-25.375s-18.6-1.193-29.18,3.854S323.36,268.939,323.36,268.939Z" transform="translate(-299.017 -247.819)"/><path class="j" d="M358.219,289.307s-.471,6.689.711,8.826,1.238,11.678,1.238,11.678,13.56.629,23.205-2.654,29.915-5.413,29.915-5.413l-2.3-20.752s-16.771-.173-26.559,4.449S358.219,289.307,358.219,289.307Z" transform="translate(-331.365 -265.218)"/><ellipse class="h" cx="3.52" cy="7.55" rx="3.52" ry="7.55" transform="translate(47.393 23.623) rotate(-7.1)"/><path class="c" d="M321.932,130.66s-18.643,4.573-27.434,12.623-27.3,11.861-27.3,11.861,2.438,7.755,4.693,9.853,6.532,12.954,6.532,12.954,15.288-3.141,24.513-9.626,30.723-14.674,30.723-14.674Z" transform="translate(-250.145 -129.5)"/><path class="j" d="M264.29,142.713s2.437,7.756,4.69,9.854,6.532,12.953,6.532,12.953,15.29-3.141,24.516-9.625,30.722-14.671,30.722-14.671L319.021,118.23s-18.642,4.573-27.433,12.623S264.29,142.713,264.29,142.713Z" transform="translate(-247.507 -118.23)"/><path class="h" d="M264.29,142.713s2.437,7.756,4.69,9.854,6.532,12.953,6.532,12.953,15.29-3.141,24.516-9.625,30.722-14.671,30.722-14.671L319.021,118.23s-18.642,4.573-27.433,12.623S264.29,142.713,264.29,142.713Z" transform="translate(-247.507 -118.23)"/><path class="j" d="M308,165.607s1.663,6.512,3.509,8.182,4.933,10.733,4.933,10.733,13.574-3.563,22.044-9.648,27.787-14.323,27.787-14.323L357.4,141.5s-16.6,4.981-24.782,12.384S308,165.607,308,165.607Z" transform="translate(-287.137 -139.328)"/><ellipse class="h" cx="3.52" cy="7.55" rx="3.52" ry="7.55" transform="translate(41.38 19.919) rotate(-24.97)"/><path class="h" d="M205.935,380.466v32.2a2.784,2.784,0,0,1-2.785,2.784H155.273a2.784,2.784,0,0,1-2.783-2.784V377.22a4.917,4.917,0,0,0,2.783.467H203.15A2.785,2.785,0,0,1,205.935,380.466Z" transform="translate(-146.141 -351.727)"/><path class="b" d="M205.935,384.847v32.2a2.785,2.785,0,0,1-2.785,2.784H155.273a2.784,2.784,0,0,1-2.783-2.784V381.6a4.933,4.933,0,0,0,2.783.467H203.15A2.785,2.785,0,0,1,205.935,384.847Z" transform="translate(-146.141 -355.698)"/><path class="h" d="M576.655,543.935v10.3h-9.986a5.149,5.149,0,1,1,0-10.3Z" transform="translate(-515.898 -503.214)"/><path class="i" d="M578.115,541v10.3h-9.986a5.149,5.149,0,1,1,0-10.3Z" transform="translate(-517.218 -500.56)"/><circle class="h" cx="2.007" cy="2.007" r="2.007" transform="translate(49.33 43.828)"/><circle class="d" cx="2.007" cy="2.007" r="2.007" transform="translate(49.47 43.549)"/><path class="k" d="M847.37,526.052c.079.86-.571,1.694-.382,2.536.041.18.119.35.146.532a2.045,2.045,0,0,1-.5,1.392l-2.445,3.588a2.226,2.226,0,0,1-.349.431,3.614,3.614,0,0,1-1.783.5,3.047,3.047,0,0,0-1.195.528.077.077,0,0,0-.011.1,1.027,1.027,0,0,0,.889.417c.064.085,0,.209-.093.27-.132.093-.312.116-.338.338a.366.366,0,0,0,.045.224.7.7,0,0,0,.427.3,2.54,2.54,0,0,0,2.395-.815c.634-.619,1.088-1.4,1.71-2.03.344-.348.735-.647,1.09-.985a12.481,12.481,0,0,0,1.788-2.314,2.581,2.581,0,0,0,.387-.788c.067-.286.035-.576.111-.853a3.143,3.143,0,0,1,.586-.958,3.171,3.171,0,0,0,.666-2.064,1.978,1.978,0,0,0-1.208-1.713,1.073,1.073,0,0,0-.677-.041,1.607,1.607,0,0,0-.689.548l-.467.537a1.258,1.258,0,0,0-.271.411.43.43,0,0,0,.093.456" transform="translate(-768.606 -485.695)"/><path class="l" d="M847.37,526.052c.079.86-.571,1.694-.382,2.536.041.18.119.35.146.532a2.045,2.045,0,0,1-.5,1.392l-2.445,3.588a2.226,2.226,0,0,1-.349.431,3.614,3.614,0,0,1-1.783.5,3.047,3.047,0,0,0-1.195.528.077.077,0,0,0-.011.1,1.027,1.027,0,0,0,.889.417c.064.085,0,.209-.093.27-.132.093-.312.116-.338.338a.366.366,0,0,0,.045.224.7.7,0,0,0,.427.3,2.54,2.54,0,0,0,2.395-.815c.634-.619,1.088-1.4,1.71-2.03.344-.348.735-.647,1.09-.985a12.481,12.481,0,0,0,1.788-2.314,2.581,2.581,0,0,0,.387-.788c.067-.286.035-.576.111-.853a3.143,3.143,0,0,1,.586-.958,3.171,3.171,0,0,0,.666-2.064,1.978,1.978,0,0,0-1.208-1.713,1.073,1.073,0,0,0-.677-.041,1.607,1.607,0,0,0-.689.548l-.467.537a1.258,1.258,0,0,0-.271.411.43.43,0,0,0,.093.456" transform="translate(-768.606 -485.695)"/><path class="m" d="M909.969,767.493a2.83,2.83,0,0,1-1.82.27c-.1-.012-.218-.02-.28.058-.093.112.017.28.131.367a2.693,2.693,0,0,0,1.25.514,8.226,8.226,0,0,0,1.223.081,20.672,20.672,0,0,0,3.342-.122.474.474,0,0,0,.187-.054.342.342,0,0,0,.138-.21.833.833,0,0,0-.29-.8,2.436,2.436,0,0,0-.779-.418l-.971-.378a2.493,2.493,0,0,0-.84-.305C910.794,766.533,910.355,767.267,909.969,767.493Z" transform="translate(-829.276 -704.675)"/><path class="l" d="M909.969,767.493a2.83,2.83,0,0,1-1.82.27c-.1-.012-.218-.02-.28.058-.093.112.017.28.131.367a2.693,2.693,0,0,0,1.25.514,8.226,8.226,0,0,0,1.223.081,20.672,20.672,0,0,0,3.342-.122.474.474,0,0,0,.187-.054.342.342,0,0,0,.138-.21.833.833,0,0,0-.29-.8,2.436,2.436,0,0,0-.779-.418l-.971-.378a2.493,2.493,0,0,0-.84-.305C910.794,766.533,910.355,767.267,909.969,767.493Z" transform="translate(-829.276 -704.675)"/><path class="f" d="M930.837,585.581a2.582,2.582,0,0,0-.722,1.824,4.064,4.064,0,0,0,.4,1.006,7.1,7.1,0,0,1,.407,1.415c.151.7.3,1.409.4,2.124a35.309,35.309,0,0,1-.436,3.956.837.837,0,0,1-.171.549c-.053.056-.124.1-.148.174a.3.3,0,0,0,.033.205,2.259,2.259,0,0,0,1.213,1.114,9.6,9.6,0,0,0,2.34.615.467.467,0,0,0,.22-.029.429.429,0,0,0,.17-.2c.406-.776.016-3.537.021-4.414.006-.731.178-1.457.147-2.187-.026-.586-.187-1.159-.24-1.743a10.289,10.289,0,0,1,.259-2.866c.134-.726.27-1.452.442-2.169a4.162,4.162,0,0,1,.467-1.259c.187-.3.449-.553.666-.84a3.791,3.791,0,0,0,.747-2.776,7.277,7.277,0,0,0-1.522.405,4.743,4.743,0,0,0-1.357.873,11.423,11.423,0,0,0-.855,1.057q-.6.727-1.178,1.464Q931.474,584.728,930.837,585.581Z" transform="translate(-849.133 -535.648)"/><path class="l" d="M930.837,585.276a2.584,2.584,0,0,0-.722,1.824,4.056,4.056,0,0,0,.4,1.007,7.087,7.087,0,0,1,.407,1.414c.151.7.3,1.41.4,2.124a35.285,35.285,0,0,1-.436,3.956.839.839,0,0,1-.171.55c-.053.055-.124.1-.148.173a.3.3,0,0,0,.033.205,2.286,2.286,0,0,0,1.213,1.12,9.015,9.015,0,0,0,2.34.438.467.467,0,0,0,.22-.029.422.422,0,0,0,.17-.194c.406-.776.016-3.36.021-4.237.006-.732.178-1.457.147-2.188-.026-.586-.187-1.159-.24-1.742a10.292,10.292,0,0,1,.259-2.867c.134-.725.27-1.451.442-2.169a4.162,4.162,0,0,1,.467-1.259c.187-.3.449-.553.666-.84a3.79,3.79,0,0,0,.747-2.776,7.277,7.277,0,0,0-1.522.405,4.764,4.764,0,0,0-1.357.874,11.281,11.281,0,0,0-.855,1.056q-.6.727-1.178,1.465Q931.474,584.422,930.837,585.276Z" transform="translate(-849.133 -535.376)"/><circle class="k" cx="2.265" cy="2.265" r="2.265" transform="translate(74.493 32.966)"/><path class="k" d="M890.7,482.741a2.933,2.933,0,0,0,1.881,1.312l-.171.621a5.883,5.883,0,0,1-1.449,2.932,1.363,1.363,0,0,0-.23-1.06,4,4,0,0,0-.769-.8l-1.3-1.129a.4.4,0,0,1-.093-.11.331.331,0,0,1,0-.248,3.027,3.027,0,0,1,1.027-1.189,3.56,3.56,0,0,0,.516-.6C890.369,482.093,890.53,482.466,890.7,482.741Z" transform="translate(-811.864 -447.556)"/><path class="f" d="M852.365,445.9l-.051-.426c.357.093.7-.211.926-.525s.44-.685.789-.817a1.634,1.634,0,0,1,1.275.306,4.031,4.031,0,0,0,1.462.476.964.964,0,0,1,.242.039.841.841,0,0,1,.427.723,2.828,2.828,0,0,0,.158.885c.093.2.267.353.373.552.28.536.009,1.268.3,1.794l-.726-.665c-.066-.061-.16-.124-.233-.073-.058.041-.062.13-.086.2a.381.381,0,0,1-.517.187,1.481,1.481,0,0,1-.467-.423,2.833,2.833,0,0,0-1.152-.874,1.478,1.478,0,0,0-1.213.08c-.339.191-.587.637-1,.653-.569.021-.806-1.039-1.07-1.458a.513.513,0,0,0,.149-.642C851.988,445.882,852.356,445.838,852.365,445.9Z" transform="translate(-778.585 -412.987)"/><path class="g" d="M550.523,316.456a4.411,4.411,0,0,0-.5.528,1.058,1.058,0,0,0-.231.678.347.347,0,0,0,.065.2.168.168,0,0,0,.187.057.251.251,0,0,0,.093-.082,4.5,4.5,0,0,1,.314-.34c.04-.04.093-.082.147-.067a.158.158,0,0,1,.063.042.429.429,0,0,1,.132.205.484.484,0,0,1-.145.4,1.018,1.018,0,0,0-.244.36.16.16,0,0,0,0,.116.174.174,0,0,0,.073.062,1.042,1.042,0,0,0,.881.058c.187-.076.353-.205.545-.273a1.262,1.262,0,0,0,.241-.093.5.5,0,0,0,.214-.32,1.319,1.319,0,0,0,.014-.393,4.517,4.517,0,0,0-.321-1.477.187.187,0,0,0-.054-.078.172.172,0,0,0-.093-.025,2.22,2.22,0,0,0-.861-.059.609.609,0,0,0-.2.181C550.793,316.18,550.523,316.393,550.523,316.456Z" transform="translate(-505.429 -297.066)"/><path class="f" d="M524.3,234.676c0-.228-.28-.777.165-.814,0-.244-.344-.395-.28-.653.021-.086.093-.156.1-.244.028-.249-.422-.385-.347-.623.028-.093.127-.147.148-.24.05-.216-.335-.312-.343-.533,0-.075.042-.145.038-.219,0-.093-.081-.164-.126-.245-.117-.208-.06-.53-.273-.637.141.012.187-.2.129-.325s-.176-.239-.177-.381a.573.573,0,0,0,0-.155c-.039-.136-.262-.147-.3-.28a1.2,1.2,0,0,1,0-.153c-.015-.105-.123-.173-.225-.2a.917.917,0,0,1-.3-.107c-.065-.049-.141-.132-.211-.093-.026.016-.039.046-.059.068-.084.1-.245.055-.35-.017a1.438,1.438,0,0,1-.533-.962c-.066-.371-.064-.753-.147-1.12a2.4,2.4,0,0,0-.1-.336,1.763,1.763,0,0,1-.157-.334c-.017-.215.427-.068.6-.047a2.657,2.657,0,0,1,.484.093,5.176,5.176,0,0,1,.5.217c.674.3,1.488.334,2.029.834a1.7,1.7,0,0,0,.56.454,2.535,2.535,0,0,1,.314.081c.257.12.3.461.437.707a1.39,1.39,0,0,1,.115.205.79.79,0,0,1,.037.261l.02.647a23.86,23.86,0,0,1-.052,3.247,2.663,2.663,0,0,0,.012,1.063c.028.093.067.181.093.275a1.675,1.675,0,0,1,.035.336l.015.419a.13.13,0,0,1-.021.093.134.134,0,0,1-.113.027c-.583-.052-1.173-.381-1.724-.182" transform="translate(-479.311 -215.655)"/><ellipse class="b" cx="6.903" cy="0.998" rx="6.903" ry="0.998" transform="translate(65.354 50.034)"/><path class="n" d="M697.135,220.439c-.121-.52-.2-.976-.2-.976a2.011,2.011,0,0,0-.226-.99v-.142h0v-1.045a3.562,3.562,0,0,1,.264-.548,4.122,4.122,0,0,0,0-1.532,6.78,6.78,0,0,1-.528-2.775c.169-1.077-1.432-4.782-1.432-4.782a4.724,4.724,0,0,1,.15-1.058.8.8,0,0,0,.021-.222v-.019a8.224,8.224,0,0,0-.586-2.041l.076-2.537a7.458,7.458,0,0,0-.226-3.5c-.2-.7-.335-1.262-.418-1.695-.009-.049-.019-.093-.026-.141,1.2-.187,2.122-.336,2.122-.336a15.367,15.367,0,0,0-1.169-3.432,6.745,6.745,0,0,1-.848-2.118s-.245-2.062.151-2.665a4.007,4.007,0,0,0,.453-1.643s.9-.653,1.018-.949a4.841,4.841,0,0,0,.3-1.3c0-.346-.113-.653-.076-.84s-.264-.876-.113-1.2a.885.885,0,0,0,.06-.316.04.04,0,0,0,0-.009h0a4.425,4.425,0,0,0-.079-.857,2.431,2.431,0,0,0-.9-.479l-.02-.078-.051-.205a1.007,1.007,0,0,0-.089-.052v-.075l-.008-.3.142-.666c.28-1.159-1.268-1.332-1.268-1.332a.817.817,0,0,0-.439-.385c-.311-.109-.051,1.743.093,1.867a7.308,7.308,0,0,1,.61.956h0l.026.047a.651.651,0,0,0-.071.075l.059.4.009.062a1.669,1.669,0,0,0-.247.421.909.909,0,0,1,.227.653,2.094,2.094,0,0,0,.093.8c-.017-.02-.216-.234-.414-.182s-.754.219-.754.219-.414.073-.373.164-.28.493-.28.493l-1.114-1.056c-.011-.032-.023-.063-.033-.093a2.569,2.569,0,0,1-.093-.467,2.551,2.551,0,0,0,.357-.113.769.769,0,0,0,.308-.2,1.2,1.2,0,0,0,.18-.481,7.054,7.054,0,0,1,.413-.922,3,3,0,0,0,.21-1.659,1.082,1.082,0,0,0-.171-.485c-.182-.25-.512-.352-.752-.552s-.395-.5-.675-.653a1.338,1.338,0,0,0-.846-.073,4.557,4.557,0,0,0-1.58.575.822.822,0,0,1-.528.174.689.689,0,0,1-.381-.28.018.018,0,0,0-.008-.03,1.968,1.968,0,0,0-.174.834,1.025,1.025,0,0,0,.006.133v.085h0a.213.213,0,0,1-.008.059.424.424,0,0,1-.1.15,1,1,0,0,0-.093.124.153.153,0,0,1,.015-.046.664.664,0,0,0-.116.352.36.36,0,0,0,.084.252,1.214,1.214,0,0,0,.182.146,2.115,2.115,0,0,0-.034.373,2.157,2.157,0,0,0,1.051,1.839c.013.031.025.063.037.093a2.658,2.658,0,0,1,.2,1.213.572.572,0,0,1-.013.088c0,.029-.028.031-.04.047h0s-1.841.019-2.274-.373-1.094.958-1.094.958-.66.128-.792,0-.9-.018-.9-.018a1.664,1.664,0,0,0-1.151-.42,3.378,3.378,0,0,0-.84-.467h0l-.021-.007h0a.941.941,0,0,0-.415-.052,8.376,8.376,0,0,1-1.169-1.15c-.264-.4-1.521-1.892-1.527-1.9v-.072l-.014-.217a.775.775,0,0,1-.113.009c-.007-.021-.016-.047-.025-.076a4.176,4.176,0,0,0-.267-.613s0-.273.079-.343a4.718,4.718,0,0,0-.033-1.072s-.816-1.907-1.546-.483c0,0-1.381.921-.222,1.994,0,0,.467.224.528.4.043.115.2.437.305.653l.048.093-.013.011.017.179.007.069c-.218.124-.367.247-.33.34a2.044,2.044,0,0,1,.132.493,13.136,13.136,0,0,1,1.811,2.866s4.3,2.555,5.714,2.737l-.25,1.274a10.165,10.165,0,0,0-.056,1.041c.019.273-.17,1.515-.17,1.515a10.126,10.126,0,0,1-.453,2.081,3.506,3.506,0,0,0-.17,1.35,9.231,9.231,0,0,1-.28,1.551,3.963,3.963,0,0,0-.057,1.552s-.716,1.643,1,.529c0,0,.84-.052,1.812-.086v.093c0,.125,0,.26-.007.4-.013.941-.019,2.24.024,3.218.076,1.734.6,5.166.6,5.166v1.728a2.353,2.353,0,0,0-.05.493,3.207,3.207,0,0,0,.467,1.726l.133,1.15a4.486,4.486,0,0,1,.315,1.213.638.638,0,0,1-.013.109.731.731,0,0,0-.015.176,9.929,9.929,0,0,0,.3,1.773s.019,1.259.207,1.333c.161.063-.216.725-.328.916a.259.259,0,0,1-.007-.035l-.023.037a.893.893,0,0,0-.059.319.457.457,0,0,0,.209.442c.358.219.551.4.246.474a3.166,3.166,0,0,0-.332.07.143.143,0,0,0-.016-.042.2.2,0,0,0-.124.22.933.933,0,0,0,.111.424,4.623,4.623,0,0,0,.51.933l.145-.016a.7.7,0,0,1-.084.156.6.6,0,0,1-.213.187.659.659,0,0,1-.259.089.728.728,0,0,0-.534.259.557.557,0,0,0,.065.866l1.349.467s2.32.3,2.2-.219-.2-.976-.2-.976a2.059,2.059,0,0,0-.187-.923,1.2,1.2,0,0,0-.082-.136l.082-.008a4.273,4.273,0,0,1,.4-1.369c.052-.05.064-.093.052-.119.023-.063-.036-.1-.112-.12l-.017.046a1.1,1.1,0,0,0-.225-.025s-.076-.6.17-.821a.233.233,0,0,0,.048-.179.96.96,0,0,0-.026-.245l-.008.015a8.841,8.841,0,0,0-.541-1.416,1.731,1.731,0,0,1,.133-.766,19.3,19.3,0,0,0-.02-2.975,9.005,9.005,0,0,0-.113-1.952,2.192,2.192,0,0,1,.207-1.351v-.049l-.021-.21a.052.052,0,0,0,0,.013c-.038-.353-.11-.992-.163-1.287-.076-.42.02-2.427.02-2.427l.339-.859.6,1.479.641,1.971a1.684,1.684,0,0,1,.325.84v.062a1.065,1.065,0,0,0-.007.132,1.172,1.172,0,0,0,.2.7,3.04,3.04,0,0,0,.434,1.168,1.048,1.048,0,0,1,.264.693,12.124,12.124,0,0,0,.467,1.587,2.359,2.359,0,0,1,.133.917h0v.049s.045.483.043.888v.145a.041.041,0,0,0,0-.01,1.4,1.4,0,0,1-.039.329l-.006.019a.24.24,0,0,1,.006-.068,3.432,3.432,0,0,0-.093.84,2.176,2.176,0,0,0,.359,1.4c.51.584.83.511.83.511s-.245.73-.547.876a.143.143,0,0,0-.032.021.313.313,0,0,0-.007-.043.355.355,0,0,0-.093.273,1.958,1.958,0,0,0,.373,1.082.61.61,0,0,0,.255.149.406.406,0,0,1-.048.029,1.019,1.019,0,0,1-.1.049.544.544,0,0,1-.154.04.719.719,0,0,0-.534.259.556.556,0,0,0,.065.865l1.349.467S697.256,220.959,697.135,220.439Z" transform="translate(-619.015 -170.414)"/><path class="o" d="M795.809,638.619l-1.307-.467a.567.567,0,0,1-.063-.866.7.7,0,0,1,.517-.259.619.619,0,0,0,.249-.089.6.6,0,0,0,.207-.187.964.964,0,0,0,.148-.5s1.434-.42,1.826,0a1.059,1.059,0,0,1,.174.255,2.132,2.132,0,0,1,.187.923s.073.455.191.976S795.809,638.619,795.809,638.619Z" transform="translate(-726.585 -586.679)"/><path class="o" d="M864.249,631.7l-1.307-.467a.566.566,0,0,1-.063-.865.69.69,0,0,1,.516-.259.483.483,0,0,0,.149-.04.994.994,0,0,0,.1-.049.826.826,0,0,0,.356-.693s1.433-.42,1.826,0a1.044,1.044,0,0,1,.137.187,2.075,2.075,0,0,1,.218.991s.073.456.187.976S864.249,631.7,864.249,631.7Z" transform="translate(-788.499 -580.419)"/><path class="h" d="M808.533,636.234a1.06,1.06,0,0,1,.174.255h0l-2.147.249a.964.964,0,0,0,.148-.5S808.141,635.814,808.533,636.234Z" transform="translate(-737.73 -586.701)"/><path class="h" d="M874.119,629.533v.4c-.334.55-1.95.429-2.419.154a.982.982,0,0,0,.1-.049.826.826,0,0,0,.356-.693s1.433-.42,1.825,0A1.028,1.028,0,0,1,874.119,629.533Z" transform="translate(-796.656 -580.462)"/><path class="f" d="M794.362,407.288a3.665,3.665,0,0,0-.255.548v1.442c-.366.6-2.263.4-2.52.073s-.524-1.183-.236-1.332.529-.876.529-.876-.311.073-.8-.511a3.019,3.019,0,0,1-.255-2.189,6.466,6.466,0,0,0,0-1.35,2.714,2.714,0,0,0-.127-.968,12.048,12.048,0,0,1-.456-1.587,1.074,1.074,0,0,0-.256-.693,3.123,3.123,0,0,1-.42-1.168,1.2,1.2,0,0,1-.182-.785,1.6,1.6,0,0,0-.311-.949l-.621-1.972-.584-1.478-.328.858s-.093,2.007-.018,2.427.187,1.533.187,1.533a2.251,2.251,0,0,0-.2,1.35,9.214,9.214,0,0,1,.1,1.954,19.922,19.922,0,0,1,.018,2.974,1.781,1.781,0,0,0-.128.767s.747,1.605.511,1.825-.164.821-.164.821.51,0,.292.219a4.4,4.4,0,0,0-.384,1.369l-2.207.259a4.586,4.586,0,0,1-.494-.933c-.292-.678.054-.6.348-.676s.108-.255-.239-.474-.146-.712-.146-.712.529-.894.346-.967-.2-1.333-.2-1.333a8.107,8.107,0,0,1-.273-1.9,3.632,3.632,0,0,0-.292-1.368l-.128-1.15a3.164,3.164,0,0,1-.4-2.173V396.39s-.511-3.431-.584-5.165c-.047-1.111-.034-2.626-.019-3.572.009-.53.019-.882.019-.882l7.884-.821a6.584,6.584,0,0,0,.143,1.171c.081.433.207.994.405,1.695a7.7,7.7,0,0,1,.219,3.5l-.074,2.538a6.461,6.461,0,0,1,.548,2.281,4.864,4.864,0,0,0-.147,1.06s1.551,3.705,1.387,4.782a6.964,6.964,0,0,0,.51,2.775A4.2,4.2,0,0,1,794.362,407.288Z" transform="translate(-716.683 -360.127)"/><path class="l" d="M852.05,509.59l2.4-.32S853.091,510.658,852.05,509.59Z" transform="translate(-778.879 -472.004)"/><path class="h" d="M869.8,484.14s.082.849-.438,1.168C869.36,485.309,870.29,485.163,869.8,484.14Z" transform="translate(-794.569 -449.264)"/><path class="h" d="M844.906,455.2s-2.007,1.652-2.736,1.515S844.906,455.2,844.906,455.2Z" transform="translate(-769.842 -423.079)"/><path class="h" d="M804.911,521s-1.524.346-1.57.958S804.911,521,804.911,521Z" transform="translate(-734.825 -482.612)"/><path class="l" d="M807.72,602.56s-2.153.4-1.542.675a10.452,10.452,0,0,0,1.615.493S808.489,603.764,807.72,602.56Z" transform="translate(-737.288 -556.397)"/><g class="p" transform="translate(66.769 26.596)"><path d="M799.889,611.422a.424.424,0,0,1-.2-.312l-.022.038s-.2.493.147.711c.039.025.077.05.112.075.064-.012.133-.021.2-.038C800.422,611.823,800.236,611.641,799.889,611.422Z" transform="translate(-798.103 -590.86)"/><path d="M831.321,609.253c.06-.054.058-.194.021-.373a1.049,1.049,0,0,0-.122.528A.456.456,0,0,1,831.321,609.253Z" transform="translate(-826.762 -588.839)"/><path d="M827.336,515.59a2.493,2.493,0,0,0-.146.671,2.711,2.711,0,0,1,.167-.461Z" transform="translate(-823.108 -504.255)"/><path d="M881.2,503.39a.858.858,0,0,0,.02-.2c-.027.136-.046.262-.06.373C881.172,503.506,881.185,503.452,881.2,503.39Z" transform="translate(-872.041 -493.013)"/><path d="M827.7,581.176a1.169,1.169,0,0,0,.054-.406,1.377,1.377,0,0,0-.105.512A.491.491,0,0,1,827.7,581.176Z" transform="translate(-823.525 -563.352)"/><path d="M802.526,622a7.248,7.248,0,0,0-.251,1.12l-2.207.255a4.586,4.586,0,0,1-.494-.933,1.686,1.686,0,0,1-.062-.161c-.133.061-.187.2-.011.6a4.666,4.666,0,0,0,.495.933l2.207-.256a4.392,4.392,0,0,1,.383-1.369C802.7,622.082,802.627,622.027,802.526,622Z" transform="translate(-797.901 -600.734)"/><path d="M785.161,412.128s.018,1.259.2,1.332h0c.093-.208.154-.406.072-.439-.187-.073-.2-1.333-.2-1.333a8.107,8.107,0,0,1-.273-1.9,3.632,3.632,0,0,0-.292-1.368l-.128-1.15a3.163,3.163,0,0,1-.4-2.173v-1.773s-.511-3.431-.584-5.165c-.047-1.111-.034-2.626-.019-3.572,0-.171.006-.322.008-.45l-.063.007s-.01.351-.019.882c-.015.945-.029,2.461.019,3.571.073,1.734.583,5.166.583,5.166v1.773a3.166,3.166,0,0,0,.4,2.172l.127,1.15a3.652,3.652,0,0,1,.292,1.369A8.123,8.123,0,0,0,785.161,412.128Z" transform="translate(-783.448 -394.14)"/><path d="M867.182,623.037a2.135,2.135,0,0,1-.35-.867c-.225.2.034.993.28,1.307s2.153.529,2.52-.074v-.347A2.636,2.636,0,0,1,867.182,623.037Z" transform="translate(-858.972 -600.888)"/><path d="M898.656,609.242a3.682,3.682,0,0,0-.256.548v.258a3.838,3.838,0,0,1,.187-.366,1.121,1.121,0,0,0,.08-.453Z" transform="translate(-887.672 -589.156)"/><path d="M862.464,586.247a3.613,3.613,0,0,0,.18-.434s-.311.073-.8-.511a2.593,2.593,0,0,1-.328-1.752,3.01,3.01,0,0,0,.255,2.19A1.3,1.3,0,0,0,862.464,586.247Z" transform="translate(-854.142 -565.873)"/><path d="M831.1,471.549a9.71,9.71,0,0,1,.036,1.082,1.479,1.479,0,0,1,.037-.169,6.334,6.334,0,0,0,0-1.35,2.7,2.7,0,0,0-.128-.968,11.782,11.782,0,0,1-.452-1.588,1.074,1.074,0,0,0-.256-.693,3.124,3.124,0,0,1-.42-1.168,1.2,1.2,0,0,1-.187-.785,1.589,1.589,0,0,0-.31-.949l-.621-1.971-.584-1.478-.329.859s0,.108-.011.28l.267-.7.584,1.476.621,1.971a1.59,1.59,0,0,1,.31.949,1.2,1.2,0,0,0,.187.785,3.113,3.113,0,0,0,.42,1.168,1.068,1.068,0,0,1,.255.693,12.009,12.009,0,0,0,.456,1.587A2.7,2.7,0,0,1,831.1,471.549Z" transform="translate(-823.733 -455.222)"/></g><path class="q" d="M861.415,192.579l-.137.666.008.3.006.218-.762.078-.085-.158h0a7.076,7.076,0,0,0-.591-.956c-.141-.118-.392-1.971-.093-1.861a.8.8,0,0,1,.424.384S861.684,191.419,861.415,192.579Z" transform="translate(-785.738 -184.081)"/><path class="h" d="M869.3,218.952l-.762.078-.085-.158h0a.671.671,0,0,1,.84-.138Z" transform="translate(-793.741 -209.273)"/><path class="d" d="M869.063,219.985l-1,.232-.021-.149-.057-.4a.691.691,0,0,1,.972-.133l.05.2Z" transform="translate(-793.312 -209.945)"/><path class="q" d="M681.774,178.939l-1.072.575-.093-.2c-.1-.214-.254-.536-.3-.653-.063-.177-.51-.4-.51-.4a1.238,1.238,0,0,1,.215-1.994c.707-1.423,1.493.483,1.493.483a4.833,4.833,0,0,1,.033,1.072c-.077.067-.077.343-.077.343a4.2,4.2,0,0,1,.258.613C681.756,178.877,681.774,178.939,681.774,178.939Z" transform="translate(-622.646 -170.369)"/><path class="h" d="M693.956,208.414l-1.072.575-.093-.2c.151-.127.688-.56.864-.542a1.291,1.291,0,0,0,.254.007C693.938,208.351,693.956,208.414,693.956,208.414Z" transform="translate(-634.816 -199.843)"/><path class="d" d="M694.346,209.453l-1.2.594-.024-.259-.017-.179s.7-.6.9-.575a1.1,1.1,0,0,0,.315,0l.014.217Z" transform="translate(-635.096 -200.558)"/><path class="q" d="M804.873,217.158s-5.253.593-4.271.273a1.313,1.313,0,0,0,1.012-1.139,2.735,2.735,0,0,0-.2-1.213,5.286,5.286,0,0,0-.467-.949s4.013-2.208,3.211-.2a3.237,3.237,0,0,0-.228.951,2.687,2.687,0,0,0,.1.963A2.868,2.868,0,0,0,804.873,217.158Z" transform="translate(-732.194 -204.234)"/><path class="h" d="M808.749,213.9a3.235,3.235,0,0,0-.228.951,1.846,1.846,0,0,1-1.325.3,2.371,2.371,0,0,1-1.189-.1,5.29,5.29,0,0,0-.467-.949S809.552,211.893,808.749,213.9Z" transform="translate(-736.789 -204.207)"/><circle class="q" cx="2.172" cy="2.172" r="2.172" transform="translate(68.167 6.737)"/><path class="h" d="M804.873,241.715s-5.253.593-4.271.273a1.313,1.313,0,0,0,1.012-1.139,2.929,2.929,0,0,1,1.12-.6,1.572,1.572,0,0,1,.952-.016,1.354,1.354,0,0,1,.346.161A2.868,2.868,0,0,0,804.873,241.715Z" transform="translate(-732.194 -228.546)"/><path class="h" d="M869.616,223.065l-1,.232-.021-.149a.889.889,0,0,1,.966-.33Z" transform="translate(-793.865 -213.025)"/><path class="h" d="M694.509,211.553l-1.2.594-.024-.259a8.789,8.789,0,0,1,1.213-.539Z" transform="translate(-635.259 -202.659)"/><path class="h" d="M791.646,387.141a32.4,32.4,0,0,1-5.388.6,13.456,13.456,0,0,0-2.658-.067c.009-.53.019-.882.019-.882l7.884-.821A6.59,6.59,0,0,0,791.646,387.141Z" transform="translate(-716.867 -360.445)"/><path class="m" d="M708.714,229.039s-6.7,1.15-7.417.933a29.145,29.145,0,0,0-4.41.018c-1.661,1.113-.968-.529-.968-.529a4.084,4.084,0,0,1,.055-1.551,9.477,9.477,0,0,0,.275-1.553,3.617,3.617,0,0,1,.164-1.351,10.409,10.409,0,0,0,.439-2.08s.182-1.241.164-1.515.054-1.041.054-1.041l.238-1.278c-1.369-.182-5.531-2.737-5.531-2.737a13.19,13.19,0,0,0-1.752-2.865A2.112,2.112,0,0,0,689.9,213c-.109-.292,1.533-.876,1.533-.876s1.223,1.493,1.478,1.9a8.14,8.14,0,0,0,1.131,1.15.88.88,0,0,1,.4.052l.021.007h0a3.253,3.253,0,0,1,.817.467,1.586,1.586,0,0,1,1.113.42s.747-.11.876.018.766,0,.766,0,.638-1.35,1.058-.958,2.2.373,2.2.373a2.577,2.577,0,0,1,1.176-.653,1.578,1.578,0,0,1,.952-.016,1.207,1.207,0,0,1,.373.187l1.084,1.058s.31-.4.273-.493.365-.164.365-.164.529-.164.73-.219.384.162.4.182a2.184,2.184,0,0,1-.093-.8.948.948,0,0,0-.219-.653c.638-1.57,2.08-.256,2.08-.256a3.012,3.012,0,0,1,.019,1.186c-.146.329.146,1.022.109,1.2s.074.493.074.84a5.131,5.131,0,0,1-.292,1.3c-.105.292-.986.949-.986.949a4.121,4.121,0,0,1-.439,1.643,6.611,6.611,0,0,0-.143,2.661,6.877,6.877,0,0,0,.821,2.118A15.676,15.676,0,0,1,708.714,229.039Z" transform="translate(-631.93 -203.357)"/><path class="h" d="M778.063,253.885s-.2-.6-.384-.653a4.223,4.223,0,0,1-.529-.237l.118-.225s.685.187.8.389A1.548,1.548,0,0,1,778.063,253.885Z" transform="translate(-711.14 -239.947)"/><path class="h" d="M731.481,245.817c-.036.187-1.661.346-1.661.346l.821-.823h0l.021.007h0a3.252,3.252,0,0,1,.819.469Z" transform="translate(-668.311 -233.226)"/><circle class="r" cx="0.146" cy="0.146" r="0.146" transform="translate(58.24 9.689)"/><circle class="r" cx="0.146" cy="0.146" r="0.146" transform="translate(58.431 9.981)"/><circle class="r" cx="0.146" cy="0.146" r="0.146" transform="translate(58.617 10.251)"/><circle class="r" cx="0.146" cy="0.146" r="0.146" transform="translate(58.813 10.542)"/><circle class="r" cx="0.119" cy="0.119" r="0.119" transform="translate(76.404 10.554)"/><circle class="r" cx="0.119" cy="0.119" r="0.119" transform="translate(76.423 10.823)"/><circle class="r" cx="0.119" cy="0.119" r="0.119" transform="translate(76.439 11.092)"/><path class="h" d="M787,317.719c-.018-.021,4.1,5.174,7.291,2.172C794.293,319.892,789.247,320.576,787,317.719Z" transform="translate(-719.954 -298.693)"/><path class="h" d="M761.7,346.66s2.462.067,2.72.776v.737a.472.472,0,0,1-.458,0c-.248-.134-1.737-.89-2.261-.526Z" transform="translate(-697.138 -324.885)"/><path class="m" d="M762.19,346.66s2.355.064,2.6.74v.7a.452.452,0,0,1-.439,0c-.237-.127-1.66-.848-2.162-.5Z" transform="translate(-697.582 -324.885)"/><path class="h" d="M776.1,289.38a7.923,7.923,0,0,0,.955,1.638,6.426,6.426,0,0,0,1.493,1.444A28.954,28.954,0,0,1,776.1,289.38Z" transform="translate(-710.169 -273.056)"/><path class="h" d="M767.47,258.73a4.217,4.217,0,0,0,1.469,2.375Z" transform="translate(-702.375 -245.333)"/><path class="h" d="M760.364,260.645a1.96,1.96,0,0,0,1.365,2.2S760.994,262.591,760.364,260.645Z" transform="translate(-695.914 -247.065)"/><path class="h" d="M875.9,247.9a12.311,12.311,0,0,1,1.093.821S876.424,247.861,875.9,247.9Z" transform="translate(-800.48 -235.54)"/><path class="o" d="M798.683,187.159a.343.343,0,0,0,.373.339,4.342,4.342,0,0,0,1.96-.187.746.746,0,0,0,.3-.2,1.228,1.228,0,0,0,.174-.481,7,7,0,0,1,.4-.922,3.089,3.089,0,0,0,.216-1.657,1.121,1.121,0,0,0-.166-.484c-.176-.251-.5-.353-.728-.552s-.382-.5-.653-.653a1.254,1.254,0,0,0-.819-.073,4.3,4.3,0,0,0-1.529.574.78.78,0,0,1-.511.174.684.684,0,0,1-.373-.288,2.021,2.021,0,0,0-.156.947.408.408,0,0,1,0,.143.43.43,0,0,1-.1.15.553.553,0,0,0-.1.682c.07.083.178.129.246.214.122.152.081.373.078.567a.292.292,0,0,0,.049.192.28.28,0,0,0,.268.064.729.729,0,0,1,.286-.027.479.479,0,0,1,.248.187A3.507,3.507,0,0,1,798.683,187.159Z" transform="translate(-728.922 -176.282)"/><g class="s" transform="translate(67.944 6.449)"><path d="M801.393,204.576a.746.746,0,0,1-.3.2,4.4,4.4,0,0,1-1.96.187.343.343,0,0,1-.374-.34,3.406,3.406,0,0,0-.553-1.284.48.48,0,0,0-.248-.191.765.765,0,0,0-.286.027.28.28,0,0,1-.268-.063.292.292,0,0,1-.049-.192c0-.2.044-.415-.078-.567-.068-.085-.176-.131-.246-.215a.426.426,0,0,1-.042-.435.5.5,0,0,0-.031.581c.07.083.178.129.246.214.122.153.081.373.078.567a.291.291,0,0,0,.048.192.28.28,0,0,0,.269.064.729.729,0,0,1,.286-.027.479.479,0,0,1,.248.187,3.411,3.411,0,0,1,.553,1.285.467.467,0,0,0,.161.3.452.452,0,0,0,.205.045,4.329,4.329,0,0,0,1.96-.187.74.74,0,0,0,.3-.2.572.572,0,0,0,.093-.175A.046.046,0,0,1,801.393,204.576Z" transform="translate(-796.877 -200.359)"/><path d="M799.941,188.383a.319.319,0,0,0,.066-.11.407.407,0,0,0,0-.143,2.025,2.025,0,0,1,.1-.786l-.012-.014a2.007,2.007,0,0,0-.156.946.673.673,0,0,1,0,.106Z" transform="translate(-799.649 -187.33)"/></g><path class="h" d="M812.08,248.418s2.713.36,2.957-.048" transform="translate(-742.711 -236.224)"/><path class="h" d="M868.59,236.85s1.508,0,1.839.567" transform="translate(-793.852 -225.779)"/><path class="m" d="M939.624,764.315a2.392,2.392,0,0,1-1.629.609c-.153,0-.365.029-.366.182a.256.256,0,0,0,.045.125,1.5,1.5,0,0,0,.84.66,2.969,2.969,0,0,0,1.016.064l.994-.051c.187-.01.373-.02.56-.043s.39-.062.585-.093a7.659,7.659,0,0,1,1.448-.067.438.438,0,0,0,.357-.093c.076-.093.037-.272.008-.412-.06-.288,0-.591-.055-.88a1.545,1.545,0,0,0-1.014-1.081,2.134,2.134,0,0,0-1.665-.081A10.965,10.965,0,0,0,939.624,764.315Z" transform="translate(-855.961 -701.511)"/><path class="f" d="M950.191,574.61c.088.417.492.736.5,1.162a1.815,1.815,0,0,1-.409.92,6.139,6.139,0,0,0-.417.944,14.434,14.434,0,0,1-1.224,2.436,1.949,1.949,0,0,0-.441,1.206,1.807,1.807,0,0,0,.212.577l.7,1.391a4.028,4.028,0,0,1,.357.878c.061.264.066.538.1.806a6.409,6.409,0,0,1,.273,2.539c-.021.071-.093.157-.15.107a2.659,2.659,0,0,1,.4,1.357,1.892,1.892,0,0,0,.007.763.837.837,0,0,1,.109.3,1.908,1.908,0,0,1-.04.206.455.455,0,0,0,.349.424c.188.063.392.058.581.115a3.568,3.568,0,0,1,.933.64,1.987,1.987,0,0,0,1.075.35.271.271,0,0,0,.159-.032.257.257,0,0,0,.088-.192,1.068,1.068,0,0,0-.385-.928.42.42,0,0,1-.143-.149.36.36,0,0,1-.013-.167,12.577,12.577,0,0,0-.041-2.3,3.485,3.485,0,0,1-.036-.731,2.986,2.986,0,0,0,.059-.608,3.232,3.232,0,0,0-.187-.582,4.2,4.2,0,0,1-.093-1.084,9.507,9.507,0,0,0-.307-1.867,1.412,1.412,0,0,0-.29-.674c-.146-.152-.381-.3-.326-.5a.594.594,0,0,1,.133-.2.8.8,0,0,0,.166-.609.273.273,0,0,0,.315-.147,4.92,4.92,0,0,0,2.462-2.8.926.926,0,0,1,.11-.25,1.127,1.127,0,0,1,.451-.292,3.423,3.423,0,0,0,1.184-1.208,2.134,2.134,0,0,0,.52-1.507l.029-1.1a.593.593,0,0,0-.021-.215.538.538,0,0,0-.119-.174,2.108,2.108,0,0,0-1.163-.627c-.3-.053-.6-.043-.906-.068a11.265,11.265,0,0,0-1.751-.187,2.8,2.8,0,0,0-2.175,1.522C950.678,574.354,950.518,574.6,950.191,574.61Z" transform="translate(-865.54 -528.816)"/><path class="d" d="M904.892,494.813a1.225,1.225,0,0,1-.067.5.349.349,0,0,1-.41.21c.048-.107-.078-.23-.2-.217a.367.367,0,0,0-.259.222.826.826,0,0,0-.075.507,2.054,2.054,0,0,1,.129.637c-.026.179-.158.357-.088.524a.847.847,0,0,0,.169.2.571.571,0,0,1-.061.784l1.766.035a1.247,1.247,0,0,0,.219.859,5.413,5.413,0,0,0,4.036,2.635.351.351,0,0,0-.085.537.5.5,0,0,0,.567.033,4.044,4.044,0,0,0,.485-.364,1.493,1.493,0,0,1,1-.269c.221.021.436.093.658.1.653.035,1.213-.436,1.842-.628a4.251,4.251,0,0,0,1.363-.427.543.543,0,0,0,.254-.525.879.879,0,0,0-.187-.309,5.331,5.331,0,0,1-.51-.957,5.723,5.723,0,0,0-1.276-1.71,11.416,11.416,0,0,0-1.266-.959,2.16,2.16,0,0,0-.342-.206,3.828,3.828,0,0,1-.467-.187,2.487,2.487,0,0,1-.486-.547,7.288,7.288,0,0,0-1.319-.917,3.128,3.128,0,0,0-.89-.6c-.168-.051-.346-.055-.514-.105-.382-.116-.66-.455-1.034-.592a4.15,4.15,0,0,0-.933-.118,2.185,2.185,0,0,1-.975-.371,1.158,1.158,0,0,0-.311-.181c-.473-.144-.511.737-.56,1.043A10.061,10.061,0,0,0,904.892,494.813Z" transform="translate(-825.355 -456.607)"/><path class="k" d="M856.178,536.027c.079.86-.57,1.694-.381,2.537.04.179.118.35.146.532a2.04,2.04,0,0,1-.5,1.391l-2.445,3.588a2.256,2.256,0,0,1-.349.431,3.615,3.615,0,0,1-1.783.5,3.079,3.079,0,0,0-1.195.528.077.077,0,0,0-.015.107,1.026,1.026,0,0,0,.888.417c.064.084,0,.209-.089.27-.131.093-.312.115-.338.338a.374.374,0,0,0,.045.224.7.7,0,0,0,.427.3,2.538,2.538,0,0,0,2.395-.815c.634-.619,1.088-1.4,1.71-2.029.344-.349.735-.647,1.09-.985a12.467,12.467,0,0,0,1.788-2.314,2.559,2.559,0,0,0,.387-.788c.066-.287.036-.577.111-.854a3.137,3.137,0,0,1,.586-.958,3.167,3.167,0,0,0,.666-2.064,1.979,1.979,0,0,0-1.208-1.713,1.085,1.085,0,0,0-.677-.041,1.6,1.6,0,0,0-.689.549l-.467.536a1.249,1.249,0,0,0-.262.412.43.43,0,0,0,.093.457" transform="translate(-776.571 -494.716)"/><path class="d" d="M917.64,511.876a1.337,1.337,0,0,0-.9.28,1.283,1.283,0,0,0-.228.357,3.551,3.551,0,0,0-.451,1.419,6.485,6.485,0,0,0,.163,1.185,4.531,4.531,0,0,1-.1,1,6.918,6.918,0,0,0,1.286-.495,4.3,4.3,0,0,1,.753-.391,2.267,2.267,0,0,1,1.392.271c.02-.256-.173-.7-.152-.958a1.07,1.07,0,0,1,.057-.317,1.924,1.924,0,0,1,.193-.307,1.256,1.256,0,0,0-.113-1.472,2.049,2.049,0,0,0-1.314-.56,5.688,5.688,0,0,0-.917-.032" transform="translate(-836.763 -474.287)"/></svg>