<svg xmlns="http://www.w3.org/2000/svg" width="100" height="70" viewBox="0 0 100 70"><defs><style>.a{fill:#f2f2f2;}.b{fill:#3f3d56;}.c{fill:#6c63ff;}.d{opacity:0.1;}.e{fill:#fff;}.f{fill:#2f2e41;}.g{fill:#ffb9b9;}.h{fill:#d0cde1;}</style></defs><g transform="translate(0 0)"><rect class="a" width="10.218" height="11.904" transform="translate(14.848 2.38)"/><rect class="a" width="10.218" height="11.904" transform="translate(42.889 9.325)"/><rect class="a" width="10.218" height="11.904" transform="translate(70.868 2.38)"/><rect class="b" width="26.883" height="6.703" transform="translate(22.985 43.237)"/><path class="b" d="M569.123,510.042H545.438l6.651-11.52,5.191-8.992Z" transform="translate(-490.633 -440.166)"/><rect class="b" width="39.367" height="17.906" transform="translate(13.585 51.975)"/><circle class="c" cx="4.668" cy="4.668" r="4.668" transform="translate(61.904 39.735)"/><rect class="b" width="86.361" height="0.198" transform="translate(0.156 69.801)"/><path class="d" d="M442.128,430.789v6.254H435.8l3.869-6.7h2.2Z" transform="translate(-392.114 -387.102)"/><path class="d" d="M342.313,515.85v17.906H321.228l.02-.035,10.318-17.871Z" transform="translate(-288.965 -463.875)"/><path class="d" d="M558.741,591.69h-13.3l6.651-11.52.3.515Z" transform="translate(-490.718 -521.815)"/><path class="c" d="M367.851,439.425H335.168l.026-.045,10.719-18.566,5.6-9.695,9.979,17.285,6.354,11.005Z" transform="translate(-301.433 -369.535)"/><circle class="b" cx="2.011" cy="2.011" r="2.011" transform="translate(48.016 37.462)"/><path class="b" d="M145.279,355.933a37.194,37.194,0,0,1-12.093-2.01,34.14,34.14,0,0,1-12.7-7.319c-6.073-5.81-11.051-6.685-14.158-6.4a10,10,0,0,0-5.34,2.035l-.134-.148a10.205,10.205,0,0,1,5.442-2.083,13.559,13.559,0,0,1,6.241.977,25.46,25.46,0,0,1,8.087,5.474,33.941,33.941,0,0,0,12.622,7.274,38.253,38.253,0,0,0,29.44-2.165,33.408,33.408,0,0,1,8.937-3.114,21.415,21.415,0,0,1,10.266.462c6.967,2.146,11.726,2.033,14.491,1.559a10.618,10.618,0,0,0,4.351-1.543l.123.157a10.616,10.616,0,0,1-4.44,1.582c-2.787.477-7.58.593-14.584-1.565-7.092-2.185-14.275.229-19.052,2.64a38.741,38.741,0,0,1-14.589,4.076Q146.732,355.933,145.279,355.933Z" transform="translate(-100.859 -315.919)"/><path class="b" d="M307.767,262.469l-.142-.139a7.253,7.253,0,0,0,1.454-2.545,7.5,7.5,0,0,0-.9-6.427,9.266,9.266,0,0,1-1.5-6.354,5.692,5.692,0,0,1,.912-2.388l.158.12a5.614,5.614,0,0,0-.876,2.311,9.079,9.079,0,0,0,1.477,6.208,7.7,7.7,0,0,1,.915,6.6A7.308,7.308,0,0,1,307.767,262.469Z" transform="translate(-285.969 -230.171)"/><path class="b" d="M263.812,116.509H249.527V102.224h14.285Zm-14.087-.2h13.888V102.422H249.725Z" transform="translate(-234.779 -102.125)"/><path class="b" d="M586.766,333.469l-.142-.139a7.253,7.253,0,0,0,1.455-2.545,7.5,7.5,0,0,0-.9-6.427,9.266,9.266,0,0,1-1.5-6.354,5.691,5.691,0,0,1,.912-2.388l.158.12a5.616,5.616,0,0,0-.876,2.311,9.079,9.079,0,0,0,1.477,6.208,7.7,7.7,0,0,1,.915,6.6A7.306,7.306,0,0,1,586.766,333.469Z" transform="translate(-537.012 -294.017)"/><path class="b" d="M542.812,187.509H528.527V173.224h14.285Zm-14.087-.2h13.888V173.422H528.725Z" transform="translate(-485.616 -166.082)"/><path class="b" d="M864.766,261.469l-.142-.139a7.252,7.252,0,0,0,1.455-2.545,7.5,7.5,0,0,0-.9-6.427,9.266,9.266,0,0,1-1.5-6.354,5.69,5.69,0,0,1,.912-2.388l.158.12a5.615,5.615,0,0,0-.876,2.311,9.078,9.078,0,0,0,1.477,6.208,7.7,7.7,0,0,1,.915,6.6A7.309,7.309,0,0,1,864.766,261.469Z" transform="translate(-787.156 -229.272)"/><path class="b" d="M820.812,115.509H806.527V101.224h14.285Zm-14.087-.2h13.888V101.422H806.725Z" transform="translate(-735.554 -101.224)"/><rect class="b" width="8.73" height="0.198" transform="translate(17.915 4.265)"/><rect class="b" width="8.73" height="0.198" transform="translate(17.915 6.448)"/><rect class="b" width="8.73" height="0.198" transform="translate(17.915 8.63)"/><rect class="b" width="8.73" height="0.198" transform="translate(45.688 11.011)"/><rect class="b" width="8.73" height="0.198" transform="translate(45.688 13.193)"/><rect class="b" width="8.73" height="0.198" transform="translate(45.688 15.555)"/><rect class="b" width="8.73" height="0.198" transform="translate(73.562 4.265)"/><rect class="b" width="8.73" height="0.198" transform="translate(73.562 6.448)"/><rect class="b" width="8.73" height="0.198" transform="translate(73.562 8.63)"/><path class="c" d="M920.813,729.438a6.354,6.354,0,0,0,2.367,3.2,5.471,5.471,0,0,0-1.937-7.159A6.354,6.354,0,0,0,920.813,729.438Z" transform="translate(-838.357 -662.752)"/><path class="b" d="M896.9,747.031a2.137,2.137,0,1,1-3.667-1.549A6.354,6.354,0,0,1,896.9,747.031Z" transform="translate(-813.813 -680.77)"/><rect class="a" width="10.218" height="11.904" transform="translate(19.222 56.156)"/><path class="e" d="M305.812,649.509H291.527V635.224h14.285Zm-14.087-.2h13.888V635.422H291.725Z" transform="translate(-272.396 -581.449)"/><rect class="c" width="8.73" height="0.198" transform="translate(21.925 58.041)"/><rect class="c" width="8.73" height="0.198" transform="translate(21.925 60.223)"/><rect class="c" width="8.73" height="0.198" transform="translate(21.925 62.406)"/><path class="f" d="M288.2,318.411h0a4.572,4.572,0,0,0-4.317,4.79v3.361h1.034l.6-1.245-.15,1.245h6.645l.544-1.132-.136,1.132h.748v-2.639A5.261,5.261,0,0,0,288.2,318.411Z" transform="translate(-265.53 -296.583)"/><path class="f" d="M145.632,539.8l-2.65,1.126-9.21,7.487a2.711,2.711,0,0,0-.6,1.458c-.066.861-2.849,5.367-1.855,5.963s4.572,2.385,4.771,1.193,1.259-6.295,1.259-6.295l8.879-7.951Z" transform="translate(-128.105 -495.488)"/><path class="f" d="M111.7,701.031l-1.126,3.313s1.193,1.259.6,2.319v3.644h-.928l-.265-1.922s-1.057,1.9-1.59,1.922c-1.119.051-3.334.449-3.4-.147s1.678-1.178,1.678-1.178l1.855-5.1.8-3.114Z" transform="translate(-104.572 -640.489)"/><path class="f" d="M199.2,502.233s.6,5.831-1.126,6.891-9.343,4.439-9.343,4.439,3.247,3.048,2.584,3.777-3.644,2.717-4.042,2.319-4.837-5.168-4.307-6.692,7.885-6.493,7.885-6.493l.861-3.114.265-2.518,2.783-1.789Z" transform="translate(-174.777 -458.786)"/><circle class="g" cx="2.762" cy="2.762" r="2.762" transform="translate(18.813 23.842)"/><path class="g" d="M309.105,377.824s-.133,2.518,1.922,3.313-5.1,5.963-5.1,5.963v-5.765a2.063,2.063,0,0,0,0-2.518Z" transform="translate(-285.371 -350.018)"/><path class="g" d="M348.632,497.049l-.53,2.584-1.59,8.879s1.325,3.777-.464,3.711-.928-4.108-.928-4.108l.928-7.355V497.91Z" transform="translate(-320.456 -457.2)"/><path class="g" d="M228.97,484.358l-.6,2.319-2.717,6.56s-1.855,3.114-.331,3.048,1.524-3.048,1.524-3.048l3.114-5.3v-2.982Z" transform="translate(-212.437 -445.819)"/><path class="f" d="M243.59,679.393l2.187,2.054a1.869,1.869,0,0,1,2.12,1.458c.6,1.789.994,2.915.994,2.915l-.8.464-.994-1.391s-.6,2.518-1.193,2.717-3.578,1.524-3.313,0l1.458-2.12s.2-2.385-.4-2.584-2.187-2.187-2.187-2.187Z" transform="translate(-227.521 -621.236)"/><path class="b" d="M279.42,523.342s-6.228-2.253-6.626-2.054a2.987,2.987,0,0,1-.933.242l.006-.9s2.054-.729,3.18-.265,4.572,2.518,4.572,2.518Z" transform="translate(-254.716 -478.138)"/><path class="h" d="M275.591,412.536a17.847,17.847,0,0,0,2.319-3.313,3.253,3.253,0,0,1,1.72-1.691s3.979.9,3.912,2.486-2.518,4.042-2.518,4.042.331,8.812-1.458,8.68a3.837,3.837,0,0,1-.8-1.59c-.2-.928-6.361-1.922-6.361-1.922s-.53.928-.6.53.53-10.138.53-10.138l3.16-2.089Z" transform="translate(-254.662 -376.695)"/><path class="h" d="M355.529,425.079l.044.025a.914.914,0,0,1,.467.8v4.917a.921.921,0,0,0,.328.7c.255.217.492.53,0,.693-.8.265-3.909,1.59-3.976,1.126s-.2-.994,0-.994c.156,0,1.083-4.751,1.828-6.783a.914.914,0,0,1,1.306-.483Z" transform="translate(-327.092 -392.423)"/><path class="h" d="M259.644,426.249l-.928.265-1.06,4.572s-1.259.265-.861.729a20.237,20.237,0,0,0,2.054,1.656Z" transform="translate(-241.256 -393.589)"/><path class="f" d="M295.911,323.436a2.264,2.264,0,0,0-1.786-.912h-.085a3.145,3.145,0,0,0-2.959,3.3h.548l.088-.673.13.673h3.247l.272-.569-.068.569h.639a5.348,5.348,0,0,1-1.285,4.441h1.088l.544-1.139-.136,1.139h2.074l.408-2.619A4.427,4.427,0,0,0,295.911,323.436Z" transform="translate(-272.011 -300.285)"/><rect class="d" width="10.317" height="3.363" transform="translate(31.203 43.21)"/><rect class="c" width="9.325" height="5.754" transform="translate(31.801 40.306)"/></g></svg>