<svg xmlns="http://www.w3.org/2000/svg" width="100" height="82.568" viewBox="0 0 100 82.568"><defs><style>.a{fill:#6c63ff;}.b{fill:#d0cde1;}.c{fill:#a0616a;}.d{fill:#2f2e41;}.e{opacity:0.15;}.f{fill:#3f3d56;}</style></defs><g transform="translate(0 0)"><path class="a" d="M543,53.916a16.82,16.82,0,0,1-2.226,8.689,17.371,17.371,0,0,1-1.582,2.272C534,71.225,524.354,74.7,515.632,80.328,489.886,96.942,487.1,70.321,488.26,53.916A29.269,29.269,0,0,1,495.4,36.591a27.187,27.187,0,0,1,2.78-2.733,26.627,26.627,0,0,1,17.45-6.355,27.369,27.369,0,0,1,25.557,16.938A25.587,25.587,0,0,1,543,53.916Z" transform="translate(-448.478 -27.503)"/><path class="b" d="M589.405,88.423l-26.061,3.136a27.187,27.187,0,0,1,2.78-2.733Z" transform="translate(-516.795 -82.47)"/><path class="b" d="M806.956,382.916a17.362,17.362,0,0,1-1.582,2.272L783.05,382.5Z" transform="translate(-714.657 -347.814)"/><path class="b" d="M691.884,183.41,654.05,178.5l36.923,2.183a25.471,25.471,0,0,1,.911,2.724Z" transform="translate(-598.262 -163.748)"/><path class="a" d="M465.991,74.239c0,.067,0,.134-.008.2a2.736,2.736,0,1,1-5.148-1.476,2.515,2.515,0,0,1,.2-.323,2.735,2.735,0,0,1,4.944,1.378C465.988,74.09,465.991,74.164,465.991,74.239Z" transform="translate(-424.266 -67.204)"/><path class="b" d="M478.623,96.8c0,.067,0,.134-.008.2l-4.1-.492,4.094.07C478.62,96.649,478.623,96.723,478.623,96.8Z" transform="translate(-436.889 -89.762)"/><path class="b" d="M468.858,113.615l-3.789.456a2.745,2.745,0,0,1-.289-.386Z" transform="translate(-428.111 -105.2)"/><path class="b" d="M466.862,82.615l-3.1.373a2.515,2.515,0,0,1,.2-.323Z" transform="translate(-427.196 -77.229)"/><path class="a" d="M852.668,566.526c-.032.06-.065.117-.1.172a2.736,2.736,0,1,1-3.855-3.717,2.5,2.5,0,0,1,.329-.191,2.735,2.735,0,0,1,3.722,3.535C852.736,566.392,852.7,566.459,852.668,566.526Z" transform="translate(-773.038 -510.23)"/><path class="b" d="M868.046,583.475c-.032.06-.065.117-.1.172l-3.387-2.355,3.584,1.981C868.113,583.341,868.081,583.408,868.046,583.475Z" transform="translate(-788.414 -527.179)"/><path class="b" d="M851.232,594.325l-3.561-1.373a2.745,2.745,0,0,1-.075-.477Z" transform="translate(-773.127 -537.269)"/><path class="b" d="M862.691,566.711l-2.916-1.125a2.523,2.523,0,0,1,.329-.191Z" transform="translate(-784.108 -512.835)"/><path class="a" d="M1055.214,113.331c.047.048.092.1.134.148a2.736,2.736,0,1,1-4.716,2.537,2.486,2.486,0,0,1-.082-.372,2.735,2.735,0,0,1,4.5-2.466C1055.107,113.226,1055.162,113.277,1055.214,113.331Z" transform="translate(-955.991 -104.199)"/><path class="b" d="M1069.54,119.545c.047.048.092.1.134.148L1066.4,122.2l2.98-2.808C1069.434,119.44,1069.488,119.491,1069.54,119.545Z" transform="translate(-970.318 -110.413)"/><path class="b" d="M1074.752,138.039l-2.394,2.972a2.741,2.741,0,0,1-.477-.074Z" transform="translate(-975.265 -127.238)"/><path class="b" d="M1052.877,123.526l-1.961,2.434a2.549,2.549,0,0,1-.082-.372Z" transform="translate(-956.275 -114.143)"/><path class="c" d="M566.336,636.956s6,.25,6,1.751-6.755,0-6.755,0Z" transform="translate(-518.948 -577.403)"/><path class="d" d="M247.781,578.638l-11.258-.751-.5-6-2.5,5.254-11.008-1.5c.25-9.507,4.253-18.763,4.5-20.014s.848-6.419.848-6.419c1.093-2.319,6.822-2.537,11.313-2.327,1.861.085,3.512.245,4.531.36.673.075,1.071.13,1.071.13a15.679,15.679,0,0,1,3.66,7.182C251,564.688,247.781,578.638,247.781,578.638Z" transform="translate(-209.906 -496.069)"/><circle class="c" cx="6.254" cy="6.254" r="6.254" transform="translate(19.336 12.02)"/><path class="c" d="M264.565,229.879s-1.751,7.755-4.5,10.007,10.757,0,10.757,0-3-5-.75-7.255S264.565,229.879,264.565,229.879Z" transform="translate(-243.265 -210.104)"/><path class="b" d="M243.468,328.892l-4.15.46-11.61,1.291s-.055-.148-.153-.415c-.843-2.3-4.9-13.487-5.351-16.847-.5-3.753,4.753-8.256,4.753-8.256a61.49,61.49,0,0,1,6.5-1c1.5,0,7.505,2.252,7.505,2.252l2.239,20.141.193,1.744Z" transform="translate(-209.596 -277.095)"/><path class="e" d="M363.753,432.625l-8.413-4.931s-.148-.48-.4-1.291c-.125-.405-.278-.9-.45-1.451-.971-3.117-2.6-8.261-3.905-12.018-2-5.754,7.755,10.257,7.755,10.257l.488.378.193,1.744c.673.075,1.071.13,1.071.13A15.678,15.678,0,0,1,363.753,432.625Z" transform="translate(-324.923 -374.146)"/><path class="b" d="M361.781,325.454s-2.5,3.252-.5,9.006,4.753,14.76,4.753,14.76l14.51,8.506,2-2.5-13.509-10.507s-.5-19.013-3-19.764A5.127,5.127,0,0,0,361.781,325.454Z" transform="translate(-334.07 -295.672)"/><path class="c" d="M246.836,540.138s3.5,7.255,5,6.5-3.753-8.256-3.753-8.256Z" transform="translate(-231.69 -488.466)"/><path class="b" d="M108.094,352.77,94.835,363.778s-5,3.5,4.253,6,10.007,4,10.007,4,1-3.252,2.252-2.752l-10.757-5.254,8.756-5.254Z" transform="translate(-93.485 -320.986)"/><path class="d" d="M160.745,129.448a35.323,35.323,0,0,0,3.541-1.878c-.092-2.726.244-5.2,1.227-6.512a14.407,14.407,0,0,1,2.617-3.494c2.228-2.425,7.154-3.778,8.027-2.567,6.608.13,7.3,5.31,7.3,5.31-.034,2.167-2.286,2.235-4.259,2.156a3.485,3.485,0,0,1-1.657,3.7c-2.607,1.3-3.389,3-2.085,4.171s3.649,4.3.521,5.083-3.519,2.346-2.607,3-2.085-1.173-2.085-1.173-.521,3.128-3.258,2.346a1.646,1.646,0,0,1-.731-.518c-.739.812-1.4,1.292-1.9,1.3-2.846.015-2.505-3.138-2.505-3.138s-3.379.949-2.324.567,1.1-1.993-1.7-3.589S159.173,130.226,160.745,129.448Z" transform="translate(-151.465 -106.04)"/><path class="f" d="M544.89,233.839l-.045-.006.111.421a11.072,11.072,0,0,0,.454,1.727l3.247,12.342a2.092,2.092,0,0,0,1.7,1.535l6.621,1.024a2.092,2.092,0,0,0,2.164-1.08l6.292-11.753a11.034,11.034,0,0,0,.538-1.005l.214-.4-.033,0a11.124,11.124,0,1,0-21.265-2.8Z" transform="translate(-500.104 -202.259)"/><path class="b" d="M552.057,244.61a2.275,2.275,0,0,1-.348-.027l-6.921-1.071a2.284,2.284,0,0,1-1.86-1.676l-3.394-12.9a11.635,11.635,0,0,1-.477-1.813l-.086-.564a11.728,11.728,0,0,1,13.425-13.08l-.03.193a11.537,11.537,0,0,0-13.185,12.988l.066.422a11.564,11.564,0,0,0,.473,1.8l3.4,12.908a2.088,2.088,0,0,0,1.7,1.533l6.921,1.071a2.092,2.092,0,0,0,2.161-1.078l.172.092A2.289,2.289,0,0,1,552.057,244.61Z" transform="translate(-494.829 -195.18)"/><rect class="b" width="12.245" height="0.253" transform="translate(54.827 45.884) rotate(-69.885)"/><rect class="b" width="0.253" height="12.245" transform="translate(51.858 33.332) rotate(-2.516)"/><path class="f" d="M583.908,575.9l-8.868-1.372a.253.253,0,1,1,.077-.5l8.868,1.372a.253.253,0,1,1-.077.5Z" transform="translate(-527.261 -520.626)"/><path class="f" d="M586.235,556.63l-8.868-1.372a.253.253,0,0,1,.077-.5l8.868,1.372a.253.253,0,0,1-.077.5Z" transform="translate(-529.358 -503.235)"/><path class="f" d="M588.563,537.358l-8.868-1.372a.253.253,0,1,1,.077-.5l8.868,1.372a.253.253,0,1,1-.077.5Z" transform="translate(-531.455 -485.846)"/><path class="f" d="M593.124,579.659c1.759.272,3.337-.488,3.524-1.7l-6.37-.985C590.091,578.186,591.365,579.387,593.124,579.659Z" transform="translate(-541.187 -523.285)"/><path class="b" d="M618.228,338.794a1.557,1.557,0,0,1-.863-.558c-.056-.066-.111-.134-.166-.2a1.975,1.975,0,0,0-.651-.606c-.58-.271-1.264.107-1.855.513l-.143-.208a1.707,1.707,0,0,1,2.847.143c.053.066.106.132.161.2.178.208.534.546.916.468a1.231,1.231,0,0,0,.439-.233,2.363,2.363,0,0,1,.311-.2,1.238,1.238,0,0,1,1.359.192,2.424,2.424,0,0,1,.184.2.629.629,0,0,0,1.017.12,1.307,1.307,0,0,1,.765-.229l.027,0c.5.077.727.628.857,1.039l-.241.076c-.177-.559-.391-.836-.673-.867a1.112,1.112,0,0,0-.615.2.863.863,0,0,1-1.327-.175,2.226,2.226,0,0,0-.165-.175.993.993,0,0,0-1.076-.152,2.129,2.129,0,0,0-.277.176,1.437,1.437,0,0,1-.535.274A.829.829,0,0,1,618.228,338.794Z" transform="translate(-563.062 -306.832)"/></g></svg>