<svg xmlns="http://www.w3.org/2000/svg" width="100" height="50.708" viewBox="0 0 100 50.708"><defs><style>.a{fill:#e6e6e6;}.b{fill:#ffb8b8;}.c{fill:#d0cde1;}.d{fill:#2f2e41;}.e{fill:#3f3d56;}.f{fill:#6c63ff;}.g{opacity:0.3;}</style></defs><g transform="translate(0 0)"><rect class="a" width="45.115" height="22.558" transform="translate(50.964 3.357)"/><path class="a" d="M532.575,610.427l1.069-.308a14,14,0,0,0,.484-1.5l-.5-.018.547-.158c.158-.631.223-1.059.223-1.059a13.415,13.415,0,0,0-3.8,1.905l-.2,1.413-.193-1.086a5.665,5.665,0,0,0-.5.5c-1.571,1.806-2.255,3.784-1.527,4.417s2.591-.318,4.163-2.125a7.455,7.455,0,0,0,1.167-1.95Z" transform="translate(-486.048 -564.055)"/><path class="a" d="M162.9,544.516l-.609-2.4a31.2,31.2,0,0,0-3.309-1.187l-.077,1.116-.312-1.23c-1.395-.4-2.343-.574-2.343-.574a29.894,29.894,0,0,0,3.97,8.6l3.132.55-2.433.351a12.617,12.617,0,0,0,1.088,1.153c3.91,3.63,8.266,5.295,9.728,3.72s-.522-5.795-4.433-9.425a16.613,16.613,0,0,0-4.259-2.739Z" transform="translate(-156.25 -504.579)"/><path class="a" d="M229.585,499.784l.72-2.371a31.193,31.193,0,0,0-2.219-2.727l-.643.916.369-1.214c-.988-1.062-1.71-1.7-1.71-1.7a29.894,29.894,0,0,0-1.047,9.413l2.4,2.09-2.264-.957a12.625,12.625,0,0,0,.336,1.55c1.471,5.128,4.339,8.805,6.405,8.213s2.548-5.231,1.077-10.359a16.615,16.615,0,0,0-2.231-4.546Z" transform="translate(-217.141 -462.457)"/><path class="b" d="M194.275,411.814l.252,1.132,1.761-.126-.126-1.258Z" transform="translate(-172.391 -364.561)"/><path class="b" d="M140.128,411.814l-.251,1.132-1.761-.126.126-1.258Z" transform="translate(-122.342 -364.561)"/><circle class="b" cx="2.389" cy="2.389" r="2.389" transform="translate(14.893 5.754)"/><path class="b" d="M133.24,76.812l-.629,2.892,3.144,1.006-.126-3.647Z" transform="translate(-117.466 -68.04)"/><path class="c" d="M278.917,322.493l-1.582-1.2s-.3-.437-.43-.06A13.131,13.131,0,0,1,275.647,323l.88,10.312,6.665.126s-2.6-12.021-2.937-11.607S279.042,322.241,278.917,322.493Z" transform="translate(-262.011 -310.451)"/><path class="d" d="M313.342,320.774s-.5.5-.251.88.063,1.077.314,1.136-.252,4.335.5,5.466.377,4.024.377,4.527.755,3.521.755,3.521,2.515.252,2.515-.377-.88-5.03-.88-5.03l.755-7.8a1.107,1.107,0,0,0-.88-1.006c-.88-.251-2.641-.88-2.641-.88Z" transform="translate(-295.367 -310.178)"/><path class="b" d="M318.828,386.163H318.2s-3.27.252-3.018-1.132,2.767-.377,2.767-.377l.755.377Z" transform="translate(-297.27 -366.45)"/><path class="d" d="M258.9,318.922a5.866,5.866,0,0,0-1.159.9c-.126.252-3.018,1.635-3.018,2.641a4.314,4.314,0,0,0,.88,2.138l1.132,11.067s1.886.629,2.012.126.629-11.57.377-12.073a21.722,21.722,0,0,1-.251-3.773Z" transform="translate(-243.479 -308.538)"/><path class="b" d="M261.458,478.79l-.126.755s.126,2.515,1.132,2.389.377-2.641.377-2.641l-.126-.5Z" transform="translate(-249.331 -450.148)"/><path class="d" d="M275.647,422.631s.126,11.318.755,14.965.88,9.935.88,9.935a16.5,16.5,0,0,1,1.886.377c.252.126.88-.252.88-.252l.126-18.612,2.389,8.426s.377,10.186,1.132,10.438a9.5,9.5,0,0,0,3.018-.252s-.88-9.683-1.132-10.061-.88-11.444-1.886-13.456l-.377-1.383S276.15,423.008,275.647,422.631Z" transform="translate(-262.011 -400.403)"/><path class="d" d="M347.047,642.609s-.629-.5-.629-.126-.629,2.7.126,2.7,5.785.44,5.659-.566-3.152-2.612-3.152-2.612a8.118,8.118,0,0,0-1.25.475C347.676,642.609,347.047,642.609,347.047,642.609Z" transform="translate(-324.791 -594.727)"/><path class="d" d="M268.672,642.609s.629-.5.629-.126.629,2.7-.126,2.7-5.785.44-5.659-.566,3.152-2.612,3.152-2.612a8.116,8.116,0,0,1,1.25.475C268.043,642.609,268.672,642.609,268.672,642.609Z" transform="translate(-251.263 -594.727)"/><path class="d" d="M343.918,340.044l.88.126,1.761,5.03s.5,2.515-.251,2.892a5.6,5.6,0,0,1-2.179.3l-.211-2.819.629.126-.629-1.258Z" transform="translate(-322.78 -327.248)"/><path class="d" d="M251.323,345.55l-.629.5s-.629,6.414-.5,7.042.88,8.3.88,8.3l2.138-.5L251.7,345.676Z" transform="translate(-239.448 -332.125)"/><path class="d" d="M281.742,264.416s-.7-.883,0-1.324v.221s1.491-1.655,2.385-1.213l.8-.221v.221l.5-.221-.1.331h.7l-.3.221s2.286-.11.894,1.544c0,0,.661.992.033,1.544,0,0-.529-1.213-1.225-.882a1.108,1.108,0,0,1-1.193-.11s-1.391-.11-1.193.552.1.882.1.882-.5.331-.4.552a3.431,3.431,0,0,1,.1.883s-.5-.772-.7-.662S280.848,265.74,281.742,264.416Z" transform="translate(-267.103 -258.009)"/><path class="d" d="M320.376,77.374l-5.288.131-.712-6.305h6Z" transform="translate(-278.984 -63.069)"/><path class="d" d="M441.213,423.826l-1.93,13.382a37.721,37.721,0,0,0-1.8,7.077l-.515,3.346,2.316.515,2.445-9.393,3.346-8.493-.386,9.779-.772,7.978,2.316.386,1.415-10.165,1.544-7.463s1.158-6.434-.643-7.077Z" transform="translate(-405.397 -401.348)"/><path class="d" d="M436.629,626.075l-.258,3.132s2.756,1.594,1.872,1.9a4.281,4.281,0,0,1-2.342-.159c-.261-.074-.75-.192-1.119-.28a.821.821,0,0,1-.635-.739v-.011c-.022-.385.847-3.734.847-3.734Z" transform="translate(-402.852 -580.612)"/><path class="d" d="M500.776,626.761l.217,2.995s3.139,1.166,2.33,1.638a4.282,4.282,0,0,1-2.33.292c-.473-.04-1.65-.08-1.65-.08s-.218.188-.313-.186.127-3.715.127-3.715Z" transform="translate(-460.41 -581.22)"/><circle class="b" cx="2.445" cy="2.445" r="2.445" transform="translate(36.049 6.78)"/><path class="b" d="M325.173,93.171,324.658,96l2.187,1.029.515-3.6Z" transform="translate(-288.09 -82.531)"/><path class="b" d="M483.161,431.359l2.7,1.93s1.158,2.96,2.059,2.445-1.029-3.088-1.029-3.088l-2.187-2.187Z" transform="translate(-446.352 -407.336)"/><path class="b" d="M539.555,430.458l.257,1.544s-.643,3.217-1.415,2.574.257-2.7.257-2.7l-.129-1.287Z" transform="translate(-495.093 -407.336)"/><path class="c" d="M466.87,334.234l-.257-1.029-1.544-.772-.515.643-1.673.515,1.93,10.294s6.563.386,6.691-.643-1.287-3.86-1.287-3.86a6.979,6.979,0,0,0,.257-2.188l-.515-3.088-2.059-.643-.47-.569-.431.7Z" transform="translate(-428.374 -320.506)"/><path class="c" d="M454.518,342.831l-.386-.257a1.427,1.427,0,0,0-1.029,1.158c-.257,1.029,0,5.662.643,6.563s2.445,3.6,2.445,3.6l2.445-1.158-2.574-2.96-.643-3.732Z" transform="translate(-419.593 -329.488)"/><path class="c" d="M515.836,347.338l1.029-.257a1.743,1.743,0,0,1,.9,1.158c.257.9,1.673,5.4,1.544,5.79s1.158,2.96,1.158,2.96l-1.8.129-1.029-2.7-1.029-2.7Z" transform="translate(-475.346 -333.481)"/><path class="d" d="M460.685,284.172a1.749,1.749,0,0,0,.773-1.507c.017-.588-.125-1.17-.137-1.758a1.358,1.358,0,0,1,.031-.358,1.378,1.378,0,0,1,.2-.408,3.81,3.81,0,0,1,3.064-1.761,1.36,1.36,0,0,1,.518.1c.127.051.168.045.193.2a1.3,1.3,0,0,1,.89.028,3.013,3.013,0,0,1,.779.464,3.509,3.509,0,0,1,.394.341,2.941,2.941,0,0,1,.61,2.623c-.061.3.232.585.475.767a1.763,1.763,0,0,1,.642.63,2.729,2.729,0,0,1,.075.867,1.483,1.483,0,0,0,.946,1.246.456.456,0,0,1-.44.155,1.084,1.084,0,0,1-.459-.219,2.73,2.73,0,0,1-1.018-1.51,4.428,4.428,0,0,0-.041.99,2.765,2.765,0,0,0,.2,1.081,1.584,1.584,0,0,0,.729.8.86.86,0,0,1-.939-.187,1.961,1.961,0,0,1-.54-.9,4.485,4.485,0,0,1-.216-1.7,2.43,2.43,0,0,0-.305,1.657,2.533,2.533,0,0,0,.859,1.492,4.936,4.936,0,0,1-2.259-.569,1.279,1.279,0,0,1-.463-.357,1.481,1.481,0,0,1-.108-1.114c.05-.3-.324-.732-.11-.946a.355.355,0,0,1,.238-.1,2.106,2.106,0,0,0,1.6-.945,2.434,2.434,0,0,0,.405-1.248,2.271,2.271,0,1,0-4.441.674,4.558,4.558,0,0,1,.165.77,6.047,6.047,0,0,0,.184.9,2.328,2.328,0,0,0,.944,1.433,1.473,1.473,0,0,1-.561.119,3.448,3.448,0,0,1-1.883-.225A1.667,1.667,0,0,1,460.685,284.172Z" transform="translate(-426.428 -272.625)"/><path class="d" d="M472.876,288.318a6.27,6.27,0,0,1,5.389,0V286.84a.963.963,0,0,0-.963-.963h-3.666a.76.76,0,0,0-.76.76Z" transform="translate(-437.227 -279.267)"/><ellipse class="b" cx="0.27" cy="0.431" rx="0.27" ry="0.431" transform="translate(35.969 9.103)"/><rect class="e" width="59.387" height="0.228" transform="translate(0 50.48)"/><path class="e" d="M692.054,250.781H646.71V228h45.344Zm-45.116-.228h44.887V228.223H646.938Z" transform="translate(-592.054 -227.995)"/><path class="f" d="M815.489,375.979a1.839,1.839,0,1,1-.539-1.306A1.843,1.843,0,0,1,815.489,375.979Z" transform="translate(-737.976 -357.445)"/><path class="g" d="M815.489,375.979a1.839,1.839,0,1,1-.539-1.306A1.843,1.843,0,0,1,815.489,375.979Z" transform="translate(-737.976 -357.445)"/><path class="f" d="M791.1,273.447a4.271,4.271,0,0,1-.364,1.751,4.356,4.356,0,0,1-.378.68,5.625,5.625,0,0,1-1.078,1.165c-.071.059-.148.121-.252.2-.13.1-.275.2-.442.308a9.24,9.24,0,0,0-.849.62,1.881,1.881,0,0,0-.412.445,3.2,3.2,0,0,0-.211,1.413v.114h-3.079v-.534c0-.418.01-.77.03-1.076a7.689,7.689,0,0,1,.087-.828,2.057,2.057,0,0,1,.215-.691,6.229,6.229,0,0,1,1.489-1.4l.1-.078c.033-.023.065-.047.1-.072a4.742,4.742,0,0,0,.761-.674,2.443,2.443,0,0,0,.185-.247l.015-.023a1.972,1.972,0,0,0,.254-1.042,1.829,1.829,0,0,0-.018-.275,1.456,1.456,0,0,0-.464-.927,1.659,1.659,0,0,0-1.04-.434c-.049,0-.095-.006-.142-.006a2.208,2.208,0,0,0-.54.064,1.628,1.628,0,0,0-.85.525,2.212,2.212,0,0,0-.3.453,6.619,6.619,0,0,0-.512,1.957l-.011.12-2.9-.772v-1.278c.014-.051.029-.1.045-.153a5.769,5.769,0,0,1,.871-1.785,4.531,4.531,0,0,1,.563-.636c.049-.049.1-.1.156-.144a5.2,5.2,0,0,1,1.152-.758l.037-.017a5.8,5.8,0,0,1,2.516-.534c.09,0,.2,0,.3.007a5.747,5.747,0,0,1,2.477.632,5.046,5.046,0,0,1,.963.649,4.113,4.113,0,0,1,1.486,2.7A4.839,4.839,0,0,1,791.1,273.447Z" transform="translate(-710.273 -264.211)"/><path class="g" d="M791.1,273.447a4.271,4.271,0,0,1-.364,1.751,4.356,4.356,0,0,1-.378.68,5.625,5.625,0,0,1-1.078,1.165c-.071.059-.148.121-.252.2-.13.1-.275.2-.442.308a9.24,9.24,0,0,0-.849.62,1.881,1.881,0,0,0-.412.445,3.2,3.2,0,0,0-.211,1.413v.114h-3.079v-.534c0-.418.01-.77.03-1.076a7.689,7.689,0,0,1,.087-.828,2.057,2.057,0,0,1,.215-.691,6.229,6.229,0,0,1,1.489-1.4l.1-.078c.033-.023.065-.047.1-.072a4.742,4.742,0,0,0,.761-.674,2.443,2.443,0,0,0,.185-.247l.015-.023a1.972,1.972,0,0,0,.254-1.042,1.829,1.829,0,0,0-.018-.275,1.456,1.456,0,0,0-.464-.927,1.659,1.659,0,0,0-1.04-.434c-.049,0-.095-.006-.142-.006a2.208,2.208,0,0,0-.54.064,1.628,1.628,0,0,0-.85.525,2.212,2.212,0,0,0-.3.453,6.619,6.619,0,0,0-.512,1.957l-.011.12-2.9-.772v-1.278c.014-.051.029-.1.045-.153a5.769,5.769,0,0,1,.871-1.785,4.531,4.531,0,0,1,.563-.636c.049-.049.1-.1.156-.144a5.2,5.2,0,0,1,1.152-.758l.037-.017a5.8,5.8,0,0,1,2.516-.534c.09,0,.2,0,.3.007a5.747,5.747,0,0,1,2.477.632,5.046,5.046,0,0,1,.963.649,4.113,4.113,0,0,1,1.486,2.7A4.839,4.839,0,0,1,791.1,273.447Z" transform="translate(-710.273 -264.211)"/><path class="f" d="M804.489,375.979a1.839,1.839,0,1,1-.539-1.306A1.843,1.843,0,0,1,804.489,375.979Z" transform="translate(-728.215 -357.445)"/><path class="f" d="M778.188,273.447a4.27,4.27,0,0,1-.364,1.751,4.361,4.361,0,0,1-.378.68,5.623,5.623,0,0,1-1.078,1.165c-.071.059-.148.121-.252.2-.13.1-.275.2-.442.308a9.223,9.223,0,0,0-.849.62,1.883,1.883,0,0,0-.412.445,3.2,3.2,0,0,0-.211,1.413v.114h-3.079v-.534c0-.418.01-.77.03-1.076a7.7,7.7,0,0,1,.087-.828,2.057,2.057,0,0,1,.215-.691,6.229,6.229,0,0,1,1.489-1.4l.1-.078c.033-.023.065-.047.1-.072a4.745,4.745,0,0,0,.761-.674,2.437,2.437,0,0,0,.185-.247l.015-.023a1.974,1.974,0,0,0,.254-1.042,1.821,1.821,0,0,0-.018-.275,1.456,1.456,0,0,0-.464-.927,1.659,1.659,0,0,0-1.04-.434c-.049,0-.095-.006-.142-.006a2.209,2.209,0,0,0-.54.064,1.627,1.627,0,0,0-.85.525,2.2,2.2,0,0,0-.3.453,4.538,4.538,0,0,0-.4,1.615l-.011.12-3.259-.465.016-.113a8.186,8.186,0,0,1,.275-1.283,5.767,5.767,0,0,1,.871-1.785,4.535,4.535,0,0,1,.563-.636c.049-.049.1-.1.156-.144a5.206,5.206,0,0,1,1.152-.758l.037-.017a5.8,5.8,0,0,1,2.516-.534c.09,0,.2,0,.3.007a5.747,5.747,0,0,1,2.477.632,5.048,5.048,0,0,1,.963.649,4.113,4.113,0,0,1,1.486,2.7A4.813,4.813,0,0,1,778.188,273.447Z" transform="translate(-698.597 -264.211)"/></g></svg>