<svg xmlns="http://www.w3.org/2000/svg" width="100" height="75.301" viewBox="0 0 100 75.301"><defs><style>.a{fill:#e6e6e6;}.b{fill:#3f3d56;}.c{fill:#6c63ff;}.d{fill:#ff6584;}.e{fill:#fff;}.f{fill:#fbbebe;}.g{fill:#2f2e41;}.h{opacity:0.2;}</style></defs><path class="a" d="M828.249,642.749a4.185,4.185,0,0,1-.442-1.655,11.476,11.476,0,0,1,.848-5.094,10.273,10.273,0,0,0-.407-8.176l.1-.059a9.024,9.024,0,0,1,.851,2.412,10.521,10.521,0,0,1-.436,5.864c-1.672,4.5-.429,6.626-.416,6.647Z" transform="translate(-752.066 -570.155)"/><circle class="b" cx="0.764" cy="0.764" r="0.764" transform="translate(74.759 55.877)"/><circle class="b" cx="0.764" cy="0.764" r="0.764" transform="translate(77.18 58.697)"/><circle class="a" cx="0.764" cy="0.764" r="0.764" transform="translate(75.526 60.577)"/><circle class="a" cx="0.764" cy="0.764" r="0.764" transform="translate(77.534 62.163)"/><circle class="b" cx="0.764" cy="0.764" r="0.764" transform="translate(74.936 64.631)"/><path class="a" d="M835.167,735.455s-.764-1.88,1.528-3.29Z" transform="translate(-758.518 -662.834)"/><path class="a" d="M803.745,745.492s-.348-2-3.038-1.982Z" transform="translate(-728.05 -672.905)"/><ellipse class="b" cx="18.82" cy="1.895" rx="18.82" ry="1.895" transform="translate(62.275 71.51)"/><rect class="b" width="78.996" height="50.593"/><circle class="c" cx="0.622" cy="0.622" r="0.622" transform="translate(1.838 1.049)"/><circle class="c" cx="0.622" cy="0.622" r="0.622" transform="translate(4.199 1.049)"/><circle class="c" cx="0.622" cy="0.622" r="0.622" transform="translate(6.56 1.049)"/><rect class="a" width="13.53" height="0.777" transform="translate(47.901 20.751)"/><rect class="c" width="20.893" height="0.777" transform="translate(47.926 23.584)"/><rect class="a" width="17.027" height="0.777" transform="translate(47.912 26.253)"/><rect class="a" width="9.94" height="0.777" transform="translate(47.89 28.912)"/><rect class="a" width="15.002" height="0.777" transform="translate(47.905 31.571)"/><rect class="a" width="1.657" height="1.657" transform="translate(41.67 20.474)"/><rect class="c" width="1.657" height="1.657" transform="translate(41.67 23.144)"/><rect class="a" width="1.657" height="1.657" transform="translate(41.67 25.813)"/><rect class="a" width="1.657" height="1.657" transform="translate(41.67 28.482)"/><rect class="a" width="1.657" height="1.657" transform="translate(41.67 31.151)"/><path class="d" d="M688.147,356.506h-3.739a13.077,13.077,0,0,1,0-4.458h3.739A8.022,8.022,0,0,0,688.147,356.506Z" transform="translate(-624.703 -325.395)"/><circle class="c" cx="10.046" cy="10.046" r="10.046" transform="translate(10.62 14.682)"/><path class="e" d="M337.033,241.6H335.91v-1.123h1.123Zm-.9-.225h.674V240.7h-.674Z" transform="translate(-315.706 -226.353)"/><rect class="e" width="5.951" height="0.225" transform="translate(21.139 14.575)"/><circle class="e" cx="0.234" cy="0.234" r="0.234" transform="translate(26.878 14.454)"/><rect class="e" width="5.838" height="0.225" transform="translate(14.404 14.575)"/><circle class="e" cx="0.234" cy="0.234" r="0.234" transform="translate(14.171 14.454)"/><path class="e" d="M426.269,330.787h-1.123v-1.123h1.123Zm-.9-.225h.674v-.674h-.674Z" transform="translate(-394.873 -305.524)"/><rect class="e" width="0.225" height="5.838" transform="translate(30.723 25.176)"/><circle class="e" cx="0.234" cy="0.234" r="0.234" transform="translate(30.601 30.781)"/><rect class="e" width="0.225" height="5.838" transform="translate(30.723 18.44)"/><circle class="e" cx="0.234" cy="0.234" r="0.234" transform="translate(30.601 18.206)"/><path class="e" d="M247.269,330.787h-1.123v-1.123h1.123Zm-.9-.225h.674v-.674h-.674Z" transform="translate(-236.12 -305.524)"/><rect class="e" width="0.225" height="5.838" transform="translate(10.475 25.176)"/><circle class="e" cx="0.234" cy="0.234" r="0.234" transform="translate(10.353 30.781)"/><rect class="e" width="0.225" height="6.063" transform="translate(10.475 18.215)"/><circle class="e" cx="0.234" cy="0.234" r="0.234" transform="translate(10.353 18.206)"/><path class="e" d="M337.033,420.6H335.91v-1.123h1.123Zm-.9-.225h.674V419.7h-.674Z" transform="translate(-315.706 -385.255)"/><rect class="e" width="5.951" height="0.225" transform="translate(21.252 34.673)"/><circle class="e" cx="0.234" cy="0.234" r="0.234" transform="translate(26.878 34.551)"/><rect class="e" width="5.838" height="0.225" transform="translate(14.404 34.673)"/><circle class="e" cx="0.234" cy="0.234" r="0.234" transform="translate(14.171 34.551)"/><path class="a" d="M354.437,429.291h-4.353a15.225,15.225,0,0,1,0-5.19h4.353A9.338,9.338,0,0,0,354.437,429.291Z" transform="translate(-328.08 -389.358)"/><path class="f" d="M894.514,460.782l-1.019,3.786s-.51,3.058.364,3.13.655-3.058.655-3.058l1.674-2.621Z" transform="translate(-810.167 -421.921)"/><path class="g" d="M907.706,465.353v-1.186l-6.915-.466L899.7,470.69a89.588,89.588,0,0,0,.364,10.526c.51,3.558,1.529,11.86,1.529,11.86h4.659L905.085,475.8l5.242,17.271,5.46-.667-6.334-20.385A13.731,13.731,0,0,0,907.706,465.353Z" transform="translate(-815.787 -424.512)"/><path class="g" d="M906.656,718.2l-.291,2.257-.437,1.6s-2.038.437-.8,1.165a2.429,2.429,0,0,0,2.4,0l.946-1.31v2.257h1.456v-3.2l-1.092-2.4Z" transform="translate(-820.27 -650.436)"/><path class="g" d="M987.06,718.2l-.291,2.257-.437,1.6s-2.038.437-.8,1.165a2.429,2.429,0,0,0,2.4,0l.946-1.31v2.257h1.456v-3.2l-1.092-2.4Z" transform="translate(-891.646 -650.436)"/><circle class="f" cx="2.475" cy="2.475" r="2.475" transform="translate(86.568 22.081)"/><path class="f" d="M790.636,228.107l2.039,2.475-2.475.947-1.165-2.33Z" transform="translate(-699.954 -202.496)"/><path class="a" d="M911.139,356.879l.352-.1s1.832-1.141,2.342-1.068a3.8,3.8,0,0,1,1.82,3.858c-.291,2.184.291,10.338-.874,10.047a6.513,6.513,0,0,1-1.529-.51l-1.383-.655-1.31.364a2.343,2.343,0,0,0-1.456-.364,9.4,9.4,0,0,1-2.766-.582Z" transform="translate(-821.695 -328.647)"/><path class="a" d="M905.613,366.175s-1.646-.779-2.374.385a74.665,74.665,0,0,0-2.766,7.353l-.946,2.839,2.33,1.383,4.586-8.445S907.113,367.173,905.613,366.175Z" transform="translate(-815.652 -337.71)"/><path class="g" d="M920.4,303.379c-.156-.239-.077-.565-.186-.829-.171-.414-.7-.511-1.151-.549a3.429,3.429,0,0,0-.892,0,.856.856,0,0,0-.618.448c-.066.133-.049-.283-.007-.816a2.578,2.578,0,0,1,1.977-2.306l.019,0a4.887,4.887,0,0,1,1.659-.153,2.159,2.159,0,0,1,1.453.743c.158.2.27.436.447.621a2.915,2.915,0,0,0,1.193.592,3.6,3.6,0,0,1,1.308.754,1.95,1.95,0,0,1,.632,1.34,1.3,1.3,0,0,1-.973,1.318.68.68,0,0,0-.291.125c-.579.449.081.919.077,1.424,0,.422-.473.7-.894.716a1.7,1.7,0,0,1-1.69-1.343,3.535,3.535,0,0,1,.027-1.051c.047-.4-.814-1.341-.245-.651a.99.99,0,0,1,.217.458c.095.551-.407.737-.723,1.042a1.311,1.311,0,0,0-.317,1.349,1.511,1.511,0,0,1-.275-1.909c.1-.156.233-.292.33-.452.151-.249.192-.791-.23-.776C920.949,303.484,920.636,303.735,920.4,303.379Z" transform="translate(-831.619 -278.437)"/><path class="h" d="M770.013,302.646l-3.349,5.3,3.17-5.836Z" transform="translate(-680.096 -268.189)"/><rect class="c" width="5.503" height="5.503" transform="translate(62.383 67.803)"/><rect class="a" width="2.746" height="2.746" transform="translate(66.081 70.947)"/><path class="a" d="M251.969,190.817H177.641v-44.35h74.328Zm-74.1-.225h73.879v-43.9H177.866Z" transform="translate(-175.307 -142.896)"/></svg>