<svg xmlns="http://www.w3.org/2000/svg" xmlns:xlink="http://www.w3.org/1999/xlink" width="90.557" height="99.063" viewBox="0 0 90.557 99.063"><defs><style>.a{fill:url(#a);}.b{fill:#fcfcfc;}.c{fill:#e0e0e0;}.d,.f{fill:#6c63ff;}.d,.e,.i{opacity:0.5;}.e{fill:#69f0ae;}.g{fill:url(#b);}.h{fill:#f5f5f5;}.j{fill:url(#c);}.k{fill:#3ad29f;}.l{fill:#fff;}</style><linearGradient id="a" x1="0.5" y1="1" x2="0.5" gradientUnits="objectBoundingBox"><stop offset="0" stop-color="#b3b3b3" stop-opacity="0.251"/><stop offset="0.54" stop-color="#b3b3b3" stop-opacity="0.102"/><stop offset="1" stop-color="#b3b3b3" stop-opacity="0.051"/></linearGradient><linearGradient id="b" x1="0.5" x2="0.5" y2="0" xlink:href="#a"/><linearGradient id="c" x1="0.5" y1="1" x2="0.5" gradientUnits="objectBoundingBox"><stop offset="0" stop-color="gray" stop-opacity="0.251"/><stop offset="0.54" stop-color="gray" stop-opacity="0.122"/><stop offset="1" stop-color="gray" stop-opacity="0.102"/></linearGradient></defs><path class="a" d="M287.5,131.794c0-6.439,6.358-12.374,12.8-12.374a11.985,11.985,0,0,1,2.861-.02c.012-.281.02-1.933.02-2.217V51.81H247.444L236,63.565v76.065h52.618C287.486,137.834,287.5,134.075,287.5,131.794Z" transform="translate(-236 -51.81)"/><path class="b" d="M293.928,365.24a14.554,14.554,0,0,1,14.554-14.554c.439,0,.871.021,1.3.058V317H244.48v53.34h50.367A14.522,14.522,0,0,1,293.928,365.24Z" transform="translate(-243.425 -284.013)"/><path class="b" d="M72.362,38.3H6.91V16.571L17.494,5.5H72.362Z" transform="translate(-6.05 -4.816)"/><rect class="c" width="17.754" height="1.355" transform="translate(44.481 7.288)"/><rect class="c" width="17.754" height="1.355" transform="translate(44.481 12.264)"/><rect class="c" width="17.754" height="1.355" transform="translate(44.481 17.239)"/><rect class="d" width="17.754" height="1.355" transform="translate(44.481 22.215)"/><rect class="c" width="17.754" height="1.355" transform="translate(44.481 27.191)"/><rect class="c" width="17.754" height="1.355" transform="translate(44.481 32.166)"/><rect class="d" width="17.754" height="1.355" transform="translate(10.538 42.74)"/><rect class="c" width="17.754" height="1.355" transform="translate(10.538 48.156)"/><rect class="e" width="46.343" height="1.355" transform="translate(10.538 45.448)"/><rect class="d" width="17.754" height="1.355" transform="translate(10.538 55.829)"/><rect class="c" width="17.754" height="1.355" transform="translate(10.538 61.247)"/><rect class="c" width="46.343" height="1.355" transform="translate(10.538 58.537)"/><rect class="d" width="17.754" height="1.355" transform="translate(10.538 68.92)"/><rect class="c" width="17.754" height="1.355" transform="translate(10.538 74.336)"/><rect class="c" width="37.99" height="1.355" transform="translate(10.538 71.628)"/><path class="f" d="M82.342,72.605H50V44.368L51.12,43H82.342Z" transform="translate(-43.78 -37.651)"/><path class="g" d="M4.91,15.068H15.992V3.5Z" transform="translate(-4.299 -3.065)"/><path class="h" d="M6.91,16.571H17.494V5.5Z" transform="translate(-6.05 -4.816)"/><g class="i" transform="translate(65.646 74.152)"><circle class="j" cx="12.455" cy="12.455" r="12.455"/></g><circle class="k" cx="11.658" cy="11.658" r="11.658" transform="translate(66.444 74.95)"/><g class="i" transform="translate(71.811 80.317)"><path class="j" d="M589.881,650.565h-4.886V645.68h-2.809v4.885H577.3v2.81h4.886v4.886h2.809v-4.886h4.886Z" transform="translate(-577.3 -645.68)"/></g><rect class="l" width="2.388" height="10.694" transform="translate(76.908 81.26)"/><rect class="l" width="2.388" height="10.694" transform="translate(83.449 85.414) rotate(90)"/><path class="a" d="M392.5,176.794c0-6.439,6.358-12.374,12.8-12.374a11.985,11.985,0,0,1,2.861-.02c.012-.281.02-1.933.02-2.217V96.81H352.444L341,108.565v76.065h52.618C392.486,182.834,392.5,179.075,392.5,176.794Z" transform="translate(-327.939 -91.212)"/><path class="l" d="M398.928,410.24a14.554,14.554,0,0,1,14.554-14.554c.439,0,.871.021,1.3.058V362H349.48v53.34h50.367A14.522,14.522,0,0,1,398.928,410.24Z" transform="translate(-335.364 -323.415)"/><path class="l" d="M177.362,83.3H111.91V61.571L122.494,50.5h54.868Z" transform="translate(-97.989 -44.218)"/><rect class="c" width="17.754" height="1.355" transform="translate(57.542 12.886)"/><rect class="c" width="17.754" height="1.355" transform="translate(57.542 17.861)"/><rect class="c" width="17.754" height="1.355" transform="translate(57.542 22.837)"/><rect class="d" width="17.754" height="1.355" transform="translate(57.542 27.813)"/><rect class="c" width="17.754" height="1.355" transform="translate(57.542 32.788)"/><rect class="c" width="17.754" height="1.355" transform="translate(57.542 37.764)"/><rect class="d" width="17.754" height="1.355" transform="translate(23.6 48.337)"/><rect class="c" width="17.754" height="1.355" transform="translate(23.6 53.753)"/><rect class="e" width="46.343" height="1.355" transform="translate(23.6 51.045)"/><rect class="d" width="17.754" height="1.355" transform="translate(23.6 61.427)"/><rect class="c" width="17.754" height="1.355" transform="translate(23.6 66.844)"/><rect class="c" width="46.343" height="1.355" transform="translate(23.6 64.135)"/><rect class="d" width="17.754" height="1.355" transform="translate(23.6 74.518)"/><rect class="c" width="17.754" height="1.355" transform="translate(23.6 79.934)"/><rect class="c" width="37.99" height="1.355" transform="translate(23.6 77.226)"/><path class="f" d="M187.342,117.605H155V89.368L156.12,88h31.222Z" transform="translate(-135.719 -77.054)"/><path class="g" d="M109.91,60.068h11.082V48.5Z" transform="translate(-96.238 -42.467)"/><path class="b" d="M111.91,61.571h10.584V50.5Z" transform="translate(-97.989 -44.218)"/></svg>