<svg xmlns="http://www.w3.org/2000/svg" width="98.742" height="84.876" viewBox="0 0 98.742 84.876"><defs><style>.a{fill:#ff6584;}.b{fill:#e6e6e6;}.c{fill:#f2f2f2;}.d{fill:#6c63ff;}.e{fill:#3f3d56;}.f{fill:#2f2e41;}.g{fill:#ffb9b9;}.h{fill:#d0cde1;}.i{opacity:0.1;}.j{fill:#575a89;}</style></defs><g transform="translate(0 0)"><circle class="a" cx="3.471" cy="3.471" r="3.471" transform="translate(0.026 2.254)"/><path class="b" d="M51.313,40.674V39.306H46.054v1.367H45V21.425H33.747V53.717H54.258V40.674Z" transform="translate(-30.197 -19.171)"/><path class="c" d="M632.272,217.542l-.02.019v0a20.878,20.878,0,0,0-4.378,6.147c-.382-.424-.651-.683-.651-.683l-.013.012v0c-.217.211-3.166,3.121-3.166,5.427,0,2.226,1.231,3.105,2.815,3.217l-.115,2.2h.321l.036-2.185h.122a2.949,2.949,0,0,0,2.745-1.33,5.672,5.672,0,0,0,1.75.386l-.175,3.351h.49l.054-3.334.186,0c2.678,0,4.85-1.275,4.85-4.928S632.272,217.542,632.272,217.542Z" transform="translate(-572.144 -199.555)"/><path class="c" d="M385.377,149.509v-1.922h-5.89v1.922h-2.735v-7.6h-2.63v-2.945h-5.89v2.945H365.5v11.934a16.252,16.252,0,0,0-1.274-1.415l-.013.012v0c-.217.211-3.166,3.121-3.166,5.427,0,2.226,1.231,3.105,2.815,3.217l-.115,2.2h.321l.035-2.185.122,0a4.221,4.221,0,0,0,1.274-.18v2.871h22.51V149.509Z" transform="translate(-336.808 -129.24)"/><path class="c" d="M813.076,131.257l-.02.019v0c-.275.268-3.439,3.39-4.492,6.458v-1.521l-10.1-15.252-10.1,15.252v11.465h20.2v-5.928a4.145,4.145,0,0,0,3.957,2.714l-.175,3.351h.49l.054-3.334.186,0c2.679,0,4.85-1.275,4.85-4.928S813.076,131.257,813.076,131.257Z" transform="translate(-719.184 -113.134)"/><ellipse class="c" cx="13.306" cy="1.227" rx="13.306" ry="1.227" transform="translate(2.761 36.228)"/><ellipse class="c" cx="5.934" cy="0.547" rx="5.934" ry="0.547" transform="translate(83.92 52.445)"/><ellipse class="c" cx="5.934" cy="0.547" rx="5.934" ry="0.547" transform="translate(20.388 42.873)"/><path class="d" d="M974.222,499.788a1.843,1.843,0,0,1-2.036,2.069h-.078c-.052,0-.1,0-.155-.007a1.811,1.811,0,0,1-1.8-2.061c0-1.476,1.886-3.339,2.028-3.477h0l.008-.008S974.222,498.254,974.222,499.788Z" transform="translate(-881.844 -448.995)"/><path class="e" d="M981.844,501.623l.745-1.041-.747,1.155,0,.12q-.078,0-.155-.007l.08-1.534V500.3l.007-.145L981.025,499l.751,1.049,0,.031.061-1.159-.641-1.2.649.993.063-2.4v0l-.011,1.9.638-.751-.641.915-.017,1.038.6-1-.6,1.149-.009.577.865-1.387-.868,1.588Z" transform="translate(-891.576 -448.995)"/><ellipse class="c" cx="11.071" cy="1.02" rx="11.071" ry="1.02" transform="translate(0 70.918)"/><path class="d" d="M216.007,636.172c0,2.861-1.7,3.86-3.8,3.86l-.146,0c-.1,0-.194-.007-.289-.013-1.894-.134-3.365-1.184-3.365-3.845,0-2.754,3.519-6.229,3.783-6.486h0l.015-.015S216.007,633.31,216.007,636.172Z" transform="translate(-200.227 -568.334)"/><path class="e" d="M230.221,639.594l1.39-1.942-1.393,2.155,0,.223c-.1,0-.194-.007-.289-.013l.15-2.863v-.022l0,0,.014-.27-1.4-2.16,1.4,1.957,0,.057.113-2.163-1.2-2.232,1.21,1.852.118-4.484v0l-.02,3.536,1.19-1.4-1.2,1.706-.031,1.936L231.4,633.6l-1.116,2.143-.018,1.077,1.613-2.587L230.26,637.2Z" transform="translate(-218.379 -568.334)"/><path class="d" d="M290.414,156.112c0,6.04-3.591,8.149-8.02,8.149s-8.02-2.109-8.02-8.149,8.02-13.724,8.02-13.724S290.414,150.072,290.414,156.112Z" transform="translate(-259.253 -132.306)"/><path class="e" d="M189.8,116.8l.082-5.055,3.419-6.254-3.406,5.461.037-2.273,2.356-4.525-2.346,3.923h0l.066-4.088,2.523-3.6-2.512,2.959.042-7.5-.261,9.924.021-.409-2.565-3.926,2.524,4.712-.239,4.566-.007-.121-2.957-4.132,2.948,4.56-.03.571-.005.009,0,.047-.606,11.583h.81l.1-5.983,2.941-4.549Z" transform="translate(-166.948 -85.767)"/><path class="d" d="M156.7,156.112c0,6.04-3.591,8.149-8.02,8.149s-8.02-2.109-8.02-8.149,8.02-13.724,8.02-13.724S156.7,150.072,156.7,156.112Z" transform="translate(-139.601 -132.306)"/><path class="e" d="M56.08,116.8l.082-5.055,3.418-6.254-3.406,5.461.037-2.273,2.356-4.525-2.346,3.923h0l.066-4.088,2.523-3.6L56.3,103.345l.041-7.5-.261,9.924.021-.409-2.565-3.926,2.524,4.712-.239,4.566-.007-.121-2.957-4.132,2.948,4.56-.03.571-.005.009,0,.047-.606,11.583h.81l.1-5.983,2.941-4.549Z" transform="translate(-47.296 -85.767)"/><path class="c" d="M211.348,65.1c0,8.168-4.856,11.02-10.845,11.02s-10.845-2.852-10.845-11.02S200.5,46.538,200.5,46.538,211.348,56.929,211.348,65.1Z" transform="translate(-183.448 -46.538)"/><path class="e" d="M121.3,28.329l.111-6.836,4.623-8.457-4.605,7.385.05-3.074,3.186-6.118-3.173,5.305h0l.09-5.528,3.411-4.871-3.4,4L121.652,0,121.3,13.419l.029-.554-3.468-5.309,3.413,6.372-.323,6.174-.01-.164-4-5.587,3.987,6.166-.04.772-.007.012,0,.063-.82,15.664h1.1l.131-8.091,3.977-6.151Z" transform="translate(-104.641 0)"/><path class="e" d="M370.605,436.328a1.361,1.361,0,0,1-.078.458,1.378,1.378,0,0,1-.37.556,1.364,1.364,0,0,1-.622.321,1.34,1.34,0,0,1-.3.033,1.365,1.365,0,0,1-1.185-.685,1.368,1.368,0,1,1,2.553-.682Z" transform="translate(-342.916 -394.104)"/><path class="c" d="M237.986,392.748l.122-.016.233.306-.149.355-.382.048-.115-.152Z" transform="translate(-212.694 -351.423)"/><path class="c" d="M242.5,401.075l-.382.049-.233-.306.149-.355.382-.048.233.306Z" transform="translate(-216.446 -358.297)"/><path class="c" d="M370.177,454.349l-.094.225a1.378,1.378,0,0,1-.478-.489l.339-.043Z" transform="translate(-344.468 -411.179)"/><path class="c" d="M246.641,391.029l-.382.049-.233-.306.149-.355.382-.049.233.306Z" transform="translate(-220.148 -349.307)"/><path class="c" d="M251.959,398.711l-.382.049-.233-.306.149-.355.382-.049.233.306Z" transform="translate(-224.906 -356.181)"/><path class="c" d="M378.008,456.122l-.085.2a1.337,1.337,0,0,1-.3.033,1.354,1.354,0,0,1-.3-.034l-.079-.1.149-.355.382-.048Z" transform="translate(-351.304 -412.766)"/><path class="c" d="M387.3,437.487l-.37.047-.233-.306.115-.274A1.368,1.368,0,0,1,387.3,437.487Z" transform="translate(-359.764 -395.888)"/><path class="c" d="M388.962,452.317a1.379,1.379,0,0,1-.37.556l-.119-.157.149-.355Z" transform="translate(-361.351 -409.635)"/><ellipse class="c" cx="25.56" cy="1.499" rx="25.56" ry="1.499" transform="translate(31.95 81.879)"/><path class="b" d="M470.954,752.439l-5.393,4.838a8.458,8.458,0,0,1-4.838-5.393l5.392-4.838C466.15,750.225,467.8,751.993,470.954,752.439Z" transform="translate(-426.002 -673.363)"/><rect class="e" width="4.79" height="0.105" transform="translate(35.876 78.973) rotate(-40.499)"/><rect class="e" width="4.727" height="0.105" transform="translate(36.373 79.68) rotate(-42.059)"/><path class="c" d="M511.432,570.011l-7.2.762a8.458,8.458,0,0,1-.762-7.2l7.2-.762C508.835,565.4,509.133,567.8,511.432,570.011Z" transform="translate(-463.825 -508.503)"/><rect class="e" width="4.79" height="0.105" transform="translate(40.311 56.108) rotate(-4.641)"/><rect class="e" width="4.727" height="0.105" transform="translate(40.3 56.973) rotate(-6.201)"/><path class="b" d="M479.612,399.111,474.8,393.7a8.457,8.457,0,0,1,5.412-4.816l4.816,5.412C481.845,394.316,480.07,395.955,479.612,399.111Z" transform="translate(-438.595 -352.873)"/><rect class="e" width="0.105" height="4.79" transform="matrix(0.763, -0.646, 0.646, 0.763, 41.077, 37.23)"/><rect class="e" width="0.105" height="4.727" transform="matrix(0.745, -0.667, 0.667, 0.745, 40.37, 37.727)"/><rect class="e" width="5.68" height="13.99" transform="translate(41.508 23.439) rotate(-30)"/><rect class="d" width="4.563" height="0.105" transform="matrix(0.858, -0.514, 0.514, 0.858, 43.381, 25.877)"/><rect class="d" width="4.563" height="0.105" transform="matrix(0.858, -0.514, 0.514, 0.858, 44.004, 26.746)"/><rect class="d" width="4.563" height="0.105" transform="matrix(0.858, -0.514, 0.514, 0.858, 44.424, 27.482)"/><rect class="d" width="4.563" height="0.105" transform="matrix(0.858, -0.514, 0.514, 0.858, 45.055, 28.429)"/><rect class="d" width="4.563" height="0.105" transform="matrix(0.858, -0.514, 0.514, 0.858, 46.002, 29.797)"/><path class="f" d="M689.759,264.111s2.708-1.3,4.634-.817l-4.634-12.5v-1.283l6.56,15.607h0c1.64,3.091,3.714,10.137.178,10.7a97.648,97.648,0,0,0-11.23,3.048l-1.6-13.957Z" transform="translate(-625.492 -228.162)"/><path class="g" d="M543.824,315.124s-4.332-5.454-5.454-3.529,5.043,5.163,5.043,5.163Z" transform="translate(-495.359 -283.346)"/><path class="h" d="M580.55,341.985l-1.765-.963a27.4,27.4,0,0,0-1.123,3.369c0,.481,1.765.642,1.765.642Z" transform="translate(-530.641 -310.048)"/><circle class="g" cx="4.171" cy="4.171" r="4.171" transform="translate(52.476 11.403)"/><path class="g" d="M657.813,190.03s1.765,5.294,3.048,5.615-4.973,2.727-4.973,2.727A37.738,37.738,0,0,0,653,192.757C652.038,191.634,657.813,190.03,657.813,190.03Z" transform="translate(-597.958 -174.937)"/><path class="i" d="M707.165,395.107c3.458-.553,1.549-7.307-.07-10.5a2.125,2.125,0,0,1,.391.388c1.6,2.086,4.813,11.069.8,11.711a97.649,97.649,0,0,0-11.23,3.048l-.218-1.9A87.642,87.642,0,0,1,707.165,395.107Z" transform="translate(-637.283 -349.051)"/><path class="f" d="M787.57,746.723s4.011,3.209,3.69,3.529-3.69,5.455-6.577,5.936-4.171.481-4.171,0a3.183,3.183,0,0,1,2.246-2.086c1.444-.481,1.6-3.69,1.444-4.331S787.57,746.723,787.57,746.723Z" transform="translate(-712.154 -673.074)"/><path class="f" d="M673.181,519.47l2.567,12.032s10.588,11.872,10.267,12.032-3.529,3.369-4.171,3.369-11.711-12.513-11.711-12.513l-4.011-10.428Z" transform="translate(-609.796 -469.725)"/><path class="i" d="M673.181,519.47l2.567,12.032s10.588,11.872,10.267,12.032-3.529,3.369-4.171,3.369-11.711-12.513-11.711-12.513l-4.011-10.428Z" transform="translate(-609.796 -469.725)"/><path class="f" d="M592.4,478.013a22.461,22.461,0,0,1-4.813,9.144c-3.529,3.69-5.134,11.23-5.134,11.23l-3.529,15.08s-6.257-.8-5.936-2.406l3.369-13.315s3.85-18.449,5.936-19.732S592.4,478.013,592.4,478.013Z" transform="translate(-526.445 -432.118)"/><path class="f" d="M521.273,795.448s.963,3.048.321,3.369-12.032.963-12.674-1.283c0,0-.321-1.123,2.246-1.123S516.46,794,516.46,794Z" transform="translate(-469.118 -715.382)"/><path class="j" d="M644.17,230.335s4.171-4.171,5.294-3.85,1.123,1.925,1.123,1.925,3.529.481,3.209,12.032,2.888,12.834,1.765,13.476-13.957,3.529-14.438.642-.321-13.957.963-17.486S644.972,231.3,644.17,230.335Z" transform="translate(-587.202 -207.541)"/><path class="j" d="M597.254,272.158s4.813,2.246,2.086,6.577-4.813,8.984-7.7,8.823-7.38-2.888-8.663-2.888.481-4.652,1.444-4.813,5.454,2.567,5.454,2.567S591.478,271.517,597.254,272.158Z" transform="translate(-534.991 -248.402)"/><path class="f" d="M624.5,133.887a5.6,5.6,0,0,0-1.057.146,2.674,2.674,0,0,1-2.859-1.994,1.53,1.53,0,0,0-.146-.476.944.944,0,0,0-1-.305,7.741,7.741,0,0,1-1.083.264,1.659,1.659,0,0,1-1.432-.81,2.748,2.748,0,0,1-.351-1.66l.275.289a1.4,1.4,0,0,0,.125-.76.882.882,0,0,1,.835.214c.243.026.06-.45.24-.615a.417.417,0,0,1,.294-.055,2.339,2.339,0,0,0,1.341-.708,5.7,5.7,0,0,1,2.407-1.1,3.167,3.167,0,0,1,1.757.085,3.752,3.752,0,0,1,1.186.841,7.242,7.242,0,0,1,1.993,2.957,4.978,4.978,0,0,1,.024,2.887c-.145.49-.583,2.168-1.223,2.207C625.016,135.344,625.5,133.947,624.5,133.887Z" transform="translate(-565.444 -117.852)"/></g></svg>