<svg xmlns="http://www.w3.org/2000/svg" width="100" height="70" viewBox="0 0 100 70"><defs><style>.a{fill:#e6e6e6;}.b{fill:#00bfa6;}.c{fill:#fff;}.d{fill:#3f3d56;}.e{fill:#a0616a;}.f{fill:#2f2e41;}.g{opacity:0.2;}</style></defs><g transform="translate(0 0.009)"><path class="a" d="M454.294,312.453a8.145,8.145,0,0,0-15.981-1.717c-.1,0-.2-.008-.3-.008a8.147,8.147,0,0,0-7.815,5.849,5.756,5.756,0,0,0-6.831,1.7h25.407a5.509,5.509,0,0,0,5.521-5.7Q454.3,312.513,454.294,312.453Z" transform="translate(-392.728 -289.829)"/><path class="a" d="M156.01,219.27a8.145,8.145,0,0,1,15.981-1.717c.1,0,.2-.008.3-.008a8.147,8.147,0,0,1,7.815,5.849,5.756,5.756,0,0,1,6.831,1.7H161.526a5.509,5.509,0,0,1-5.521-5.7Q156.007,219.33,156.01,219.27Z" transform="translate(-156 -211.593)"/><path class="b" d="M89.453,145.025H69.44L59.433,162.357,69.44,179.689H89.453l10.007-17.332Z" transform="translate(-52.991 -110.999)"/><path class="c" d="M254.672,412.246h16.663l8.331-14.43-8.331-14.43H254.672l-8.331,14.43Z" transform="translate(-236.549 -346.458)"/><rect class="d" width="100" height="0.243" transform="translate(0 68.568)"/><path class="e" d="M672.645,58.277l.87,2.464-1.45,2.9-2.464-4.2Z" transform="translate(-594.076 -51.967)"/><path class="f" d="M835.368,485.043c-.477.668-4.154,4.535-6.614,7.1l-1.671,1.741-.557.577-1.112-2.325-.483-1.009.007-.009.3-.387,2.889-3.7,3.034-3.88-2.464-4.928,3.044-.435,2.023.119.441.026S836.093,484.029,835.368,485.043Z" transform="translate(-748.679 -430.634)"/><path class="f" d="M813.7,606.539c-.188.188-.516-.052-.871-.464a17.48,17.48,0,0,1-1.593-2.435l-1.015-2.174c.109-.649,1.1-.732,1.6-.733.169,0,.283.009.283.009l.084.125,1.777,2.632S814.282,605.96,813.7,606.539Z" transform="translate(-736.436 -540.245)"/><path class="g" d="M829.635,569.914s.313,2.461-.267,3.041c-.188.188-.516-.052-.871-.464l-.531-4.325-.109-.884-.064-.52,2.889-3.7.623,5.108Z" transform="translate(-752.034 -506.661)"/><path class="g" d="M704.088,267.418l-.39-.78,3.044-.435,2.023.119.006.026Z" transform="translate(-624.288 -226.884)"/><path class="f" d="M663.261,206.322h-1.015l.29,9.566,2.029,16.524H667.9l-1.449-11.886.725-6.667,5.073-1.16-1.45-6.667Z" transform="translate(-587.346 -165.393)"/><path class="f" d="M840.789,656.974a10.27,10.27,0,0,0-.145,2.174.753.753,0,0,1,.29.58,2.437,2.437,0,0,0,2.609.435,1.024,1.024,0,0,0,.29-1.449l-.87-1.739Z" transform="translate(-763.403 -590.39)"/><circle class="e" cx="2.464" cy="2.464" r="2.464" transform="translate(74.275 3.193)"/><path class="a" d="M669.3,74.08l-1.9-.761-1.148,14.241,7.972.58L671.476,73.5l-1.232-1.157Z" transform="translate(-590.976 -60.507)"/><path class="f" d="M795.734,288.78l-1.476,1.192-2.754,1.449,1.015,9.132.145,5.218s-1.884,4.638-.435,5.8,3.044.725,2.754-1.739-.87-4.2,1.884-6.812S797.209,288.168,795.734,288.78Z" transform="translate(-719.741 -274.98)"/><path class="f" d="M857.325,281.109l1.817,1.173,2.464,1.3,1.884,20.872-4.2,1.3S856.958,281.675,857.325,281.109Z" transform="translate(-777.526 -273.581)"/><path class="e" d="M891.576,440.356s-2.174,3.334-.58,3.334,2.029-2.754,2.029-2.754Z" transform="translate(-807.061 -406.174)"/><path class="e" d="M806.324,440.356s2.174,3.334.58,3.334-2.029-2.754-2.029-2.754Z" transform="translate(-731.728 -406.174)"/><path class="f" d="M809.691,226.847l-.725-.435.145.29-.58-.145.145.145-.725-.145.29.29a1.316,1.316,0,0,0-1.3,1.16l-.725.145.29.435v.435l.29.29v.435l.29.725.29-1.015a1.729,1.729,0,0,0,1.884-.87s.145.435.87.29l1.16,2.029s.145-.9.652-1.03.217-1.29.217-1.29-.435-.435-.435-.725-.435-.58-.725-.58-1.015-.58-1.015-.58Z" transform="translate(-732.808 -224.814)"/><path class="f" d="M773.491,311.373l-.675-.4-.485.255a1.666,1.666,0,0,0-.725,1.3c-.145,1.015-1.594,7.247-1.594,7.247a5.8,5.8,0,0,0,.58,2.754,25.337,25.337,0,0,0,3.479,4.783l2.609-2.174-3.913-4.783,1.015-3.914Z" transform="translate(-700.664 -294.625)"/><path class="f" d="M730.441,92.374h1.16l1.884,7.1.58,8.842-2.754-1.015v-6.378Z" transform="translate(-647.521 -77.238)"/><rect class="d" width="0.217" height="8.949" transform="translate(20.801 26.564)"/><circle class="b" cx="0.617" cy="0.617" r="0.617" transform="translate(20.281 37.402)"/><rect class="d" width="0.217" height="8.949" transform="translate(25.61 26.564)"/><circle class="d" cx="0.617" cy="0.617" r="0.617" transform="translate(25.092 37.402)"/><rect class="d" width="0.217" height="8.949" transform="translate(34.053 26.564)"/><circle class="d" cx="0.617" cy="0.617" r="0.617" transform="translate(33.538 37.402)"/><circle class="d" cx="0.617" cy="0.617" r="0.617" transform="translate(30.01 49.459)"/><circle class="d" cx="0.617" cy="0.617" r="0.617" transform="translate(16.324 41.748)"/><path class="d" d="M233.242,245.276h-.217V234.493H228.4v-.217h4.84Z" transform="translate(-202.63 -197.458)"/><circle class="b" cx="0.617" cy="0.617" r="0.617" transform="translate(21.777 54.786)"/><path class="d" d="M160.176,281.334h-.217V270.551h-4.623v-.217h4.84Z" transform="translate(-137.809 -227.848)"/><circle class="b" cx="0.617" cy="0.617" r="0.617" transform="translate(36.638 48.197)"/><path class="d" d="M305.611,236.736h-.217V225.953h-2.977v-.217h3.194Z" transform="translate(-268.318 -190.26)"/><path class="d" d="M155.5,238.517h-.217v-5.362h3.3v.217H155.5Z" transform="translate(-137.775 -197.898)"/><circle class="d" cx="0.617" cy="0.617" r="0.617" transform="translate(25.145 60.924)"/><path class="d" d="M202.757,349.065h-.217V343.92h-3.08V343.7h3.3Z" transform="translate(-176.969 -291.725)"/><circle class="d" cx="0.617" cy="0.617" r="0.617" transform="translate(33.324 51.842)"/><path class="d" d="M300.685,306.839h-.217v-5.362h3.3v.217h-3.08Z" transform="translate(-266.587 -255.886)"/></g></svg>