<svg xmlns="http://www.w3.org/2000/svg" width="100" height="80" viewBox="0 0 100 80"><defs><style>.a{fill:#e6e6e6;}.b{fill:#fff;}.c{fill:#3f3d56;}.d{fill:#6c63ff;}.e{fill:#2f2e41;}.f{fill:#ffb9b9;}</style></defs><g transform="translate(0 0.371)"><path class="a" d="M260.4,212.823a.735.735,0,0,0-.792.656l-.195,70.363a.733.733,0,0,0,.788.659l68.113.13a.735.735,0,0,0,.792-.656l.194-70.363a.733.733,0,0,0-.788-.659Z" transform="translate(-253.941 -205.21)"/><path class="b" d="M275.685,228.124a.732.732,0,0,0-.792.648l-.183,65.322a.73.73,0,0,0,.788.651l63.056.119a.732.732,0,0,0,.792-.648l.183-65.322a.73.73,0,0,0-.788-.651Z" transform="translate(-266.707 -217.977)"/><path class="a" d="M370.713,424.04l-46.463-.107a1.185,1.185,0,1,1,.005-2.371l46.463.107a1.185,1.185,0,0,1-.005,2.371Z" transform="translate(-307.055 -386.071)"/><path class="a" d="M454.209,290.892l-30.825-.071c-.434,0-.785-.532-.784-1.187s.355-1.184.789-1.183l30.825.071c.434,0,.785.532.784,1.187S454.644,290.893,454.209,290.892Z" transform="translate(-398.556 -271.537)"/><path class="a" d="M454.114,331.918l-30.825-.071c-.434,0-.785-.532-.784-1.187s.355-1.184.789-1.183l30.825.071c.434,0,.785.532.784,1.187S454.549,331.919,454.114,331.918Z" transform="translate(-398.472 -306.837)"/><path class="a" d="M370.607,470.313l-46.463-.107a1.185,1.185,0,1,1,.005-2.371l46.463.107a1.185,1.185,0,1,1-.005,2.371Z" transform="translate(-306.966 -425.886)"/><path class="a" d="M370.5,516.586l-46.463-.107a1.185,1.185,0,1,1,.005-2.371l46.462.107a1.185,1.185,0,0,1-.005,2.371Z" transform="translate(-306.877 -465.7)"/><path class="a" d="M370.394,562.859l-46.463-.107a1.185,1.185,0,1,1,.005-2.371l46.463.107a1.185,1.185,0,1,1-.005,2.37Z" transform="translate(-306.789 -505.515)"/><path class="a" d="M370.287,609.133l-46.463-.107a1.185,1.185,0,1,1,.005-2.371l46.462.107a1.185,1.185,0,1,1-.005,2.371Z" transform="translate(-306.699 -545.33)"/><path class="a" d="M370.181,655.407l-46.463-.107a1.185,1.185,0,0,1,.005-2.371l46.463.107a1.185,1.185,0,1,1-.005,2.371Z" transform="translate(-306.611 -586.895)"/><circle class="c" cx="6.242" cy="6.242" r="6.242" transform="translate(16.056 15.196)"/><path class="a" d="M418.807,436.077" transform="translate(-393.056 -398.375)"/><path class="d" d="M492.917,187.935V173.166a8.356,8.356,0,1,0-16.708-.367h1.839a6.525,6.525,0,0,1,6.511-6.273h.1a6.529,6.529,0,0,1,6.424,6.626v14.791c0,.038,0,.075,0,.109a4.377,4.377,0,0,1-4.371,4.319h-.054a4.379,4.379,0,0,1-4.319-4.435l.01-14.67a2.2,2.2,0,1,1,4.4-.014v11.2a.919.919,0,1,0,1.838,0V173.237a4.04,4.04,0,1,0-8.08.014l-.01,14.673a6.217,6.217,0,0,0,6.134,6.285h.076a6.219,6.219,0,0,0,6.209-6.138C492.917,188.023,492.917,187.975,492.917,187.935Z" transform="translate(-444.016 -164.997)"/><rect class="c" width="92.279" height="0.331" transform="translate(0 79.28)"/><path class="e" d="M800.122,223.294h12.859V216.9a6.56,6.56,0,0,0-1.883-4.617,6.338,6.338,0,0,0-4.547-1.913,6.439,6.439,0,0,0-6.427,6.36c0,.059,0,.114,0,.171Z" transform="translate(-728.858 -203.163)"/><path class="f" d="M775.97,472.282h0a1.922,1.922,0,0,0,2.135-2.218l-.489-2.986h-2.41l-.837,2.733a1.922,1.922,0,0,0,1.6,2.47Z" transform="translate(-701.52 -425.477)"/><path class="e" d="M816.693,457.317l-2.862.351-14.76-30.925-8.333,30.925-3.012-.9,2.811-49.6,13.253-.7C808.819,412.415,812.769,438.06,816.693,457.317Z" transform="translate(-718.515 -381.253)"/><path class="e" d="M760.485,712.5h-6a1.077,1.077,0,0,1-1.076-1.032h0a1.077,1.077,0,0,1,.561-.991l3.453-1.878,2.128-.567c.937,1.073,1.832,1.079,2.695.213l.283,1.886a2.063,2.063,0,0,1-2.04,2.369Z" transform="translate(-684.212 -632.868)"/><path class="e" d="M916.269,712.5h-6a1.077,1.077,0,0,1-1.076-1.032h0a1.077,1.077,0,0,1,.561-.991L913.2,708.6l2.128-.567c.937,1.073,1.833,1.079,2.7.213l.283,1.886a2.063,2.063,0,0,1-2.04,2.369Z" transform="translate(-819.859 -632.868)"/><path class="d" d="M775,335.273l3.715-.2,2.309-26.808-1.748.262a2.958,2.958,0,0,0-2.5,2.622Z" transform="translate(-702.469 -289.948)"/><circle class="f" cx="4.92" cy="4.92" r="4.92" transform="translate(71.821 8.762)"/><path class="f" d="M818.376,269.533c-3.723,10.87-7,11.629-10.041,7.229a12.362,12.362,0,0,1,3.313-7.932c1.136-.779.466-2.259-.4-3.815l4.719-1.606A12.792,12.792,0,0,0,818.376,269.533Z" transform="translate(-735.711 -250.43)"/><path class="d" d="M812.95,308.8c-5.39,3.721-10.239,4.409-13.454.9a41.415,41.415,0,0,1-.811-14.355A5.151,5.151,0,0,1,801,291.612l2.365-1.54,1.155,3.665,4.468-4.87,3.376.407a2.492,2.492,0,0,1,2.178,2.746Z" transform="translate(-727.423 -272.834)"/><path class="e" d="M807.071,213.638l-1.222,3.888-10.565-.188a6.531,6.531,0,0,1,11.787-3.7Z" transform="translate(-724.822 -203.673)"/><path class="a" d="M877.969,473.268a.18.18,0,0,0-.18.179l-.044,19.209a.18.18,0,0,0,.179.18l15.475.036a.18.18,0,0,0,.18-.179l.044-19.209a.18.18,0,0,0-.179-.18Z" transform="translate(-793.623 -432.4)"/><path class="b" d="M881.442,476.744a.18.18,0,0,0-.18.179l-.042,18.06a.18.18,0,0,0,.179.18l14.326.033a.18.18,0,0,0,.18-.179l.042-18.06a.18.18,0,0,0-.179-.18Z" transform="translate(-796.523 -435.261)"/><path class="a" d="M903.033,521.255l-10.556-.024a.269.269,0,0,1,0-.539l10.556.024a.269.269,0,0,1,0,.539Z" transform="translate(-805.691 -471.176)"/><path class="a" d="M922,491l-7-.016c-.1,0-.178-.121-.178-.27s.081-.269.179-.269l7,.016c.1,0,.178.121.178.27S922.1,491.005,922,491Z" transform="translate(-824.558 -445.17)"/><path class="a" d="M921.982,500.326l-7-.016c-.1,0-.178-.121-.178-.27s.081-.269.179-.269l7,.016c.1,0,.178.121.178.27S922.08,500.326,921.982,500.326Z" transform="translate(-824.541 -453.185)"/><path class="a" d="M903.009,531.769l-10.556-.024a.269.269,0,0,1,0-.539l10.556.024a.269.269,0,1,1,0,.539Z" transform="translate(-805.671 -480.217)"/><path class="a" d="M902.985,542.282l-10.556-.024a.269.269,0,1,1,0-.539l10.556.024a.269.269,0,1,1,0,.539Z" transform="translate(-805.65 -489.257)"/><path class="a" d="M902.961,552.795,892.4,552.77a.269.269,0,0,1,0-.539l10.556.024a.269.269,0,0,1,0,.539Z" transform="translate(-805.63 -498.297)"/><path class="a" d="M902.936,563.308l-10.556-.024a.269.269,0,0,1,0-.539l10.556.024a.269.269,0,1,1,0,.539Z" transform="translate(-805.61 -507.337)"/><path class="a" d="M902.912,573.821l-10.556-.024a.269.269,0,0,1,0-.539l10.556.024a.269.269,0,1,1,0,.539Z" transform="translate(-805.59 -516.377)"/><circle class="c" cx="1.418" cy="1.418" r="1.418" transform="translate(86.527 44.765)"/><path class="a" d="M913.959,523.99" transform="translate(-823.839 -473.957)"/><path class="f" d="M899.531,455.31h0a1.922,1.922,0,0,1-2.135-2.218l.489-2.986h2.41l.837,2.733a1.922,1.922,0,0,1-1.6,2.47Z" transform="translate(-809.998 -410.86)"/><path class="d" d="M889.524,318.3l-3.715-.2L883.5,291.292l1.748.262a2.958,2.958,0,0,1,2.5,2.622Z" transform="translate(-798.425 -275.184)"/></g></svg>