<svg xmlns="http://www.w3.org/2000/svg" width="100" height="70" viewBox="0 0 100 70"><defs><style>.a{fill:#e6e6e6;}.b{fill:#fff;}.c{fill:#3f3d56;}.d{fill:#00bfa6;}.e{fill:#2f2e41;}.f{fill:#ffb6b6;}.g{opacity:0.2;}</style></defs><g transform="translate(0)"><path class="a" d="M845.962,131.826v-5.076a11.677,11.677,0,0,1-7.539-5.612h0a2.218,2.218,0,0,1-1.326.436h-4.03A16.647,16.647,0,0,0,845.962,131.826Z" transform="translate(-745.962 -118.868)"/><path class="a" d="M900.2,104.372V99.5a2.715,2.715,0,0,0-2.716-2.716h-3.913v.471a2.23,2.23,0,0,1-.69,1.616A11.4,11.4,0,0,0,900.2,104.372Z" transform="translate(-800.196 -96.78)"/><path class="a" d="M661.109,99.658h-2.52a2.31,2.31,0,0,1-2.236-2.377v-.5h-3.671a2.8,2.8,0,0,0-2.716,2.887V163.9a2.976,2.976,0,0,0,.795,2.041,2.632,2.632,0,0,0,1.921.843h24.534a2.493,2.493,0,0,0,.335-.022,2.833,2.833,0,0,0,2.381-2.863V116.613C671.008,115.514,663.573,108.748,661.109,99.658Z" transform="translate(-579.932 -96.78)"/><path class="a" d="M777.974,125.82h-5.327a22.048,22.048,0,0,0,18.528,15.669v-5.13A16.937,16.937,0,0,1,777.974,125.82Z" transform="translate(-691.175 -123.113)"/><path class="b" d="M671.7,338.591a.373.373,0,0,0-.373.373v6.244a.373.373,0,0,0,.373.373h25.173a.373.373,0,0,0,.373-.373v-6.244a.373.373,0,0,0-.373-.373Z" transform="translate(-599.303 -314.462)"/><circle class="c" cx="1.958" cy="1.958" r="1.958" transform="translate(63.17 25.69)"/><path class="a" d="M755.655,362.079a.326.326,0,0,0,0,.653h15.383a.326.326,0,1,0,0-.653Z" transform="translate(-675.471 -335.775)"/><path class="a" d="M755.655,383.079a.326.326,0,0,0,0,.653h15.383a.326.326,0,1,0,0-.653Z" transform="translate(-675.471 -354.693)"/><path class="b" d="M671.7,453.591a.373.373,0,0,0-.373.373v6.244a.373.373,0,0,0,.373.373h25.173a.373.373,0,0,0,.373-.373v-6.244a.373.373,0,0,0-.373-.373Z" transform="translate(-599.303 -417.987)"/><circle class="c" cx="1.958" cy="1.958" r="1.958" transform="translate(63.17 37.128)"/><path class="a" d="M755.655,477.079a.326.326,0,0,0,0,.653h15.383a.326.326,0,1,0,0-.653Z" transform="translate(-675.471 -439.374)"/><path class="a" d="M755.655,498.079a.326.326,0,0,0,0,.653h15.383a.326.326,0,1,0,0-.653Z" transform="translate(-675.471 -458.291)"/><path class="b" d="M671.7,568.591a.373.373,0,0,0-.373.373v6.244a.373.373,0,0,0,.373.373h25.173a.373.373,0,0,0,.373-.373v-6.244a.373.373,0,0,0-.373-.373Z" transform="translate(-599.303 -521.512)"/><circle class="c" cx="1.958" cy="1.958" r="1.958" transform="translate(63.17 48.565)"/><path class="a" d="M755.655,592.079a.326.326,0,0,0,0,.653h15.383a.326.326,0,1,0,0-.653Z" transform="translate(-675.471 -542.972)"/><path class="a" d="M755.655,613.079a.326.326,0,0,0,0,.653h15.383a.326.326,0,1,0,0-.653Z" transform="translate(-675.471 -561.89)"/><circle class="d" cx="4.662" cy="4.662" r="4.662" transform="translate(80.324 58.426)"/><path class="b" d="M557.3,607.816h-2.517V605.3h-.559v2.517h-2.517v.559h2.517v2.517h.559v-2.517H557.3Z" transform="translate(-475.419 -544.729)"/><path class="e" d="M300.434,744.647l.149,1.1s3.79,1.3,3.05,1.889-6.729.621-6.854.284-.152-1.8.185-1.924.962-1.379.962-1.379Z" transform="translate(-290.346 -680.078)"/><path class="e" d="M80.7,406.744l-2.377,14.769-1.1,8.742-3.565-.17,1.188-14.514,3.056-8.233Z" transform="translate(-66.787 -364.685)"/><path class="f" d="M392.77,503.524l.34,1.358s1.273,3.565.17,3.4-1.613-3.225-1.613-3.225l-.17-1.1Z" transform="translate(-369.344 -463.035)"/><path class="e" d="M286.8,460.914l2.631,11.628,3.225,13.665,3.056-1.1-2.207-11.034a11.77,11.77,0,0,0,0-3.565,48.2,48.2,0,0,1-.34-6.366l2.546-2.207v-4.242l-6.705-.6Z" transform="translate(-281.377 -419.364)"/><path class="e" d="M346.411,754.608l.164,1.094s3.808,1.244,3.075,1.847-6.72.713-6.849.377-.177-1.8.159-1.926.943-1.392.943-1.392Z" transform="translate(-326.809 -689.14)"/><circle class="f" cx="2.546" cy="2.546" r="2.546" transform="translate(19.513 16.706)"/><path class="f" d="M122.515,191.435l-2.886,1.528,1.1,3.565h1.188l.679-.849-.255-.509,2.037-1.528Z" transform="translate(-103.158 -172.372)"/><path class="d" d="M86.5,207.183l-.042-1.4-1.159-2.222-4.358,1.8,1.528,13.835,5.262.339-.17-5.857.849-6.366-.3-1.825Z" transform="translate(-73.391 -183.008)"/><path class="e" d="M289.915,312.771l-2.044-10.206s-4.661.954-5.086,1.633-1.019,14.429-1.019,14.429-.849,2.716,0,2.716,4.244-2.461,4.414-1.528.34,1.443,1.528,1.188,1.952-2.292,1.952-2.292-.255,4.074.255,4.074,1.273.255,1.273-.17v-9.082l2.037-7.384-2.016-1.851-.87.663Z" transform="translate(-276.47 -281.637)"/><path class="e" d="M384.26,341.643l.594-.17s.17,1.188.17,1.443-.509,5.262-.509,5.262l.424,8.573-1.952.849-.594-9.676Z" transform="translate(-361.439 -316.762)"/><path class="e" d="M367.909,257.288s-1.019-2.886,1.273-3.565,3.31.085,3.65.509c.356.445,2.037,2.631,1.019,3.14s-1.485-.127-1.485-.382-1.528,0-2.207.255a1.017,1.017,0,0,1-1.1-.212s-.171-.806-.681-.382S367.909,257.288,367.909,257.288Z" transform="translate(-348.366 -237.867)"/><path class="a" d="M392.111,524.52a.373.373,0,0,0-.5-.162l-5.56,2.841a.373.373,0,0,0-.162.5l11.454,22.416a.373.373,0,0,0,.5.162l5.56-2.841a.373.373,0,0,0,.162-.5Z" transform="translate(-362.433 -480.32)"/><circle class="d" cx="1.958" cy="1.958" r="1.958" transform="translate(25.499 45.447)"/><path class="b" d="M464.127,609.809a.326.326,0,1,0-.581.3l7,13.7a.326.326,0,0,0,.581-.3Z" transform="translate(-430.678 -557.68)"/><path class="b" d="M445.427,619.364a.326.326,0,0,0-.581.3l7,13.7a.326.326,0,0,0,.581-.3Z" transform="translate(-414.592 -566.344)"/><path class="g" d="M85.865,532.834l2.424,11.095.206-.956Z" transform="translate(-77.86 -479.02)"/><path class="a" d="M239.478,508.29a.373.373,0,0,0-.31-.427L233,506.885a.373.373,0,0,0-.427.31l-3.945,24.862a.373.373,0,0,0,.31.427l6.167.979a.373.373,0,0,0,.427-.31Z" transform="translate(-228.624 -464.509)"/><circle class="d" cx="1.958" cy="1.958" r="1.958" transform="translate(4.932 43.057)"/><path class="b" d="M279,597.12a.326.326,0,1,0-.645-.1l-2.411,15.193a.326.326,0,1,0,.645.1Z" transform="translate(-271.527 -545.992)"/><path class="b" d="M258.258,593.828a.326.326,0,1,0-.645-.1L255.2,608.919a.326.326,0,0,0,.645.1Z" transform="translate(-252.72 -543.008)"/><path class="f" d="M303.77,480.524l.34,1.358s1.273,3.565.17,3.4-1.613-3.225-1.613-3.225l-.17-1.1Z" transform="translate(-295.61 -442.324)"/><path class="e" d="M35.533,223.849l-1.188-.1-3.48,9.931,3.989,6.875,2.8-2.122L34.685,233.6l2.292-6.2Z" transform="translate(-27.987 -201.134)"/></g></svg>