<svg xmlns="http://www.w3.org/2000/svg" width="100" height="85.683" viewBox="0 0 100 85.683"><defs><style>.a{fill:#3f3d56;}.b{fill:#2f2e41;}.c{fill:#fbbebe;}.d{fill:#6c63ff;}.e{fill:#e6e6e6;}.f{fill:#fff;}</style></defs><g transform="translate(0.001 0)"><path class="a" d="M259.066,657.323a96.746,96.746,0,0,1-13.891-.963c-.15-.02-.3-.043-.454-.067-1.13-.17-2.261-.365-3.36-.578a69.522,69.522,0,0,1-13.866-4.157c-14.155-5.992-23.054-4.717-28.028-2.592a15.8,15.8,0,0,0-7.471,6.1l-.177-.106a16,16,0,0,1,7.557-6.187,24.891,24.891,0,0,1,11-1.775,50.89,50.89,0,0,1,17.194,4.36A69.328,69.328,0,0,0,241.4,655.5c1.1.213,2.225.407,3.353.577.151.024.3.046.452.067a111.41,111.41,0,0,0,32.425-.518,98.958,98.958,0,0,0,10.748-2.227l.053.208a99.1,99.1,0,0,1-10.772,2.233A121.416,121.416,0,0,1,259.066,657.323Z" transform="translate(-191.82 -578.635)"/><path class="a" d="M259.079,179.465a99.825,99.825,0,0,1-10.452-.533,74.15,74.15,0,0,1-21.133-5.235c-14.155-5.992-23.054-4.717-28.028-2.592a15.8,15.8,0,0,0-7.471,6.1l-.177-.106a16,16,0,0,1,7.557-6.187,24.885,24.885,0,0,1,11-1.775,50.885,50.885,0,0,1,17.194,4.36c14.177,6,29.953,6.238,40.69,5.379a114.254,114.254,0,0,0,20.114-3.336l.053.208a114.432,114.432,0,0,1-20.147,3.343C265.159,179.34,262.086,179.465,259.079,179.465Z" transform="translate(-191.819 -162.609)"/><path class="b" d="M644,119.961s-4.235-1.513-6.958,4.538a119.313,119.313,0,0,1-6.958,12.706l2.42.605s.605-4.235,2.118-4.84l-.605,5.445s18.152,6.353,26.32-.605l-.3-2.118s1.21.3,1.21,2.118l.908-.908a16.26,16.26,0,0,0-3.63-4.235c-1.787-1.589-2.4-4.611-2.612-6.5a7.866,7.866,0,0,0-1.811-4.284C652.291,119.786,648.994,117.558,644,119.961Z" transform="translate(-577.721 -118.919)"/><path class="c" d="M862.894,391.56s7.97,6.8,9.142,10.783-4.454,4.454-4.454,4.454l-12.19,1.172s-.234,5.626-2.344,6.329-.428-9.3-.428-9.3l11.915-3.355-5.392-5.626Z" transform="translate(-772.198 -356.281)"/><path class="c" d="M591.71,445.907l-.938,12.424-5.157,21.1s-4.688,9.611-.7,9.845,3.751-9.142,3.751-9.142l7.5-19.925.7-13.6Z" transform="translate(-535.75 -403.595)"/><circle class="c" cx="7.736" cy="7.736" r="7.736" transform="translate(60.423 5.04)"/><path class="c" d="M706.186,246.635s2.813,10.08-1.641,12.658,11.252,4.454,15.471-3.282c0,0-7.5-2.579-5.391-9.377Z" transform="translate(-641.692 -230.109)"/><path class="d" d="M649.315,350.363l-1.406-.469s-2.813,1.172-2.813,3.282-.469,10.549-.469,10.549l6.329.7Z" transform="translate(-589.36 -320.006)"/><path class="b" d="M662.667,568.906a124.423,124.423,0,0,1-34.346.518c0-.129,0-.255,0-.378q0-1.1.084-2.17c.67-8.8,5.205-16.143,6.96-18.686.088-.129.17-.246.243-.349.283-.4.448-.608.448-.608s13.6-.222,20.628,2.591a3.025,3.025,0,0,1,.916.6C660.222,552.843,661.762,560.7,662.667,568.906Z" transform="translate(-577.474 -491.807)"/><path class="d" d="M845.305,325.582s3.047-1.641,6.095,1.875l6.095,7.032-4.688,5.157-8.908-5.392Z" transform="translate(-765.158 -298.507)"/><path class="b" d="M683.219,156.039a21.183,21.183,0,0,0,6.422-6.98s5.026,5.584,8.1,5.863.279-6.7.279-6.7l-5.584-1.4-5.3.558-4.188,2.792Z" transform="translate(-623.397 -143.215)"/><path class="d" d="M689.445,315.474s-3.281,5.187-13.127,2.711l-5.587,1.539-.743.2s.7,14.065,2.579,16.643,1.406,3.985.938,4.219-1.641-.234-.938.938,1.641.469.7,1.172-1.406,3.282-1.406,3.282L693.9,349s-.7-9.142,1.172-13.83a60.4,60.4,0,0,0,2.344-6.564l-1.406-11.721Z" transform="translate(-612.574 -290.04)"/><rect class="e" width="30.163" height="37.704" transform="translate(5.371 20.845)"/><rect class="f" width="6.464" height="4.309" transform="translate(7.472 24.023)"/><rect class="f" width="24.992" height="1.508" transform="translate(7.526 32.425)"/><rect class="f" width="24.992" height="1.508" transform="translate(7.526 36.411)"/><rect class="f" width="24.992" height="1.508" transform="translate(7.526 40.397)"/><rect class="f" width="24.992" height="1.508" transform="translate(7.526 44.383)"/><rect class="f" width="24.992" height="1.508" transform="translate(7.526 48.369)"/><path class="d" d="M432.718,531.178a5.908,5.908,0,1,1-.916-3.165A5.908,5.908,0,0,1,432.718,531.178Z" transform="translate(-393.039 -472.683)"/><path class="f" d="M449.7,540.577l-5.832,5.831c-.367-.568-2.409-3.2-2.409-3.2a8.261,8.261,0,0,1,.836-.738l1.693,2.258,5.029-5.029a5.9,5.9,0,0,1,.683.882Z" transform="translate(-411.03 -485.247)"/></g></svg>