<svg xmlns="http://www.w3.org/2000/svg" xmlns:xlink="http://www.w3.org/1999/xlink" width="100" height="67.968" viewBox="0 0 100 67.968"><defs><style>.a,.f{fill:#6c63ff;}.a,.e,.j{opacity:0.1;}.b{fill:url(#a);}.c{fill:#fbbebe;}.d{fill:#464353;}.g{opacity:0.05;}.h{fill:#3f3d56;}.i{fill:#fff;}.k{opacity:0.8;}.l{fill:none;stroke:#3f3d56;stroke-miterlimit:10;stroke-width:3px;}.m{fill:#3acc6c;}.n{fill:#ff6584;}</style><linearGradient id="a" x1="0.5" y1="1" x2="0.5" gradientUnits="objectBoundingBox"><stop offset="0" stop-color="gray" stop-opacity="0.251"/><stop offset="0.54" stop-color="gray" stop-opacity="0.122"/><stop offset="1" stop-color="gray" stop-opacity="0.102"/></linearGradient></defs><g transform="translate(-0.003 0.002)"><path class="a" d="M166.041,114.269c-6.231-.221-12.165-2.269-17.832-4.51s-11.279-4.724-17.36-5.911c-3.911-.764-8.384-.872-11.536,1.264-3.033,2.059-4.013,5.6-4.54,8.894-.4,2.477-.63,5.083.457,7.4.754,1.61,2.093,2.963,3.019,4.5,3.221,5.364.944,11.98-2.547,17.218a65.454,65.454,0,0,0-4.8,7.417c-1.264,2.614-1.848,5.612-.743,8.281,1.1,2.647,3.708,4.631,6.537,6.028,5.746,2.837,12.515,3.65,19.121,4.11,14.616,1.019,29.31.577,43.965.136a126.809,126.809,0,0,0,16.206-1.183c2.963-.474,6.023-1.227,8.173-3.039a7.058,7.058,0,0,0,1.578-9.105c-3.069-4.852-11.552-6.058-13.7-11.264-1.181-2.866.032-6.059,1.747-8.716,3.681-5.7,9.851-10.7,10.177-17.223.223-4.476-2.743-8.959-7.329-11.078-4.808-2.22-11.473-1.941-15.018,1.734C177.959,113.008,171.542,114.463,166.041,114.269Z" transform="translate(-106.759 -103.35)"/><path class="b" d="M150.512,330.931a3.72,3.72,0,0,0-.392-1.022,3.581,3.581,0,0,0-.642-.7,3.228,3.228,0,0,0-2.525-1.137,3.372,3.372,0,0,0-.837.306c-.137.064-.275.127-.417.181a2.075,2.075,0,0,1-1.257.11c-.216-.058-.417-.162-.629-.226a1.994,1.994,0,0,0-.309-.067,5.264,5.264,0,0,0,.6-.315,3.428,3.428,0,0,0,1.782-3.068,5.064,5.064,0,0,0-.327-1.221l-.376-1.041a4.452,4.452,0,0,0-.628-1.285,3.252,3.252,0,0,0-1.287-.912,12.49,12.49,0,0,0-3.312-.769l-.078-.011V307.583a.784.784,0,0,0-.784-.784h-1.48l-.2-1.2a11.155,11.155,0,0,0-.9-3.321,2.493,2.493,0,0,0-1.625-1.442,1.576,1.576,0,0,1-.423-.1c-.216-.106-.333-.341-.5-.515-.427-.448-1.122-.455-1.7-.686a8.869,8.869,0,0,1-1.38-.871,1.807,1.807,0,0,0-1.543-.309,1.033,1.033,0,0,1-.011.111l-.327-.151a3.606,3.606,0,0,1-1-.6,2.861,2.861,0,0,1-.709-1.281c-.016-.05-.03-.1-.046-.152a4.552,4.552,0,0,0,1.22-2.328l.079.258a1.709,1.709,0,0,0,.063.171.673.673,0,0,0,.2.277.349.349,0,0,0,.082.048.343.343,0,0,0,.084.022.313.313,0,0,0,.122-.009.464.464,0,0,0,.294-.273.587.587,0,0,0,.034-.12.622.622,0,0,0,.007-.075v-.1a.191.191,0,0,0,0-.049v-.026a.287.287,0,0,0-.01-.058c0-.019,0-.011,0-.016,0-.025-.011-.05-.016-.074v-.019c0-.006-.009-.04-.014-.061s-.007-.026-.01-.04v-.006h0c-.01-.039-.019-.077-.027-.117a3.371,3.371,0,0,1-.054-1.035,11.086,11.086,0,0,1,.28-1.5l.021-.089c.008-.034.016-.069.023-.1.016-.071.031-.141.046-.213h0l.035-.18.026-.161v-.021a4.648,4.648,0,0,0,.034-1.1h0a2.317,2.317,0,0,0-.552-1.384c-.246-.274-.571-.475-.8-.763-.214-.269-.334-.6-.556-.864a5.607,5.607,0,0,0-3.146-1.391,6.44,6.44,0,0,0-3.777.823,3.65,3.65,0,0,0-.784.918,4.528,4.528,0,0,1-1.575,1.569,1.913,1.913,0,0,0-.717.453,1.225,1.225,0,0,0-.191.508,10.07,10.07,0,0,0-.2,1.939h0v.245a1.787,1.787,0,0,0,.153.709c.016.033.033.066.052.1l.012.021a3.9,3.9,0,0,1,.314.534.708.708,0,0,1,.048.163,1.2,1.2,0,0,1-.027.429h0a.377.377,0,0,1-.013.065l-.009.042a.083.083,0,0,1-.008.043c-.008.042-.015.084-.021.125h0a.882.882,0,0,0,.022.339.446.446,0,0,0,.218.294.638.638,0,0,0,.176.055c.062.011.124.018.185.031a.916.916,0,0,1,.224.083.9.9,0,0,1,.189.122,1.075,1.075,0,0,1,.081.082,1.374,1.374,0,0,1,.139.19q.031.052.059.106a2.419,2.419,0,0,1,.168.443c.025.091.047.183.066.275.009.041.017.082.024.123s.014.081.02.122h0a.285.285,0,0,0,.078-.016.53.53,0,0,0,.27-.382c.008-.027.015-.054.021-.08.023-.1.046-.206.069-.309a4.546,4.546,0,0,0,1.789,1.97c.027.081.054.162.077.244a1.658,1.658,0,0,1-.032,1.3,1.372,1.372,0,0,1-.723.563.479.479,0,0,0-.162-.137.747.747,0,0,0-.784.221c-.392.355-.712.864-1.227.98a1.417,1.417,0,0,0-.547.148,1.274,1.274,0,0,0-.254.333,1.169,1.169,0,0,1-1,.5c-.179-.009-.392-.05-.515.081-.091.1-.1.253-.2.346-.131.129-.347.067-.53.059a1.06,1.06,0,0,0-.872.5,3.266,3.266,0,0,0-.392.98v.006a.7.7,0,0,0-.072.06,1.034,1.034,0,0,0-.217.351,16.751,16.751,0,0,0-1.382,5.7.588.588,0,0,1-.063.276,1.36,1.36,0,0,1-.144.157.55.55,0,0,0,.091.784.618.618,0,0,1,.1-.139c-.011.045-.021.089-.027.129a3.479,3.479,0,0,0-.011.863q.139,2.043.281,4.083c.026.385.053.77.088,1.154q.1,1.116.294,2.222a.959.959,0,0,0,.022.1,2.685,2.685,0,0,0-1.809,1.478c-.1.265-.151.553-.278.807-.14.278-.371.5-.524.773a2.351,2.351,0,0,0-.179,1.569,5.21,5.21,0,0,0,1.471,2.685h-.1a1.533,1.533,0,0,0-.67.24,4.549,4.549,0,0,0-2.109,4.613,1.979,1.979,0,0,0,.406.961,1.52,1.52,0,0,0,.714.437,2.48,2.48,0,0,0,.526.1c1.206.1,2.373-.461,3.582-.508a9.6,9.6,0,0,1,1.2.056q.873.073,1.75.092a2.316,2.316,0,0,0,2.09-.94,2.559,2.559,0,0,0,.37-.582c.516-.029,1.085-.074,1.5-.108l.006.057a.782.782,0,0,0,.214.545.746.746,0,0,0,.294.121,9.456,9.456,0,0,0,4.442.38l1.791-.207a8.921,8.921,0,0,1,1.539.335c.518.175,1,.436,1.507.643a15.011,15.011,0,0,0,3.694.814.751.751,0,0,0,.617-.1c.2-.2.136-.523.078-.8-.024-.113-.041-.225-.055-.339a17.186,17.186,0,0,1,2.474.859l.14.062c.041.214.238.384.427.615a1.568,1.568,0,0,0,.217.269.723.723,0,0,0,.311.112,14.491,14.491,0,0,0,4.013.181,4.1,4.1,0,0,1,.827-.028,3.584,3.584,0,0,1,.6.134l1.134.326a7.684,7.684,0,0,0,2.56.427,3.273,3.273,0,0,0,.523-.076,2.455,2.455,0,0,0,1.655-1.159A3.756,3.756,0,0,0,150.512,330.931Z" transform="translate(-106.518 -267.065)"/><path class="c" d="M203.3,730.651a1.893,1.893,0,0,1-.2-1.482,1.26,1.26,0,0,1,.652-.613,3.138,3.138,0,0,1,.882-.218,12.311,12.311,0,0,1,2.868-.039,4.672,4.672,0,0,1-.2,1.642c-.115.49-.18.563-.686.588A20.159,20.159,0,0,1,203.3,730.651Z" transform="translate(-191.038 -666.975)"/><ellipse class="d" cx="14.019" cy="3.921" rx="14.019" ry="3.921" transform="translate(6.97 52.658)"/><ellipse class="e" cx="14.019" cy="3.921" rx="14.019" ry="3.921" transform="translate(6.97 52.658)"/><path class="c" d="M232.985,395.885a4.362,4.362,0,0,1-2.249,2.043,5.643,5.643,0,0,1-1.785.339,5.084,5.084,0,0,1-1.97-.24,4.508,4.508,0,0,1-2.059-1.65,10.072,10.072,0,0,1-1.2-2.386,2.652,2.652,0,0,1-.244-1.356,1.925,1.925,0,0,0,1.319-.731,1.627,1.627,0,0,0,.032-1.284c-.036-.125-.078-.248-.121-.367-.1-.284-.436-.824-.2-1.068.15-.154.778-.232,1-.332a9.345,9.345,0,0,1,2.017-.9,4.854,4.854,0,0,1,1.922.124.632.632,0,0,1,.237.085.57.57,0,0,1,.176.265c.18.439.286.924.431,1.382a2.826,2.826,0,0,0,.709,1.27,3.618,3.618,0,0,0,1,.594l.869.4a1.142,1.142,0,0,1,.411.266,1.04,1.04,0,0,1,.2.533A4.982,4.982,0,0,1,232.985,395.885Z" transform="translate(-209.483 -360.006)"/><path class="e" d="M239.227,389.81a4.51,4.51,0,0,1-5.458.81c-.036-.125-.078-.248-.121-.367-.1-.284-.436-.824-.2-1.068.15-.154.778-.232,1-.332a9.344,9.344,0,0,1,2.017-.9,4.854,4.854,0,0,1,1.922.124.632.632,0,0,1,.237.085.57.57,0,0,1,.176.265C238.976,388.867,239.082,389.352,239.227,389.81Z" transform="translate(-218.418 -360.006)"/><circle class="c" cx="4.51" cy="4.51" r="4.51" transform="translate(13.048 21.974)"/><path class="f" d="M186.759,435.533l-.371-2.245a11.026,11.026,0,0,0-.9-3.289,2.493,2.493,0,0,0-1.626-1.429,1.572,1.572,0,0,1-.424-.1c-.216-.1-.333-.337-.5-.51-.427-.443-1.123-.45-1.7-.675a8.668,8.668,0,0,1-1.38-.862,1.834,1.834,0,0,0-1.544-.306,7.738,7.738,0,0,1-.542,2.573,3.851,3.851,0,0,1-5.81,1.447,4.838,4.838,0,0,1-1.694-2.734c-.064-.259-.136-.556-.374-.674a.751.751,0,0,0-.784.218c-.392.352-.713.856-1.228.974a1.433,1.433,0,0,0-.547.147,1.245,1.245,0,0,0-.255.33,1.176,1.176,0,0,1-1,.5c-.179-.009-.392-.05-.515.08-.091.1-.1.251-.2.342-.132.128-.347.066-.531.059a1.072,1.072,0,0,0-.873.49,3.162,3.162,0,0,0-.392.967c1.072,2.386,2.052,4.775,3.123,7.161a.611.611,0,0,1,.077.294.717.717,0,0,1-.133.294,4.9,4.9,0,0,0-.451,2.9,5.778,5.778,0,0,1-.315,2.929c-.121.244-.277.468-.392.712a6.745,6.745,0,0,0-.209,2.916h22.164a14.627,14.627,0,0,1-.174-4.726,17.242,17.242,0,0,0-.167-2.587C186.944,438.964,187.05,437.292,186.759,435.533Z" transform="translate(-155.462 -394.415)"/><path class="c" d="M145.949,536.726a3.47,3.47,0,0,0-.012.856l.281,4.046c.026.381.053.762.088,1.142.068.738.169,1.47.294,2.2a.392.392,0,0,0,.4.381,14.358,14.358,0,0,0,3.787.18c1.931-.108,3.86-.354,5.794-.312a1.636,1.636,0,0,0,1.38-.392,1.026,1.026,0,0,0-.268-1.343,2.266,2.266,0,0,0-1.435-.392c-.67-.007-1.339.088-2.007.049a9.941,9.941,0,0,1-1.806-.332l-1.667-.415a6.424,6.424,0,0,1,.438-1.46,7.581,7.581,0,0,0,.639-2.639,2.873,2.873,0,0,0-1.083-2.39,3.58,3.58,0,0,0-2.152-.49,6.62,6.62,0,0,0-1.981.1C146.25,535.687,146.023,536.34,145.949,536.726Z" transform="translate(-139.539 -493.038)"/><path class="d" d="M249.077,642.618a2.112,2.112,0,0,1,1.036-.032,12.611,12.611,0,0,1,3.314.762,3.254,3.254,0,0,1,1.288.9,4.467,4.467,0,0,1,.628,1.274l.376,1.031a4.965,4.965,0,0,1,.328,1.209,3.392,3.392,0,0,1-1.788,3.039,10.687,10.687,0,0,1-3.529,1.109c-1.218.239-2.44.5-3.653.784a14.7,14.7,0,0,1-1.719.338,17.758,17.758,0,0,0-3.888.36,14.8,14.8,0,0,1-1.48.545,9.221,9.221,0,0,1-1.023.156l-2.334.267a9.564,9.564,0,0,1-4.444-.372.574.574,0,0,1-.508-.659q-.15-1.315-.263-2.632a.987.987,0,0,1,1.042-1.277,24.2,24.2,0,0,1,4.478-.311c.57-.57,1.509-.573,2.255-.882a6.712,6.712,0,0,0,.8-.432,10.39,10.39,0,0,1,4.365-1.379,4.06,4.06,0,0,0,.893-.127c.577-.179,1.1-.668,1.7-.548a1.373,1.373,0,0,1,.294-.614c.084-.072.188-.12.266-.2a.8.8,0,0,0,.154-.658,1.927,1.927,0,0,1-.02-.694.96.96,0,0,1,.109-.242A1.325,1.325,0,0,1,249.077,642.618Z" transform="translate(-216.645 -589.681)"/><path class="g" d="M249.077,642.618a2.112,2.112,0,0,1,1.036-.032,12.611,12.611,0,0,1,3.314.762,3.254,3.254,0,0,1,1.288.9,4.467,4.467,0,0,1,.628,1.274l.376,1.031a4.965,4.965,0,0,1,.328,1.209,3.392,3.392,0,0,1-1.788,3.039,10.687,10.687,0,0,1-3.529,1.109c-1.218.239-2.44.5-3.653.784a14.7,14.7,0,0,1-1.719.338,17.758,17.758,0,0,0-3.888.36,14.8,14.8,0,0,1-1.48.545,9.221,9.221,0,0,1-1.023.156l-2.334.267a9.564,9.564,0,0,1-4.444-.372.574.574,0,0,1-.508-.659q-.15-1.315-.263-2.632a.987.987,0,0,1,1.042-1.277,24.2,24.2,0,0,1,4.478-.311c.57-.57,1.509-.573,2.255-.882a6.712,6.712,0,0,0,.8-.432,10.39,10.39,0,0,1,4.365-1.379,4.06,4.06,0,0,0,.893-.127c.577-.179,1.1-.668,1.7-.548a1.373,1.373,0,0,1,.294-.614c.084-.072.188-.12.266-.2a.8.8,0,0,0,.154-.658,1.927,1.927,0,0,1-.02-.694.96.96,0,0,1,.109-.242A1.325,1.325,0,0,1,249.077,642.618Z" transform="translate(-216.645 -589.681)"/><path class="h" d="M119.986,713.043a2.327,2.327,0,0,1-2.091.931q-.876-.021-1.751-.091a9.825,9.825,0,0,0-1.2-.056c-1.21.047-2.377.6-3.584.5a2.539,2.539,0,0,1-.526-.1,1.533,1.533,0,0,1-.715-.433,1.953,1.953,0,0,1-.406-.952,4.484,4.484,0,0,1,2.11-4.569,1.547,1.547,0,0,1,.671-.238,1.591,1.591,0,0,1,.678.149l.015.006a5.129,5.129,0,0,1,1.68,1.122.946.946,0,0,0,.257.207.88.88,0,0,0,.3.057l1.288.081a3.05,3.05,0,0,1,.647.089,5.145,5.145,0,0,1,.68.294,8.71,8.71,0,0,0,2.211.512.331.331,0,0,1,.2.078.307.307,0,0,1,.061.127A2.5,2.5,0,0,1,119.986,713.043Z" transform="translate(-106.825 -648.761)"/><path class="e" d="M113.186,708.2a7.733,7.733,0,0,0-1.289,1.612,8.066,8.066,0,0,0-1.053,3.19,5.921,5.921,0,0,0-.011,1.236,1.532,1.532,0,0,1-.715-.433,1.952,1.952,0,0,1-.406-.952,4.484,4.484,0,0,1,2.11-4.569,1.547,1.547,0,0,1,.671-.238,1.588,1.588,0,0,1,.678.149Z" transform="translate(-106.825 -648.77)"/><path class="c" d="M372.55,732.814a2.862,2.862,0,0,1,2.059.429,2.652,2.652,0,0,1,.6,1.9l.038.791a1.58,1.58,0,0,1-.076.714,1.1,1.1,0,0,1-1.078.559,3.628,3.628,0,0,1-1.224-.382,17.228,17.228,0,0,0-3.333-1.05q.056-.821.186-1.633a3.08,3.08,0,0,1,.321-1.316c.266-.329.612-.151.973-.09A7.8,7.8,0,0,0,372.55,732.814Z" transform="translate(-341.765 -670.94)"/><path class="d" d="M132.158,633.494c0,.1-.154,0-.168-.1a2.388,2.388,0,0,0-1.471-1.765,4.813,4.813,0,0,0-2.363-.259c-1.2.114-2.549.573-2.988,1.7-.1.263-.151.547-.278.8-.141.276-.372.5-.524.766a2.329,2.329,0,0,0-.179,1.56,5.627,5.627,0,0,0,2.376,3.431,14.2,14.2,0,0,0,3.873,1.773,67.18,67.18,0,0,0,10.98,2.622,10.543,10.543,0,0,1,1.792.37c.518.174,1,.433,1.508.637a15.138,15.138,0,0,0,3.7.807.758.758,0,0,0,.617-.1c.2-.189.136-.519.078-.79a4.25,4.25,0,0,1,.5-3.016,1.975,1.975,0,0,0,.443-1.124,1.129,1.129,0,0,0-.994-.89,4.978,4.978,0,0,0-1.427.1.765.765,0,0,1-.485-.048.97.97,0,0,1-.19-.169,2.15,2.15,0,0,0-2.5-.35c-.175.1-.441-.121-.623-.2l-2.062-.933a48.634,48.634,0,0,0-7.255-2.826,1.523,1.523,0,0,1-.559-.232c-.124-.1-.214-.231-.328-.34a4.185,4.185,0,0,0-.9-.5C132.426,634.24,132.089,633.83,132.158,633.494Z" transform="translate(-119.89 -579.57)"/><path class="h" d="M417.207,732.387a2.454,2.454,0,0,1-1.655,1.148,3.285,3.285,0,0,1-.524.075,7.735,7.735,0,0,1-2.561-.424l-1.135-.32a3.587,3.587,0,0,0-.6-.133,4.1,4.1,0,0,0-.827.028,14.665,14.665,0,0,1-4.019-.18.708.708,0,0,1-.311-.111,1.544,1.544,0,0,1-.217-.266c-.309-.372-.641-.588-.275-1.078.211-.284.6-.426.766-.753a1.678,1.678,0,0,0-.038-1.127c-.132-.466-.568-.667-.724-1.094a.77.77,0,0,1,.375-.872,1.555,1.555,0,0,1,1-.144c.34.045.674.141,1.016.168,1.006.08,2.034-.438,3-.146.213.065.414.168.629.224a2.093,2.093,0,0,0,1.258-.109c.141-.053.279-.117.417-.179a3.356,3.356,0,0,1,.838-.3,3.251,3.251,0,0,1,2.526,1.126,3.572,3.572,0,0,1,.642.7,3.493,3.493,0,0,1,.392,1.013A3.722,3.722,0,0,1,417.207,732.387Z" transform="translate(-373.789 -665.651)"/><path class="e" d="M489.54,732.333a2.454,2.454,0,0,1-1.655,1.148,3.205,3.205,0,0,0,.348-1.682,5.312,5.312,0,0,0-.991-2.585,9.153,9.153,0,0,0-1.092-1.33c-.312-.314-.7-.563-1.03-.85a3.359,3.359,0,0,1,.838-.3,3.251,3.251,0,0,1,2.526,1.126,3.571,3.571,0,0,1,.642.7,3.5,3.5,0,0,1,.392,1.013A3.756,3.756,0,0,1,489.54,732.333Z" transform="translate(-446.216 -665.597)"/><path class="f" d="M145.194,469.856a1.015,1.015,0,0,0-.218.348,16.456,16.456,0,0,0-1.382,5.649.565.565,0,0,1-.064.273,1.2,1.2,0,0,1-.144.156.541.541,0,0,0,.092.784,1.054,1.054,0,0,1,.893-.43c1.648-.13,3.258.636,4.911.578-.117-.4-.284-.79-.379-1.2-.421-1.811.628-3.782-.015-5.526a1.425,1.425,0,0,0-.681-.845,1.813,1.813,0,0,0-.436-.116,4.707,4.707,0,0,0-1.653-.269c-.149.048-.208.188-.331.273A3.182,3.182,0,0,0,145.194,469.856Z" transform="translate(-137.142 -433.364)"/><rect class="h" width="21.862" height="13.921" rx="6.96" transform="translate(11.528 40.061)"/><circle class="i" cx="0.588" cy="0.588" r="0.588" transform="translate(21.436 46.433)"/><path class="h" d="M196.241,291.187a3.593,3.593,0,0,0-.784.909,4.489,4.489,0,0,1-1.576,1.551,1.913,1.913,0,0,0-.718.449,1.21,1.21,0,0,0-.191.5,9.965,9.965,0,0,0-.2,1.921,2.136,2.136,0,0,0,.156.945,3.238,3.238,0,0,1,.426.806,2.441,2.441,0,0,1-.078.7.593.593,0,0,0,.239.624,1.449,1.449,0,0,0,.363.085c.652.145.871.91.97,1.542.222-.013.322-.267.368-.473l.679-3.02c.074-.327.2-.707.523-.822a1.673,1.673,0,0,1,.686.015c.9.073,1.656-.62,2.533-.811a3.235,3.235,0,0,1,.854-.057c.692.034,1.5.319,1.644.965.025.1.039.23.137.282s.2.008.3,0c.439-.044.7.45.824.854l.461,1.471c.069.223.184.484.425.513a.445.445,0,0,0,.445-.392,1.718,1.718,0,0,0-.087-.635,7,7,0,0,1,.317-2.921,3.183,3.183,0,0,0-.439-2.824c-.246-.27-.57-.471-.8-.755-.214-.267-.334-.594-.556-.856a5.607,5.607,0,0,0-3.148-1.372A6.414,6.414,0,0,0,196.241,291.187Z" transform="translate(-181.799 -272.024)"/><g class="j" transform="translate(10.972 22.708)"><path d="M208.891,345.509c-.241-.029-.357-.294-.425-.513L208,343.526c-.126-.4-.385-.9-.824-.854-.1.011-.214.051-.3,0s-.113-.177-.137-.282c-.147-.647-.952-.93-1.644-.965a3.278,3.278,0,0,0-.854.056c-.877.2-1.636.882-2.533.811a1.692,1.692,0,0,0-.686-.014c-.33.114-.449.49-.523.822l-.679,3.019c-.046.208-.146.462-.368.474-.1-.631-.318-1.4-.97-1.541a1.542,1.542,0,0,1-.363-.085.425.425,0,0,1-.189-.211c-.018.091-.038.182-.05.273a.6.6,0,0,0,.239.624,1.45,1.45,0,0,0,.363.085c.652.145.871.91.97,1.542.222-.013.322-.267.368-.474l.679-3.02c.074-.327.2-.707.523-.822a1.673,1.673,0,0,1,.686.015c.9.074,1.656-.62,2.533-.811a3.234,3.234,0,0,1,.854-.057c.692.034,1.5.319,1.644.965.025.1.039.23.137.282s.2.008.3,0c.439-.044.7.45.824.854q.229.736.461,1.471c.069.223.184.484.425.513a.445.445,0,0,0,.445-.392,1.331,1.331,0,0,0-.059-.521A.4.4,0,0,1,208.891,345.509Z" transform="translate(-197.374 -340.789)"/><path d="M193.362,351.284a3.3,3.3,0,0,0-.426-.806,1.612,1.612,0,0,1-.145-.588c0,.11-.01.22-.011.33a2.135,2.135,0,0,0,.156.945c.109.223.288.419.378.645A1.476,1.476,0,0,0,193.362,351.284Z" transform="translate(-192.78 -348.43)"/><path d="M313.582,335.768a8.7,8.7,0,0,0-.371,2.582,16.811,16.811,0,0,1,.371-1.9A5,5,0,0,0,313.7,335,6,6,0,0,1,313.582,335.768Z" transform="translate(-301.39 -335)"/></g><g class="k" transform="translate(27.571 12.023)"><line class="l" x2="61.277" transform="translate(3.006 16.453)"/><path class="l" d="M466.46,344.783s2.93.407,1.413-2.737,4.117-2.549,4.117-2.549" transform="translate(-458.01 -328.331)"/><path class="l" d="M665.53,393.673s2.93-.406,1.413,2.738,4.117,2.549,4.117,2.549" transform="translate(-637.565 -377.221)"/><path class="l" d="M901.28,393.673s-2.931-.406-1.413,2.738-4.117,2.549-4.117,2.549" transform="translate(-845.215 -377.221)"/><line class="l" x1="16.169" transform="translate(34.366 21.738)"/><circle class="f" cx="1.789" cy="1.789" r="1.789" transform="translate(1.217 14.664)"/><circle class="m" cx="1.789" cy="1.789" r="1.789" transform="translate(12.221 9.351)"/><circle class="f" cx="1.789" cy="1.789" r="1.789" transform="translate(12.221 14.664)"/><circle class="f" cx="1.789" cy="1.789" r="1.789" transform="translate(19.323 14.664)"/><circle class="n" cx="1.789" cy="1.789" r="1.789" transform="translate(31.736 19.923)"/><circle class="n" cx="1.789" cy="1.789" r="1.789" transform="translate(41.116 19.923)"/><circle class="f" cx="1.789" cy="1.789" r="1.789" transform="translate(40.626 14.664)"/><circle class="f" cx="1.789" cy="1.789" r="1.789" transform="translate(62.041 14.664)"/><circle class="f" cx="1.789" cy="1.789" r="1.789" transform="translate(53.281 14.664)"/><rect class="f" width="6.003" height="4.137"/><rect class="m" width="6.003" height="4.137" transform="translate(11.031)"/><rect class="n" width="6.003" height="4.137" transform="translate(30.498)"/></g><g class="j" transform="translate(0.003 28.494)"><path class="f" d="M89.358,394.873s-7.33-3.082-8.291,2.479a1.353,1.353,0,0,0,.2,1.582s.15-.384.858.013a3.643,3.643,0,0,0,.8.325,1.8,1.8,0,0,0,1.139-.061h0s2.411-.13,4.438-3.284c0,0,.87-.537.913-.739l-1.453.1a2.412,2.412,0,0,1-.49,1.7s.533-1.651.277-1.7c-.052-.01-.768.084-.768.084a3.95,3.95,0,0,1-.784,2.807s.9-1.881.509-2.773l-1.072.207a4.154,4.154,0,0,1-.767,3.077s.873-2,.535-3.016l-1.026.345a4.089,4.089,0,0,1-.64,2.843s.774-2.413.41-2.745a5.344,5.344,0,0,0-1.121.588s.146,1.372-.418,1.868c0,0,.346-1.667.174-1.735a5.613,5.613,0,0,0-1.4,1.5,4.066,4.066,0,0,1,1.266-1.667,2.257,2.257,0,0,0-1.274.179s.371-.707,1.534-.372a5.051,5.051,0,0,1,1.034-.588,4.952,4.952,0,0,0-1.9-.429,2.173,2.173,0,0,1,2.165.328l1.024-.37A6.978,6.978,0,0,0,83.1,394.7a2.739,2.739,0,0,1,2.4.653l1.049-.214a8.342,8.342,0,0,0-1.97-.888,3.3,3.3,0,0,1,2.272.838l.717-.06s-.868-.512-1.13-.636-.251-.2-.251-.2a3.421,3.421,0,0,1,1.68.8A8.3,8.3,0,0,0,89.358,394.873Z" transform="translate(-80.893 -394.021)"/></g><g class="j" transform="translate(1.077 19.846)"><path class="f" d="M98.97,309.781s-2.6-6.007-6.336-3.252a1.113,1.113,0,0,0-.784,1.049s.308-.143.5.5a2.951,2.951,0,0,0,.294.648,1.471,1.471,0,0,0,.711.613h0s1.507,1.3,4.51.577a2.942,2.942,0,0,0,.964.081l-.918-.772a1.976,1.976,0,0,1-1.264.729s1.258-.676,1.132-.85c-.025-.035-.5-.386-.5-.386a3.258,3.258,0,0,1-2.059,1.223s1.607-.606,1.882-1.358l-.755-.49a3.484,3.484,0,0,1-2.226,1.393s1.658-.691,2.036-1.487l-.807-.379s-.937,1.274-2,1.323c0,0,1.835-.992,1.807-1.4a4.256,4.256,0,0,0-1-.286s-.693.9-1.312.872c0,0,1.156-.793,1.093-.931a4.591,4.591,0,0,0-1.689.1,3.345,3.345,0,0,1,1.7-.269,1.843,1.843,0,0,0-.858-.618s.623-.209,1.123.652a4.281,4.281,0,0,1,.951.239,4.027,4.027,0,0,0-.882-1.335s.784.2,1.1,1.428l.82.364a5.716,5.716,0,0,0-.855-1.646s.772.322,1.054,1.755l.745.47a6.876,6.876,0,0,0-.664-1.65,2.716,2.716,0,0,1,.872,1.793l.461.373s-.225-.8-.31-1.022-.032-.265-.032-.265A2.809,2.809,0,0,1,98.008,309,6.9,6.9,0,0,0,98.97,309.781Z" transform="translate(-91.85 -305.806)"/></g></g></svg>