<svg xmlns="http://www.w3.org/2000/svg" xmlns:xlink="http://www.w3.org/1999/xlink" width="100" height="70" viewBox="0 0 100 70"><defs><style>.a,.j{fill:#00bfa6;}.a,.d,.g,.l{opacity:0.1;}.b{fill:url(#a);}.c{fill:#efb7b9;}.e{fill:#dce6f2;}.f{fill:#965d7b;}.h{fill:#444053;}.i{fill:#a36468;}.k{opacity:0.05;}.l{fill:#fff;}.m{fill:#a8a8a8;}.n{opacity:0.2;}</style><linearGradient id="a" y1="0.5" x2="1" y2="0.5" gradientUnits="objectBoundingBox"><stop offset="0" stop-color="gray" stop-opacity="0.251"/><stop offset="0.54" stop-color="gray" stop-opacity="0.122"/><stop offset="1" stop-color="gray" stop-opacity="0.102"/></linearGradient></defs><g transform="translate(0.004 -0.003)"><ellipse class="a" cx="34.551" cy="2.891" rx="34.551" ry="2.891" transform="translate(8.364 62.894)"/><path class="a" d="M153.327,64.941c-6.411-.2-12.517-2.058-18.347-4.091s-11.605-4.285-17.863-5.362c-4.025-.693-8.628-.792-11.87,1.144-3.121,1.868-4.13,5.083-4.671,8.069-.408,2.247-.648,4.612.47,6.715.777,1.46,2.153,2.688,3.106,4.087,3.315,4.867.972,10.869-2.62,15.621a59.22,59.22,0,0,0-4.941,6.729c-1.3,2.37-1.9,5.1-.764,7.52,1.127,2.4,3.815,4.2,6.726,5.469,5.913,2.575,12.877,3.311,19.673,3.729,15.039.923,30.158.524,45.237.123a147.465,147.465,0,0,0,16.675-1.073c3.049-.43,6.2-1.114,8.41-2.763,2.809-2.093,3.506-5.636,1.623-8.26-3.158-4.4-11.887-5.5-14.1-10.22-1.214-2.6.033-5.5,1.8-7.908,3.788-5.174,10.136-9.713,10.47-15.626.23-4.061-2.822-8.129-7.541-10.051C179.857,56.78,173,57.033,169.35,60.368,165.591,63.8,158.988,65.118,153.327,64.941Z" transform="translate(-95.23 -55.03)"/><path class="b" d="M379.354,174.771l-6.01-1.837h0l3.031-2.046-15.872-.574-5.7,2-7.14-1.815-5.955.325-.071-.712a9.668,9.668,0,0,0-.492-2.215,6.247,6.247,0,0,0,.041-.755,4.336,4.336,0,0,0-1.884-3.754l.353-1.439-2.865-1.534a12.667,12.667,0,0,1,1.57-1.2c.1-.064.2-.126.3-.187,3.718-.122,6.651-1.508,6.651-3.2a.94.94,0,0,0-.02-.234.409.409,0,0,0-.022-.094l1.1.267c.069.044.147.089.233.141h0l.018.01.11.061.035.019.122.063.027.014c.1.052.214.106.332.158l.039.017.147.062.041.017c.126.051.259.1.392.146l.043.014.169.052.055.016.2.053.024.006c.077.019.155.036.233.053l.039.007.2.037.061.01c.069.011.135.02.206.029l.043.005c.086.01.173.018.261.024h.01c.083.006.167.01.251.012h.057q.113,0,.226,0h.049c.094,0,.188-.008.281-.015a5.865,5.865,0,0,0,1.236-.2,1.189,1.189,0,0,0,.251-.106c.392-.233-.039-.488-.039-.488h0a3.711,3.711,0,0,0-1.146-.282s-3.139-.594-3.139-1.067-.785-2.928-8.886-3.489c0,0-5.27-.134-6.751,1.145l-.031.149a12.425,12.425,0,0,1-1.226.445,3.782,3.782,0,0,0-.532.089v-.017h0a.4.4,0,0,0-.12.07.471.471,0,0,0-.163.267.8.8,0,0,1-.257.323,1.026,1.026,0,0,1-.118.082h0l-.033.024a3.029,3.029,0,0,0,.667-.049.935.935,0,0,1-.2.356.942.942,0,0,0,.6-.164v-.007l.026-.016a.688.688,0,0,0,.122-.129l-.022.011c.039-.058.075-.117.118-.173a.285.285,0,0,1,.1-.089.884.884,0,0,1,.406-.061l-.08.771h.035a1.089,1.089,0,0,1-.173.162c-.279.2-.785.344-.971.568a.425.425,0,0,0-.09.336,1.186,1.186,0,0,0,.029.2v-.005a.425.425,0,0,1-.177.49c-.145.1-.379.172-.459.283a.142.142,0,0,0-.029.1.622.622,0,0,0,.133.286.006.006,0,0,0,0-.005.214.214,0,0,1,.033.21c-.088.178-.565.326-.542.5a.1.1,0,0,0,.022.066.892.892,0,0,0,.443.178,3.535,3.535,0,0,0,1,.1,2.524,2.524,0,0,0,.373-.058c-.137.143-.279.285-.422.419-.022.021-.045.043-.069.064a2.017,2.017,0,0,0-1.9.382,1.386,1.386,0,0,0-.426.5.857.857,0,0,1-.145.206,3.281,3.281,0,0,1-1.311.534c-1.4.292-7.079,3.5-7.179,4.331a2.584,2.584,0,0,1-.361.959,2.752,2.752,0,0,0-.337,2.267,2.515,2.515,0,0,0,.347.723,8.823,8.823,0,0,1,1,2.378l.651,2.688a3.523,3.523,0,0,0,.106,1.111c-.665.344-3.335,1.779-2.315,2.169a7.85,7.85,0,0,0,2.929.194,7.583,7.583,0,0,0-1.807,2.865,4.352,4.352,0,0,0,1.177,3.647c.842.655,3.647,2.334,3.647,2.334s-.131,2.3.871,3.141a5.524,5.524,0,0,1,1.407,2.573s.936,1.466.467,2,.869.987-.536,1.346-3.2,8.438-3.2,8.438-.724,5.3,0,5.565a1.144,1.144,0,0,0,.124.033v1.779s-.5.374,1.54.449c1.4.051,5.364.165,7.716.232l1.823.052a31.468,31.468,0,0,0,6.223,0c1.907-.39,5.288-.381,4.785-1.41a1.987,1.987,0,0,0-.267-.412c-.551-.639-1.487-.712-3.212-.889l-.285-.026c-1.817-.143-2.413.24-3.431-.259a26.522,26.522,0,0,0-4.662-1.067c.024-.032.053-.063.077-.1a2.428,2.428,0,0,1-.728-.161l2.6.075,1.548.044a26.767,26.767,0,0,0,5.3,0c1.628-.332,4.493-.323,4.065-1.2a1.7,1.7,0,0,0-.226-.35c-.469-.543-1.265-.6-2.731-.753l-.241-.022c-1.544-.122-2.05.2-2.916-.22a22.56,22.56,0,0,0-3.924-.9c0-.2-.589-.479-.959-.761-.436-.329.369-1.481.369-1.481l.459-4.779a4.078,4.078,0,0,1,.549-.071s2.076-.9,1.607-1.855a2.9,2.9,0,0,1-.149-.874,8.857,8.857,0,0,0,1.889-.973c.436-.426,0-2.491,0-2.491v-7.894l3.473.159,3.151.147.959.044,3.151.144,7.242.332,6.526-.56,2.823-.242,5.806-.5v-6.44Zm-47.8-21.34-.4-.02C331.288,153.415,331.429,153.427,331.558,153.432Z" transform="translate(-305.713 -142.811)"/><path class="c" d="M496.217,430.69c-1.962,1.24-9.015.583-9.015.583l-5.466-2.26-.736-.306,1.234-1.158s.392.048,1.065.133C486.833,428.136,497.873,429.648,496.217,430.69Z" transform="translate(-445.947 -394.492)"/><path class="d" d="M483.3,427.683a5.7,5.7,0,0,1-1.56,1.331l-.736-.306,1.234-1.158S482.63,427.6,483.3,427.683Z" transform="translate(-443.231 -394.52)"/><path class="e" d="M377.485,278.036s-5.038.987-4.791,3.412a19.022,19.022,0,0,0,1.154,4.66s-1.03,3.648,3.259,4.589,8.258,1.714,8.258,1.714,6.71.319,7.544.451,3.439-1.883,2.959-2.2-6.639-.972-7.424-1.5a9.23,9.23,0,0,0-2.6-.847s-1.874-.5-2-.953.367-.79.492-.988a18.845,18.845,0,0,0,.443-2.115S386.893,277.444,377.485,278.036Z" transform="translate(-348.789 -258.118)"/><path class="d" d="M388.336,370.39s-6.912.511-6.243,1.58A22.464,22.464,0,0,1,388.336,370.39Z" transform="translate(-354.554 -342.427)"/><path class="d" d="M401.452,375.38s-3.8,1.37-3.057,1.441S401.452,375.38,401.452,375.38Z" transform="translate(-368.758 -346.975)"/><path class="d" d="M421.239,380.89s-1.018.921-.392.859S421.239,380.89,421.239,380.89Z" transform="translate(-388.516 -352.003)"/><path class="d" d="M397.524,292.216l-.42-.053c.12-.173.153-.314.055-.379-.481-.314-6.635-.971-7.418-1.5a9.181,9.181,0,0,0-2.6-.847s-1.874-.5-2-.953.367-.79.492-.988a18.856,18.856,0,0,0,.443-2.116s2.109-6.82-7.3-6.228c0,0-5.038.988-4.793,3.412a18.972,18.972,0,0,0,1.156,4.66s-1.03,3.648,3.259,4.589,8.258,1.714,8.258,1.714,6.708.318,7.544.451a2.738,2.738,0,0,0,1.446-.565l.318.131,5.466,2.259s7.053.658,9.015-.582C412.1,294.18,401.066,292.668,397.524,292.216Z" transform="translate(-352.514 -259.117)"/><path class="f" d="M377.531,168.187a3.176,3.176,0,0,0-.543.093c-.2.072-.2.2-.245.3a.9.9,0,0,1-.392.414,3.057,3.057,0,0,0,.653-.048.915.915,0,0,1-.2.347.925.925,0,0,0,.589-.159,1.309,1.309,0,0,0,.245-.3.261.261,0,0,1,.094-.087,1.9,1.9,0,0,1,.795-.04,2.174,2.174,0,0,0,1.193-.253c.3-.2.314-.706-.392-.76C378.593,167.639,378.133,168.088,377.531,168.187Z" transform="translate(-349.008 -157.921)"/><g class="g" transform="translate(27.366 10.336)"><path d="M378.23,174.379c.018-.042.029-.087.051-.129h0c-.186.072-.2.194-.245.3a.625.625,0,0,1-.116.183A.834.834,0,0,0,378.23,174.379Z" transform="translate(-377.641 -174.25)"/><path d="M377.151,180.347a.888.888,0,0,0,.2-.347,3.037,3.037,0,0,1-.622.048,1.275,1.275,0,0,1-.226.173,3.028,3.028,0,0,0,.651-.047.887.887,0,0,1-.2.347.928.928,0,0,0,.589-.159.588.588,0,0,0,.118-.124A.987.987,0,0,1,377.151,180.347Z" transform="translate(-376.5 -179.502)"/><path d="M384.758,174.962a1.91,1.91,0,0,0-.8.04.279.279,0,0,0-.094.087.633.633,0,0,0-.047.069,2.357,2.357,0,0,1,.742-.019,2.185,2.185,0,0,0,1.193-.253.444.444,0,0,0,.131-.136A2.305,2.305,0,0,1,384.758,174.962Z" transform="translate(-382.384 -174.707)"/></g><path class="e" d="M313.084,201l2.992,1.59-.39,1.6-3.616-2.5Z" transform="translate(-281.788 -183.166)"/><path class="d" d="M316.074,202.59l-.367,1.509-.024.1-3.263-2.257-.351-.244.1-.07.91-.623.2.107Z" transform="translate(-281.787 -183.166)"/><path class="c" d="M384.853,206.586a7.024,7.024,0,0,0-2.821,1.1,12.136,12.136,0,0,0-1.522,1.156c-.277.244-.52.479-.722.684l-.141.146c-.341.356-.532.595-.532.595s-7.75-2.574-6.524-2.748a3.427,3.427,0,0,0,1.489-.94l.067-.062c.339-.316.673-.667.969-1,.606-.68,1.056-1.272,1.056-1.272S387.944,206.2,384.853,206.586Z" transform="translate(-346.88 -190.996)"/><path class="h" d="M459.26,202.58a6.473,6.473,0,0,0,4.193,1.235c2.4-.2,1.415-.768,1.415-.768Z" transform="translate(-424.273 -189.496)"/><path class="i" d="M382.543,738.165a26.449,26.449,0,0,1-5.17,0l-1.511-.042c-1.962-.056-5.246-.149-6.408-.191-1.7-.062-1.279-.368-1.279-.368V735.71l8.225-.92a25.885,25.885,0,0,1,4.142.92c.846.409,1.34.094,2.849.212.075.006.153.013.235.022,1.432.145,2.209.2,2.668.726a1.634,1.634,0,0,1,.222.338C386.94,737.853,384.126,737.847,382.543,738.165Z" transform="translate(-343.822 -674.336)"/><path class="d" d="M386.294,748.608c-.295.081-.6.151-.926.21-1.079.218-2.105.483-3.2.688a15.921,15.921,0,0,1-3.447.313,11.564,11.564,0,0,0-1.84-.009,6.989,6.989,0,0,0-1.022.25c-1.962-.055-5.246-.149-6.408-.191-1.7-.062-1.279-.368-1.279-.368v-.217c.061,0,.129-.008.208-.01a8.126,8.126,0,0,1,1.2.079c.852.1,1.7.2,2.551.3a1.567,1.567,0,0,1,.981-.553,6.559,6.559,0,0,1,1.581-.16c1.32.008,2.57.284,3.889.312a4.634,4.634,0,0,0,1.077-.08c.18-.04.339-.1.516-.142a7.46,7.46,0,0,1,.889-.133c.865-.1,1.714-.216,2.541-.362.235-.041.51-.114.479-.225-.041-.147-.565-.165-.7-.3a.094.094,0,0,1,.016-.153c.075.006.153.013.235.022C385.058,748.026,385.835,748.084,386.294,748.608Z" transform="translate(-343.779 -686.273)"/><path class="i" d="M363.584,778.672a31.128,31.128,0,0,1-6.082,0l-1.776-.046c-2.3-.065-6.172-.173-7.54-.224-2-.073-1.5-.433-1.5-.433v-2.185l9.678-1.083a30.4,30.4,0,0,1,4.874,1.083c.995.481,1.57.111,3.353.25.088.007.181.016.277.025,1.685.173,2.6.238,3.139.855a1.865,1.865,0,0,1,.261.4C368.75,778.3,365.448,778.3,363.584,778.672Z" transform="translate(-324.732 -710.786)"/><path class="d" d="M368,791.006c-.347.1-.711.178-1.089.247-1.269.256-2.478.568-3.761.81a18.778,18.778,0,0,1-4.057.368,13.31,13.31,0,0,0-2.158-.01,8.2,8.2,0,0,0-1.207.3c-2.3-.065-6.172-.173-7.54-.224-2-.073-1.5-.433-1.5-.433v-.255q.122-.009.245-.012a9.431,9.431,0,0,1,1.409.093l3,.357a1.862,1.862,0,0,1,1.163-.651,7.675,7.675,0,0,1,1.862-.189c1.554.01,3.023.335,4.575.367a5.476,5.476,0,0,0,1.264-.093c.214-.048.392-.116.608-.167a8.453,8.453,0,0,1,1.046-.156c1.012-.113,2.005-.255,2.974-.426.277-.049.6-.135.563-.265-.049-.173-.665-.194-.828-.354a.112.112,0,0,1,.02-.18c.088.007.181.016.277.025C366.545,790.322,367.459,790.389,368,791.006Z" transform="translate(-324.684 -724.879)"/><path class="h" d="M385.209,647.54l-.524,5.446s-.785,1.112-.359,1.43,1.144.635.883.823-3.4,2.222-4.414,1.441-2.015-4.16-2.015-4.16l.936-4.175Z" transform="translate(-351.629 -594.648)"/><path class="h" d="M411.073,491l1.456.86v7.478s.426,1.994,0,2.405a14.277,14.277,0,0,1-2.584,1.235l-1.815-4.117.392-4.355Z" transform="translate(-377.86 -452.184)"/><path class="d" d="M385.209,647.54l-.524,5.446s-.785,1.112-.359,1.43,1.144.635.883.823-3.4,2.222-4.414,1.441-2.015-4.16-2.015-4.16l.936-4.175Z" transform="translate(-351.629 -594.648)"/><path class="d" d="M411.073,491l1.456.86v7.478s.426,1.994,0,2.405a14.277,14.277,0,0,1-2.584,1.235l-1.815-4.117.392-4.355Z" transform="translate(-377.86 -452.184)"/><path class="h" d="M347.317,432.28v4.045l-1.634,3.149s-.524,7.6-.067,8.523-1.57,1.792-1.57,1.792-1.177.058-1.177.462-1.962,1.56-1.962,1.56l.065,2.254s.852,4.218-.457,5.027.457.925.457.925c-1.634,2.369-9.482,1.82-10.191,1.56s0-5.374,0-5.374,1.754-7.8,3.127-8.147.067-.78.524-1.3-.457-1.935-.457-1.935a5.294,5.294,0,0,0-1.373-2.485c-.981-.809-.852-3.034-.852-3.034s-2.747-1.618-3.563-2.254a4.185,4.185,0,0,1-1.146-3.525,7.339,7.339,0,0,1,1.766-2.767c.3-.337.524-.556.524-.556l.186.022,10.716,1.239Z" transform="translate(-306.62 -396.146)"/><path class="d" d="M395.729,206.522a7.023,7.023,0,0,0-2.821,1.1h-.22a10.646,10.646,0,0,1-6.082-1.554,2.9,2.9,0,0,1-.616-.62c.606-.68,1.056-1.272,1.056-1.272S398.819,206.132,395.729,206.522Z" transform="translate(-358.735 -190.945)"/><path class="c" d="M398.408,173.524c0,1.3-1.827,2.462-4.587,2.912a13.574,13.574,0,0,1-7.769-.9c-1.907-.99-2.212-2.4-.766-3.532a4.768,4.768,0,0,1,.742-.473,8.367,8.367,0,0,1,1.613-.626,15,15,0,0,1,6.914-.153c2.2.49,3.665,1.456,3.844,2.543C398.4,173.373,398.408,173.449,398.408,173.524Z" transform="translate(-357.883 -160.418)"/><path class="d" d="M382.933,235.757l-.024.1-3.263-2.254c-.341.356-.532.595-.532.595s-7.75-2.578-6.524-2.751a3.427,3.427,0,0,0,1.489-.94l.067-.062c.569.749,3.875,2.246,5.25,2.846.159.069.29.127.392.168l.21.087.11.049C380.61,233.817,382.721,234.822,382.933,235.757Z" transform="translate(-346.506 -214.864)"/><path class="e" d="M343.6,243.138l-.357,5.077-.063.9s-4.23-.173-8.178-.364c-3.178-.153-6.174-.319-6.635-.416a26.586,26.586,0,0,0-2.845-.277c-.769-.046-1.373-.07-1.373-.07s-.226.029-.573.057a7.77,7.77,0,0,1-2.863-.187c-.991-.381,1.613-1.763,2.262-2.095l.143-.072-.245-1-.638-2.6a8.458,8.458,0,0,0-.981-2.3,2.415,2.415,0,0,1-.339-.7,2.632,2.632,0,0,1,.33-2.189,2.5,2.5,0,0,0,.353-.927c.1-.8,5.641-3.9,7.014-4.182a2.972,2.972,0,0,0,1.4-.619.915.915,0,0,0,.214-.27c.589-1.127,2.078-.68,2.078-.68.359.882,5.917,3.215,5.917,3.215l.11.049c.551.25,3.008,1.421,2.833,2.422a1.516,1.516,0,0,0,.371,1.1,9.866,9.866,0,0,1,1.933,4.854Z" transform="translate(-301.068 -214.498)"/><path class="d" d="M387.574,310.45a6.836,6.836,0,0,1-2.4,1.712C384.141,312.4,388.065,312.665,387.574,310.45Z" transform="translate(-356.676 -287.799)"/><path class="d" d="M390.519,342.2s-3.139.173-3.139.433S390.519,342.2,390.519,342.2Z" transform="translate(-358.902 -316.745)"/><path class="d" d="M395.59,361.7s-4.562,4.29-5.837,4.42S395.59,361.7,395.59,361.7Z" transform="translate(-361.337 -334.48)"/><path class="d" d="M376.327,235.45l-3.773.725L368,233.136a.916.916,0,0,0,.214-.27c.589-1.127,2.078-.68,2.078-.68.359.881,5.917,3.215,5.917,3.215Z" transform="translate(-342.147 -216.383)"/><path class="e" d="M377.327,233.45l-3.773.725L369,231.136a.916.916,0,0,0,.214-.27c.589-1.127,2.078-.68,2.078-.68.359.881,5.917,3.215,5.917,3.215Z" transform="translate(-343.053 -214.561)"/><path class="d" d="M351.528,305.455s-4.23-.173-8.178-.364l7.083.819v.953a1.546,1.546,0,0,1-.753.155c-.816-.152-7.477-.628-7.477-.628s-3.869-.867-8.044-1.907q-.152-.037-.294-.081a4.8,4.8,0,0,1-1.236-.547,2.908,2.908,0,0,1-1.311-1.748,3.394,3.394,0,0,1-.1-1.073,4.106,4.106,0,0,1,.251-1.213,18.012,18.012,0,0,1-.589-4.68c.049-2.427,5.2-3.294,5.2-3.294,9.467-.368,6.531,6.392,6.531,6.392a20.266,20.266,0,0,1-.7,2.1c-.149.2-.685.52-.612.975s1.882,1,1.882,1a8.534,8.534,0,0,1,2.494.908c.53.4,3.971.941,5.915,1.328Z" transform="translate(-310.213 -270.714)"/><path class="d" d="M397.647,167.35a.565.565,0,0,1-.2.414,2.788,2.788,0,0,1-.349.309,2.64,2.64,0,0,1-.859.471,8.614,8.614,0,0,1-1.57.241,3.589,3.589,0,0,0-1.419.355.953.953,0,0,0-.332.425.837.837,0,0,1-.392.411,1.492,1.492,0,0,1-.918.1.724.724,0,0,1-.355-.2,1.714,1.714,0,0,1-.371-.71,1.2,1.2,0,0,0-.551-.68,2.466,2.466,0,0,0-1.448-.245,1.45,1.45,0,0,0-.785.336,1.251,1.251,0,0,0-.3.478,15.594,15.594,0,0,1-.861,1.754.152.152,0,0,1-.065.066.511.511,0,0,1-.2.036c-.439.026-.861-.11-1.3-.1-.046,0-.091,0-.135.01-1.469-1.128-1.186-2.54.708-3.536l.035,0a3.208,3.208,0,0,0,.785-.218,7.408,7.408,0,0,0,.785-.4l.157-.087a9.815,9.815,0,0,1,1.53-.642,2.606,2.606,0,0,1,.522-.125,3.478,3.478,0,0,1,.494-.007c.678.036,1.361.047,2.042.034q.713-.049,1.434-.064a6.683,6.683,0,0,1,3.086.828C397.245,166.815,397.621,167.066,397.647,167.35Z" transform="translate(-357.706 -156.169)"/><path class="f" d="M376.037,166.952c-.273.2-.765.332-.95.549-.271.315.186.706-.233.987-.139.094-.369.165-.447.273-.133.183.232.378.137.566s-.655.347-.506.53a.872.872,0,0,0,.432.173,3.537,3.537,0,0,0,.981.1c.536-.039.934-.271,1.477-.289.441-.014.863.121,1.3.1a.529.529,0,0,0,.2-.037.141.141,0,0,0,.065-.066,16.214,16.214,0,0,0,.863-1.754,1.222,1.222,0,0,1,.294-.478,1.463,1.463,0,0,1,.785-.336,2.476,2.476,0,0,1,1.448.245,1.2,1.2,0,0,1,.553.68,1.732,1.732,0,0,0,.369.71.732.732,0,0,0,.357.2,1.491,1.491,0,0,0,.916-.1.826.826,0,0,0,.392-.412.95.95,0,0,1,.332-.424,3.6,3.6,0,0,1,1.419-.355,8.694,8.694,0,0,0,1.57-.242,2.656,2.656,0,0,0,.859-.471c.29-.224.561-.466.538-.724-.025-.281-.4-.531-.8-.75a6.681,6.681,0,0,0-3.088-.827c-.48.009-.959.03-1.434.064-.682.014-1.365,0-2.042-.035a3.612,3.612,0,0,0-.494.008,2.451,2.451,0,0,0-.52.125,9.844,9.844,0,0,0-1.532.641,10.024,10.024,0,0,1-.946.485,3.221,3.221,0,0,1-.785.219c-.2.024-.392.007-.579.034C376.382,166.423,376.305,166.756,376.037,166.952Z" transform="translate(-348.648 -155.283)"/><path class="d" d="M463.453,203.814a6.338,6.338,0,0,1-3.59-.842,5.242,5.242,0,0,1-.6-.392l5.388.449.218.018S465.856,203.62,463.453,203.814Z" transform="translate(-424.273 -189.496)"/><g class="g" transform="translate(25.36 11.269)"><path d="M376.035,210.663a.379.379,0,0,0-.114-.333c0,.009-.018.017-.024.026-.084.116.029.237.1.357A.183.183,0,0,0,376.035,210.663Z" transform="translate(-375.494 -207.875)"/><path d="M379.051,197.8a.86.86,0,0,0,.016.36.86.86,0,0,0-.016-.36Z" transform="translate(-378.043 -196.431)"/><path d="M388.6,182.559a2.64,2.64,0,0,1-.859.472,8.588,8.588,0,0,1-1.57.241,3.58,3.58,0,0,0-1.419.355.957.957,0,0,0-.332.425.829.829,0,0,1-.392.412,1.485,1.485,0,0,1-.916.1.732.732,0,0,1-.357-.2,1.7,1.7,0,0,1-.369-.71,1.194,1.194,0,0,0-.553-.68,2.466,2.466,0,0,0-1.448-.245,1.457,1.457,0,0,0-.785.336,1.222,1.222,0,0,0-.294.478,15.743,15.743,0,0,1-.863,1.754.141.141,0,0,1-.065.066.528.528,0,0,1-.2.037c-.439.025-.861-.11-1.3-.1-.543.017-.942.25-1.477.288a3.473,3.473,0,0,1-.981-.1,1.468,1.468,0,0,1-.359-.113c-.093.059-.12.133-.073.2a.848.848,0,0,0,.432.173,3.474,3.474,0,0,0,.981.1c.536-.038.934-.27,1.477-.288.441-.014.863.121,1.3.1a.529.529,0,0,0,.2-.037.141.141,0,0,0,.065-.066,15.707,15.707,0,0,0,.863-1.754,1.221,1.221,0,0,1,.294-.478,1.457,1.457,0,0,1,.785-.336,2.469,2.469,0,0,1,1.448.245,1.2,1.2,0,0,1,.553.68,1.732,1.732,0,0,0,.369.71.733.733,0,0,0,.357.2,1.491,1.491,0,0,0,.916-.1.83.83,0,0,0,.392-.412.957.957,0,0,1,.332-.425,3.613,3.613,0,0,1,1.419-.355,8.775,8.775,0,0,0,1.57-.241,2.641,2.641,0,0,0,.859-.471c.29-.223.561-.465.538-.723a.44.44,0,0,0-.024-.1,1.5,1.5,0,0,1-.514.559Z" transform="translate(-373.964 -182)"/></g><path class="d" d="M401.2,172.019a2.128,2.128,0,0,1,.873,1.287c-1.748-.433-3.392-.909-4.222-1.075a79.714,79.714,0,0,0-8.886-.218,4.766,4.766,0,0,1,.742-.473,8.394,8.394,0,0,1,1.619-.626,14.9,14.9,0,0,1,5.48-.388,9,9,0,0,1,4.4,1.492Z" transform="translate(-361.9 -160.426)"/><path class="d" d="M463.943,203.447a13.746,13.746,0,0,1-4.081-.475,5.242,5.242,0,0,1-.6-.392l5.388.449C465,203.136,465.095,203.29,463.943,203.447Z" transform="translate(-424.239 -189.788)"/><path class="h" d="M392.343,154.039s-5.15-.13-6.6,1.105l-.233,1.095-.392-.019-.078.745s7.871-.152,9.663.205,7.357,2.156,9.588,1.853-.2-.585-.2-.585-3.071-.575-3.071-1.025S400.263,154.58,392.343,154.039Z" transform="translate(-359.533 -145.45)"/><path class="d" d="M371.63,622.28s3.286,1.408,4.709,1.3C376.339,623.58,372.317,623.428,371.63,622.28Z" transform="translate(-344.909 -571.988)"/><path class="d" d="M368.13,629.81a1.088,1.088,0,0,0,1.079.654C369.994,630.392,368.13,629.81,368.13,629.81Z" transform="translate(-341.273 -578.862)"/><path class="d" d="M378.123,769.53s-4.666,1.6-3.879,1.647S378.123,769.53,378.123,769.53Z" transform="translate(-347.083 -706.065)"/><path class="j" d="M330.96,335.886l15.107-1.086v6.319l-14.354-.332Z" transform="translate(-300.835 -305.062)"/><path class="k" d="M330.96,335.886l15.107-1.086v6.319l-14.354-.332Z" transform="translate(-300.835 -305.062)"/><path class="j" d="M407.96,334.8l18.117.6-1,5.5-17.114.221Z" transform="translate(-371.543 -305.062)"/><path class="d" d="M407.96,334.8l18.117.6-1,5.5-17.114.221Z" transform="translate(-371.543 -305.062)"/><path class="j" d="M413.53,312.55l-5.57,1.928,18.117.6,2.961-1.974Z" transform="translate(-372.273 -284.827)"/><path class="j" d="M303.08,315.322l13.6-.732,6.977,1.752-15.107,1.086Z" transform="translate(-276.476 -286.683)"/><path class="j" d="M349.379,347.885v8.639L342.3,356.2l-3.078-.139-.938-.043-3.076-.14-4.25-.192V347.33l15.105.454Z" transform="translate(-301.477 -316.443)"/><path class="j" d="M439.645,341.71v8.425l-5.672.481-2.759.234-6.374.541v-8.639Z" transform="translate(-386.095 -311.317)"/><path class="k" d="M439.645,341.71v8.425l-5.672.481-2.759.234-6.374.541v-8.639Z" transform="translate(-386.095 -311.317)"/><path class="j" d="M303.08,349.148l5.47-1.818,18.419.555-2.711,2.018Z" transform="translate(-277.1 -316.522)"/><path class="l" d="M303.08,349.148l5.47-1.818,18.419.555-2.711,2.018Z" transform="translate(-277.1 -316.522)"/><path class="j" d="M439.645,341.71l-14.805,1.042,4.819,1.907,15.859-1.175Z" transform="translate(-387.572 -311.396)"/><path class="l" d="M439.645,341.71l-14.805,1.042,4.819,1.907,15.859-1.175Z" transform="translate(-387.572 -311.396)"/><path class="l" d="M460.089,424.924l-2.759.234v-1.8l2.584-.288Z" transform="translate(-412.661 -385.55)"/><path class="l" d="M376.158,435.96v1.191l-3.078-.139V435.96Z" transform="translate(-336.701 -397.309)"/><path class="l" d="M355.7,440.29v.634l-3.076-.14v-.494Z" transform="translate(-318.236 -401.262)"/><path class="d" d="M449.372,447.167c-2.109,1.192-9.074.368-9.074.368l-5.176-2.385-.7-.323,1.373-1.127s.392.057,1.048.158C440.31,444.393,451.148,446.164,449.372,447.167Z" transform="translate(-403.554 -409.206)"/><path class="c" d="M448.372,445.167c-2.109,1.192-9.074.368-9.074.368l-5.176-2.385-.7-.323,1.373-1.127s.392.057,1.048.158C439.31,442.393,450.148,444.164,448.372,445.167Z" transform="translate(-402.645 -407.384)"/><path class="d" d="M435.8,441.858a6.616,6.616,0,0,1-1.719,1.292l-.7-.323,1.373-1.127S435.148,441.757,435.8,441.858Z" transform="translate(-400.295 -407.416)"/><path class="e" d="M337.077,287.843s-5.15.867-5.2,3.294a18.014,18.014,0,0,0,.589,4.68s-1.471,3.619,2.7,4.659,8.044,1.907,8.044,1.907,6.661.477,7.479.628,3.661-1.8,3.22-2.124-6.506-1.127-7.226-1.668a8.446,8.446,0,0,0-2.494-.907s-1.809-.545-1.882-1,.461-.78.612-.975a19.862,19.862,0,0,0,.7-2.1S346.544,287.471,337.077,287.843Z" transform="translate(-311.324 -267.067)"/><path class="d" d="M343.933,380.7s-6.965.347-6.426,1.43A24.106,24.106,0,0,1,343.933,380.7Z" transform="translate(-314.279 -351.824)"/><path class="d" d="M356.793,385.7s-3.953,1.278-3.227,1.365S356.793,385.7,356.793,385.7Z" transform="translate(-328.327 -356.381)"/><path class="d" d="M376.57,391.7s-1.128.9-.49.849S376.57,391.7,376.57,391.7Z" transform="translate(-348.185 -361.854)"/><path class="j" d="M721.734,167.375s-7.456-.2-6.584,2.112c0,0-.175.408.663.594,0,0,.014-.173.765-.114a7.729,7.729,0,0,0,.81.017,3.087,3.087,0,0,0,.993-.181h0a4.56,4.56,0,0,0,2.914-1.9s.6-.331.589-.416l-1.26.238s.43.4.09.735c0,0-.039-.72-.282-.7-.049,0-.653.14-.653.14s.74.7.18,1.207c0,0,.212-.862-.412-1.157l-.887.229s.865.722.279,1.311c0,0,.151-.9-.465-1.256l-.8.276s.814.712.318,1.2c0,0-.065-1.052-.492-1.132a4.726,4.726,0,0,0-.808.387s.555.52.21.79c0,0-.212-.7-.392-.7,0,0-.7.465-.773.78a1.237,1.237,0,0,1,.6-.827,3.528,3.528,0,0,0-1.071.245s.108-.328,1.244-.357a4.775,4.775,0,0,1,.734-.374,10.215,10.215,0,0,0-1.815.093,3.994,3.994,0,0,1,2.023-.173l.785-.286a15.248,15.248,0,0,0-2.119.01,5.412,5.412,0,0,1,2.333-.075l.863-.228a17.278,17.278,0,0,0-2.023-.077,6.8,6.8,0,0,1,2.276.016l.618-.122s-.93-.081-1.2-.094-.286-.046-.286-.046a7.046,7.046,0,0,1,1.744.087S721.762,167.411,721.734,167.375Z" transform="translate(-655.826 -157.631)"/><path class="a" d="M837.194,300.715s-7.456-.2-6.584,2.112c0,0-.175.408.663.594,0,0,.014-.173.767-.114a7.721,7.721,0,0,0,.81.017,3.075,3.075,0,0,0,.981-.18h0a4.565,4.565,0,0,0,2.916-1.9s.6-.33.579-.415l-1.26.237s.43.4.092.735c0,0-.041-.72-.283-.7-.049,0-.655.14-.655.14s.742.7.182,1.207c0,0,.212-.862-.414-1.157l-.877.226s.865.722.279,1.311c0,0,.151-.9-.465-1.256l-.8.277s.812.712.318,1.2c0,0-.065-1.052-.492-1.132a4.8,4.8,0,0,0-.81.387s.557.52.212.79c0,0-.212-.7-.392-.7,0,0-.7.465-.773.78a1.244,1.244,0,0,1,.6-.827,3.548,3.548,0,0,0-1.073.245s.11-.329,1.246-.357a4.353,4.353,0,0,1,.734-.374,10.211,10.211,0,0,0-1.815.093,3.966,3.966,0,0,1,2.021-.169l.785-.286a15.253,15.253,0,0,0-2.119.01,5.413,5.413,0,0,1,2.333-.075l.863-.228a17.531,17.531,0,0,0-2.025-.077,6.812,6.812,0,0,1,2.278.016l.618-.122s-.93-.081-1.2-.094-.286-.046-.286-.046a7.06,7.06,0,0,1,1.746.087S837.218,300.751,837.194,300.715Z" transform="translate(-760.242 -278.917)"/><path class="a" d="M612.762,242.762s1.717-3.215-3.589-3.226a2.51,2.51,0,0,0-1.436.187s.379.036.122.353a.9.9,0,0,0-.177.347.454.454,0,0,0,.233.462h0s.5.979,3.728,1.593a3.876,3.876,0,0,0,.828.322l-.314-.589a4.917,4.917,0,0,1-1.656-.087,8.328,8.328,0,0,0,1.617,0c0-.022-.2-.309-.2-.309a8.141,8.141,0,0,1-2.725-.127,9.926,9.926,0,0,0,2.653.018l-.353-.426a8.572,8.572,0,0,1-2.974-.1,12.419,12.419,0,0,0,2.882.012l-.481-.4a8.438,8.438,0,0,1-2.733-.067,13.345,13.345,0,0,0,2.609-.021,3.734,3.734,0,0,0-.724-.419,5.589,5.589,0,0,1-1.8-.042,12.176,12.176,0,0,0,1.636-.048,7.621,7.621,0,0,0-1.615-.471,6.446,6.446,0,0,1,1.744.4.682.682,0,0,0-.365-.509s.714.1.589.607a4.138,4.138,0,0,1,.708.383s.284-.485.1-.806c0,0,.589.316.033.909l.5.394s.455-.633.339-.924c0,0,.489.362-.232,1.028l.363.415a2.263,2.263,0,0,0,.516-.867s.288.38-.424.989l.169.289s.337-.391.412-.507.151-.117.151-.117a.974.974,0,0,1-.489.745S612.678,242.766,612.762,242.762Z" transform="translate(-558.3 -223.136)"/><path class="a" d="M515.639,280.956s-5.988-1.979-8.129.165c0,0-.653.3-.184.657,0,0,.224-.14.785.092a4.733,4.733,0,0,0,.655.211,3.58,3.58,0,0,0,1.054.087h0a11.278,11.278,0,0,0,4.8-.877,6.071,6.071,0,0,0,1-.206l-1.352-.1a1.15,1.15,0,0,1-.838.636s.861-.612.638-.656c-.045-.01-.72-.043-.72-.043A1.85,1.85,0,0,1,512,281.97s1.25-.668,1.095-1.067l-1.026-.024a1.8,1.8,0,0,1-1.4,1.164s1.25-.719,1.177-1.162l-1.016.036A1.693,1.693,0,0,1,509.6,282s1.254-.895,1-1.064a10.408,10.408,0,0,0-1.158.126,1.136,1.136,0,0,1-.806.711s.7-.637.555-.681a8.047,8.047,0,0,0-1.621.465,4.837,4.837,0,0,1,1.534-.544,4.642,4.642,0,0,0-1.2-.055,2.287,2.287,0,0,1,1.483,0,10.179,10.179,0,0,1,1.079-.134,7.71,7.71,0,0,0-1.632-.363,3.868,3.868,0,0,1,1.9.347l1.018-.046a9.936,9.936,0,0,0-1.781-.506,4.4,4.4,0,0,1,2.04.5l1,.02a9.924,9.924,0,0,0-1.593-.556,4.759,4.759,0,0,1,1.882.566l.669.048s-.677-.293-.889-.369-.182-.108-.182-.108a3.947,3.947,0,0,1,1.352.5S515.613,280.992,515.639,280.956Z" transform="translate(-468.147 -260.16)"/><path class="a" d="M617.249,68.842s-5.988-1.98-8.129.165c0,0-.653.3-.184.657,0,0,.224-.14.785.092a4.836,4.836,0,0,0,.657.211,3.576,3.576,0,0,0,1.054.087h0a11.272,11.272,0,0,0,4.8-.878,5.926,5.926,0,0,0,1-.206l-1.352-.1a1.145,1.145,0,0,1-.838.636s.863-.612.64-.656c-.045-.01-.72-.043-.72-.043a1.871,1.871,0,0,1-1.358,1.053s1.248-.668,1.095-1.067l-1.026-.024a1.806,1.806,0,0,1-1.4,1.163s1.25-.719,1.177-1.162l-1.014.036a1.7,1.7,0,0,1-1.23,1.08s1.256-.894,1-1.064a10.413,10.413,0,0,0-1.158.126,1.136,1.136,0,0,1-.806.711s.7-.637.555-.682a8.069,8.069,0,0,0-1.621.466,4.814,4.814,0,0,1,1.534-.544,4.61,4.61,0,0,0-1.2-.055,2.3,2.3,0,0,1,1.485,0,9.957,9.957,0,0,1,1.079-.134,7.745,7.745,0,0,0-1.632-.364,3.874,3.874,0,0,1,1.9.347l1.018-.046a9.935,9.935,0,0,0-1.781-.507,4.421,4.421,0,0,1,2.042.5l1,.019a9.843,9.843,0,0,0-1.6-.556,4.764,4.764,0,0,1,1.883.566l.667.048s-.679-.289-.891-.364-.182-.107-.182-.107a3.939,3.939,0,0,1,1.352.5S617.216,68.875,617.249,68.842Z" transform="translate(-560.134 -66.881)"/><path class="a" d="M736.243,83.512a6.528,6.528,0,0,0-6.908-1.9s-.922.087-.995.495a.508.508,0,0,1,.524.27,1.208,1.208,0,0,0,.269.339,1.714,1.714,0,0,0,.753.337h0a11.632,11.632,0,0,0,5.078.478,7.167,7.167,0,0,0,1.089.081l-.981-.426a3.722,3.722,0,0,1-1.507.314s1.5-.288,1.373-.381c-.026-.018-.538-.215-.538-.215a6.093,6.093,0,0,1-2.464.529,7.041,7.041,0,0,0,2.27-.607l-.812-.276a6.133,6.133,0,0,1-2.647.607,8.708,8.708,0,0,0,2.458-.663l-.883-.224a5.844,5.844,0,0,1-2.4.582s2.182-.422,2.188-.627A9.382,9.382,0,0,0,731,82.039a3.942,3.942,0,0,1-1.57.384,7.531,7.531,0,0,0,1.33-.423,11.806,11.806,0,0,0-1.933-.022,8.481,8.481,0,0,1,1.962-.065,2.527,2.527,0,0,0-.92-.347,1.7,1.7,0,0,1,1.218.375,9.808,9.808,0,0,1,1.059.159,2.319,2.319,0,0,0-.877-.708s.877.131,1.116.764l.9.217a2.562,2.562,0,0,0-.818-.867,1.446,1.446,0,0,1,1.034.927l.8.268a2.354,2.354,0,0,0-.6-.858,1.356,1.356,0,0,1,.824.939l.489.206s-.18-.411-.255-.527-.014-.124-.014-.124a.965.965,0,0,1,.477.747A8.584,8.584,0,0,0,736.243,83.512Z" transform="translate(-668.187 -79.044)"/><path class="a" d="M660.9,108.11s-7.436-.366-6.822,1.965c0,0-.222.4.589.607,0,0,.033-.173.785-.1a8.05,8.05,0,0,0,.808.036,3.242,3.242,0,0,0,1.01-.159h0a5.145,5.145,0,0,0,3.139-1.831s.64-.316.626-.4l-1.285.21s.392.41,0,.736c0,0,.041-.72-.2-.709-.049,0-.669.125-.669.125s.659.715.043,1.213c0,0,.31-.856-.281-1.165l-.912.208s.785.741.128,1.317c0,0,.255-.9-.32-1.265l-.834.26s.73.729.179,1.207c0,0,.057-1.052-.361-1.142a5.53,5.53,0,0,0-.854.368s.5.529.122.793c0,0-.131-.7-.3-.712,0,0-.753.448-.863.764a1.407,1.407,0,0,1,.7-.813,3.754,3.754,0,0,0-1.1.221s.145-.325,1.283-.328a4.64,4.64,0,0,1,.785-.357,10.33,10.33,0,0,0-1.825.052,4.083,4.083,0,0,1,2.038-.124l.826-.268a14.254,14.254,0,0,0-2.125-.047,5.439,5.439,0,0,1,2.339-.022l.889-.209a17.158,17.158,0,0,0-2.013-.122,6.761,6.761,0,0,1,2.272.067l.632-.108s-.92-.1-1.191-.12-.281-.052-.281-.052a6.971,6.971,0,0,1,1.734.125S660.918,108.146,660.9,108.11Z" transform="translate(-600.683 -103.487)"/><path class="a" d="M992.52,402.28s-7.432-.366-6.818,1.962c0,0-.222.4.589.607,0,0,.033-.173.785-.1a7.56,7.56,0,0,0,.808.036,3.214,3.214,0,0,0,1.01-.159h0a5.11,5.11,0,0,0,3.129-1.83s.64-.317.626-.4l-1.285.209s.392.411,0,.737c0,0,.041-.721-.2-.709-.049,0-.669.124-.669.124s.659.715.043,1.213c0,0,.31-.855-.281-1.165l-.912.209s.785.741.13,1.317c0,0,.253-.9-.322-1.265l-.834.26s.73.729.179,1.206c0,0,.057-1.052-.361-1.141a5.609,5.609,0,0,0-.854.367s.5.529.122.793c0,0-.131-.7-.3-.712,0,0-.753.448-.863.764a1.407,1.407,0,0,1,.7-.813,3.721,3.721,0,0,0-1.1.221s.145-.326,1.283-.329a4.653,4.653,0,0,1,.785-.356,10.293,10.293,0,0,0-1.825.051,4.1,4.1,0,0,1,2.04-.123l.824-.268a14.716,14.716,0,0,0-2.117-.038,5.445,5.445,0,0,1,2.339-.023l.889-.208a17.16,17.16,0,0,0-2.013-.122,6.761,6.761,0,0,1,2.272.067l.632-.109s-.92-.1-1.191-.12-.281-.052-.281-.052a6.947,6.947,0,0,1,1.734.124S992.54,402.317,992.52,402.28Z" transform="translate(-909.038 -371.459)"/><path class="a" d="M1050.43,437.661s-7.432-.365-6.818,1.962c0,0-.22.4.589.607,0,0,.033-.173.785-.1a7.735,7.735,0,0,0,.806.035,3.26,3.26,0,0,0,1.007-.158h0a5.105,5.105,0,0,0,3.127-1.831s.642-.316.626-.4l-1.285.209s.392.411,0,.737c0,0,.041-.72-.2-.709-.049,0-.669.124-.669.124s.659.715.043,1.213c0,0,.31-.855-.281-1.164l-.912.208s.785.741.13,1.317c0,0,.253-.9-.322-1.265l-.834.26s.73.729.181,1.207c0,0,.055-1.053-.363-1.142a5.608,5.608,0,0,0-.853.367s.5.529.122.793c0,0-.131-.7-.3-.712,0,0-.753.448-.861.764a1.407,1.407,0,0,1,.7-.813,3.755,3.755,0,0,0-1.1.221s.147-.326,1.285-.328a4.642,4.642,0,0,1,.785-.357,10.331,10.331,0,0,0-1.825.052,4.089,4.089,0,0,1,2.041-.124l.824-.268a14.708,14.708,0,0,0-2.117-.038,5.439,5.439,0,0,1,2.339-.022l.889-.209a17.159,17.159,0,0,0-2.013-.122,6.761,6.761,0,0,1,2.272.067l.632-.108s-.92-.1-1.189-.12-.282-.052-.282-.052a6.971,6.971,0,0,1,1.734.125S1050.45,437.7,1050.43,437.661Z" transform="translate(-955.587 -403.702)"/><path class="a" d="M915.189,131.1s-5.988-1.979-8.129.165c0,0-.653.3-.184.657,0,0,.224-.14.785.092a4.738,4.738,0,0,0,.655.211,3.584,3.584,0,0,0,1.054.087h0a11.289,11.289,0,0,0,4.8-.877,6.052,6.052,0,0,0,1-.206l-1.348-.107a1.15,1.15,0,0,1-.838.636s.861-.612.638-.656c-.045-.01-.718-.043-.718-.043a1.856,1.856,0,0,1-1.352,1.053s1.25-.668,1.095-1.067l-1.026-.024a1.8,1.8,0,0,1-1.4,1.164s1.252-.719,1.177-1.162l-1.016.036a1.667,1.667,0,0,1-1.228,1.079s1.256-.894,1-1.064a10.413,10.413,0,0,0-1.158.126,1.13,1.13,0,0,1-.8.711s.695-.637.553-.681a8.048,8.048,0,0,0-1.621.465,4.837,4.837,0,0,1,1.534-.544,4.641,4.641,0,0,0-1.2-.055,2.3,2.3,0,0,1,1.485,0,10.134,10.134,0,0,1,1.077-.134,7.709,7.709,0,0,0-1.632-.363,3.869,3.869,0,0,1,1.9.347l1.018-.046a9.884,9.884,0,0,0-1.781-.506,4.4,4.4,0,0,1,2.041.5l1.006.02a9.981,9.981,0,0,0-1.6-.556,4.751,4.751,0,0,1,1.882.566l.669.048s-.677-.293-.889-.369-.181-.1-.181-.1a3.945,3.945,0,0,1,1.35.5S915.163,131.132,915.189,131.1Z" transform="translate(-845.57 -123.74)"/><path class="a" d="M941.762,280.643s-2.064-3.175-6.706-2.035c0,0-.93.063-1.046.474a.471.471,0,0,1,.5.281,1.058,1.058,0,0,0,.235.347,1.537,1.537,0,0,0,.718.354h0a11.254,11.254,0,0,0,5.023.579,7.134,7.134,0,0,0,1.079.1l-.928-.446a3.913,3.913,0,0,1-1.536.284s1.523-.26,1.4-.353c-.024-.019-.514-.226-.514-.226a6.4,6.4,0,0,1-2.515.479,7.483,7.483,0,0,0,2.329-.558l-.785-.293a6.5,6.5,0,0,1-2.706.555,9.342,9.342,0,0,0,2.523-.614l-.859-.242a6.246,6.246,0,0,1-2.454.533,9.5,9.5,0,0,0,2.25-.582,8.979,8.979,0,0,0-1.1-.208,4.181,4.181,0,0,1-1.613.352,8.113,8.113,0,0,0,1.373-.4,11.8,11.8,0,0,0-1.929-.061,8.541,8.541,0,0,1,1.962-.025,2.311,2.311,0,0,0-.883-.364,1.6,1.6,0,0,1,1.177.4,9.357,9.357,0,0,1,1.042.18,2.049,2.049,0,0,0-.8-.725s.863.147,1.038.785l.875.235a2.251,2.251,0,0,0-.73-.879,1.3,1.3,0,0,1,.94.946l.785.283a2.112,2.112,0,0,0-.512-.867,1.211,1.211,0,0,1,.728.953l.467.217s-.137-.414-.2-.532,0-.134,0-.134a.873.873,0,0,1,.4.756A7.767,7.767,0,0,0,941.762,280.643Z" transform="translate(-867.517 -258.551)"/><path class="a" d="M704.481,369.819s-4.008-2.789-7.73-1.12c0,0-.852.173-.7.585a.725.725,0,0,1,.657.208,2.183,2.183,0,0,0,.443.3,2.536,2.536,0,0,0,.912.25h0a12.791,12.791,0,0,0,5.189-.069,7.5,7.5,0,0,0,1.1-.036l-1.177-.312a2.578,2.578,0,0,1-1.295.464s1.3-.433,1.124-.513c-.033-.016-.638-.153-.638-.153a4.205,4.205,0,0,1-2.109.772s1.7-.429,1.882-.826l-.94-.183a4.152,4.152,0,0,1-2.243.867s1.746-.476,2.031-.9l-.981-.125a3.944,3.944,0,0,1-2.015.816s1.891-.64,1.787-.839a10.79,10.79,0,0,0-1.177-.063,2.649,2.649,0,0,1-1.324.538s1.161-.487,1.065-.551a11.328,11.328,0,0,0-1.889.182,7.558,7.558,0,0,1,1.872-.269,3.581,3.581,0,0,0-1.077-.24,2.106,2.106,0,0,1,1.373.237,10.842,10.842,0,0,1,1.116.043,4.093,4.093,0,0,0-1.234-.6,2.45,2.45,0,0,1,1.5.625l.991.116a4.768,4.768,0,0,0-1.26-.752,2.5,2.5,0,0,1,1.5.791l.926.173a4.468,4.468,0,0,0-1.046-.77,2.44,2.44,0,0,1,1.3.824l.589.15s-.392-.381-.532-.485-.084-.129-.084-.129a1.762,1.762,0,0,1,.865.675S704.428,369.849,704.481,369.819Z" transform="translate(-639.123 -340.396)"/><path class="j" d="M838.935,204.66s-3.812-2.842-7.652-1.225c0,0-.863.165-.742.576a.7.7,0,0,1,.642.216,2.026,2.026,0,0,0,.422.307,2.424,2.424,0,0,0,.895.26h0a12.722,12.722,0,0,0,5.191,0,7.5,7.5,0,0,0,1.1-.021l-1.152-.328a2.727,2.727,0,0,1-1.326.446s1.328-.419,1.161-.5c-.035-.016-.628-.162-.628-.162a4.442,4.442,0,0,1-2.158.744s1.734-.406,1.936-.8l-.926-.192a4.4,4.4,0,0,1-2.3.837,6.3,6.3,0,0,0,2.093-.874l-.969-.139a4.233,4.233,0,0,1-2.072.789s1.935-.614,1.844-.814a10.608,10.608,0,0,0-1.177-.08,2.814,2.814,0,0,1-1.362.52s1.195-.47,1.1-.536a11.476,11.476,0,0,0-1.9.156,7.757,7.757,0,0,1,1.889-.243,3.458,3.458,0,0,0-1.061-.255,2.111,2.111,0,0,1,1.373.255,11.041,11.041,0,0,1,1.112.059,3.973,3.973,0,0,0-1.191-.612,2.317,2.317,0,0,1,1.45.645l.981.13a4.391,4.391,0,0,0-1.207-.77,2.345,2.345,0,0,1,1.448.811l.912.188a4.124,4.124,0,0,0-.981-.78,2.282,2.282,0,0,1,1.248.842l.575.158s-.369-.386-.5-.492-.075-.13-.075-.13a1.631,1.631,0,0,1,.818.686A11.727,11.727,0,0,0,838.935,204.66Z" transform="translate(-760.864 -189.819)"/><path class="j" d="M724.55,261.393s.2-3.3-5-2.837a2.142,2.142,0,0,0-1.322.313s.392,0,.283.334a.683.683,0,0,0-.012.359.723.723,0,0,0,.441.433h0s.936.914,4.391,1.224a5.306,5.306,0,0,0,.959.242l-.589-.548a4.876,4.876,0,0,1-1.66.065,7.714,7.714,0,0,0,1.583-.148,3.937,3.937,0,0,0-.337-.285,7.975,7.975,0,0,1-2.725.12,9.579,9.579,0,0,0,2.6-.22l-.547-.384a8.3,8.3,0,0,1-2.959.166,11.989,11.989,0,0,0,2.827-.247l-.653-.347a8.083,8.083,0,0,1-2.706.18,12.62,12.62,0,0,0,2.551-.255,5.994,5.994,0,0,0-.9-.347,5.453,5.453,0,0,1-1.778.12,11.213,11.213,0,0,0,1.579-.193,9.782,9.782,0,0,0-1.8-.316,7.758,7.758,0,0,1,1.893.239,1.137,1.137,0,0,0-.589-.465s.747.037.85.537a6.218,6.218,0,0,1,.871.312,1.023,1.023,0,0,0-.271-.8s.722.256.451.887l.673.341s.153-.66-.092-.935a.691.691,0,0,1,.247,1.027l.543.374a1.593,1.593,0,0,0,.108-.9s.455.347.039,1.006l.3.269s.151-.413.171-.534.094-.128.094-.128a.7.7,0,0,1-.135.774S724.463,261.4,724.55,261.393Z" transform="translate(-658.518 -240.459)"/><ellipse class="a" cx="5.284" cy="0.394" rx="5.284" ry="0.394" transform="translate(62.886 63.227)"/><ellipse class="a" cx="5.284" cy="0.394" rx="5.284" ry="0.394" transform="translate(53.699 69.215)"/><ellipse class="a" cx="5.284" cy="0.394" rx="5.284" ry="0.394" transform="translate(12.987 66.147)"/><ellipse class="a" cx="5.284" cy="0.394" rx="5.284" ry="0.394" transform="translate(72.814 68.82)"/><ellipse class="j" cx="7.889" cy="0.589" rx="7.889" ry="0.589" transform="translate(57.489 63.622)"/><path class="j" d="M915.1,750.085a1.486,1.486,0,0,0,.751-.5c.1-.2-.094-.438-.524-.51a2.774,2.774,0,0,0-1.391.215,3.188,3.188,0,0,1-1.35.289c.535-.215.776-.537.636-.85a.347.347,0,0,0-.177-.173,1.755,1.755,0,0,0-1.075.028c-1.02.317-1.3.929-1.311,1.48-.1-.2-.016-.406-.018-.607s-.129-.433-.52-.539a4.444,4.444,0,0,0-2.068.075c-.392.184-.288.493.049.693a6.472,6.472,0,0,0,1.328.47,3.221,3.221,0,0,1,.95.4.378.378,0,0,1,.069.071h2.876A11.414,11.414,0,0,0,915.1,750.085Z" transform="translate(-846.453 -686.839)"/><path class="m" d="M170.29,776.291a23.947,23.947,0,0,0,3.924-.327c.912-.286,4.636-.627,4.862-.168s4.528,2.279,1.126,2.291a63.443,63.443,0,0,1-8.811-.478A1.742,1.742,0,0,1,170.29,776.291Z" transform="translate(-155.567 -711.582)"/><path class="n" d="M180.259,785.488a63.433,63.433,0,0,1-8.811-.478,1.633,1.633,0,0,1-1.058-1.16h-.1a1.747,1.747,0,0,0,1.1,1.317,63.506,63.506,0,0,0,8.811.478c.981,0,1.32-.158,1.3-.387C181.363,785.4,180.989,785.486,180.259,785.488Z" transform="translate(-155.567 -719.143)"/></g></svg>