<svg xmlns="http://www.w3.org/2000/svg" width="170" height="100" viewBox="0 0 170 100"><defs><style>.a{fill:#3f3d56;}.b{opacity:0.1;}.c{fill:#f2f2f2;}.d{fill:#2f2e41;}.e{fill:#00bfa6;}.f{fill:#ffb8b8;}.g{fill:#575a88;}</style></defs><g transform="translate(0 0)"><path class="a" d="M399.638,635.576c2.658,7.758-22.929,25.483-67.948,15.588-36.246-7.967-67.948-11.341-67.948-15.588s30.421.208,67.948.208S398.237,631.487,399.638,635.576Z" transform="translate(-246.625 -554.091)"/><path class="b" d="M399.638,635.576c2.658,7.758-22.929,25.483-67.948,15.588-36.246-7.967-67.948-11.341-67.948-15.588s30.421.208,67.948.208S398.237,631.487,399.638,635.576Z" transform="translate(-246.625 -554.091)"/><path class="a" d="M399.638,606.1c2.658,7.758-22.929,17.585-67.948,7.69-36.246-7.967-67.948-3.443-67.948-7.69s30.421-7.69,67.948-7.69S398.237,602.007,399.638,606.1Z" transform="translate(-246.625 -524.611)"/><ellipse class="b" cx="11.329" cy="1.245" rx="11.329" ry="1.245" transform="translate(96.574 84.36)"/><ellipse class="b" cx="11.329" cy="1.245" rx="11.329" ry="1.245" transform="translate(118.739 84.36)"/><ellipse class="b" cx="37.224" cy="3.736" rx="37.224" ry="3.736" transform="translate(47.735 75.317)"/><path class="a" d="M394,211.029V143.44H224v67.589h78.444v9.035c-3.918.337-6.556.967-6.556,1.688,0,1.077,5.87,1.95,13.112,1.95s13.112-.873,13.112-1.95c0-.722-2.638-1.351-6.556-1.688v-9.035Z" transform="translate(-224 -143.44)"/><rect class="c" width="136.404" height="61.781" transform="translate(16.798 2.415)"/><path class="b" d="M399.4,158.44s-56.666,4.805-66.988,23.364S263,220.08,263,220.08H399.4Z" transform="translate(-246.202 -155.954)"/><path class="d" d="M750.622,336.44v4.581H706.046v-4.3h-1.292v54.9h1.292V381.79h44.576v9.828h1.292V336.44Zm0,5.078v7.557H706.046v-7.557Zm-44.576,23.666v-7.557h44.576v7.557Zm44.576.5v7.557H706.046v-7.557Zm-44.576-8.551v-7.557h44.576v7.557Zm0,24.163v-7.557h44.576v7.557Z" transform="translate(-612.84 -306.053)"/><path class="e" d="M672.088,343.023v.687s-1.275.2-1.275.981a23.559,23.559,0,0,1-1.02,3.728,8.88,8.88,0,0,0,3.315.392,11.442,11.442,0,0,0,2.295-.491l.255-3.041-1.02-.785v-1.373Z" transform="translate(-570.698 -310.502)"/><path class="e" d="M777.828,178.44s-4.435.2-4.435.981-3.548,3.728-3.548,3.728a103.717,103.717,0,0,0,11.53.392c5.322-.2,7.982-.491,7.982-.491l.887-3.041-3.548-.785Z" transform="translate(-653.958 -172.64)"/><path class="f" d="M785.8,189.751v-1.864s-5.355-4.12-1.02-4.12a4.556,4.556,0,0,1,4.845,3.728v2.649Z" transform="translate(-659.051 -177.085)"/><path class="f" d="M677.073,336.378s-2.8-.589-3.315,0-2.04,1.864,0,1.962a12.739,12.739,0,0,0,4.08-.589Z" transform="translate(-572.758 -304.702)"/><path class="d" d="M714.187,357.549s-1.536.78.692,8.391.944,13.153,5.173,13.077c0,0-1.1,1.65,2.49,1.711s5.235.157,5.515-.224.718-2.145-.258-2.128c0,0,.061.5.468-1.514s-.747-11.526.728-12.806l5.767,4.537a5.849,5.849,0,0,0,1.356,3.111c1.1.984,3.423,6.711,3.423,6.711l-.219.882s7.869.36,8.133-.146a1.292,1.292,0,0,0-.182-1.5c-.356-.244-.356-.244.234-.757.529-.39.592-.848.173-1.257-.371-.37-1.358-8.5-1.358-8.5s-1.85-9.875-5.815-10.306S714.187,357.549,714.187,357.549Z" transform="translate(-614.837 -322.113)"/><path class="d" d="M723.444,495.659l-2.39,1.8s-4.135-.49-3.147.934c3.969.048,7.941-.045,11.867-.276,0,0,1.657.221,1.937-.16s-1.018-1.675-1.994-1.657S723.444,495.659,723.444,495.659Z" transform="translate(-610.698 -438.237)"/><path class="d" d="M772.537,487.841s-2.329,2.3-1.338,2.407,9.836.451,10.5.564,3.934.18,4.168-.577-1.748-.972-1.748-.972-3.609-.186-4.737-1.42S772.537,487.841,772.537,487.841Z" transform="translate(-652.718 -431.244)"/><ellipse class="f" cx="6.812" cy="2.62" rx="6.812" ry="2.62" transform="translate(104.966 12.264)"/><path class="f" d="M715.033,237.24s1.793,3.586,1.076,4.275,10.038-.276,10.038-.276-2.151-3.586-1.793-4.413S715.033,237.24,715.033,237.24Z" transform="translate(-607.599 -221.37)"/><path class="d" d="M712.619,213.612a9.874,9.874,0,0,0-1.7.029,7.352,7.352,0,0,0-1.211.306c-.649.2-1.342.375-2.07.528a7.577,7.577,0,0,0-1.611.434,1.716,1.716,0,0,0-.455.331,1.8,1.8,0,0,0-.542,2.159.71.71,0,0,0,.239.3,6.2,6.2,0,0,0,1.889.507,21.756,21.756,0,0,1,3.393,1.1,9.684,9.684,0,0,0,1.341.4,20.136,20.136,0,0,0,5.151.1,1.9,1.9,0,0,0,.658-.106c.174-.068.271-.159.268-.255l1.365-2.361a1.719,1.719,0,0,0,.35-1.074,3.078,3.078,0,0,0-2-1.774A19.294,19.294,0,0,0,712.619,213.612Z" transform="translate(-600.873 -201.964)"/><path class="g" d="M701.461,258.408s.51-1.373,3.57-1.471c1.731-.063,3.44-.194,5.1-.392a20.629,20.629,0,0,1,5.1.687s1.02.589,1.53.2.51-.589,1.53-.392,1.02-.589,2.8-.491,6.375,4.513,6.375,4.513l-1.53.687s-2.04,5.3,1.53,7.554,5.1,4.709,1.53,5.2-28.56,4.9-27.54,2.158.255-7.063-.765-7.161-6.63-7.848-6.63-7.848c.458-1,2.179-1.845,4.59-2.256C702.736,258.7,701.461,258.408,701.461,258.408Z" transform="translate(-600.195 -238.166)"/><path class="g" d="M753.86,223.392l1.275-.392a12.342,12.342,0,0,0,2.55-.2,18.164,18.164,0,0,1,2.55-.392c1.02-.2-.255-.491,1.02-.687s1.275,0,1.275-.491,3.315-.981,3.57-1.57a34.116,34.116,0,0,1,2.805-3.335l4.845.589-1.275,3.532s0,1.766-2.3,2.943-7.395,4.12-9.945,4.218S753.86,223.392,753.86,223.392Z" transform="translate(-641.172 -204.251)"/><path class="g" d="M688.518,284.412l-1.53.491s-.51,2.158-.51,2.256.51,1.275,0,1.373-1.53,2.06-1.275,2.158h0v.294l-3.57,2.158v2.06l8.415-2.06s4.845-.2,4.08-1.864S688.518,284.412,688.518,284.412Z" transform="translate(-581.962 -261.462)"/><ellipse class="e" cx="4.855" cy="1.868" rx="4.855" ry="1.868" transform="translate(80.089 64.342)"/></g></svg>