<svg xmlns="http://www.w3.org/2000/svg" width="194.449" height="130" viewBox="0 0 194.449 130"><defs><style>.a{fill:#f2f2f2;}.b{fill:#3f3d56;}.c,.d{fill:#00bfa6;}.d{opacity:0.1;}.e{fill:#a0616a;}.f{fill:#2f2e41;}.g{fill:#d0cde1;}.h{fill:#575a89;}</style></defs><path class="a" d="M587.3,133.391c-6.958-29.021-31-49.971-59.219-50.811-14.919-.444-30.618,4.8-42.047,23.17-20.432,32.831,1.256,55.519,16.376,66.3a96.782,96.782,0,0,1,19.556,18.644c10.213,12.855,29.861,28.83,53.261,3.8C592.189,176.352,591.938,152.722,587.3,133.391Z" transform="translate(-395.56 -82.554)"/><ellipse class="b" cx="26.075" cy="3.761" rx="26.075" ry="3.761" transform="translate(142.095 122.478)"/><rect class="b" width="180.262" height="71.142" transform="translate(0 13.037)"/><circle class="c" cx="0.977" cy="0.977" r="0.977" transform="translate(1.209 14.024)"/><circle class="c" cx="0.977" cy="0.977" r="0.977" transform="translate(3.707 14.024)"/><circle class="c" cx="0.977" cy="0.977" r="0.977" transform="translate(6.205 14.024)"/><circle class="a" cx="11.484" cy="11.484" r="11.484" transform="translate(13.826 22.07)"/><rect class="c" width="48.202" height="1.662" transform="translate(1.209 51.257)"/><rect class="a" width="48.202" height="1.662" transform="translate(1.209 68.061)"/><rect class="a" width="48.202" height="1.662" transform="translate(1.209 73.023)"/><rect class="a" width="48.202" height="1.662" transform="translate(1.209 77.984)"/><rect class="a" width="48.202" height="1.662" transform="translate(1.209 82.945)"/><rect class="a" width="48.202" height="1.662" transform="translate(1.209 87.906)"/><rect class="a" width="48.202" height="1.662" transform="translate(1.209 92.867)"/><rect class="c" width="76.912" height="0.302" transform="translate(62.848 26.593)"/><rect class="c" width="76.912" height="0.302" transform="translate(62.848 27.476)"/><rect class="c" width="76.912" height="0.302" transform="translate(62.848 28.034)"/><rect class="c" width="76.912" height="0.302" transform="translate(62.848 31.233)"/><rect class="c" width="76.912" height="0.302" transform="translate(62.848 34.432)"/><rect class="c" width="76.912" height="0.302" transform="translate(62.848 37.631)"/><rect class="c" width="76.912" height="0.302" transform="translate(62.848 40.829)"/><rect class="c" width="76.912" height="0.302" transform="translate(62.848 44.028)"/><rect class="c" width="76.912" height="0.302" transform="translate(62.848 47.227)"/><rect class="c" width="76.912" height="0.302" transform="translate(62.848 50.426)"/><rect class="c" width="76.912" height="0.302" transform="translate(62.848 53.625)"/><rect class="c" width="5.138" height="1.209" transform="translate(61.986 49.167)"/><rect class="c" width="5.138" height="1.209" transform="translate(70.796 46.126)"/><rect class="c" width="5.138" height="1.209" transform="translate(79.605 39.726)"/><rect class="c" width="5.138" height="1.209" transform="translate(88.415 42.766)"/><rect class="c" width="5.138" height="1.209" transform="translate(97.224 36.526)"/><rect class="c" width="5.138" height="1.209" transform="translate(106.034 42.766)"/><rect class="c" width="5.138" height="1.209" transform="translate(114.843 33.326)"/><rect class="c" width="5.138" height="1.209" transform="translate(123.652 27.086)"/><rect class="c" width="5.138" height="1.209" transform="translate(132.462 30.286)"/><path class="d" d="M416.341,159.973v12.164h-3.173V156.649H408.03v15.488h-3.173v-9.6h-5.137v9.6H388.235v-6.573H383.1v6.573h-8.386v2.947h-3.1v-6.5h-5.137v6.5h-8.311v3.022h-8.311v3.324h71.623V159.973Z" transform="translate(-285.788 -128.552)"/><path class="a" d="M445.548,446.124a2.1,2.1,0,0,0-.137-.524.238.238,0,0,0-.121-.149.249.249,0,0,0-.12,0l-.615.094a.235.235,0,0,0-.14.055c-.08.084,0,.22,0,.336a.316.316,0,0,1-.245.272.924.924,0,0,1-.389,0l-.86-.133a1.419,1.419,0,0,0,.65-.434c.113-.134.173-.384.01-.448a.4.4,0,0,0-.149-.012c-.39,0-.7-.322-1.061-.459a1.173,1.173,0,0,0-1.32.393l.458.022a.2.2,0,0,1,.122.033c.1.082-.024.241-.01.37.018.168.241.2.409.221s.381.153.3.3c-.844.291-1.7-.568-2.589-.462a5.259,5.259,0,0,0-.655.17c-1.338.339-2.721-.565-4.088-.373a5.2,5.2,0,0,0-.892.235,1.2,1.2,0,0,0-.515.269.413.413,0,0,0-.058.532,3,3,0,0,1-1.049-.1.588.588,0,0,1,.3.518,6.225,6.225,0,0,0-1.595.486,2.683,2.683,0,0,0,.33.44l-.7.448a.4.4,0,0,1,.22.581c.244-.109.4-.39.657-.447a.886.886,0,0,1,.508.1.793.793,0,0,0,.509.08c.168-.049.292-.267.185-.406a8.7,8.7,0,0,1,2.209-.345.277.277,0,0,1,.167.032c.1.068.072.214.066.332s.087.274.193.221c-.125.108-.018.311.1.425s.263.27.19.418c-.019.039-.051.069-.07.108-.054.115.032.249.133.325a1.137,1.137,0,0,1,.3.235c.071.106.039.29-.088.305l-.359-.455a.933.933,0,0,0-.242.459.963.963,0,0,1,.119,1.317,3.293,3.293,0,0,1-.6.456.819.819,0,0,0-.388.612,3.181,3.181,0,0,0,.128,1.238,19.083,19.083,0,0,0,1.036,2.16c.1.183.235.384.442.416q-.393-.958-.708-1.945a.446.446,0,0,1,.375.122.778.778,0,0,1,.073.328,1.016,1.016,0,0,0,.129.3l1.252,2.231a.923.923,0,0,0,.421.458,2.383,2.383,0,0,1,.39.108c.092.054.153.15.246.2.264.144.631-.132.877.04a2.482,2.482,0,0,1,.18.183c.228.2.6.065.864.212a1.021,1.021,0,0,1,.348.456,1.467,1.467,0,0,0,1.078.886,3,3,0,0,1,.457.016c.149.034.3.164.272.315-.041.259.087.542.053.8-.063.473-.733.681-.791,1.154a2.666,2.666,0,0,1-.018.312c-.03.124-.124.226-.157.349a.664.664,0,0,0,.289.625,1.688,1.688,0,0,1,.505.514,2.65,2.65,0,0,1,.089.759,1.817,1.817,0,0,0,1.048,1.231,1.1,1.1,0,0,1,.409.3,1.626,1.626,0,0,1,.157.643c.1.535.554.976.567,1.521a3.241,3.241,0,0,1-.335,1.1,2.575,2.575,0,0,0,.21,2.136,3.433,3.433,0,0,1,.279.492c.122.314.082.672.194.989.148.42.555.767.516,1.211a1.473,1.473,0,0,0,1,.686l.735.2a.944.944,0,0,0,.431.05.324.324,0,0,0,.276-.293,2.687,2.687,0,0,1-1.03-.387.916.916,0,0,1-.388-.963c.052-.163.163-.352.058-.486-.061-.077-.171-.1-.24-.168a.366.366,0,0,1,.007-.427,1.441,1.441,0,0,0,.218-.4.418.418,0,0,0-.2-.435,1.038,1.038,0,0,0,.364-.233.355.355,0,0,0,.065-.4.7.7,0,0,0,.634-.129.568.568,0,0,0,.063-.515,2.2,2.2,0,0,1-.127-.523,9.517,9.517,0,0,0,1.545-.052,1,1,0,0,0-.47-.588.816.816,0,0,0,.517-.541,1.394,1.394,0,0,0,.009-.7.374.374,0,0,1-.007-.183.356.356,0,0,1,.184-.178l1.153-.662a.673.673,0,0,0,.184-.136.548.548,0,0,0,.041-.532,2.674,2.674,0,0,1-.185-.526c-.071-.553.52-.949.72-1.469a2.212,2.212,0,0,0,.109-.644.765.765,0,0,0-.162-.657c-.172-.145-.442-.112-.622-.247-.165-.123-.222-.363-.4-.463-.164-.091-.37-.033-.552-.076-.321-.075-.524-.445-.852-.48-.185-.019-.395.071-.547-.037-.134-.1-.139-.286-.165-.448a1.252,1.252,0,0,0-1.01-1.014,1.413,1.413,0,0,1-.561-.124c-.164-.106-.24-.305-.369-.452a1.544,1.544,0,0,0-.843-.394l-1.25-.294c-.222-.052-.508-.08-.627.115a.9.9,0,0,0-.074.233.722.722,0,0,1-.679.511.8.8,0,0,0-.474-.366,2.952,2.952,0,0,1-.383-.091.538.538,0,0,1-.234-.747.67.67,0,0,0-.115-.806,1.088,1.088,0,0,0-.8-.218c-.075-.163.05-.347.185-.465s.3-.235.327-.411c.046-.278-.309-.489-.578-.406a1,1,0,0,0-.555.6,1.774,1.774,0,0,1-.224.429.439.439,0,0,1-.425.174c-.222-.057-.307-.32-.357-.544a3.535,3.535,0,0,1-.118-.911,1.191,1.191,0,0,1,.343-.829,1.8,1.8,0,0,1,1.432-.251.364.364,0,0,1,.037-.48.546.546,0,0,1,.495-.122.682.682,0,0,1,.383.229,3.607,3.607,0,0,1,.288.6c.107.2.347.363.544.258a.458.458,0,0,0,.155-.514,1.931,1.931,0,0,1-.117-.562c.029-.366.409-.587.744-.738s.719-.354.772-.717a.654.654,0,0,1,.04-.208.409.409,0,0,1,.15-.141,12.679,12.679,0,0,1,3.09-1.653c.058-.018.065,0,.124-.012.083-.048.028-.181-.052-.234s-.186-.094-.206-.188c-.015-.069.026-.136.036-.206a.257.257,0,0,0-.338-.261c-.09-.119.088-.257.231-.3a6.287,6.287,0,0,1,1.321-.216.238.238,0,0,1,.15.026.18.18,0,0,1,.012.245,1.43,1.43,0,0,1-.2.183.552.552,0,0,0-.143.555,1.258,1.258,0,0,0,.745.2c.258-.042.487-.332.366-.564-.113-.216-.453-.265-.511-.5-.068-.277.324-.523.235-.794-.039-.119-.157-.189-.248-.274a.745.745,0,0,1-.163-.826.94.94,0,0,1-.824-.258c-.2-.2-.354-.513-.634-.5-.257.008-.478.308-.718.216-.059-.023-.121-.068-.179-.041a.148.148,0,0,0-.067.111c-.061.292.044.624-.115.877-.173.274-.573.312-.783.56-.114.134-.158.315-.263.457s-.327.232-.453.108a.624.624,0,0,0-.169-.759,1.667,1.667,0,0,0-.374-.182,2.219,2.219,0,0,1-.418-.233.412.412,0,0,1-.153-.164.373.373,0,0,1,.01-.26,1.062,1.062,0,0,1,.845-.7c.167-.023.362-.015.473-.142.059-.067.089-.169.174-.2a.257.257,0,0,1,.161.02l.624.22a.438.438,0,0,0,.222.037.151.151,0,0,0,.13-.159c-.02-.1-.179-.153-.165-.258a.172.172,0,0,1,.052-.088,2.232,2.232,0,0,1,1.771-.7c.079.129-.046.283-.15.393s-.187.308-.062.393a.345.345,0,0,0,.166.037,1.448,1.448,0,0,1,.443.134q.324.141.635.308a.8.8,0,0,1,.016-.409.277.277,0,0,1,.328-.178c.124.048.188.212.32.227.176.02.246-.24.172-.4s-.22-.3-.232-.474c-.008-.12.037-.268-.058-.34a.26.26,0,0,0-.113-.039l-2.382-.438c-.141-.026-.346-.006-.352.138,0,.08.068.159.036.233s-.145.072-.226.1a.309.309,0,0,0-.177.325.9.9,0,0,0,.149.366C445.938,446.2,445.7,446.189,445.548,446.124Z" transform="translate(-363.061 -379.417)"/><path class="a" d="M503.089,441.184a.771.771,0,0,0-.847.254.17.17,0,0,0-.039.179c.047.08.167.049.255.02a.642.642,0,0,1,.4-.01c.083.029.157.079.241.106a.243.243,0,0,0,.247-.036.322.322,0,0,0,.061-.231.186.186,0,0,0-.047-.153.243.243,0,0,0-.109-.032.376.376,0,0,1-.221-.129" transform="translate(-422.24 -377.694)"/><path class="a" d="M511.667,439.948a.2.2,0,0,0-.19.276.8.8,0,0,0,.317.021.271.271,0,0,0,.222-.2.51.51,0,0,1-.361-.069" transform="translate(-429.884 -376.717)"/><path class="a" d="M525.887,436.263a3.649,3.649,0,0,0-.813.276.611.611,0,0,1,.39.614.32.32,0,0,0,0,.152c.03.072.116.1.192.118a1.268,1.268,0,0,0,.422.054.43.43,0,0,0,.35-.214,1.519,1.519,0,0,1,.073-.172c.182-.278.724.058.92-.21.069-.095.063-.237.153-.312a.343.343,0,0,1,.157-.06,11.01,11.01,0,0,1,1.191-.17c.19-.017.437-.085.438-.275a3.3,3.3,0,0,0-2.105.283c-.235.118-.545.365-.771.209-.085-.058-.081-.215-.2-.281A.594.594,0,0,0,525.887,436.263Z" transform="translate(-440.993 -373.437)"/><path class="a" d="M543.314,436.532l.335.064a.434.434,0,0,0-.452.471,3.573,3.573,0,0,0,.986.017c.33.014.715.25.659.576-.017.1-.074.2-.044.293a1.093,1.093,0,0,0,.113.176.394.394,0,0,1-.074.408c-.088.117-.206.21-.282.334a1.271,1.271,0,0,0,.031,1.053.928.928,0,0,0,.179.356.939.939,0,0,0,.691.2.611.611,0,0,0,.5-.145c.148-.182.044-.465.142-.678a.755.755,0,0,1,.519-.336,7.766,7.766,0,0,0,1.111-.363,3.884,3.884,0,0,1,1.335-.544,1.833,1.833,0,0,0,.405-.029.308.308,0,0,0,.245-.286c-.009-.116-.106-.2-.183-.288s-.137-.221-.066-.314l1.267-.237c-.09-.245-.16-.567.047-.727.074-.058.174-.081.238-.15a.307.307,0,0,0-.071-.423.814.814,0,0,0-.453-.137,12.164,12.164,0,0,0-1.672.015l-3.266.179a2.386,2.386,0,0,0-.673.068,3.109,3.109,0,0,1-.486.22A3.127,3.127,0,0,0,543.314,436.532Z" transform="translate(-455.805 -373.177)"/><path class="a" d="M579.134,454.8a.135.135,0,0,0-.1.022.123.123,0,0,0-.032.075.5.5,0,0,0,.072.356.348.348,0,0,0,.319.153c.151-.019.262-.148.4-.211.214-.1,1.122-.247.494-.587-.217-.117-.356-.014-.527.063A1.2,1.2,0,0,1,579.134,454.8Z" transform="translate(-485.445 -388.721)"/><path class="a" d="M611.766,437.953a.359.359,0,0,0-.175.152.153.153,0,0,0,.058.2.226.226,0,0,0,.085.014l.3.009c.127,0,.285.031.319.153.025.091-.031.207.037.272a.193.193,0,0,0,.1.04.691.691,0,0,0,.3.01c.217-.058.1-.191.171-.308.1-.18.086-.071.271-.175.136-.076.312-.215.2-.409C613.233,437.574,612.057,437.808,611.766,437.953Z" transform="translate(-512.245 -374.876)"/><path class="a" d="M641.293,437.843l-.173.023a6.98,6.98,0,0,0-1.159.222,1.927,1.927,0,0,0,.508.125,1.551,1.551,0,0,1,.284.04c.166.049.333.177.494.112.1-.041.132-.144.214-.2.057-.038.273-.1.3-.138C641.953,437.719,641.443,437.823,641.293,437.843Z" transform="translate(-535.609 -374.95)"/><path class="a" d="M648.514,441.915a3.242,3.242,0,0,0-.639.468.387.387,0,0,0-.157.283c.01.148.168.234.3.292l.553.234c.067-.095.006-.225-.064-.318s-.152-.2-.121-.312c.035-.128.191-.171.321-.193.213-.036.787-.033.718-.376C649.348,441.588,648.727,441.795,648.514,441.915Z" transform="translate(-541.997 -378.171)"/><path class="a" d="M651.621,567.967a.528.528,0,0,0,.033.465.472.472,0,0,0,.484.167.872.872,0,0,0,.449-.289,1.551,1.551,0,0,0,.259-.4,3.1,3.1,0,0,0,.191-.7l.172-.9c.038-.2.037-.82-.334-.618a5.269,5.269,0,0,0-.442.613,1.98,1.98,0,0,0-.317.706C651.991,567.349,651.737,567.629,651.621,567.967Z" transform="translate(-545.18 -480.078)"/><path class="a" d="M766.284,606.287a2.7,2.7,0,0,1-.352-.168,2.972,2.972,0,0,0-.178.973l.83-.47c.125-.071.266-.169.264-.312a.1.1,0,0,0-.046-.09.113.113,0,0,0-.058-.007,1.4,1.4,0,0,0-.351.113.428.428,0,0,1-.358,0" transform="translate(-639.166 -513.461)"/><path class="a" d="M788.427,607.344a1.811,1.811,0,0,0-.266.1,3.8,3.8,0,0,0-.491.409,1.947,1.947,0,0,1-.555.254.133.133,0,0,0,.031.2.387.387,0,0,0,.219.049,1.158,1.158,0,0,0,.59-.091,1.859,1.859,0,0,0,.278-.221,2.947,2.947,0,0,1,.7-.4.8.8,0,0,0,.244-.146c.154-.152.165-.386-.057-.437C788.938,607.017,788.6,607.289,788.427,607.344Z" transform="translate(-656.678 -514.217)"/><path class="a" d="M803.043,598.4a.692.692,0,0,0-.212-.567,1.081,1.081,0,0,1-.126.6c-.084.123-.215.206-.307.324a.315.315,0,0,0-.025.406.4.4,0,0,0,.239.082.721.721,0,0,0,.612-.115c.082-.084.122-.21.222-.272a.27.27,0,0,0,.1-.07c.041-.066-.024-.152-.1-.176s-.155-.013-.229-.035-.142-.106-.1-.173" transform="translate(-669.248 -506.626)"/><path class="a" d="M769.39,551.816a.963.963,0,0,1-.343.02,1.245,1.245,0,0,1-.493-.3,2.174,2.174,0,0,0-1.27-.444,7.38,7.38,0,0,1-1.251.026.493.493,0,0,0,.291.328c.136.067.287.1.424.165a1.012,1.012,0,0,1,.49.51,1.447,1.447,0,0,0,.139.3.7.7,0,0,0,.624.209,2.025,2.025,0,0,1,.886.006,2.271,2.271,0,0,1,.541.415.608.608,0,0,0,.63.147,1.04,1.04,0,0,1-.72-1c.2.018.773.011.743-.328C770.052,551.591,769.561,551.786,769.39,551.816Z" transform="translate(-639.28 -468.131)"/><path class="a" d="M740.861,564.485c.035-.194.229-.366.169-.553a.34.34,0,0,0-.329-.2c-.136,0-.27.037-.407.041a1.981,1.981,0,0,0-.266,0c-.271.045-.438.328-.693.429a4.192,4.192,0,0,1-.491.092c-.366.1-.6.443-.854.721a3.046,3.046,0,0,1-1.547.9,1.414,1.414,0,0,0-.6.214,1.209,1.209,0,0,0-.322.765,12.631,12.631,0,0,1-.615,2.258l.87.111a1.184,1.184,0,0,0,.5-.007,1.44,1.44,0,0,0,.326-.174,3.26,3.26,0,0,1,1.273-.459,1.353,1.353,0,0,1,.68.048.633.633,0,0,1,.415.506.535.535,0,0,1,.534.13.929.929,0,0,1,.255.509c.023.119.046.261.156.312.09.041.193,0,.292-.011.334-.027.612.363.941.3.353-.072.439-.6.783-.706.2-.061.475.013.569-.171.083-.162-.083-.349-.066-.53.021-.223.284-.318.487-.413a1.52,1.52,0,0,0,.693-1.965c-.2-.412-.6-.736-.669-1.188-.056-.348.081-.754-.141-1.028-.113-.139-.3-.216-.371-.382a1.893,1.893,0,0,1-.048-.334c-.023-.111-.119-.226-.228-.2-.317.083-.418,1.062-.588,1.3a.393.393,0,0,1-.706-.322Z" transform="translate(-613.482 -478.144)"/><path class="a" d="M733.24,557.438a.511.511,0,0,0-.33-.017c-.1.043-.164.2-.081.271a11.184,11.184,0,0,1,1.953.038,9.613,9.613,0,0,0,2.228.28,11.37,11.37,0,0,0-1.3-.3l-.732-.14a5.7,5.7,0,0,0-.594-.092A5.429,5.429,0,0,1,733.24,557.438Z" transform="translate(-611.918 -473.379)"/><path class="a" d="M736.276,540.133c-.054,0-.121-.008-.149.038s0,.1-.01.153c-.02.068-.109.085-.179.076a.343.343,0,0,0-.208,0,.177.177,0,0,0-.068.2.518.518,0,0,0,.12.192,1.956,1.956,0,0,0,.313.313c.224.165.527.245.668.485a.319.319,0,0,0,.089.12.247.247,0,0,0,.229-.023l.256-.117a.291.291,0,0,0,.119-.081.263.263,0,0,0-.026-.277.477.477,0,0,1-.1-.271c.019-.174.243-.241.335-.39s.032-.344.043-.521c.012-.206.142-.475-.067-.629-.177-.131-.347-.01-.474.135C736.9,539.844,736.769,540.175,736.276,540.133Z" transform="translate(-614.354 -458.455)"/><path class="a" d="M748.425,522.6c.087.167.269.267.364.429s.091.4.2.575.346.268.41.468c.07.218-.089.482.038.673a.283.283,0,0,0,.414.038.3.3,0,0,0-.013-.424c-.075-.069-.183-.1-.246-.178a.375.375,0,0,1-.064-.155,1.016,1.016,0,0,1,.016-.487.217.217,0,0,0,.012-.127c-.028-.082-.14-.088-.218-.126-.177-.086-.173-.337-.142-.532-.021.13-.483-.091-.532-.164-.1-.146-.044-.428-.063-.589A.459.459,0,0,0,748.425,522.6Z" transform="translate(-624.847 -444.16)"/><path class="a" d="M718.687,540.2c-.085-.1-.214-.2-.328-.138a.208.208,0,0,0-.077.256.565.565,0,0,0,.186.222,6.5,6.5,0,0,1,.7.6c.372.409.569.961.974,1.338a.546.546,0,0,0,.307.166.238.238,0,0,0,.264-.182.347.347,0,0,0-.123-.256c-.157-.171-.329-.328-.478-.507a.427.427,0,0,1-.122-.255c0-.1.087-.2.18-.173-.113-.029-.2-.218-.364-.253-.139-.03-.173.056-.338-.015C719.156,540.867,718.908,540.444,718.687,540.2Z" transform="translate(-600.031 -459.017)"/><path class="a" d="M756.847,484.754a2.628,2.628,0,0,1-.267-.1c-.234-.07-.545.1-.513.345.021.161.171.27.254.41a.911.911,0,0,1,.026.7.549.549,0,0,1-.089.2.677.677,0,0,1-.21.151,2.811,2.811,0,0,0-.822.7.2.2,0,0,0-.05.094c-.011.082.071.142.118.21.1.152.029.356.039.54a.153.153,0,0,0,.064.134c.062.032.136-.022.17-.083.112-.2.028-.529.238-.628.04-.019.088-.026.115-.061.042-.056,0-.138.023-.2.032-.1.168-.1.273-.1a1.55,1.55,0,0,0,.532-.071.354.354,0,0,0,.176-.1.383.383,0,0,0,.045-.29,3.929,3.929,0,0,0-.464-1.417.845.845,0,0,0,.546-.052c.089-.054.2-.215.152-.325C757.13,484.637,757,484.783,756.847,484.754Z" transform="translate(-630.423 -413.399)"/><path class="a" d="M585.525,495.2a.712.712,0,0,1,.005.358.245.245,0,0,1-.277.175c-.09-.027-.141-.117-.205-.186-.354-.382-1.153-.161-1.371-.634-.089-.193-.029-.424-.089-.628a.559.559,0,0,0-.566-.384,1.164,1.164,0,0,0-.326.1,8.213,8.213,0,0,1-2.158.54,1.772,1.772,0,0,0-.415.075,1.313,1.313,0,0,0-.66.68,5.253,5.253,0,0,1-.455.854,3.794,3.794,0,0,1-.772.66.787.787,0,0,0-.255.267.835.835,0,0,0-.051.4l.056,1.636a1.478,1.478,0,0,0,.11.617,4.044,4.044,0,0,0,.511.6,1.169,1.169,0,0,1,.243.747c0,.108-.014.236.07.3a.308.308,0,0,0,.172.05l2.213.181a1.525,1.525,0,0,1,1.075.381c.12.14.216.341.4.356a1.472,1.472,0,0,0,.234-.032.576.576,0,0,1,.484.3,1.337,1.337,0,0,1,.215.858c-.018.19-.077.374-.09.564-.048.723.565,1.352.577,2.077a2.59,2.59,0,0,1-.393,1.2c.318.482.058,1.125.184,1.689.12.535.567.954.678,1.491.051.246.054.548.271.675a.618.618,0,0,0,.306.061,4.036,4.036,0,0,0,1.838-.419.961.961,0,0,0,.593-.627c.038-.238-.083-.505.04-.713.145-.245.516-.225.73-.414.346-.305.076-.887.216-1.327.126-.4.56-.605.775-.96a1.7,1.7,0,0,0,.18-.488,6.957,6.957,0,0,0,.183-1.245,7.478,7.478,0,0,1,.056-.763c.232-1.441,1.656-2.405,2.119-3.789.044-.132.065-.308-.053-.383a.336.336,0,0,0-.224-.023l-1.02.129a.7.7,0,0,1-.377-.022.242.242,0,0,1-.138-.312c.173-.314-.183-.71-.341-1.032a15.235,15.235,0,0,0-1.517-2.46.25.25,0,0,1-.067-.144l.29.01a1.187,1.187,0,0,0-.6-.863,1.493,1.493,0,0,0-.609-.036,8.909,8.909,0,0,1-1.8-.146Z" transform="translate(-484.178 -420.477)"/><path class="a" d="M596.7,442.561a.988.988,0,0,0,.548.364c.392.05.675-.356.854-.708a.346.346,0,0,0,.361.32.713.713,0,0,0,.271-.106,5.349,5.349,0,0,1,2.534-.655.274.274,0,0,1,.209-.3c.18-.036.343.12.429.282a1.553,1.553,0,0,0,.279.47c.138.121.405.116.46-.06s-.123-.312-.269-.411-.3-.283-.2-.429a13.086,13.086,0,0,1,2.255-.363.944.944,0,0,0,.38-.065.3.3,0,0,0,.177-.312.859.859,0,0,1-.9-.338,5.628,5.628,0,0,1,3.118.336c.112.241-.46.442-.307.66a.278.278,0,0,0,.232.079,11.5,11.5,0,0,0,1.949-.074,2.6,2.6,0,0,1,.709-.057c.393.048.73.311,1.117.4a.6.6,0,0,0,.467-.056.3.3,0,0,0,.081-.419,1.414,1.414,0,0,1,1.45-.1,5.76,5.76,0,0,0,1.445.485c.365.027.734-.071,1.095-.008a6.842,6.842,0,0,1,.659.2,5.033,5.033,0,0,0,1.3.1,9.082,9.082,0,0,1,3.237.643.964.964,0,0,1,.36.213.354.354,0,0,1,.08.387l-1.065-.156c.1.2.36.231.571.3s.429.3.3.483c-.228-.073-.435.156-.551.366s-.256.462-.5.474c-.214.011-.474-.171-.613-.008a4.186,4.186,0,0,1,.493.788.915.915,0,0,1,.05.909.235.235,0,0,1-.126.1c-.152.039-.251-.148-.361-.261a1.311,1.311,0,0,0-.532-.249c-.187-.067-.383-.2-.4-.4a.79.79,0,0,1,.1-.351,1.351,1.351,0,0,0,.1-.606.688.688,0,0,0-.177-.457.354.354,0,0,0-.455-.047c-.06.05-.108.129-.186.132-.138.005-.243-.235-.354-.153a.375.375,0,0,1-.051.252c-.33.287-.838.166-1.264.267a2.367,2.367,0,0,0-.577.252.371.371,0,0,0-.165.138.255.255,0,0,0,.1.3.788.788,0,0,0,.327.112,3.216,3.216,0,0,1,1.456.584,1.429,1.429,0,0,1,.549,1.4l-1.024-.978q.058.616.066,1.236a.555.555,0,0,1-.032.238c-.073.161-.271.216-.444.251a.348.348,0,0,0-.267.446,1.452,1.452,0,0,0,.356.513.986.986,0,0,1,.3.542c.018.209-.139.445-.349.43a.46.46,0,0,1-.344-.3,1.888,1.888,0,0,0-.21-.427c-.308-.37-1-.212-1.276-.607a.624.624,0,0,0-.129.594.327.327,0,0,1,.4.111,2.738,2.738,0,0,1,.218.4c.1.177.265.334.279.538a1.763,1.763,0,0,0,0,.231.938.938,0,0,0,.2.316.905.905,0,0,1,.052.843,2.6,2.6,0,0,1-.5.721,8.692,8.692,0,0,1-1.082,1.09,1.136,1.136,0,0,0-.307.309.335.335,0,0,0,.035.4c-.078,0-.219.042-.3.046a6.913,6.913,0,0,1-.018-.943c-.309-.148-.641.249-.6.589a2.467,2.467,0,0,0,.461.907,1.072,1.072,0,0,1,.18.713.524.524,0,0,1-.512.452c-.4-.035-.563-.6-.955-.669a.16.16,0,0,0-.1.01c-.058.032-.068.11-.072.176a2.19,2.19,0,0,0,.1.966c.186.44.667.809.566,1.276a1.99,1.99,0,0,1-.954-1.448,10.119,10.119,0,0,0-.38-1.754c-.175.224-.542.039-.7-.2s-.244-.48-.391-.706a.867.867,0,0,0-.641-.44,1.145,1.145,0,0,0-.741.363,1.729,1.729,0,0,0-.462.514,2.32,2.32,0,0,0-.118,1,1.522,1.522,0,0,1-.334,1.017.738.738,0,0,1-.982.119,1.107,1.107,0,0,1-.274-.494,24.165,24.165,0,0,1-.743-2.652c-.046.2-.226.469-.4.348a.355.355,0,0,1-.092-.118,2.648,2.648,0,0,0-1.514-1.064c-.6-.2-1.231-.286-1.824-.5a4.62,4.62,0,0,1-.946-.471.744.744,0,0,0-.046.761.606.606,0,0,0,.684.286c.132-.042.243-.133.374-.179a.291.291,0,0,1,.363.1c.055.12-.028.266.013.392.062.192.351.206.452.381a.35.35,0,0,1-.094.407,1.694,1.694,0,0,1-.382.235,7.566,7.566,0,0,0-1.1.954,1.326,1.326,0,0,1-1.339.342c.105-.534-.531-.927-.648-1.459-.038-.175-.018-.361-.074-.532a1.734,1.734,0,0,0-.479-.6,2.372,2.372,0,0,1-.651-1.725,2.417,2.417,0,0,0,0-.658.493.493,0,0,0-.448-.412c-.5.022-1.135.06-1.4-.369a.4.4,0,0,1,0-.494.478.478,0,0,1,.364-.062l1.132.111a1.25,1.25,0,0,0,.778-.091c.227-.138.326-.506.115-.668-.154-.119-.429-.113-.474-.3-.037-.158.137-.336.043-.468-.068-.094-.219-.068-.311,0a2,2,0,0,1-.262.228.8.8,0,0,1-.591-.056c-.194-.061-.455-.066-.549.115-.105.2.093.466-.011.668-.138.267-.607.115-.8.345-.223.264.152.657.077.995a.619.619,0,0,1-.61-.034.593.593,0,0,1-.256-.552c.019-.152.1-.306.045-.45a.527.527,0,0,0-.267-.245l-1.1-.608a.5.5,0,0,0,.188.567,1.959,1.959,0,0,1,.47.437.573.573,0,0,1-.216.756.133.133,0,0,1-.109.019.152.152,0,0,1-.071-.1,2.342,2.342,0,0,0-.951-1.246,1.128,1.128,0,0,0-1.44.231c-.073.1-.121.222-.184.332a1.919,1.919,0,0,1-1.728.841.343.343,0,0,1-.188-.044c-.109-.075-.1-.234-.087-.365l.071-.556a.441.441,0,0,1,.123-.3c.125-.1.3-.036.463-.039a.587.587,0,0,0,.533-.411.661.661,0,0,0-.184-.658c-.073-.068-.17-.154-.132-.246a.2.2,0,0,1,.143-.1c.285-.083.586-.1.866-.2a.9.9,0,0,0,.618-.587c.02-.089.03-.2.109-.24a.327.327,0,0,1,.126-.026.614.614,0,0,0,.527-.64.4.4,0,0,1,.453.075,1.273,1.273,0,0,0,.4.275c.295.08.579-.181.885-.182a1.141,1.141,0,0,0,.382,0c.122-.044.2-.166.29-.256s.259-.145.346-.048l-.074-.547a1.077,1.077,0,0,0,.876-.158l-.955-.323a.208.208,0,0,1-.089-.048c-.069-.075,0-.191.056-.276.135-.2.158-.538-.064-.64a.546.546,0,0,0-.471.1l-.7.389c-.022.133.14.208.24.3a.4.4,0,0,1-.263.7.5.5,0,0,1,.09.426l-.469.034a.2.2,0,0,1-.152-.03c-.05-.044-.043-.123-.055-.189a.409.409,0,0,0-.344-.3,1.208,1.208,0,0,0-.48.044.286.286,0,0,1-.207,0,.206.206,0,0,1-.082-.1.53.53,0,0,1,.107-.508,2.825,2.825,0,0,1,.4-.368,2.33,2.33,0,0,0,.693-1.075c.258-.108.526-.255.784-.363a2.4,2.4,0,0,1,1.289-.25l.875.017a2.1,2.1,0,0,1,.764.11.713.713,0,0,1,.466.571.175.175,0,0,1-.056.16.207.207,0,0,1-.111.025C597.047,442.493,596.944,442.553,596.7,442.561Z" transform="translate(-492.773 -376.345)"/><path class="a" d="M588.847,469.353a.256.256,0,0,0,.07-.257.479.479,0,0,0-.5.094.834.834,0,0,0-.133.176.783.783,0,0,0-.15.621.177.177,0,0,0,.081.11.213.213,0,0,0,.094.015,3.155,3.155,0,0,0,.379-.023c.077-.009.167-.031.2-.1.039-.094-.056-.2-.028-.3a.327.327,0,0,1,.081-.116.153.153,0,0,0,.048-.128c-.011-.046-.082-.072-.107-.032" transform="translate(-492.976 -400.658)"/><path class="a" d="M594,465.569a1.06,1.06,0,0,0-.343-.022.15.15,0,0,0-.073.017.122.122,0,0,0-.045.065.324.324,0,0,0,.189.4.409.409,0,0,1,.117.047c.1.075.035.229.054.351.021.136.153.251.128.387-.019.107-.133.192-.115.3s.161.146.275.155a.346.346,0,0,0,.2-.022.3.3,0,0,0,.123-.178,1.144,1.144,0,0,0,.057-.43.41.41,0,0,0-.048-.19,1.069,1.069,0,0,0-.113-.13C594.181,466.062,594.409,465.685,594,465.569Z" transform="translate(-497.413 -397.74)"/><circle class="c" cx="0.729" cy="0.729" r="0.729" transform="translate(75.975 68.851)"/><circle class="c" cx="0.729" cy="0.729" r="0.729" transform="translate(82.952 85.366)"/><circle class="c" cx="0.729" cy="0.729" r="0.729" transform="translate(112.54 68.744)"/><circle class="c" cx="0.729" cy="0.729" r="0.729" transform="translate(126.122 88.03)"/><circle class="c" cx="0.729" cy="0.729" r="0.729" transform="translate(100.902 79.826)"/><path class="c" d="M184.915,282.58c0,3.228-1.917,4.355-4.283,4.357l-.164,0q-.165,0-.326-.015c-2.136-.15-3.8-1.334-3.8-4.336,0-3.106,3.967-7.028,4.264-7.318h0l.017-.017S184.914,279.353,184.915,282.58Z" transform="translate(-155.291 -240.965)"/><path class="b" d="M192.465,286.443l1.566-2.191-1.57,2.431,0,.251q-.165,0-.326-.015l.167-3.229v-.025l0,0,.016-.305-1.576-2.436,1.581,2.207,0,.065.126-2.44-1.35-2.517,1.366,2.088.13-5.058v0l-.02,3.989,1.341-1.582-1.347,1.925-.034,2.184,1.253-2.1-1.258,2.418-.019,1.215,1.818-2.919-1.825,3.343Z" transform="translate(-167.28 -240.965)"/><path class="e" d="M948.388,307.616a39.377,39.377,0,0,1,.5,4.847c-.167.334.5,2.173,3.176,1.672s3.677-4.012,3.677-4.012-2.173-2.841-1.839-3.677Z" transform="translate(-793.181 -266.693)"/><path class="e" d="M893.5,649.228v5.516l3.51,1.17-.669-7.522Z" transform="translate(-738.817 -532.85)"/><path class="e" d="M969,654.893l-.5,6.853,3.009-1.839v-5.516Z" transform="translate(-795.901 -537.847)"/><path class="f" d="M913.756,507.946s-2.173,3.844-1.5,5.014a4.073,4.073,0,0,1,.669,1.671s.334,9.026,2.674,13.372c0,0-.5,8.525.5,13.706l1,5.181,3.844-.5.334-5.516s.669-6.519,0-9.527,1.839-13.037,1.839-13.037l4.346,14.542a55.4,55.4,0,0,0,1,8.859c.836,3.51,1.17,5.516,1.17,5.516l3.677.167s1.17-10.865,0-16.213c0,0-.5-16.38,0-17.383s-.5-4.179-1.5-4.847S913.756,507.946,913.756,507.946Z" transform="translate(-757.37 -429.678)"/><path class="f" d="M916.108,756.949s-.167-1-1-1h-.836l-.167,1.337-3.009,3.009s-4.847,3.677-.669,3.844,5.182-1.672,5.182-1.672a35.015,35.015,0,0,0,3.844-1.337c0-.167-1-4.346-1-4.346l-.546.124-.457,1.213Z" transform="translate(-756.371 -636.226)"/><path class="f" d="M1018.369,760.465s-1.839-.669-1.839,0v.669s-.669-.5-.669,0-1,.836-1,.836l-.167-.836s-1,4.012-.5,4.346,2.173,1.17,2.34,1.672.5,2.34,4.012,1.672,1.337-2.674,1.337-2.674l-1.839-1.839Z" transform="translate(-842.26 -639.742)"/><circle class="e" cx="4.68" cy="4.68" r="4.68" transform="translate(153.172 32.944)"/><path class="g" d="M926.993,329.462s-1.821-.51-2.247-1.425-3.77.757-3.77.757l-1.17,14.709-.418,12.954s8.441,3.259,11.115,2.257a34.964,34.964,0,0,1,5.85-1.5l.5-25.072-.836-4.68s-3.939-1.648-4.728-1.493C931.292,325.964,930.336,329.63,926.993,329.462Z" transform="translate(-763.42 -282.027)"/><path class="h" d="M913.643,330.445s-.8.752-1.131.752-5.683.334-6.185,2.507.836,8.524.836,8.524.167,6.519,1,8.692a4.562,4.562,0,0,1,.084,3.594s-1.086,5.6-.084,6.1,3,1.271,3,1.271a8.688,8.688,0,0,0,1.85-7.121c-.836-4.179-2.006-10.2-1.337-12.2S913.643,330.445,913.643,330.445Z" transform="translate(-754.47 -285.763)"/><path class="e" d="M890.888,467.949l1.17,2.173s5.516,6.185,6.519,2.674-4.011-4.346-4.011-4.346l-1.5-1.5Z" transform="translate(-741.842 -398.724)"/><path class="h" d="M988.2,323.946s6.307.836,7.978,2.507.334,9.527.334,9.527-2.006,12.035-1.839,12.7.167,6.352.167,6.352-2.173,2.34-4.011,1.672-4.179-5.516-1.839-11.366a11.263,11.263,0,0,0,.418-6.813,48.885,48.885,0,0,1-1.209-14.582Z" transform="translate(-820.573 -280.384)"/><path class="e" d="M1000.487,464.946l-1.672,1.5s-9.527.334-7.02,2.841,8.524,0,8.524,0l2.173-2.34-2.173-2.006Z" transform="translate(-823.375 -397.129)"/><path class="f" d="M929.034,251.135l-.86-.344a5.869,5.869,0,0,1,4.3-1.808l-.7-.775a2.992,2.992,0,0,1,3.285,1.119,15.264,15.264,0,0,1,2.367,3.326h.921l-.385.847,1.346.847-1.381-.152a4.685,4.685,0,0,1-.131,2.193,11.623,11.623,0,0,1-1.564-2.152v.861s-.86-.775-.86-1.292l-.469.6-.235-.947-2.894.947.469-.775-1.8.258.7-.947a29.523,29.523,0,0,0-2.112,2.066,4.654,4.654,0,0,1-1.564,1.291S926.766,252.426,929.034,251.135Z" transform="translate(-774.698 -218.68)"/><path class="h" d="M873.381,345.946l-1.5.669s-6.017,8.023-6.519,9.695-1,5.516,3.844,11.533l3.009-1.5s-3.343-4.847-2.173-6.686,3.844-5.014,3.844-5.014Z" transform="translate(-720.539 -298.796)"/><path class="h" d="M1030.89,337.946l1,.167s12.536,9.193,11.533,12.7-8.023,11.032-8.023,11.032l-2.675-2.507s5.85-6.853,3.51-8.525a63.923,63.923,0,0,1-5.349-4.513Z" transform="translate(-856.285 -292.166)"/></svg>