<svg xmlns="http://www.w3.org/2000/svg" width="200" height="120" viewBox="0 0 200 120"><defs><style>.a{fill:#f2f2f2;}.b{fill:#00bfa6;}.c{fill:#3f3d56;}.d{opacity:0.1;}</style></defs><g transform="translate(0 0)"><circle class="a" cx="11.213" cy="11.213" r="11.213" transform="translate(32.635 83.657)"/><circle class="b" cx="11.213" cy="11.213" r="11.213" transform="translate(34.311 82.016)"/><rect class="c" width="138.729" height="0.379" transform="translate(41.966 82.041)"/><path class="c" d="M181.568,137.034h-49.24v-1.015H110v1.015H60.557a3.331,3.331,0,0,0-3.331,3.331v67.425a3.331,3.331,0,0,0,3.331,3.331H181.568a3.331,3.331,0,0,0,3.331-3.331V140.364a3.331,3.331,0,0,0-3.331-3.331Z" transform="translate(-52.152 -133.504)"/><rect class="b" width="118.741" height="66.982" transform="translate(9.54 9.416)"/><circle class="b" cx="1.218" cy="1.218" r="1.218" transform="translate(62.644 5.154)"/><path class="d" d="M135.189,116.736H50.406V49.754Z" transform="translate(-40.866 -40.338)"/><circle class="a" cx="11.414" cy="11.414" r="11.414" transform="translate(16.706 46.694)"/><rect class="c" width="11.092" height="2.318" transform="translate(89.152 44.087)"/><rect class="c" width="37.911" height="0.993" transform="translate(75.808 26.627)"/><rect class="c" width="37.911" height="0.993" transform="translate(75.808 29.673)"/><rect class="c" width="37.911" height="0.993" transform="translate(75.808 32.719)"/><rect class="c" width="37.911" height="0.993" transform="translate(75.808 35.766)"/><rect class="c" width="37.911" height="0.993" transform="translate(75.808 38.812)"/><rect class="a" width="4.635" height="4.635" transform="translate(107.774 10.775)"/><path class="c" d="M657.084,191.414h-5.629v-5.629h5.629Zm-5.384-.245h5.139V186.03H651.7Z" transform="translate(-542.649 -173.851)"/><path class="c" d="M166.5,515.674H154.907v-.835a.166.166,0,0,0-.166-.166h-3.973a.166.166,0,0,0-.166.166v.835H148.12v-.835a.166.166,0,0,0-.166-.166h-3.973a.166.166,0,0,0-.166.166v.835h-2.483v-.835a.166.166,0,0,0-.166-.166h-3.973a.166.166,0,0,0-.166.166v.835h-2.483v-.835a.166.166,0,0,0-.166-.166h-3.973a.166.166,0,0,0-.166.166v.835h-2.483v-.835a.166.166,0,0,0-.166-.166h-3.973a.166.166,0,0,0-.166.166v.835H120.97v-.835a.166.166,0,0,0-.166-.166h-3.973a.166.166,0,0,0-.166.166v.835h-2.483v-.835a.166.166,0,0,0-.166-.166H82.894a.166.166,0,0,0-.166.166v.835H80.245v-.835a.166.166,0,0,0-.166-.166H76.106a.166.166,0,0,0-.166.166v.835H73.457v-.835a.166.166,0,0,0-.166-.166H69.319a.166.166,0,0,0-.166.166v.835H66.67v-.835a.166.166,0,0,0-.166-.166H62.531a.166.166,0,0,0-.166.166v.835H59.882v-.835a.166.166,0,0,0-.166-.166H55.743a.166.166,0,0,0-.166.166v.835H53.095v-.835a.166.166,0,0,0-.166-.166H48.956a.166.166,0,0,0-.166.166v.835H46.307v-.835a.166.166,0,0,0-.166-.166H42.169a.166.166,0,0,0-.166.166v.835H34.388a3.973,3.973,0,0,0-3.973,3.973v1.8a3.973,3.973,0,0,0,3.973,3.973H166.5a3.973,3.973,0,0,0,3.973-3.973v-1.8a3.973,3.973,0,0,0-3.973-3.973Z" transform="translate(-30.415 -443.038)"/><path class="c" d="M131.97,354.04a14.384,14.384,0,1,1,14.384-14.384A14.384,14.384,0,0,1,131.97,354.04Zm0-28.389a14.005,14.005,0,1,0,14.005,14.005A14.005,14.005,0,0,0,131.97,325.651Z" transform="translate(-101.088 -288.503)"/><rect class="c" width="48.262" height="0.379" transform="translate(100.597 6.159)"/><rect class="c" width="138.729" height="0.379" transform="translate(61.271 102.209)"/><rect class="c" width="48.262" height="0.379" transform="translate(33.066 119.621)"/><rect class="b" width="5.98" height="5.98" transform="translate(82.092 101.371)"/><path class="c" d="M518.85,657.163h-6.435v-6.435h6.435Zm-6.155-.28h5.875v-5.875h-5.875Z" transform="translate(-427.995 -554.678)"/><rect class="b" width="5.98" height="5.98" transform="translate(139.287 3.59)"/><path class="c" d="M843.85,129.163h-6.435v-6.435h6.435Zm-6.155-.28h5.875v-5.875h-5.875Z" transform="translate(-696.073 -122.728)"/><rect class="b" width="5.98" height="5.98" transform="translate(188.707 101.371)"/><path class="c" d="M1125.845,657.163h-6.435v-6.435h6.435Zm-6.155-.28h5.875v-5.875h-5.875Z" transform="translate(-928.906 -554.678)"/><path class="c" d="M912.581,271.282h-.45V258.949a7.138,7.138,0,0,0-7.138-7.138H878.864a7.138,7.138,0,0,0-7.138,7.138v67.658a7.138,7.138,0,0,0,7.138,7.138h26.128a7.138,7.138,0,0,0,7.138-7.138V280.06h.45Z" transform="translate(-728.1 -231.262)"/><path class="b" d="M919.051,268.912v67.559a5.331,5.331,0,0,1-5.331,5.331H887.466a5.33,5.33,0,0,1-5.329-5.331v-67.56a5.33,5.33,0,0,1,5.329-5.33h3.186A2.532,2.532,0,0,0,893,267.07h14.969a2.532,2.532,0,0,0,2.345-3.488h3.41a5.331,5.331,0,0,1,5.331,5.33Z" transform="translate(-736.539 -239.024)"/><rect class="c" width="7.821" height="2.318" transform="translate(160.143 68.931)"/><rect class="c" width="26.731" height="0.993" transform="translate(150.688 51.48)"/><rect class="c" width="26.731" height="0.993" transform="translate(150.688 54.526)"/><rect class="c" width="26.731" height="0.993" transform="translate(150.688 57.572)"/><rect class="c" width="26.731" height="0.993" transform="translate(150.688 60.618)"/><rect class="c" width="26.731" height="0.993" transform="translate(150.688 63.664)"/><rect class="a" width="4.635" height="4.635" transform="translate(160.352 38.667)"/><path class="c" d="M969.474,340.032v5.629H975.1v-5.629Zm5.385,5.385h-5.14v-5.14h5.14Z" transform="translate(-807.348 -300.255)"/><path class="d" d="M919.051,485.655v7.215a5.331,5.331,0,0,1-5.331,5.331H887.466a5.33,5.33,0,0,1-5.329-5.331V456.492l22.119,17.475.379.3,4.115,3.25.384.3Z" transform="translate(-736.539 -396.307)"/><circle class="a" cx="8.303" cy="8.303" r="8.303" transform="translate(153.371 82.97)"/><path class="c" d="M280.052,636.2a16.466,16.466,0,1,1,16.466-16.466A16.466,16.466,0,0,1,280.052,636.2Zm0-32.553a16.087,16.087,0,1,0,16.087,16.087A16.087,16.087,0,0,0,280.052,603.651Z" transform="translate(-223.225 -516.204)"/><path class="c" d="M936,566.091a10.409,10.409,0,1,1,10.41-10.409A10.409,10.409,0,0,1,936,566.091Zm0-20.44a10.031,10.031,0,1,0,10.031,10.031A10.031,10.031,0,0,0,936,545.651Z" transform="translate(-771.766 -468.312)"/></g></svg>