<svg xmlns="http://www.w3.org/2000/svg" xmlns:xlink="http://www.w3.org/1999/xlink" width="313" height="205.82" viewBox="0 0 313 205.82"><defs><style>.a{fill:#eff1f7;}.b{fill:#3f3d56;}.c{fill:#2bd0d0;}.d{fill:#25233a;}.e{fill:url(#a);}.f{fill:url(#b);}.g{fill:url(#c);}.h,.i{opacity:0.31;}.h{fill:url(#d);}.i{fill:url(#e);}.j{fill:url(#f);}.k{fill:url(#g);}.l{fill:#503164;}.m{opacity:0.197;fill:url(#h);}.n{opacity:0.19;fill:url(#i);}.o{fill:url(#j);}.p{fill:url(#k);}.q{fill:url(#l);}.r{fill:url(#m);}.s{fill:url(#n);}.t{fill:url(#o);}.u{fill:#30c59b;}.v{fill:url(#p);}.w{fill:url(#q);}.x{fill:#fff;opacity:0.25;}.y{fill:url(#r);}.z{fill:url(#s);}.aa{fill:url(#t);}.ab{fill:#3a3054;}.ac{fill:#51466b;}.ad{fill:url(#u);}</style><linearGradient id="a" y1="0.5" x2="1" y2="0.5" gradientUnits="objectBoundingBox"><stop offset="0" stop-color="#183866"/><stop offset="1" stop-color="#1a7fc1"/></linearGradient><linearGradient id="b" x1="-0.001" y1="0.501" x2="1" y2="0.501" gradientUnits="objectBoundingBox"><stop offset="0"/><stop offset="0.99" stop-opacity="0"/></linearGradient><linearGradient id="c" x1="1.761" y1="-5.66" x2="3.104" y2="-5.346" xlink:href="#b"/><linearGradient id="d" x1="0.589" y1="-2.58" x2="0.523" y2="-2.773" xlink:href="#b"/><linearGradient id="e" x1="1.561" y1="-0.633" x2="0.081" y2="-0.761" xlink:href="#b"/><linearGradient id="f" x1="23.61" y1="-165.849" x2="21.626" y2="-166.475" xlink:href="#b"/><linearGradient id="g" x1="2.414" y1="-4.261" x2="1.331" y2="-4.122" xlink:href="#b"/><linearGradient id="h" x1="1.069" y1="0.225" x2="-0.358" y2="0.193" gradientUnits="objectBoundingBox"><stop offset="0"/><stop offset="1" stop-opacity="0"/></linearGradient><linearGradient id="i" x1="0.142" y1="-0.413" x2="1.142" y2="-0.413" xlink:href="#a"/><linearGradient id="j" x1="0.404" y1="0.395" x2="0.714" y2="0.68" xlink:href="#b"/><linearGradient id="k" x1="-0.125" y1="0.449" x2="0.937" y2="0.534" xlink:href="#b"/><linearGradient id="l" x1="0.537" y1="0.423" x2="0.437" y2="0.806" xlink:href="#b"/><linearGradient id="m" x1="1.909" y1="-3.332" x2="1.022" y2="-3.35" xlink:href="#b"/><linearGradient id="n" x1="1.686" y1="-1.263" x2="1.115" y2="-1.269" xlink:href="#b"/><linearGradient id="o" x1="0.57" y1="0.436" x2="0.281" y2="0.7" xlink:href="#b"/><linearGradient id="p" x1="0.581" y1="-14.736" x2="0.572" y2="-13.702" xlink:href="#b"/><linearGradient id="q" y1="0.5" x2="1" y2="0.5" gradientUnits="objectBoundingBox"><stop offset="0" stop-color="#ecc4d7"/><stop offset="0.42" stop-color="#efd4d1"/><stop offset="1" stop-color="#f2eac9"/></linearGradient><linearGradient id="r" x1="0.99" y1="-1.633" x2="1.99" y2="-1.633" xlink:href="#q"/><linearGradient id="s" x1="1.243" y1="-0.846" x2="2.243" y2="-0.846" xlink:href="#q"/><linearGradient id="t" x1="1.289" y1="1.004" x2="0.241" y2="1.531" gradientUnits="objectBoundingBox"><stop offset="0" stop-color="#362958" stop-opacity="0.502"/><stop offset="1" stop-color="#34313d" stop-opacity="0"/></linearGradient><linearGradient id="u" x1="39.909" y1="-342.252" x2="38.744" y2="-342.683" xlink:href="#b"/></defs><g transform="translate(0 0)"><path class="a" d="M291.957,39.376c-8.956-9.559-15.888-20.969-26.592-28.77-16.813-12.278-41.011-13.476-60.67-5.762S169.72,28.106,159.626,45.711c-5.31,9.263-9.481,19.367-17.261,26.936-6.577,6.395-15.222,10.475-23.419,14.919C105.731,94.711,93,103.345,84.452,115.191S72.077,142.6,77.544,155.948c3.686,9.009,11.112,16.177,18.719,22.666,8.952,7.63,18.573,14.775,29.677,19.321,13.9,5.656,29.333,6.872,44.467,7.448a608.726,608.726,0,0,0,80.415-2.273c21.876-2.068,44.414-5.6,62.717-17.029,25.639-16.006,38.858-45.333,41.834-74.091,1.211-11.5.9-23.455-3.828-34.127-11.318-25.527-41.854-19.556-59.588-38.487Z" transform="translate(-42.974 0)"/><path class="b" d="M164.957,202.143s-7.088-1.258-9.074,3.7,0,22.091,0,22.091l26.446,18.9Z" transform="translate(-88.813 -115.744)"/><path class="c" d="M237.178,372.435l-10.485,2.992a2.9,2.9,0,0,1-3.575-1.873,2.764,2.764,0,0,1,1.943-3.446l10.471-3a2.9,2.9,0,0,1,3.575,1.87A2.763,2.763,0,0,1,237.178,372.435Z" transform="translate(-127.776 -210.287)"/><ellipse class="d" cx="5" cy="4.5" rx="5" ry="4.5" transform="translate(104 163.91)"/><circle class="b" cx="2.5" cy="2.5" r="2.5" transform="translate(106 166.91)"/><ellipse class="d" cx="4.5" cy="5" rx="4.5" ry="5" transform="translate(85 158.91)"/><path class="e" d="M207.7,381.349A2.349,2.349,0,1,1,205.349,379a2.349,2.349,0,0,1,2.349,2.349Z" transform="translate(-116.317 -217.162)"/><circle class="d" cx="4.5" cy="4.5" r="4.5" transform="translate(84 165.91)"/><path class="b" d="M209.7,396.349A2.349,2.349,0,1,1,207.349,394,2.349,2.349,0,0,1,209.7,396.349Z" transform="translate(-117.463 -225.757)"/><path class="c" d="M224.949,377.767l-21.687-4.29a2.775,2.775,0,0,1-2.207-3.261,2.828,2.828,0,0,1,3.324-2.163l21.687,4.282a2.775,2.775,0,0,1,2.207,3.261A2.828,2.828,0,0,1,224.949,377.767Z" transform="translate(-115.171 -210.859)"/><path class="c" d="M226,310h5.978v25.194a2.988,2.988,0,1,1-5.975,0V310Z" transform="translate(-129.495 -177.626)"/><path class="c" d="M212.171,379.427l-10.478,3a2.9,2.9,0,0,1-3.576-1.874,2.766,2.766,0,0,1,1.942-3.448l10.478-2.991a2.9,2.9,0,0,1,3.573,1.871,2.766,2.766,0,0,1-1.939,3.442Z" transform="translate(-113.452 -214.298)"/><path class="f" d="M232.562,386.111l-1.334.235a5.5,5.5,0,0,1-1.228.073l.557-.1a4.4,4.4,0,0,0,1.071-.322Z" transform="translate(-131.787 -221.173)"/><path class="g" d="M248.394,368.878a2.952,2.952,0,0,1-.623,1.82L239,368.84a3.038,3.038,0,0,0,.469-1.051l5.4-1.675a2.648,2.648,0,0,1,2.1.247,2.866,2.866,0,0,1,1.316,1.729,3.049,3.049,0,0,1,.108.788Z" transform="translate(-136.944 -209.714)"/><path class="h" d="M225.094,336.665a2.467,2.467,0,0,1-.094-.675V311h2.538v26.932a.8.8,0,0,0,.024.4,3.959,3.959,0,0,0-1.215-.218,7.67,7.67,0,0,0-.886,0l.181-.043c.112-.017-.4-.893-.548-1.4Z" transform="translate(-128.922 -178.199)"/><path class="i" d="M226.025,382.466a2.848,2.848,0,0,1-1.354.34,3.017,3.017,0,0,1-.568-.055l-9.568-1.881-.8-.155a2.793,2.793,0,0,1-.911.451l-.474.135-9.832,2.846A2.851,2.851,0,0,1,199,382.283a2.473,2.473,0,0,0,3.084.171c1.2-.81,5.979-2.025,8.686-2.672a3.278,3.278,0,0,0,2.5-2.562A1.771,1.771,0,0,1,213.3,377a6.269,6.269,0,0,0,2.778,1.462,74.488,74.488,0,0,0,9.679,1.838,1.691,1.691,0,0,1,.267,2.166Z" transform="translate(-114.025 -216.016)"/><path class="j" d="M262.854,388a3.255,3.255,0,0,1-.854.854Q262.432,388.432,262.854,388Z" transform="translate(-150.123 -222.319)"/><path class="k" d="M211.8,368.52a2.912,2.912,0,0,0,.726,1.337c-.09.017-.181.039-.274.065l-9.083,2.63a2.823,2.823,0,0,1-2.154-3.051,2.858,2.858,0,0,1,2.8-2.5,3.051,3.051,0,0,1,.576.056Z" transform="translate(-115.171 -210.286)"/><path class="l" d="M220.61,75.995s-.118-8.884-7.291-8.118-6.623-2.176-9.688-1.853-6.623,3.325-5.6,7.032-2.7,4.536-5.151,7.349.576,5.114,4.7,7.864-.256,2.038,2.188,6.386,10.721-1.206,10.721-1.206Z" transform="translate(-110.014 -37.817)"/><path class="c" d="M119.419,338.568l5.009.17v-40.03s.252-10.351,10.014-11.39,98.3-13.863,98.3-13.863,3.509-.371,5.53,6.363,3.988,33.216,3.988,33.216l27.175,3.662s.717-46.779-9.1-49.361-138.148,10.573-138.148,10.573-9.518,49.684-2.769,60.659Z" transform="translate(-67.04 -152.988)"/><path class="m" d="M119.419,338.568l5.009.17v-40.03s.252-10.351,10.014-11.39,98.3-13.863,98.3-13.863,3.509-.371,5.53,6.363,3.988,33.216,3.988,33.216l27.175,3.662s.717-46.779-9.1-49.361-138.148,10.573-138.148,10.573-9.518,49.684-2.769,60.659Z" transform="translate(-67.04 -152.988)"/><path class="c" d="M62,262.08s2.453-13.56,19.7-17.114l121.777-13.939s11.955-.5,17.424,2.813,13.275,6.05,16.475,21.019,3.965,40.541,3.965,40.541l-3.028.47s-4.419-46.305-9.1-49.237S97.953,261.687,97.953,261.687s-8.78,1.746-9.545,14.746,0,41.252,0,41.252L62,307.033Z" transform="translate(-35.525 -132.36)"/><path class="n" d="M252.043,242.214a115.381,115.381,0,0,0-19.01-1.161c-4.774.185-9.516.84-14.25,1.492l-41.751,5.766a2.409,2.409,0,0,0-1.87.873c-.68,1.175.918,2.333,2.213,2.781,13.882,4.806,28.714,9.674,43,6.247,6.533-1.567,12.6-4.82,19.228-5.95s13.429-.09,20.041-1.155c6.216-1,12.134-3.847,18.435-3.875,1.932,0,3.921.246,5.754-.358s3.454-2.451,2.946-4.291c-5.915-.2-12.556-1.284-18.358-.112-5.743,1.158-10.63-.255-16.381-.255Z" transform="translate(-100.273 -138.09)"/><path class="c" d="M267,254.578l.243.9s7.208,4.344,7.163,4.484,29.9-6.935,29.9-6.935L305,251Z" transform="translate(-152.988 -143.82)"/><path class="o" d="M267,254.578l.243.9s7.208,4.344,7.163,4.484,29.9-6.935,29.9-6.935L305,251Z" transform="translate(-152.988 -143.82)"/><path class="c" d="M268,251.707,294.52,246l11.057,2.158-30.129,7.236Z" transform="translate(-153.561 -140.955)"/><path class="p" d="M268,251.707,294.52,246l11.057,2.158-30.129,7.236Z" transform="translate(-153.561 -140.955)"/><path class="c" d="M245.063,263.9l6.173.219s1.568.1,1.973-1.16-2.515-3.911-2.828-3.961-8.438,2.229-7.266,4.508l1.948.4Z" transform="translate(-139.236 -148.404)"/><path class="q" d="M245.063,263.9l6.173.219s1.568.1,1.973-1.16-2.515-3.911-2.828-3.961-8.438,2.229-7.266,4.508l1.948.4Z" transform="translate(-139.236 -148.404)"/><path class="c" d="M50.351,415.451l-3.014,9.256a24.032,24.032,0,0,1-16.175,0L29,415S39.9,418.655,50.351,415.451Z" transform="translate(-16.617 -237.79)"/><path class="r" d="M50.351,415.451l-3.014,9.256a24.032,24.032,0,0,1-16.175,0L29,415S39.9,418.655,50.351,415.451Z" transform="translate(-16.617 -237.79)"/><path class="c" d="M49.756,396l-.975,7.235-2.471,1.284c-10.525,3.168-21.528-.443-21.528-.443l-1.9-1.4L22,396Z" transform="translate(-12.606 -226.903)"/><path class="s" d="M49.756,396l-.975,7.235-2.471,1.284c-10.525,3.168-21.528-.443-21.528-.443l-1.9-1.4L22,396Z" transform="translate(-12.606 -226.903)"/><ellipse class="c" cx="14" cy="2.5" rx="14" ry="2.5" transform="translate(9 165.91)"/><ellipse class="t" cx="14" cy="2.5" rx="14" ry="2.5" transform="translate(9 165.91)"/><path class="c" d="M16.927,241.52a19.463,19.463,0,0,1-4-2.08c-2.369-1.922-2.969-5.23-3.711-8.2s-2.176-6.231-5.1-7.083a3.359,3.359,0,0,0-3.209.594A3.653,3.653,0,0,0,.1,228.133a20.05,20.05,0,0,0,1.275,3.4,15.747,15.747,0,0,1,.927,8.317c-.369,2.3-1.252,4.634-.685,6.889.962,3.828,5.752,6.072,5.884,10.016.091,2.662-2.086,5.125-1.593,7.744.364,1.938,2.137,3.45,2.233,5.42.107,2.233-1.991,4.123-1.889,6.356s2.317,3.726,3.764,5.482a9.161,9.161,0,0,1,2.061,5.207,13.553,13.553,0,0,0,.31,3.556,12.934,12.934,0,0,0,1.283,2.27,22.875,22.875,0,0,0,1.427,2.415,5.848,5.848,0,0,0,6.288,1.986c.448-2.968.056-6,.181-9,.245-5.811,2.43-11.668,1.032-17.309-.513-2.068-1.5-4.032-1.675-6.155a21.476,21.476,0,0,1,.7-5.644,45.485,45.485,0,0,0,.414-11.759c-.234-3.1-2.4-4.526-5.1-5.814Z" transform="translate(0 -128.349)"/><path class="c" d="M53.591,258.5c-.023,2.589.568,5.265-.261,7.723-.628,1.863-2.008,3.388-2.72,5.219-1.644,4.227.568,8.967.117,13.481a48.287,48.287,0,0,1-1.23,5.471,21.878,21.878,0,0,0-.363,7.039,1.781,1.781,0,0,0,1.42,1.854,22.179,22.179,0,0,0,4.3,1.159,11.375,11.375,0,0,1,1.471-7.938c2.252-3.685,6.628-6.169,7.443-10.4.551-2.866-.732-5.775-.641-8.692a9.346,9.346,0,0,1,1.914-5.358c1.059-1.378,2.493-2.444,3.479-3.873,2.368-3.444,1.63-8.048.926-12.167s-1.113-8.86,1.67-11.981c.881-.986,2.027-1.727,2.826-2.781a6.407,6.407,0,0,0-.739-8.071A8.123,8.123,0,0,0,65,227.426,5.918,5.918,0,0,0,62,229.458c-1.42,2.013-.852,4.763-.25,7.155.525,2.078.948,4.476.23,6.572-.537,1.559-1.9,2.4-3.053,3.49A16.612,16.612,0,0,0,53.591,258.5Z" transform="translate(-28.077 -130.068)"/><path class="u" d="M22.658,279.735c-.4,2.815-.979,5.653-1.1,8.477v.284a.75.75,0,0,1-.047.2,22.069,22.069,0,0,0-.37,7.046,2.693,2.693,0,0,0,.282,1.1c-.014.119-.031.235-.047.354a5.851,5.851,0,0,1-6.29-1.986,26.131,26.131,0,0,1-1.427-2.415,12.275,12.275,0,0,1-1.283-2.27,13.575,13.575,0,0,1-.31-3.556,9.161,9.161,0,0,0-2.062-5.208c-1.447-1.745-3.667-3.209-3.765-5.48s2-4.123,1.89-6.357c-.1-1.969-1.87-3.482-2.233-5.42-.494-2.62,1.692-5.083,1.593-7.745-.132-3.945-4.924-6.19-5.886-10.018-.564-2.256.316-4.589.685-6.89a15.746,15.746,0,0,0-.916-8.31A19.985,19.985,0,0,1,.1,228.136a3.661,3.661,0,0,1,.815-3.383,3.369,3.369,0,0,1,3.21-.593c2.928.851,4.357,4.127,5.1,7.095s1.343,6.275,3.712,8.2a19.053,19.053,0,0,0,4,2.08c2.707,1.288,4.873,2.716,5.1,5.786a46.147,46.147,0,0,1-.414,11.76,21.7,21.7,0,0,0-.7,5.645,28.281,28.281,0,0,0,1.506,5.528c.059.207.118.417.169.627a23.187,23.187,0,0,1,.056,8.854Z" transform="translate(0 -128.349)"/><path class="v" d="M49.307,383.113a3.326,3.326,0,0,1-.214-1.062,28.656,28.656,0,0,1,.272-6.852c.01-.066.022-.132.034-.2C49.326,377.71,49.558,380.442,49.307,383.113Z" transform="translate(-28.077 -214.87)"/><path class="u" d="M73.934,237.254c-.8,1.055-1.948,1.794-2.83,2.781-2.787,3.118-2.378,7.861-1.672,11.981s1.445,8.723-.927,12.168c-.986,1.418-2.423,2.495-3.484,3.873a9.337,9.337,0,0,0-1.917,5.358c-.091,2.917,1.195,5.826.643,8.692-.816,4.233-5.2,6.722-7.454,10.4a11.377,11.377,0,0,0-1.462,7.938,22.13,22.13,0,0,1-4.3-1.159,2.317,2.317,0,0,1-1-.6,1.071,1.071,0,0,1-.105-.147,2.661,2.661,0,0,1-.3-1.089,21.843,21.843,0,0,1,.378-7.039c.014-.068.031-.136.048-.2a43.282,43.282,0,0,0,1.183-5.268,17.013,17.013,0,0,0-.068-3.487,22.692,22.692,0,0,0-.065-8.826c-.051-.209-.111-.419-.171-.626.054-.181.117-.363.188-.541.714-1.831,2.1-3.356,2.724-5.219.828-2.458.239-5.134.262-7.723a16.641,16.641,0,0,1,5.307-11.839c1.157-1.085,2.52-1.93,3.057-3.49.72-2.1.284-4.493-.231-6.572-.606-2.393-1.18-5.143.251-7.155a5.88,5.88,0,0,1,3-2.033,8.149,8.149,0,0,1,8.22,1.758,6.4,6.4,0,0,1,.725,8.071Z" transform="translate(-28.077 -130.068)"/><path class="c" d="M197.741,144.916s-11.878,1.836-17.373,14.936-2.637,29.329-2.541,30.756,16.836,7.622,21.622,7.622,5.783-4.795,5.783-4.795l-8.456-3.6,25.693-2.967h4.613l-2.541,4.284s5.014.525,8.366.645,5.627-6.508,6-9.8-14.8-32.222-17.071-33.935S213.42,142.158,197.741,144.916Z" transform="translate(-101.419 -82.51)"/><path class="w" d="M237.54,85.466s2.149,1.208,1.956,5.118-1.4,9.792-2.627,11.316-5.5,2.121-5.5,2.121,2.333,5.541,4.069,6.971-1.745,6.7-5.131,4.97-7.31-6.07-7.31-6.07,2.823-5.229,1.869-7.981S220.265,89.5,223,86.863s8.62-6.42,14.543-1.4Z" transform="translate(-127.203 -47.558)"/><path class="x" d="M211.851,188.281,210,211.363l5.653,2.966,4.6-.8-5.734-7.047ZM241.6,187s7.647,17.967,4.257,24.34l-2.612-.5Z" transform="translate(-120.328 -107.149)"/><path class="y" d="M232.931,255.727s-2.889,2.466-1.6,4.384,2.829,1.863,4.113,1.006,3.805-2.893,6.809-1.959a13.2,13.2,0,0,1,3.734,1.529s1.582-.989,1.172-1.981a18.267,18.267,0,0,0-4.463-4.622c-.91-.416-4.69.863-4.69.863a6.819,6.819,0,0,0-5.075.781Z" transform="translate(-132.36 -145.539)"/><path class="z" d="M289.352,244.683s-2.726.324-3.415,2.117a7.264,7.264,0,0,1-.936,2.011s1.54.295,2.18-.54,1.306-.484,1.306-.484l-.191,1.071s4.184.631,6.074-.047a7.9,7.9,0,0,0,2.7-1.474l.74-1.811a9.354,9.354,0,0,0-3.131-1.495,25.668,25.668,0,0,0-5.328.652Z" transform="translate(-163.302 -139.809)"/><path class="d" d="M299.732,290s9.366,7.126,8.533,16.764-2.055,23.95-2.055,23.95-3.777,1.589-6.28,0-4.019-23.336-5.259-25.413-8.7-11.44-16.671-12.246Z" transform="translate(-159.291 -166.166)"/><path class="b" d="M219,300.868a25.215,25.215,0,0,0,12.41,5.552c7.951,1.327,11.656,2.434,14.086,9.226s4.76,21.409,5.523,23.043,4.006.8,4.006.8,1.834-2.09,1.834-13.713c0-16.2,1.134-19.525-2.952-23.6a20.864,20.864,0,0,0-7.8-5.18Z" transform="translate(-125.484 -170.177)"/><path class="d" d="M294,389.7l.777,6.062h1.455s9.372.507,9.666.288-.451-4.8-4-4.672-3.784-.864-3.784-.864Zm15.8-4.2,1.5,5.912,16.413-2.226s.578-3.883-4.622-3.5c-1.372.1-2.395,1.053-4.044,1.061A5.143,5.143,0,0,1,314.988,385Z" transform="translate(-168.459 -220.6)"/><path class="c" d="M376.541,149.115l-60.74,3.268a2.67,2.67,0,0,1-2.8-2.53V106.472a3.214,3.214,0,0,1,3.138-3.218L376.629,102a2.932,2.932,0,0,1,2.985,2.88v40.981A3.257,3.257,0,0,1,376.541,149.115Z" transform="translate(-179.345 -58.445)"/><path class="c" d="M384.541,149.115,323.8,152.384a2.671,2.671,0,0,1-2.8-2.534V106.472a3.208,3.208,0,0,1,3.135-3.218l60.5-1.254a2.932,2.932,0,0,1,2.98,2.877v40.983A3.256,3.256,0,0,1,384.541,149.115Z" transform="translate(-183.929 -58.445)"/><path class="aa" d="M384.541,149.115,323.8,152.384a2.671,2.671,0,0,1-2.8-2.534V106.472a3.208,3.208,0,0,1,3.135-3.218l60.5-1.254a2.932,2.932,0,0,1,2.98,2.877v40.983A3.256,3.256,0,0,1,384.541,149.115Z" transform="translate(-183.929 -58.445)"/><path class="ab" d="M400.972,206.939l-15.5,1.649s-4.72-.952-4.464-1.649,5.191-1.369,5.191-1.369v-28.1a4.777,4.777,0,0,0-2.472-1.417,8.913,8.913,0,0,0-1.05-.243,3.1,3.1,0,0,1-.88-.266c-1.059-.547.111-1.5,1.754-1.542a4.11,4.11,0,0,1,.77.045h11.919s4.513,1.27,4.731,7.606S400.972,206.939,400.972,206.939Z" transform="translate(-218.308 -99.7)"/><path class="ac" d="M388.259,207l-2.852,1.59s-4.649-.952-4.4-1.65,5.122-1.369,5.122-1.369v-28.1a6.377,6.377,0,0,0-2.435-1.417,12.232,12.232,0,0,0-1.9-.51c-1.043-.547.109-1.5,1.728-1.542,1.378.19,4.093,1.72,4.269,2.593S388.259,207,388.259,207Z" transform="translate(-218.308 -99.7)"/><path class="ad" d="M262.427,389c-.376.427-.551.585-.329.234A2.4,2.4,0,0,0,262.427,389Z" transform="translate(-150.123 -222.892)"/></g></svg>